%TF.GenerationSoftware,KiCad,Pcbnew,10.0.5*%
%TF.CreationDate,2026-08-27T15:25:44+05:30*%
%TF.ProjectId,Oizom__OPC_v1,4f697a6f-6d5f-45f4-9f50-435f76312e6b,rev?*%
%TF.SameCoordinates,Original*%
%TF.FileFunction,Copper,L2,Bot*%
%TF.FilePolarity,Positive*%
%FSLAX46Y46*%
G04 Gerber Fmt 4.6, Leading zero omitted, Abs format (unit mm)*
G04 Created by KiCad (PCBNEW 10.0.5) date 2026-08-27 15:25:44*
%MOMM*%
%LPD*%
G01*
G04 APERTURE LIST*
G04 Aperture macros list*
%AMRoundRect*
0 Rectangle with rounded corners*
0 $1 Rounding radius*
0 $2 $3 $4 $5 $6 $7 $8 $9 X,Y pos of 4 corners*
0 Add a 4 corners polygon primitive as box body*
4,1,4,$2,$3,$4,$5,$6,$7,$8,$9,$2,$3,0*
0 Add four circle primitives for the rounded corners*
1,1,$1+$1,$2,$3*
1,1,$1+$1,$4,$5*
1,1,$1+$1,$6,$7*
1,1,$1+$1,$8,$9*
0 Add four rect primitives between the rounded corners*
20,1,$1+$1,$2,$3,$4,$5,0*
20,1,$1+$1,$4,$5,$6,$7,0*
20,1,$1+$1,$6,$7,$8,$9,0*
20,1,$1+$1,$8,$9,$2,$3,0*%
G04 Aperture macros list end*
%TA.AperFunction,ComponentPad*%
%ADD10RoundRect,0.249200X0.600800X0.450800X-0.600800X0.450800X-0.600800X-0.450800X0.600800X-0.450800X0*%
%TD*%
%TA.AperFunction,ComponentPad*%
%ADD11O,1.700000X1.400000*%
%TD*%
%TA.AperFunction,ComponentPad*%
%ADD12R,1.700000X1.700000*%
%TD*%
%TA.AperFunction,ComponentPad*%
%ADD13C,1.700000*%
%TD*%
%TA.AperFunction,ComponentPad*%
%ADD14R,2.030000X1.730000*%
%TD*%
%TA.AperFunction,ComponentPad*%
%ADD15O,2.030000X1.730000*%
%TD*%
%TA.AperFunction,ComponentPad*%
%ADD16RoundRect,0.250000X0.600000X-0.600000X0.600000X0.600000X-0.600000X0.600000X-0.600000X-0.600000X0*%
%TD*%
%TA.AperFunction,ViaPad*%
%ADD17C,0.600000*%
%TD*%
%TA.AperFunction,ViaPad*%
%ADD18C,0.800000*%
%TD*%
%TA.AperFunction,Conductor*%
%ADD19C,0.250000*%
%TD*%
%TA.AperFunction,Conductor*%
%ADD20C,0.600000*%
%TD*%
G04 APERTURE END LIST*
D10*
%TO.P,D1,1,K_1*%
%TO.N,Net-(D1-K)*%
X-32817000Y16770000D03*
D11*
%TO.P,D1,2,A_2*%
%TO.N,Net-(D1-A)*%
X-37897000Y16770000D03*
%TD*%
D12*
%TO.P,J2,1,Pin_1_1*%
%TO.N,O{slash}L1*%
X-82945000Y47897000D03*
D13*
%TO.P,J2,2,Pin_2_2*%
%TO.N,O{slash}L2*%
X-82945000Y50437000D03*
%TD*%
D12*
%TO.P,J4,1,Pin_1_1*%
%TO.N,Net-(J4-Pin_1)*%
X-80109000Y76087000D03*
D13*
%TO.P,J4,2,Pin_2_2*%
%TO.N,Net-(J4-Pin_2)*%
X-80109000Y73547000D03*
%TD*%
D14*
%TO.P,LD1,1*%
%TO.N,GND*%
X-55500000Y73114000D03*
D15*
%TO.P,LD1,2*%
%TO.N,Net-(LD1-Pad2)*%
X-55500000Y75654000D03*
%TO.P,LD1,3*%
%TO.N,Net-(U5A-+)*%
X-55500000Y78194000D03*
%TD*%
D12*
%TO.P,J3,1,Pin_1_1*%
%TO.N,GND*%
X-84290000Y73542000D03*
D13*
%TO.P,J3,2,Pin_2_2*%
%TO.N,Net-(J3-Pin_2)*%
X-84290000Y76082000D03*
%TO.P,J3,3,Pin_3_3*%
%TO.N,+3V3*%
X-84290000Y78622000D03*
%TD*%
D16*
%TO.P,J1,1,Pin_1_1*%
%TO.N,+5V*%
X-65226000Y47955141D03*
D13*
%TO.P,J1,2,Pin_2_2*%
%TO.N,RX*%
X-65226000Y50495141D03*
%TO.P,J1,3,Pin_3_3*%
%TO.N,I2C3_SCL*%
X-67766000Y47955141D03*
%TO.P,J1,4,Pin_4_4*%
%TO.N,TX*%
X-67766000Y50495141D03*
%TO.P,J1,5,Pin_5_5*%
%TO.N,I2C3_SDA*%
X-70306000Y47955141D03*
%TO.P,J1,6,Pin_6_6*%
%TO.N,SB_LED*%
X-70306000Y50495141D03*
%TO.P,J1,7,Pin_7_7*%
%TO.N,RESET*%
X-72846000Y47955141D03*
%TO.P,J1,8,Pin_8_8*%
%TO.N,SWDIO*%
X-72846000Y50495141D03*
%TO.P,J1,9,Pin_9_9*%
%TO.N,GND*%
X-75386000Y47955141D03*
%TO.P,J1,10,Pin_10_10*%
%TO.N,SWCLK*%
X-75386000Y50495141D03*
%TD*%
D17*
%TO.N,GND*%
X-46981000Y48753000D03*
%TO.N,GNDA*%
X-58901000Y43626000D03*
X-58345000Y45134000D03*
X-54930000Y42841000D03*
X-51888000Y39437000D03*
X-51913000Y42780000D03*
%TO.N,GND*%
X-67770000Y77470000D03*
X-66345000Y78919000D03*
%TO.N,Net-(LD1-Pad2)*%
X-64438500Y72563500D03*
D18*
%TO.N,+3V3*%
X-71871092Y37089000D03*
X-53658745Y35364000D03*
X-71506793Y78759207D03*
X-57596092Y40964000D03*
X-64466000Y55044000D03*
X-79062000Y54545141D03*
X-61295000Y68528000D03*
X-58731000Y55145141D03*
D17*
%TO.N,GND*%
X-58322000Y60620000D03*
X-74701000Y61331000D03*
X-74235000Y52832000D03*
X-72926000Y60725000D03*
D18*
X-64728791Y53238141D03*
D17*
X-81077000Y71354000D03*
X-65171000Y63845000D03*
X-85679000Y54232000D03*
X-54029000Y70312000D03*
X-59698000Y89984000D03*
X-78437000Y52699000D03*
X-72787000Y52041000D03*
X-59491000Y63993000D03*
X-47096000Y64170000D03*
X-83745000Y63762000D03*
X-51559000Y47187000D03*
X-67162000Y81456000D03*
X-65984000Y59299000D03*
X-80247000Y80107000D03*
X-69666000Y74432000D03*
X-55522000Y57394000D03*
X-57554000Y52134000D03*
X-32043000Y85938000D03*
X-48856000Y60798000D03*
X-86333000Y48902000D03*
X-80830000Y85654000D03*
X-75360000Y34520000D03*
X-80927000Y56269000D03*
X-74641000Y39523000D03*
X-22746000Y85936000D03*
X-81007000Y49353000D03*
X-84351000Y42458000D03*
X-76786000Y59917000D03*
X-70020000Y83109000D03*
X-70310782Y57473878D03*
X-75938000Y86236000D03*
X-77556000Y44572000D03*
X-75857000Y82837000D03*
X-59526000Y47752000D03*
X-83378000Y82787000D03*
X-61312000Y60645000D03*
X-80977000Y52875000D03*
X-58090000Y81436000D03*
X-90568000Y42520000D03*
X-75355000Y35559000D03*
X-69861000Y85166000D03*
X-18685000Y84720000D03*
X-34065000Y85872000D03*
X-66875000Y84319000D03*
X-80740000Y43615000D03*
X-78066000Y72980000D03*
X-70755000Y53635000D03*
X-83416000Y57099000D03*
%TO.N,MCU_Reset*%
X-74865000Y57089000D03*
X-74878711Y55692711D03*
%TO.N,LDPDO1*%
X-73320628Y54846628D03*
X-75453000Y77184000D03*
%TO.N,GNDA*%
X-67842092Y38090859D03*
X-66480092Y43959859D03*
X-59079092Y38034859D03*
X-55417000Y38317000D03*
X-71029092Y44409859D03*
X-66988000Y42125000D03*
X-63118000Y42056000D03*
X-61009092Y36121859D03*
X-64280000Y45002000D03*
X-63853092Y39184859D03*
X-58961092Y40974859D03*
X-63483092Y38628859D03*
X-70712092Y38301859D03*
X-71684000Y41515000D03*
X-56347092Y36205859D03*
%TO.N,O{slash}L2*%
X-70524092Y40002859D03*
X-63226092Y40002859D03*
%TO.N,O{slash}L1*%
X-70562092Y42082859D03*
X-68822160Y42083607D03*
%TO.N,I{slash}LD*%
X-74990000Y69913000D03*
X-73684879Y58345141D03*
%TO.N,Net-(LD1-Pad2)*%
X-67808946Y76145732D03*
%TO.N,I2C3_SCL*%
X-68298000Y52586141D03*
X-62246000Y51528141D03*
%TO.N,SWDIO*%
X-67110782Y59771141D03*
X-69949000Y52595141D03*
%TO.N,SWCLK*%
X-67930295Y60467872D03*
X-72020000Y52797141D03*
%TO.N,I2C3_SDA*%
X-62076000Y58675000D03*
X-59456000Y52551141D03*
X-67136562Y60570728D03*
%TO.N,/I2C1_SCL*%
X-62076877Y60410551D03*
X-66597817Y61195728D03*
%TD*%
%TO.N,Net-(LD1-Pad2)*%
D19*
X-64438500Y72563500D02*
X-67808946Y75933946D01*
X-67808946Y75933946D02*
X-67808946Y76145732D01*
%TO.N,+3V3*%
D20*
X-61361000Y68594000D02*
X-61295000Y68528000D01*
X-56488432Y40631340D02*
X-53658745Y37801653D01*
X-87688000Y40104000D02*
X-87688000Y54773000D01*
X-64364859Y55145141D02*
X-58731000Y55145141D01*
X-67846000Y75051414D02*
X-67846000Y71187000D01*
X-72601092Y36359000D02*
X-83946092Y36359000D01*
X-87688000Y54773000D02*
X-85643000Y56818000D01*
X-65253000Y68594000D02*
X-61361000Y68594000D01*
X-67846000Y71187000D02*
X-65253000Y68594000D01*
X-83946092Y36362092D02*
X-87688000Y40104000D01*
X-83946092Y36359000D02*
X-83946092Y36362092D01*
X-71871092Y37089000D02*
X-72601092Y36359000D01*
X-85640000Y56520000D02*
X-85640000Y77272000D01*
X-64466000Y55044000D02*
X-64364859Y55145141D01*
X-79062000Y54545141D02*
X-83665141Y54545141D01*
X-53658745Y37801653D02*
X-53658745Y35364000D01*
X-71506793Y78712207D02*
X-67846000Y75051414D01*
X-71506793Y78759207D02*
X-71506793Y78712207D01*
X-57596092Y40964000D02*
X-57263432Y40631340D01*
X-83665141Y54545141D02*
X-85640000Y56520000D01*
X-57263432Y40631340D02*
X-56488432Y40631340D01*
X-85640000Y77272000D02*
X-84290000Y78622000D01*
%TO.N,GND*%
X-64728791Y53238141D02*
X-64615791Y53351141D01*
%TO.N,MCU_Reset*%
D19*
X-74878711Y55923289D02*
X-74865000Y55937000D01*
X-74878711Y55692711D02*
X-74878711Y55923289D01*
X-74865000Y55937000D02*
X-74865000Y57089000D01*
%TO.N,LDPDO1*%
X-75932000Y55341373D02*
X-75437255Y54846628D01*
X-75932000Y76705000D02*
X-75932000Y55341373D01*
X-75453000Y77184000D02*
X-75932000Y76705000D01*
X-75437255Y54846628D02*
X-73320628Y54846628D01*
%TO.N,O{slash}L2*%
X-70524092Y40002859D02*
X-63226092Y40002859D01*
%TO.N,O{slash}L1*%
X-70562092Y42082859D02*
X-70166092Y42082859D01*
X-70165344Y42083607D02*
X-68822160Y42083607D01*
X-70166092Y42082859D02*
X-70165344Y42083607D01*
%TO.N,I{slash}LD*%
X-75482000Y69421000D02*
X-75482000Y60142262D01*
X-74990000Y69913000D02*
X-75482000Y69421000D01*
X-75482000Y60142262D02*
X-73684879Y58345141D01*
%TO.N,I2C3_SCL*%
X-71481000Y48441842D02*
X-71481000Y47468440D01*
X-70792701Y49130141D02*
X-71481000Y48441842D01*
X-64644000Y49130141D02*
X-66591000Y49130141D01*
X-62246000Y51528141D02*
X-64644000Y49130141D01*
X-66591000Y49130141D02*
X-67766000Y47955141D01*
X-70556701Y46544141D02*
X-68550000Y46544141D01*
X-67766000Y47328141D02*
X-67766000Y47955141D01*
X-71481000Y47468440D02*
X-70556701Y46544141D01*
X-68550000Y46544141D02*
X-67766000Y47328141D01*
X-68941000Y51943141D02*
X-68941000Y50008440D01*
X-68298000Y52586141D02*
X-68941000Y51943141D01*
X-68941000Y50008440D02*
X-69819299Y49130141D01*
X-69819299Y49130141D02*
X-70792701Y49130141D01*
%TO.N,SWDIO*%
X-68903000Y59173141D02*
X-68903000Y53641141D01*
X-68903000Y53641141D02*
X-69949000Y52595141D01*
X-68305000Y59771141D02*
X-68903000Y59173141D01*
X-67110782Y59771141D02*
X-68305000Y59771141D01*
%TO.N,SWCLK*%
X-68919000Y60444141D02*
X-72020000Y57343141D01*
X-67930295Y60467872D02*
X-67964733Y60467872D01*
X-67964733Y60467872D02*
X-67988464Y60444141D01*
X-67988464Y60444141D02*
X-68919000Y60444141D01*
X-72020000Y57343141D02*
X-72020000Y52797141D01*
%TO.N,I2C3_SDA*%
X-65750587Y60570728D02*
X-67136562Y60570728D01*
X-66591000Y50981842D02*
X-66591000Y49992141D01*
X-59456000Y52551141D02*
X-59456000Y52314286D01*
X-65419701Y52153141D02*
X-66591000Y50981842D01*
X-59617145Y52153141D02*
X-65419701Y52153141D01*
X-66591000Y49992141D02*
X-67453000Y49130141D01*
X-59456000Y52314286D02*
X-59617145Y52153141D01*
X-62076000Y58675000D02*
X-63854859Y58675000D01*
X-67453000Y49130141D02*
X-69131000Y49130141D01*
X-69131000Y49130141D02*
X-70306000Y47955141D01*
X-63854859Y58675000D02*
X-65750587Y60570728D01*
%TO.N,/I2C1_SCL*%
X-62076877Y60410551D02*
X-62076877Y59876123D01*
X-65637587Y61195728D02*
X-66597817Y61195728D01*
X-62076877Y59876123D02*
X-62827000Y59126000D01*
X-63567859Y59126000D02*
X-65637587Y61195728D01*
X-62827000Y59126000D02*
X-63567859Y59126000D01*
%TD*%
%TA.AperFunction,Conductor*%
%TO.N,GND*%
G36*
X-74047286Y50458435D02*
G01*
X-74003022Y50406609D01*
X-74000561Y50401221D01*
X-73990879Y50369101D01*
X-73968171Y50225728D01*
X-73912222Y50053529D01*
X-73912214Y50053506D01*
X-73912212Y50053502D01*
X-73829994Y49892144D01*
X-73723559Y49745647D01*
X-73723555Y49745642D01*
X-73723548Y49745634D01*
X-73595509Y49617595D01*
X-73595500Y49617587D01*
X-73595476Y49617569D01*
X-73510243Y49555644D01*
X-73510241Y49555643D01*
X-73510238Y49555641D01*
X-73448994Y49511145D01*
X-73369471Y49470626D01*
X-73287640Y49428930D01*
X-73287637Y49428929D01*
X-73201524Y49400950D01*
X-73115409Y49372970D01*
X-73073267Y49366296D01*
X-73042522Y49361426D01*
X-73042423Y49361411D01*
X-73042361Y49361401D01*
X-72972929Y49350403D01*
X-72939213Y49339978D01*
X-72932929Y49336999D01*
X-72880787Y49290492D01*
X-72862065Y49223177D01*
X-72882708Y49156427D01*
X-72934534Y49112163D01*
X-72939922Y49109702D01*
X-72972042Y49100020D01*
X-73115415Y49077312D01*
X-73287614Y49021363D01*
X-73287637Y49021355D01*
X-73287641Y49021353D01*
X-73448995Y48939137D01*
X-73448998Y48939136D01*
X-73448998Y48939135D01*
X-73475656Y48919767D01*
X-73595501Y48832696D01*
X-73595509Y48832689D01*
X-73723548Y48704650D01*
X-73723555Y48704642D01*
X-73737857Y48684956D01*
X-73825122Y48564844D01*
X-73829996Y48558136D01*
X-73912212Y48396782D01*
X-73912214Y48396778D01*
X-73912222Y48396755D01*
X-73968171Y48224557D01*
X-73990992Y48080472D01*
X-74001420Y48046748D01*
X-74004397Y48040469D01*
X-74050904Y47988327D01*
X-74118219Y47969605D01*
X-74184969Y47990248D01*
X-74229233Y48042074D01*
X-74231694Y48047462D01*
X-74241375Y48079579D01*
X-74264318Y48224435D01*
X-74302432Y48341740D01*
X-74320244Y48396563D01*
X-74320251Y48396582D01*
X-74320251Y48396583D01*
X-74320252Y48396584D01*
X-74320252Y48396586D01*
X-74320253Y48396589D01*
X-74402429Y48557866D01*
X-74402434Y48557874D01*
X-74402627Y48558139D01*
X-74413915Y48573675D01*
X-74413917Y48573676D01*
X-74776299Y48211293D01*
X-74837622Y48177808D01*
X-74907314Y48182792D01*
X-74963247Y48224664D01*
X-74971367Y48236974D01*
X-74985901Y48262148D01*
X-75078993Y48355240D01*
X-75095137Y48364561D01*
X-75104173Y48369778D01*
X-75152387Y48420347D01*
X-75165608Y48488954D01*
X-75139639Y48553818D01*
X-75129859Y48564837D01*
X-74767467Y48927228D01*
X-74767468Y48927229D01*
X-74783268Y48938709D01*
X-74786076Y48940140D01*
X-74944553Y49020889D01*
X-74944556Y49020890D01*
X-74944559Y49020891D01*
X-74944561Y49020892D01*
X-74944580Y49020899D01*
X-75116705Y49076824D01*
X-75116704Y49076824D01*
X-75260670Y49099626D01*
X-75294394Y49110054D01*
X-75300674Y49113031D01*
X-75352816Y49159538D01*
X-75371538Y49226853D01*
X-75350895Y49293603D01*
X-75299074Y49337866D01*
X-75293673Y49340332D01*
X-75261572Y49350008D01*
X-75116591Y49372970D01*
X-74944361Y49428930D01*
X-74783006Y49511145D01*
X-74636499Y49617588D01*
X-74508447Y49745640D01*
X-74402004Y49892147D01*
X-74319789Y50053502D01*
X-74263829Y50225732D01*
X-74244709Y50346449D01*
X-74241262Y50368214D01*
X-74230838Y50401928D01*
X-74227857Y50408216D01*
X-74181351Y50460356D01*
X-74114036Y50479078D01*
X-74047286Y50458435D01*
G37*
%TD.AperFunction*%
%TA.AperFunction,Conductor*%
G36*
X-5009734Y93422485D02*
G01*
X-4974818Y93417388D01*
X-4961511Y93413450D01*
X-4902815Y93375550D01*
X-4873929Y93311952D01*
X-4873691Y93310270D01*
X-4879328Y93252184D01*
X-4880932Y93247566D01*
X-4890679Y93226252D01*
X-5022744Y92997506D01*
X-5022781Y92997431D01*
X-5023028Y92996821D01*
X-5135632Y92724972D01*
X-5135641Y92724949D01*
X-5211992Y92439996D01*
X-5211992Y92439995D01*
X-5211994Y92439988D01*
X-5211997Y92439965D01*
X-5250500Y92147522D01*
X-5250500Y91852480D01*
X-5218429Y91608889D01*
X-5211958Y91559743D01*
X-5211421Y91557873D01*
X-5135641Y91275053D01*
X-5135633Y91275030D01*
X-5023028Y91003181D01*
X-5022768Y91002543D01*
X-5022744Y91002493D01*
X-5022742Y91002490D01*
X-4875239Y90747007D01*
X-4695648Y90512960D01*
X-4695642Y90512953D01*
X-4487048Y90304359D01*
X-4487041Y90304353D01*
X-4252994Y90124762D01*
X-4143094Y90061311D01*
X-4000957Y89979248D01*
X-3999216Y89978167D01*
X-3995737Y89976235D01*
X-3995151Y89975897D01*
X-3990012Y89974153D01*
X-3724952Y89864361D01*
X-3439993Y89788007D01*
X-3147506Y89749500D01*
X-3147499Y89749500D01*
X-2852501Y89749500D01*
X-2852494Y89749500D01*
X-2560007Y89788007D01*
X-2275048Y89864361D01*
X-2002493Y89977257D01*
X-1747006Y90124762D01*
X-1512958Y90304354D01*
X-1336396Y90480916D01*
X-1308153Y90502062D01*
X-1298220Y90507485D01*
X-1229952Y90522341D01*
X-1164486Y90497929D01*
X-1122611Y90441999D01*
X-1122610Y90441996D01*
X-1119961Y90434895D01*
X-1112140Y90391279D01*
X-1302641Y4802283D01*
X-1307742Y4767360D01*
X-1310952Y4756517D01*
X-1348857Y4697823D01*
X-1412477Y4668939D01*
X-1481610Y4679035D01*
X-1493107Y4684316D01*
X-1516834Y4698621D01*
X-1747003Y4875236D01*
X-1747004Y4875237D01*
X-1747007Y4875239D01*
X-2002490Y5022742D01*
X-2002489Y5022742D01*
X-2002493Y5022744D01*
X-2002543Y5022768D01*
X-2003181Y5023028D01*
X-2270997Y5133963D01*
X-2272818Y5134794D01*
X-2273295Y5134975D01*
X-2274806Y5135575D01*
X-2506182Y5197571D01*
X-2560007Y5211993D01*
X-2560013Y5211994D01*
X-2560014Y5211994D01*
X-2578242Y5214394D01*
X-2608887Y5218429D01*
X-2608888Y5218430D01*
X-2852480Y5250500D01*
X-2852487Y5250500D01*
X-2852494Y5250500D01*
X-3147506Y5250500D01*
X-3147514Y5250500D01*
X-3147522Y5250500D01*
X-3425915Y5213848D01*
X-3425915Y5213847D01*
X-3427553Y5213632D01*
X-3439993Y5211994D01*
X-3724949Y5135641D01*
X-3724972Y5135632D01*
X-3996821Y5023028D01*
X-3997451Y5022772D01*
X-3997509Y5022744D01*
X-4252995Y4875239D01*
X-4407715Y4756517D01*
X-4485225Y4697041D01*
X-4487042Y4695647D01*
X-4487049Y4695641D01*
X-4487057Y4695634D01*
X-4695634Y4487057D01*
X-4695641Y4487049D01*
X-4695647Y4487042D01*
X-4875239Y4252995D01*
X-5022744Y3997509D01*
X-5022772Y3997451D01*
X-5023028Y3996821D01*
X-5135632Y3724972D01*
X-5135641Y3724949D01*
X-5211992Y3439996D01*
X-5211992Y3439995D01*
X-5211994Y3439988D01*
X-5211997Y3439965D01*
X-5250500Y3147522D01*
X-5250500Y2852480D01*
X-5218429Y2608889D01*
X-5211958Y2559743D01*
X-5211421Y2557873D01*
X-5135641Y2275053D01*
X-5135633Y2275030D01*
X-5023028Y2003181D01*
X-5022768Y2002543D01*
X-5022744Y2002493D01*
X-4877091Y1750214D01*
X-4876058Y1748294D01*
X-4875451Y1747284D01*
X-4867887Y1737426D01*
X-4850608Y1706659D01*
X-4846119Y1695049D01*
X-4840303Y1625422D01*
X-4873053Y1563703D01*
X-4930477Y1530346D01*
X-4940107Y1527834D01*
X-4971582Y1523819D01*
X-89951167Y1645090D01*
X-89986098Y1650164D01*
X-89993159Y1652249D01*
X-89999408Y1654093D01*
X-90058130Y1691953D01*
X-90087062Y1755548D01*
X-90087301Y1757231D01*
X-90081689Y1815302D01*
X-90080073Y1819962D01*
X-90070313Y1841317D01*
X-89977257Y2002493D01*
X-89864361Y2275048D01*
X-89788007Y2560007D01*
X-89749500Y2852494D01*
X-89749500Y3147506D01*
X-89788007Y3439993D01*
X-89864361Y3724952D01*
X-89977257Y3997507D01*
X-89977259Y3997511D01*
X-90124759Y4252990D01*
X-90124763Y4252995D01*
X-90304354Y4487042D01*
X-90304359Y4487048D01*
X-90304360Y4487049D01*
X-90304372Y4487062D01*
X-90512945Y4695634D01*
X-90512953Y4695642D01*
X-90512960Y4695648D01*
X-90747007Y4875239D01*
X-91002490Y5022742D01*
X-91002489Y5022742D01*
X-91002493Y5022744D01*
X-91002543Y5022768D01*
X-91003181Y5023028D01*
X-91270997Y5133963D01*
X-91272818Y5134794D01*
X-91273295Y5134975D01*
X-91274806Y5135575D01*
X-91506182Y5197571D01*
X-91560007Y5211993D01*
X-91560013Y5211994D01*
X-91560014Y5211994D01*
X-91578242Y5214394D01*
X-91608887Y5218429D01*
X-91608888Y5218430D01*
X-91852480Y5250500D01*
X-91852487Y5250500D01*
X-91852494Y5250500D01*
X-92147506Y5250500D01*
X-92147514Y5250500D01*
X-92147522Y5250500D01*
X-92425915Y5213848D01*
X-92425915Y5213847D01*
X-92427553Y5213632D01*
X-92439993Y5211994D01*
X-92724949Y5135641D01*
X-92724972Y5135632D01*
X-92996821Y5023028D01*
X-92997451Y5022772D01*
X-92997509Y5022744D01*
X-93252994Y4875240D01*
X-93471082Y4707895D01*
X-93501858Y4690612D01*
X-93513455Y4686129D01*
X-93583083Y4680317D01*
X-93644799Y4713072D01*
X-93678162Y4770538D01*
X-93680677Y4780196D01*
X-93684677Y4811706D01*
X-93675537Y8917522D01*
X-48627500Y8917522D01*
X-48627500Y8622487D01*
X-48606850Y8465642D01*
X-48588993Y8330008D01*
X-48569442Y8257041D01*
X-48512641Y8045053D01*
X-48512633Y8045030D01*
X-48400028Y7773181D01*
X-48399768Y7772543D01*
X-48399744Y7772493D01*
X-48396864Y7767505D01*
X-48252239Y7517007D01*
X-48072648Y7282960D01*
X-48072642Y7282953D01*
X-47864048Y7074359D01*
X-47864041Y7074353D01*
X-47629994Y6894762D01*
X-47520094Y6831311D01*
X-47377957Y6749248D01*
X-47376216Y6748167D01*
X-47372737Y6746235D01*
X-47372151Y6745897D01*
X-47367012Y6744153D01*
X-47101952Y6634361D01*
X-46816993Y6558007D01*
X-46524506Y6519500D01*
X-46524499Y6519500D01*
X-46229501Y6519500D01*
X-46229494Y6519500D01*
X-45937007Y6558007D01*
X-45652048Y6634361D01*
X-45379493Y6747257D01*
X-45124006Y6894762D01*
X-45094345Y6917522D01*
X-13627500Y6917522D01*
X-13627500Y6622480D01*
X-13595429Y6378889D01*
X-13588958Y6329743D01*
X-13588421Y6327873D01*
X-13512641Y6045053D01*
X-13512633Y6045030D01*
X-13400028Y5773181D01*
X-13399768Y5772543D01*
X-13399744Y5772493D01*
X-13399742Y5772490D01*
X-13252239Y5517007D01*
X-13072648Y5282960D01*
X-13072642Y5282953D01*
X-12864048Y5074359D01*
X-12864041Y5074353D01*
X-12629994Y4894762D01*
X-12520094Y4831311D01*
X-12377957Y4749248D01*
X-12376216Y4748167D01*
X-12372737Y4746235D01*
X-12372151Y4745897D01*
X-12367012Y4744153D01*
X-12101952Y4634361D01*
X-11816993Y4558007D01*
X-11524506Y4519500D01*
X-11524499Y4519500D01*
X-11229501Y4519500D01*
X-11229494Y4519500D01*
X-10937007Y4558007D01*
X-10652048Y4634361D01*
X-10379493Y4747257D01*
X-10124006Y4894762D01*
X-9889958Y5074354D01*
X-9681354Y5282958D01*
X-9501762Y5517006D01*
X-9354257Y5772493D01*
X-9241361Y6045048D01*
X-9165007Y6330007D01*
X-9126500Y6622494D01*
X-9126500Y6917506D01*
X-9165007Y7209993D01*
X-9241361Y7494952D01*
X-9354257Y7767507D01*
X-9357136Y7772493D01*
X-9377516Y7807792D01*
X-9501759Y8022990D01*
X-9518685Y8045048D01*
X-9681353Y8257041D01*
X-9681359Y8257048D01*
X-9889953Y8465642D01*
X-9889960Y8465648D01*
X-10124007Y8645239D01*
X-10379490Y8792742D01*
X-10379489Y8792742D01*
X-10379493Y8792744D01*
X-10379543Y8792768D01*
X-10380181Y8793028D01*
X-10647997Y8903963D01*
X-10649818Y8904794D01*
X-10650295Y8904975D01*
X-10651806Y8905575D01*
X-10883182Y8967571D01*
X-10937007Y8981993D01*
X-10937013Y8981994D01*
X-10937014Y8981994D01*
X-10955242Y8984394D01*
X-10985887Y8988429D01*
X-10985888Y8988430D01*
X-11229480Y9020500D01*
X-11229487Y9020500D01*
X-11229494Y9020500D01*
X-11524506Y9020500D01*
X-11524514Y9020500D01*
X-11524522Y9020500D01*
X-11802915Y8983848D01*
X-11802915Y8983847D01*
X-11804553Y8983632D01*
X-11816993Y8981994D01*
X-12057663Y8917506D01*
X-12101949Y8905641D01*
X-12101972Y8905632D01*
X-12373821Y8793028D01*
X-12374451Y8792772D01*
X-12374509Y8792744D01*
X-12629995Y8645239D01*
X-12809586Y8507433D01*
X-12864041Y8465648D01*
X-12864048Y8465642D01*
X-12864052Y8465638D01*
X-12864057Y8465634D01*
X-13072634Y8257057D01*
X-13072641Y8257049D01*
X-13072647Y8257042D01*
X-13252239Y8022995D01*
X-13399744Y7767509D01*
X-13399772Y7767451D01*
X-13400028Y7766821D01*
X-13512632Y7494972D01*
X-13512641Y7494949D01*
X-13569443Y7282954D01*
X-13588992Y7209999D01*
X-13588994Y7209987D01*
X-13588997Y7209965D01*
X-13627500Y6917522D01*
X-45094345Y6917522D01*
X-44889958Y7074354D01*
X-44889944Y7074368D01*
X-44681357Y7282954D01*
X-44681354Y7282958D01*
X-44501762Y7517006D01*
X-44354257Y7772493D01*
X-44241361Y8045048D01*
X-44165007Y8330007D01*
X-44126500Y8622494D01*
X-44126500Y8917506D01*
X-44165007Y9209993D01*
X-44241361Y9494952D01*
X-44354257Y9767507D01*
X-44354259Y9767511D01*
X-44501759Y10022990D01*
X-44501763Y10022995D01*
X-44681354Y10257042D01*
X-44681359Y10257048D01*
X-44681360Y10257049D01*
X-44681372Y10257062D01*
X-44889945Y10465634D01*
X-44889953Y10465642D01*
X-44889960Y10465648D01*
X-45124007Y10645239D01*
X-45379490Y10792742D01*
X-45379489Y10792742D01*
X-45379493Y10792744D01*
X-45379543Y10792768D01*
X-45380181Y10793028D01*
X-45647997Y10903963D01*
X-45649818Y10904794D01*
X-45650295Y10904975D01*
X-45651806Y10905575D01*
X-45883182Y10967571D01*
X-45937007Y10981993D01*
X-45937013Y10981994D01*
X-45937014Y10981994D01*
X-45955242Y10984394D01*
X-45985887Y10988429D01*
X-45985888Y10988430D01*
X-46229480Y11020500D01*
X-46229487Y11020500D01*
X-46229494Y11020500D01*
X-46524506Y11020500D01*
X-46524514Y11020500D01*
X-46524522Y11020500D01*
X-46802915Y10983848D01*
X-46802915Y10983847D01*
X-46804553Y10983632D01*
X-46816993Y10981994D01*
X-47101949Y10905641D01*
X-47101972Y10905632D01*
X-47373821Y10793028D01*
X-47374451Y10792772D01*
X-47374509Y10792744D01*
X-47629995Y10645239D01*
X-47864042Y10465647D01*
X-47864049Y10465641D01*
X-47864057Y10465634D01*
X-48072634Y10257057D01*
X-48072641Y10257049D01*
X-48072647Y10257042D01*
X-48252239Y10022995D01*
X-48399744Y9767509D01*
X-48399772Y9767451D01*
X-48400028Y9766821D01*
X-48512632Y9494972D01*
X-48512641Y9494949D01*
X-48588992Y9209996D01*
X-48588992Y9209995D01*
X-48588994Y9209988D01*
X-48588997Y9209965D01*
X-48627500Y8917522D01*
X-93675537Y8917522D01*
X-93658216Y16697906D01*
X-39052763Y16697906D01*
X-39009055Y16478178D01*
X-39009054Y16478174D01*
X-39009053Y16478171D01*
X-39009050Y16478161D01*
X-39009047Y16478153D01*
X-39009042Y16478139D01*
X-38933640Y16296100D01*
X-38933635Y16296091D01*
X-38933625Y16296074D01*
X-38824139Y16132217D01*
X-38824138Y16132216D01*
X-38824133Y16132210D01*
X-38684792Y15992869D01*
X-38684786Y15992864D01*
X-38684782Y15992861D01*
X-38520921Y15883372D01*
X-38520908Y15883365D01*
X-38344427Y15810265D01*
X-38340008Y15808175D01*
X-38339272Y15808033D01*
X-38338531Y15807888D01*
X-38145547Y15769500D01*
X-37648457Y15769500D01*
X-37648456Y15769500D01*
X-37626784Y15773812D01*
X-37518418Y15795368D01*
X-37518417Y15795368D01*
X-37505699Y15797898D01*
X-37455165Y15807949D01*
X-37273086Y15883368D01*
X-37109218Y15992861D01*
X-36969861Y16132218D01*
X-36860368Y16296086D01*
X-36784949Y16478165D01*
X-36746500Y16671459D01*
X-36746500Y16868541D01*
X-36746500Y16868544D01*
X-36746500Y16868547D01*
X-36782659Y17050321D01*
X-36784948Y17061830D01*
X-36784949Y17061831D01*
X-36784949Y17061835D01*
X-36784951Y17061840D01*
X-36850498Y17220087D01*
X-36850791Y17220795D01*
X-36860362Y17243902D01*
X-36860367Y17243911D01*
X-36860372Y17243921D01*
X-36873678Y17263834D01*
X-33967500Y17263834D01*
X-33967500Y16276175D01*
X-33961339Y16224857D01*
X-33956893Y16187833D01*
X-33956893Y16187832D01*
X-33956892Y16187829D01*
X-33901457Y16047254D01*
X-33901456Y16047252D01*
X-33901455Y16047250D01*
X-33901454Y16047249D01*
X-33860212Y15992863D01*
X-33810152Y15926849D01*
X-33752813Y15883368D01*
X-33689746Y15835543D01*
X-33549173Y15780109D01*
X-33460833Y15769500D01*
X-32173168Y15769501D01*
X-32084827Y15780109D01*
X-31944254Y15835543D01*
X-31823849Y15926849D01*
X-31732543Y16047254D01*
X-31677109Y16187827D01*
X-31666500Y16276167D01*
X-31666501Y17263832D01*
X-31677109Y17352173D01*
X-31732543Y17492746D01*
X-31773789Y17547137D01*
X-31823849Y17613152D01*
X-31944252Y17704456D01*
X-31944254Y17704457D01*
X-32084826Y17759891D01*
X-32084830Y17759892D01*
X-32084834Y17759893D01*
X-32084832Y17759893D01*
X-32130176Y17765338D01*
X-32173167Y17770500D01*
X-32173173Y17770500D01*
X-33460821Y17770500D01*
X-33460826Y17770500D01*
X-33503592Y17765366D01*
X-33549169Y17759893D01*
X-33549172Y17759893D01*
X-33549172Y17759892D01*
X-33689747Y17704457D01*
X-33689749Y17704456D01*
X-33689751Y17704456D01*
X-33689753Y17704454D01*
X-33810153Y17613153D01*
X-33901455Y17492751D01*
X-33901456Y17492750D01*
X-33901456Y17492749D01*
X-33901457Y17492747D01*
X-33956891Y17352175D01*
X-33956892Y17352173D01*
X-33956893Y17352168D01*
X-33961882Y17310621D01*
X-33967500Y17263834D01*
X-36873678Y17263834D01*
X-36969861Y17407782D01*
X-36969864Y17407786D01*
X-36969869Y17407792D01*
X-37109213Y17547136D01*
X-37109216Y17547138D01*
X-37109217Y17547139D01*
X-37273074Y17656625D01*
X-37273075Y17656626D01*
X-37273080Y17656629D01*
X-37273093Y17656636D01*
X-37273100Y17656640D01*
X-37455139Y17732042D01*
X-37455153Y17732047D01*
X-37455161Y17732050D01*
X-37455171Y17732053D01*
X-37455174Y17732054D01*
X-37455178Y17732055D01*
X-37648454Y17770500D01*
X-37648457Y17770500D01*
X-37648459Y17770500D01*
X-38145541Y17770500D01*
X-38145543Y17770500D01*
X-38145547Y17770500D01*
X-38338824Y17732055D01*
X-38338830Y17732053D01*
X-38338840Y17732050D01*
X-38338845Y17732049D01*
X-38338863Y17732042D01*
X-38520902Y17656640D01*
X-38520911Y17656635D01*
X-38520928Y17656625D01*
X-38684785Y17547139D01*
X-38684788Y17547136D01*
X-38824133Y17407792D01*
X-38824138Y17407786D01*
X-38824139Y17407785D01*
X-38933625Y17243928D01*
X-38933635Y17243911D01*
X-38933640Y17243902D01*
X-39009042Y17061863D01*
X-39009055Y17061824D01*
X-39047500Y16868549D01*
X-39047500Y16715826D01*
X-39052763Y16697906D01*
X-93658216Y16697906D01*
X-93637692Y25917522D01*
X-48627500Y25917522D01*
X-48627500Y25622480D01*
X-48595429Y25378889D01*
X-48588958Y25329743D01*
X-48588421Y25327873D01*
X-48512641Y25045053D01*
X-48512633Y25045030D01*
X-48400028Y24773181D01*
X-48399768Y24772543D01*
X-48399744Y24772493D01*
X-48399742Y24772490D01*
X-48252239Y24517007D01*
X-48072648Y24282960D01*
X-48072642Y24282953D01*
X-47864048Y24074359D01*
X-47864041Y24074353D01*
X-47629994Y23894762D01*
X-47520094Y23831311D01*
X-47377957Y23749248D01*
X-47376216Y23748167D01*
X-47372737Y23746235D01*
X-47372151Y23745897D01*
X-47367012Y23744153D01*
X-47101952Y23634361D01*
X-46816993Y23558007D01*
X-46524506Y23519500D01*
X-46524499Y23519500D01*
X-46229501Y23519500D01*
X-46229494Y23519500D01*
X-45937007Y23558007D01*
X-45652048Y23634361D01*
X-45379493Y23747257D01*
X-45124006Y23894762D01*
X-44889958Y24074354D01*
X-44681354Y24282958D01*
X-44501762Y24517006D01*
X-44354257Y24772493D01*
X-44241361Y25045048D01*
X-44165007Y25330007D01*
X-44126500Y25622494D01*
X-44126500Y25917506D01*
X-44165007Y26209993D01*
X-44241361Y26494952D01*
X-44251530Y26519501D01*
X-44251531Y26519504D01*
X-44299108Y26634366D01*
X-44354252Y26767496D01*
X-44354259Y26767511D01*
X-44501759Y27022990D01*
X-44541176Y27074359D01*
X-44681354Y27257042D01*
X-44681359Y27257048D01*
X-44681360Y27257049D01*
X-44681372Y27257062D01*
X-44889945Y27465634D01*
X-44889953Y27465642D01*
X-44889960Y27465648D01*
X-45124007Y27645239D01*
X-45344412Y27772490D01*
X-45379493Y27792744D01*
X-45379543Y27792768D01*
X-45380181Y27793028D01*
X-45647997Y27903963D01*
X-45649818Y27904794D01*
X-45650295Y27904975D01*
X-45651806Y27905575D01*
X-45883182Y27967571D01*
X-45937007Y27981993D01*
X-45937013Y27981994D01*
X-45937014Y27981994D01*
X-45955242Y27984394D01*
X-45985887Y27988429D01*
X-45985888Y27988430D01*
X-46229480Y28020500D01*
X-46229487Y28020500D01*
X-46229494Y28020500D01*
X-46524506Y28020500D01*
X-46524514Y28020500D01*
X-46524522Y28020500D01*
X-46802915Y27983848D01*
X-46802915Y27983847D01*
X-46804553Y27983632D01*
X-46816993Y27981994D01*
X-47101949Y27905641D01*
X-47101972Y27905632D01*
X-47373821Y27793028D01*
X-47374451Y27792772D01*
X-47374509Y27792744D01*
X-47629995Y27645239D01*
X-47864042Y27465647D01*
X-47864049Y27465641D01*
X-47864057Y27465634D01*
X-48072634Y27257057D01*
X-48072641Y27257049D01*
X-48072647Y27257042D01*
X-48252239Y27022995D01*
X-48399744Y26767509D01*
X-48399772Y26767451D01*
X-48400028Y26766821D01*
X-48512632Y26494972D01*
X-48512641Y26494949D01*
X-48588992Y26209996D01*
X-48588992Y26209995D01*
X-48588994Y26209988D01*
X-48588997Y26209965D01*
X-48627500Y25917522D01*
X-93637692Y25917522D01*
X-93631013Y28917522D01*
X-13627500Y28917522D01*
X-13627500Y28622480D01*
X-13595429Y28378889D01*
X-13588958Y28329743D01*
X-13588421Y28327873D01*
X-13512641Y28045053D01*
X-13512633Y28045030D01*
X-13400028Y27773181D01*
X-13399768Y27772543D01*
X-13399744Y27772493D01*
X-13399742Y27772490D01*
X-13252239Y27517007D01*
X-13072648Y27282960D01*
X-13072642Y27282953D01*
X-12864048Y27074359D01*
X-12864041Y27074353D01*
X-12629994Y26894762D01*
X-12520094Y26831311D01*
X-12377957Y26749248D01*
X-12376216Y26748167D01*
X-12372737Y26746235D01*
X-12372151Y26745897D01*
X-12367012Y26744153D01*
X-12198338Y26674286D01*
X-12101965Y26634366D01*
X-12101962Y26634365D01*
X-12101952Y26634361D01*
X-11816993Y26558007D01*
X-11538585Y26521354D01*
X-11524537Y26519504D01*
X-11524506Y26519500D01*
X-11524499Y26519500D01*
X-11229501Y26519500D01*
X-11229494Y26519500D01*
X-10937007Y26558007D01*
X-10652048Y26634361D01*
X-10652038Y26634366D01*
X-10652035Y26634366D01*
X-10570382Y26668189D01*
X-10379493Y26747257D01*
X-10124006Y26894762D01*
X-9889958Y27074354D01*
X-9681354Y27282958D01*
X-9501762Y27517006D01*
X-9354257Y27772493D01*
X-9241361Y28045048D01*
X-9165007Y28330007D01*
X-9126500Y28622494D01*
X-9126500Y28917506D01*
X-9165007Y29209993D01*
X-9241361Y29494952D01*
X-9354257Y29767507D01*
X-9354259Y29767511D01*
X-9501759Y30022990D01*
X-9501763Y30022995D01*
X-9681354Y30257042D01*
X-9681359Y30257048D01*
X-9681360Y30257049D01*
X-9681372Y30257062D01*
X-9889945Y30465634D01*
X-9889953Y30465642D01*
X-9889960Y30465648D01*
X-10124007Y30645239D01*
X-10379490Y30792742D01*
X-10379489Y30792742D01*
X-10379493Y30792744D01*
X-10379543Y30792768D01*
X-10380181Y30793028D01*
X-10647997Y30903963D01*
X-10649818Y30904794D01*
X-10650295Y30904975D01*
X-10651806Y30905575D01*
X-10883182Y30967571D01*
X-10937007Y30981993D01*
X-10937013Y30981994D01*
X-10937014Y30981994D01*
X-10955242Y30984394D01*
X-10985887Y30988429D01*
X-10985888Y30988430D01*
X-11229480Y31020500D01*
X-11229487Y31020500D01*
X-11229494Y31020500D01*
X-11524506Y31020500D01*
X-11524514Y31020500D01*
X-11524522Y31020500D01*
X-11802915Y30983848D01*
X-11802915Y30983847D01*
X-11804553Y30983632D01*
X-11816993Y30981994D01*
X-12101949Y30905641D01*
X-12101972Y30905632D01*
X-12373821Y30793028D01*
X-12374451Y30792772D01*
X-12374509Y30792744D01*
X-12629995Y30645239D01*
X-12864042Y30465647D01*
X-12864049Y30465641D01*
X-12864057Y30465634D01*
X-13072634Y30257057D01*
X-13072641Y30257049D01*
X-13072647Y30257042D01*
X-13252239Y30022995D01*
X-13399744Y29767509D01*
X-13399772Y29767451D01*
X-13400028Y29766821D01*
X-13512632Y29494972D01*
X-13512641Y29494949D01*
X-13588992Y29209996D01*
X-13588992Y29209995D01*
X-13588994Y29209988D01*
X-13588997Y29209965D01*
X-13627500Y28917522D01*
X-93631013Y28917522D01*
X-93606237Y40046954D01*
X-88294400Y40046954D01*
X-88247576Y39872210D01*
X-88244464Y39864699D01*
X-88244805Y39864559D01*
X-88235809Y39841446D01*
X-88221780Y39827535D01*
X-88189181Y39771070D01*
X-88168525Y39735291D01*
X-88168523Y39735289D01*
X-88168519Y39735283D01*
X-88168515Y39735278D01*
X-88047686Y39614449D01*
X-88047641Y39614406D01*
X-84448098Y36014863D01*
X-84437456Y36002737D01*
X-84417238Y35976427D01*
X-84410282Y35973348D01*
X-84402695Y35966367D01*
X-84314808Y35878480D01*
X-84314807Y35878480D01*
X-84314752Y35878425D01*
X-84314240Y35878048D01*
X-84311617Y35876637D01*
X-84177883Y35799427D01*
X-84177876Y35799423D01*
X-84025149Y35758500D01*
X-83867035Y35758500D01*
X-73389215Y35758500D01*
X-73322176Y35738815D01*
X-73276421Y35686011D01*
X-73265215Y35634425D01*
X-73265714Y34804611D01*
X-73266426Y33619577D01*
X-73259382Y33554166D01*
X-73259380Y33554157D01*
X-73248048Y33502307D01*
X-73248045Y33502297D01*
X-73236882Y33463631D01*
X-73179957Y33366870D01*
X-73179953Y33366865D01*
X-73134062Y33314179D01*
X-73089223Y33272118D01*
X-72989016Y33221489D01*
X-72921926Y33201976D01*
X-72835822Y33189821D01*
X-50521217Y33247183D01*
X-50518761Y33247454D01*
X-50456300Y33254331D01*
X-50456298Y33254332D01*
X-50456293Y33254332D01*
X-50404809Y33265671D01*
X-50404806Y33265672D01*
X-50404801Y33265673D01*
X-50379355Y33273043D01*
X-50366628Y33276728D01*
X-50269861Y33333658D01*
X-50217175Y33379550D01*
X-50175112Y33424394D01*
X-50124485Y33524602D01*
X-50104974Y33591692D01*
X-50092822Y33677794D01*
X-50124619Y45963528D01*
X-50124620Y45963538D01*
X-50124620Y45963542D01*
X-50131665Y46027974D01*
X-50131665Y46027975D01*
X-50142840Y46079099D01*
X-50153672Y46116838D01*
X-50210294Y46213785D01*
X-50256018Y46266616D01*
X-50256022Y46266620D01*
X-50300722Y46308817D01*
X-50300730Y46308822D01*
X-50400774Y46359767D01*
X-50467795Y46379489D01*
X-50553859Y46391916D01*
X-67790999Y46402107D01*
X-67858027Y46421831D01*
X-67903751Y46474662D01*
X-67913653Y46543827D01*
X-67884591Y46607365D01*
X-67878621Y46613774D01*
X-67731161Y46761234D01*
X-67702909Y46782382D01*
X-67675539Y46797327D01*
X-67635470Y46810975D01*
X-67633393Y46811303D01*
X-67496591Y46832970D01*
X-67324361Y46888930D01*
X-67163006Y46971145D01*
X-67016499Y47077588D01*
X-66888447Y47205640D01*
X-66782004Y47352147D01*
X-66699789Y47513502D01*
X-66643829Y47685732D01*
X-66626046Y47798010D01*
X-66625771Y47799747D01*
X-66615334Y47833525D01*
X-66612715Y47839047D01*
X-66599647Y47853699D01*
X-66596118Y47861141D01*
X-66589122Y47865498D01*
X-66566206Y47891188D01*
X-66498890Y47909906D01*
X-66432140Y47889260D01*
X-66387182Y47835878D01*
X-66387009Y47835485D01*
X-66376500Y47785526D01*
X-66376500Y47312039D01*
X-66370874Y47265187D01*
X-66366762Y47230944D01*
X-66366397Y47224830D01*
X-66366284Y47224558D01*
X-66365492Y47222599D01*
X-66357577Y47202529D01*
X-66357577Y47202527D01*
X-66310363Y47082802D01*
X-66310360Y47082796D01*
X-66218924Y46962219D01*
X-66105096Y46875901D01*
X-66101898Y46873112D01*
X-66101893Y46873109D01*
X-66098610Y46870792D01*
X-66095404Y46869622D01*
X-65957564Y46815264D01*
X-65869102Y46804641D01*
X-65869097Y46804641D01*
X-64582903Y46804641D01*
X-64582898Y46804641D01*
X-64494436Y46815264D01*
X-64353658Y46870780D01*
X-64233078Y46962219D01*
X-64141639Y47082799D01*
X-64086123Y47223577D01*
X-64075500Y47312039D01*
X-64075500Y48598243D01*
X-64086123Y48686705D01*
X-64127590Y48791858D01*
X-64140477Y48824537D01*
X-64141651Y48827751D01*
X-64143966Y48831031D01*
X-64143969Y48831035D01*
X-64146756Y48834232D01*
X-64153205Y48842735D01*
X-64170310Y48873605D01*
X-64175863Y48888216D01*
X-64181281Y48957867D01*
X-64179994Y48963967D01*
X-64146894Y49025499D01*
X-64146530Y49025866D01*
X-62293676Y50878718D01*
X-62265426Y50899866D01*
X-62242334Y50912474D01*
X-62182909Y50927641D01*
X-62166945Y50927641D01*
X-62166943Y50927641D01*
X-62014216Y50968564D01*
X-61877284Y51047621D01*
X-61765480Y51159425D01*
X-61686423Y51296357D01*
X-61645500Y51449084D01*
X-61645500Y51585812D01*
X-61640477Y51620748D01*
X-61636073Y51635746D01*
X-61598328Y51694497D01*
X-61596959Y51695684D01*
X-61542080Y51723164D01*
X-61534521Y51724808D01*
X-61508168Y51727641D01*
X-59561129Y51727641D01*
X-59561127Y51727641D01*
X-59452908Y51756638D01*
X-59355882Y51812656D01*
X-59129718Y52038822D01*
X-59117543Y52049498D01*
X-59104743Y52059320D01*
X-59091269Y52068322D01*
X-59087284Y52070621D01*
X-58975480Y52182425D01*
X-58896423Y52319357D01*
X-58855500Y52472084D01*
X-58855500Y52630198D01*
X-58896423Y52782925D01*
X-58938194Y52855275D01*
X-58950273Y52876197D01*
X-58975472Y52919845D01*
X-58975480Y52919857D01*
X-58975487Y52919865D01*
X-59087278Y53031656D01*
X-59087280Y53031657D01*
X-59087283Y53031660D01*
X-59087291Y53031666D01*
X-59147903Y53066660D01*
X-59224193Y53110706D01*
X-59224217Y53110719D01*
X-59336021Y53140677D01*
X-59376943Y53151641D01*
X-59376944Y53151641D01*
X-59535057Y53151641D01*
X-59687782Y53110719D01*
X-59687789Y53110717D01*
X-59687790Y53110716D01*
X-59687800Y53110711D01*
X-59824702Y53031671D01*
X-59824706Y53031669D01*
X-59824710Y53031666D01*
X-59824718Y53031660D01*
X-59824722Y53031657D01*
X-59824724Y53031656D01*
X-59936515Y52919865D01*
X-59936516Y52919863D01*
X-59936519Y52919860D01*
X-59936519Y52919859D01*
X-59936525Y52919851D01*
X-59961728Y52876198D01*
X-60015071Y52783805D01*
X-60015568Y52782961D01*
X-60019673Y52768144D01*
X-60019802Y52767157D01*
X-60041076Y52687764D01*
X-60054970Y52655321D01*
X-60063103Y52641978D01*
X-60114792Y52594985D01*
X-60122767Y52591110D01*
X-60176959Y52578641D01*
X-65475719Y52578641D01*
X-65583931Y52549647D01*
X-65583942Y52549643D01*
X-65583943Y52549642D01*
X-65680964Y52493627D01*
X-65680973Y52493620D01*
X-66808910Y51365682D01*
X-66837166Y51344530D01*
X-66850887Y51337038D01*
X-66919147Y51322186D01*
X-66920953Y51322315D01*
X-66979163Y51341688D01*
X-66985668Y51345869D01*
X-67006304Y51362500D01*
X-67016493Y51372689D01*
X-67016502Y51372697D01*
X-67016526Y51372715D01*
X-67155112Y51473403D01*
X-67155445Y51473687D01*
X-67163013Y51479143D01*
X-67163428Y51479352D01*
X-67214699Y51505477D01*
X-67214700Y51505477D01*
X-67324361Y51561353D01*
X-67324364Y51561354D01*
X-67324367Y51561355D01*
X-67324369Y51561356D01*
X-67324388Y51561363D01*
X-67496588Y51617312D01*
X-67496587Y51617312D01*
X-67630735Y51638559D01*
X-67675449Y51645641D01*
X-67675450Y51645641D01*
X-67856550Y51645641D01*
X-67856551Y51645641D01*
X-67873983Y51642880D01*
X-68035415Y51617312D01*
X-68207614Y51561363D01*
X-68207637Y51561355D01*
X-68207647Y51561351D01*
X-68319318Y51504450D01*
X-68352726Y51493065D01*
X-68366368Y51490503D01*
X-68435889Y51497475D01*
X-68490604Y51540927D01*
X-68490605Y51540929D01*
X-68492528Y51543657D01*
X-68513513Y51594847D01*
X-68513835Y51596792D01*
X-68515500Y51617045D01*
X-68515500Y51697703D01*
X-68510478Y51732636D01*
X-68503066Y51757881D01*
X-68471772Y51810623D01*
X-68345677Y51936718D01*
X-68317427Y51957866D01*
X-68294335Y51970474D01*
X-68234910Y51985641D01*
X-68218945Y51985641D01*
X-68218943Y51985641D01*
X-68066216Y52026564D01*
X-67929284Y52105621D01*
X-67817480Y52217425D01*
X-67738423Y52354357D01*
X-67697500Y52507084D01*
X-67697500Y52665198D01*
X-67738423Y52817925D01*
X-67772065Y52876196D01*
X-67772065Y52876197D01*
X-67817473Y52954845D01*
X-67817476Y52954851D01*
X-67817482Y52954859D01*
X-67817483Y52954860D01*
X-67817487Y52954865D01*
X-67929278Y53066656D01*
X-67929280Y53066657D01*
X-67929283Y53066660D01*
X-67929291Y53066666D01*
X-67955853Y53082001D01*
X-68066193Y53145706D01*
X-68066217Y53145719D01*
X-68183526Y53177151D01*
X-68218943Y53186641D01*
X-68218944Y53186641D01*
X-68377064Y53186641D01*
X-68430142Y53172419D01*
X-68465182Y53168229D01*
X-68476488Y53168498D01*
X-68543041Y53189772D01*
X-68587527Y53243649D01*
X-68595822Y53313024D01*
X-68595813Y53313078D01*
X-68595711Y53313683D01*
X-68574453Y53364983D01*
X-68573147Y53366817D01*
X-68566608Y53374546D01*
X-68562519Y53379875D01*
X-68562516Y53379877D01*
X-68506497Y53476904D01*
X-68477500Y53585122D01*
X-68477500Y53697159D01*
X-68477500Y55001454D01*
X-65171763Y55001454D01*
X-65139584Y54839685D01*
X-65139583Y54839681D01*
X-65139582Y54839678D01*
X-65139579Y54839668D01*
X-65139576Y54839660D01*
X-65139571Y54839646D01*
X-65086783Y54712203D01*
X-65086778Y54712194D01*
X-65086768Y54712177D01*
X-65010114Y54597457D01*
X-65010113Y54597456D01*
X-65010108Y54597450D01*
X-64912552Y54499894D01*
X-64912546Y54499889D01*
X-64912542Y54499886D01*
X-64797818Y54423229D01*
X-64797805Y54423222D01*
X-64675928Y54372740D01*
X-64671506Y54370648D01*
X-64670775Y54370507D01*
X-64670121Y54370379D01*
X-64639305Y54364249D01*
X-64534998Y54343500D01*
X-64397005Y54343500D01*
X-64397004Y54343500D01*
X-64359117Y54351037D01*
X-64283340Y54366110D01*
X-64261672Y54370420D01*
X-64163076Y54411260D01*
X-64140745Y54420510D01*
X-64137955Y54421482D01*
X-64136513Y54422150D01*
X-64131836Y54424201D01*
X-64122576Y54428037D01*
X-64113691Y54436921D01*
X-64034243Y54490007D01*
X-64019458Y54499886D01*
X-64019455Y54499889D01*
X-64019450Y54499894D01*
X-64014748Y54503751D01*
X-64014016Y54502859D01*
X-63995376Y54516866D01*
X-63972284Y54529474D01*
X-63912859Y54544641D01*
X-59148599Y54544641D01*
X-59113664Y54539618D01*
X-59071846Y54527339D01*
X-59059338Y54522927D01*
X-58946402Y54476148D01*
X-58946401Y54476148D01*
X-58946400Y54476147D01*
X-58940947Y54473888D01*
X-58936532Y54471800D01*
X-58799999Y54444641D01*
X-58662005Y54444641D01*
X-58662004Y54444641D01*
X-58609557Y54455074D01*
X-58570959Y54462752D01*
X-58526672Y54471561D01*
X-58399189Y54524366D01*
X-58284458Y54601027D01*
X-58186886Y54698599D01*
X-58110225Y54813330D01*
X-58057420Y54940813D01*
X-58030500Y55076148D01*
X-58030500Y55214134D01*
X-58030500Y55214137D01*
X-58030500Y55214140D01*
X-58057659Y55350671D01*
X-58059741Y55355071D01*
X-58080919Y55406202D01*
X-58102427Y55458128D01*
X-58110219Y55476940D01*
X-58110224Y55476949D01*
X-58110229Y55476959D01*
X-58186886Y55591683D01*
X-58186889Y55591687D01*
X-58186894Y55591693D01*
X-58284450Y55689249D01*
X-58284456Y55689254D01*
X-58284457Y55689255D01*
X-58399177Y55765909D01*
X-58399178Y55765910D01*
X-58399183Y55765913D01*
X-58399196Y55765920D01*
X-58399203Y55765924D01*
X-58526646Y55818712D01*
X-58526660Y55818717D01*
X-58526668Y55818720D01*
X-58526678Y55818723D01*
X-58526681Y55818724D01*
X-58526685Y55818725D01*
X-58662002Y55845641D01*
X-58662005Y55845641D01*
X-58662007Y55845641D01*
X-58799993Y55845641D01*
X-58799995Y55845641D01*
X-58800000Y55845641D01*
X-58935317Y55818725D01*
X-58935323Y55818723D01*
X-58935333Y55818720D01*
X-58935338Y55818719D01*
X-58935356Y55818712D01*
X-59054444Y55769384D01*
X-59064846Y55765610D01*
X-59110532Y55751306D01*
X-59147582Y55745641D01*
X-64276239Y55745641D01*
X-64276302Y55745642D01*
X-64278206Y55745642D01*
X-64285802Y55745642D01*
X-64443916Y55745642D01*
X-64443919Y55745642D01*
X-64443922Y55745642D01*
X-64447524Y55745404D01*
X-64448648Y55745292D01*
X-64456668Y55744766D01*
X-64464783Y55744500D01*
X-64535000Y55744500D01*
X-64670317Y55717584D01*
X-64670323Y55717582D01*
X-64670333Y55717579D01*
X-64670338Y55717578D01*
X-64670356Y55717571D01*
X-64797799Y55664783D01*
X-64797808Y55664778D01*
X-64797825Y55664768D01*
X-64912545Y55588114D01*
X-64912546Y55588113D01*
X-64912552Y55588108D01*
X-65010108Y55490552D01*
X-65010113Y55490546D01*
X-65010114Y55490545D01*
X-65086768Y55375825D01*
X-65086778Y55375808D01*
X-65086783Y55375799D01*
X-65139571Y55248356D01*
X-65139584Y55248317D01*
X-65166500Y55113000D01*
X-65166500Y55019374D01*
X-65171763Y55001454D01*
X-68477500Y55001454D01*
X-68477500Y58927702D01*
X-68472478Y58962635D01*
X-68465066Y58987880D01*
X-68433772Y59040622D01*
X-68177676Y59296718D01*
X-68149426Y59317866D01*
X-68126334Y59330474D01*
X-68066909Y59345641D01*
X-67603710Y59345641D01*
X-67568778Y59340620D01*
X-67543534Y59333207D01*
X-67490788Y59301911D01*
X-67479446Y59290569D01*
X-67478931Y59290191D01*
X-67476321Y59288786D01*
X-67385875Y59236568D01*
X-67342566Y59211564D01*
X-67189839Y59170641D01*
X-67189837Y59170641D01*
X-67031727Y59170641D01*
X-67031725Y59170641D01*
X-66878998Y59211564D01*
X-66742066Y59290621D01*
X-66630262Y59402425D01*
X-66551205Y59539357D01*
X-66510282Y59692084D01*
X-66510282Y59850198D01*
X-66542897Y59971918D01*
X-66547086Y60006957D01*
X-66546756Y60020834D01*
X-66525483Y60087383D01*
X-66471608Y60131868D01*
X-66463774Y60135223D01*
X-66414975Y60145228D01*
X-65996027Y60145228D01*
X-65961095Y60140207D01*
X-65935851Y60132794D01*
X-65883105Y60101498D01*
X-64200739Y58419133D01*
X-64200718Y58419111D01*
X-64199675Y58418068D01*
X-64195345Y58413738D01*
X-64195344Y58413737D01*
X-64116122Y58334515D01*
X-64019096Y58278497D01*
X-63910878Y58249500D01*
X-63910877Y58249500D01*
X-62568928Y58249500D01*
X-62533996Y58244479D01*
X-62508752Y58237066D01*
X-62456006Y58205770D01*
X-62444664Y58194428D01*
X-62444148Y58194048D01*
X-62441525Y58192637D01*
X-62307791Y58115427D01*
X-62307784Y58115423D01*
X-62155057Y58074500D01*
X-62155055Y58074500D01*
X-61996945Y58074500D01*
X-61996943Y58074500D01*
X-61844216Y58115423D01*
X-61707284Y58194480D01*
X-61595480Y58306284D01*
X-61516423Y58443216D01*
X-61475500Y58595943D01*
X-61475500Y58754057D01*
X-61516423Y58906784D01*
X-61577498Y59012570D01*
X-61595476Y59043710D01*
X-61595482Y59043718D01*
X-61595487Y59043724D01*
X-61707278Y59155515D01*
X-61707280Y59155516D01*
X-61707283Y59155519D01*
X-61707291Y59155525D01*
X-61733853Y59170860D01*
X-61844193Y59234565D01*
X-61844221Y59234580D01*
X-61844517Y59234692D01*
X-61865055Y59244742D01*
X-61878719Y59253071D01*
X-61925717Y59304772D01*
X-61937303Y59373664D01*
X-61937109Y59375283D01*
X-61916676Y59430069D01*
X-61913862Y59434228D01*
X-61898864Y59452389D01*
X-61736392Y59614860D01*
X-61680374Y59711886D01*
X-61651377Y59820105D01*
X-61651377Y59917624D01*
X-61646355Y59952557D01*
X-61638943Y59977802D01*
X-61607648Y60030545D01*
X-61596357Y60041835D01*
X-61517300Y60178767D01*
X-61476377Y60331494D01*
X-61476377Y60489608D01*
X-61517300Y60642335D01*
X-61553711Y60705402D01*
X-61553711Y60705403D01*
X-61577350Y60746346D01*
X-61596353Y60779261D01*
X-61596359Y60779269D01*
X-61596360Y60779270D01*
X-61596364Y60779275D01*
X-61708155Y60891066D01*
X-61708157Y60891067D01*
X-61708160Y60891070D01*
X-61708168Y60891076D01*
X-61734730Y60906411D01*
X-61845070Y60970116D01*
X-61845094Y60970129D01*
X-61965747Y61002457D01*
X-61997820Y61011051D01*
X-61997821Y61011051D01*
X-62155934Y61011051D01*
X-62308659Y60970129D01*
X-62308666Y60970127D01*
X-62308667Y60970126D01*
X-62308677Y60970121D01*
X-62445579Y60891081D01*
X-62445583Y60891079D01*
X-62445587Y60891076D01*
X-62445595Y60891070D01*
X-62445599Y60891067D01*
X-62445601Y60891066D01*
X-62557392Y60779275D01*
X-62557393Y60779273D01*
X-62557396Y60779270D01*
X-62557396Y60779269D01*
X-62557402Y60779261D01*
X-62557405Y60779257D01*
X-62557407Y60779253D01*
X-62636447Y60642351D01*
X-62636452Y60642341D01*
X-62636453Y60642340D01*
X-62636454Y60642336D01*
X-62636454Y60642335D01*
X-62677377Y60489608D01*
X-62677377Y60331495D01*
X-62674546Y60320929D01*
X-62636458Y60178782D01*
X-62636453Y60178765D01*
X-62636449Y60178757D01*
X-62597603Y60111474D01*
X-62584486Y60078711D01*
X-62580801Y60063523D01*
X-62584124Y59993733D01*
X-62584128Y59993721D01*
X-62587029Y59985341D01*
X-62616525Y59938225D01*
X-62954322Y59600427D01*
X-62982573Y59579278D01*
X-63005661Y59566670D01*
X-63065091Y59551500D01*
X-63322419Y59551500D01*
X-63357355Y59556523D01*
X-63382597Y59563935D01*
X-63435342Y59595231D01*
X-65376322Y61536211D01*
X-65376324Y61536213D01*
X-65473350Y61592231D01*
X-65581569Y61621228D01*
X-65581570Y61621228D01*
X-66104889Y61621228D01*
X-66139825Y61626251D01*
X-66165067Y61633663D01*
X-66217815Y61664962D01*
X-66229097Y61676245D01*
X-66229100Y61676247D01*
X-66229108Y61676253D01*
X-66255670Y61691588D01*
X-66366010Y61755293D01*
X-66366034Y61755306D01*
X-66477838Y61785264D01*
X-66518760Y61796228D01*
X-66518761Y61796228D01*
X-66676874Y61796228D01*
X-66829599Y61755306D01*
X-66829606Y61755304D01*
X-66829607Y61755303D01*
X-66829617Y61755298D01*
X-66966519Y61676258D01*
X-66966523Y61676256D01*
X-66966527Y61676253D01*
X-66966535Y61676247D01*
X-66966539Y61676244D01*
X-66966541Y61676243D01*
X-67078332Y61564452D01*
X-67078333Y61564450D01*
X-67078336Y61564447D01*
X-67078336Y61564446D01*
X-67078342Y61564438D01*
X-67078345Y61564434D01*
X-67078347Y61564430D01*
X-67157387Y61427528D01*
X-67157392Y61427518D01*
X-67157393Y61427517D01*
X-67157395Y61427510D01*
X-67199333Y61270993D01*
X-67201925Y61258730D01*
X-67207746Y61238907D01*
X-67245515Y61180135D01*
X-67252216Y61174328D01*
X-67301330Y61148262D01*
X-67368346Y61130306D01*
X-67368417Y61130276D01*
X-67369228Y61129798D01*
X-67505273Y61051254D01*
X-67505283Y61051247D01*
X-67511213Y61045316D01*
X-67539467Y61024167D01*
X-67553187Y61016676D01*
X-67621450Y61001825D01*
X-67624952Y61002076D01*
X-67630295Y61002458D01*
X-67683451Y61018754D01*
X-67698511Y61027449D01*
X-67851238Y61068372D01*
X-67851239Y61068372D01*
X-68009352Y61068372D01*
X-68162077Y61027450D01*
X-68162084Y61027448D01*
X-68162085Y61027447D01*
X-68162095Y61027442D01*
X-68298997Y60948402D01*
X-68299013Y60948392D01*
X-68299019Y60948386D01*
X-68328837Y60918567D01*
X-68357089Y60897417D01*
X-68380176Y60884810D01*
X-68439605Y60869641D01*
X-68975019Y60869641D01*
X-69083240Y60840644D01*
X-69180263Y60784627D01*
X-69180267Y60784624D01*
X-72262385Y57702505D01*
X-72290471Y57687169D01*
X-72316147Y57648743D01*
X-72360486Y57604405D01*
X-72360987Y57603708D01*
X-72362347Y57601180D01*
X-72416501Y57507383D01*
X-72416502Y57507382D01*
X-72416506Y57507371D01*
X-72445500Y57399159D01*
X-72445500Y53290069D01*
X-72450524Y53255130D01*
X-72457936Y53229890D01*
X-72489228Y53177151D01*
X-72500514Y53165866D01*
X-72500519Y53165859D01*
X-72500525Y53165851D01*
X-72500528Y53165847D01*
X-72500530Y53165843D01*
X-72579570Y53028941D01*
X-72579575Y53028931D01*
X-72579576Y53028930D01*
X-72579578Y53028923D01*
X-72620500Y52876198D01*
X-72620500Y52718084D01*
X-72607762Y52670546D01*
X-72591782Y52610909D01*
X-72591776Y52610888D01*
X-72579576Y52565354D01*
X-72579575Y52565353D01*
X-72579574Y52565351D01*
X-72570365Y52549401D01*
X-72502371Y52431628D01*
X-72500988Y52429057D01*
X-72500602Y52428507D01*
X-72388664Y52316569D01*
X-72388148Y52316189D01*
X-72385525Y52314778D01*
X-72251791Y52237568D01*
X-72251784Y52237564D01*
X-72099057Y52196641D01*
X-72099055Y52196641D01*
X-71940945Y52196641D01*
X-71940943Y52196641D01*
X-71788216Y52237564D01*
X-71651284Y52316621D01*
X-71539480Y52428425D01*
X-71460423Y52565357D01*
X-71419500Y52718084D01*
X-71419500Y52876198D01*
X-71460423Y53028925D01*
X-71460425Y53028928D01*
X-71460425Y53028930D01*
X-71462003Y53031662D01*
X-71462010Y53031673D01*
X-71507644Y53110715D01*
X-71539476Y53165851D01*
X-71539482Y53165859D01*
X-71539487Y53165865D01*
X-71545575Y53171953D01*
X-71566727Y53200209D01*
X-71579333Y53223296D01*
X-71594500Y53282721D01*
X-71594500Y57097703D01*
X-71589478Y57132636D01*
X-71582066Y57157881D01*
X-71550772Y57210623D01*
X-69552786Y59208609D01*
X-69524543Y59229753D01*
X-69514609Y59235177D01*
X-69446339Y59250030D01*
X-69380874Y59225616D01*
X-69339001Y59169684D01*
X-69338999Y59169680D01*
X-69336318Y59162492D01*
X-69328500Y59119158D01*
X-69328500Y53886581D01*
X-69333524Y53851644D01*
X-69340936Y53826403D01*
X-69372231Y53773659D01*
X-69901322Y53244568D01*
X-69929573Y53223419D01*
X-69952661Y53210811D01*
X-70012091Y53195641D01*
X-70028057Y53195641D01*
X-70180782Y53154719D01*
X-70180789Y53154717D01*
X-70180790Y53154716D01*
X-70180800Y53154711D01*
X-70317702Y53075671D01*
X-70317706Y53075669D01*
X-70317710Y53075666D01*
X-70317718Y53075660D01*
X-70317722Y53075657D01*
X-70317724Y53075656D01*
X-70429515Y52963865D01*
X-70429516Y52963863D01*
X-70429519Y52963860D01*
X-70429519Y52963859D01*
X-70429525Y52963851D01*
X-70429528Y52963847D01*
X-70429530Y52963843D01*
X-70508570Y52826941D01*
X-70508575Y52826931D01*
X-70508576Y52826930D01*
X-70508578Y52826923D01*
X-70537740Y52718086D01*
X-70549500Y52674198D01*
X-70549500Y52516084D01*
X-70537710Y52472086D01*
X-70526011Y52428424D01*
X-70508577Y52363358D01*
X-70508576Y52363354D01*
X-70508575Y52363353D01*
X-70508574Y52363351D01*
X-70494294Y52338617D01*
X-70431371Y52229628D01*
X-70429988Y52227057D01*
X-70429602Y52226507D01*
X-70317664Y52114569D01*
X-70317145Y52114188D01*
X-70314513Y52112771D01*
X-70302128Y52105621D01*
X-70196358Y52044555D01*
X-70196355Y52044554D01*
X-70180784Y52035564D01*
X-70028057Y51994641D01*
X-70028055Y51994641D01*
X-69869945Y51994641D01*
X-69869943Y51994641D01*
X-69717216Y52035564D01*
X-69580284Y52114621D01*
X-69580282Y52114623D01*
X-69573837Y52119568D01*
X-69573086Y52118589D01*
X-69557568Y52130234D01*
X-69547646Y52135652D01*
X-69479374Y52150505D01*
X-69413909Y52126089D01*
X-69372072Y52070250D01*
X-69371857Y52069675D01*
X-69364566Y52014444D01*
X-69365002Y52009884D01*
X-69366427Y51999822D01*
X-69366500Y51999163D01*
X-69366500Y51495846D01*
X-69371525Y51460902D01*
X-69375174Y51448478D01*
X-69412953Y51389703D01*
X-69476511Y51360683D01*
X-69540780Y51368524D01*
X-69549367Y51372009D01*
X-69575621Y51386588D01*
X-69695112Y51473402D01*
X-69695452Y51473692D01*
X-69703013Y51479143D01*
X-69703428Y51479352D01*
X-69754699Y51505477D01*
X-69754700Y51505477D01*
X-69864361Y51561353D01*
X-69864364Y51561354D01*
X-69864367Y51561355D01*
X-69864369Y51561356D01*
X-69864388Y51561363D01*
X-70036588Y51617312D01*
X-70036587Y51617312D01*
X-70170735Y51638559D01*
X-70215449Y51645641D01*
X-70215450Y51645641D01*
X-70396550Y51645641D01*
X-70396551Y51645641D01*
X-70413983Y51642880D01*
X-70575415Y51617312D01*
X-70747614Y51561363D01*
X-70747637Y51561355D01*
X-70747641Y51561353D01*
X-70908995Y51479137D01*
X-70908998Y51479136D01*
X-70908998Y51479135D01*
X-70916889Y51473402D01*
X-71055501Y51372696D01*
X-71055509Y51372689D01*
X-71183548Y51244650D01*
X-71183555Y51244642D01*
X-71289996Y51098136D01*
X-71372212Y50936782D01*
X-71372214Y50936778D01*
X-71372222Y50936755D01*
X-71428171Y50764556D01*
X-71450738Y50622074D01*
X-71461166Y50588349D01*
X-71464143Y50582070D01*
X-71510650Y50529928D01*
X-71577965Y50511206D01*
X-71644715Y50531849D01*
X-71688979Y50583675D01*
X-71691440Y50589063D01*
X-71701121Y50621178D01*
X-71712260Y50691502D01*
X-71714622Y50706413D01*
X-71716435Y50717863D01*
X-71723829Y50764550D01*
X-71751809Y50850665D01*
X-71760898Y50878640D01*
X-71779764Y50936706D01*
X-71779781Y50936755D01*
X-71779788Y50936778D01*
X-71779789Y50936781D01*
X-71808260Y50992657D01*
X-71862004Y51098135D01*
X-71906533Y51159424D01*
X-71968442Y51244636D01*
X-71968446Y51244641D01*
X-71968447Y51244642D01*
X-71968454Y51244650D01*
X-72096493Y51372689D01*
X-72096502Y51372697D01*
X-72096526Y51372715D01*
X-72235112Y51473403D01*
X-72235445Y51473687D01*
X-72243013Y51479143D01*
X-72243428Y51479352D01*
X-72294699Y51505477D01*
X-72294700Y51505477D01*
X-72404361Y51561353D01*
X-72404364Y51561354D01*
X-72404367Y51561355D01*
X-72404369Y51561356D01*
X-72404388Y51561363D01*
X-72576588Y51617312D01*
X-72576587Y51617312D01*
X-72710735Y51638559D01*
X-72755449Y51645641D01*
X-72755450Y51645641D01*
X-72936550Y51645641D01*
X-72936551Y51645641D01*
X-72953983Y51642880D01*
X-73115415Y51617312D01*
X-73287614Y51561363D01*
X-73287637Y51561355D01*
X-73287641Y51561353D01*
X-73448995Y51479137D01*
X-73448998Y51479136D01*
X-73448998Y51479135D01*
X-73456889Y51473402D01*
X-73595501Y51372696D01*
X-73595509Y51372689D01*
X-73723548Y51244650D01*
X-73723555Y51244642D01*
X-73829996Y51098136D01*
X-73912212Y50936782D01*
X-73912214Y50936778D01*
X-73912222Y50936755D01*
X-73968171Y50764556D01*
X-73990738Y50622074D01*
X-74001166Y50588349D01*
X-74004143Y50582070D01*
X-74050650Y50529928D01*
X-74117965Y50511206D01*
X-74184715Y50531849D01*
X-74228979Y50583675D01*
X-74231440Y50589063D01*
X-74241121Y50621178D01*
X-74252260Y50691502D01*
X-74254622Y50706413D01*
X-74256435Y50717863D01*
X-74263829Y50764550D01*
X-74291809Y50850665D01*
X-74300898Y50878640D01*
X-74319764Y50936706D01*
X-74319781Y50936755D01*
X-74319788Y50936778D01*
X-74319789Y50936781D01*
X-74348260Y50992657D01*
X-74402004Y51098135D01*
X-74446533Y51159424D01*
X-74508442Y51244636D01*
X-74508446Y51244641D01*
X-74508447Y51244642D01*
X-74508454Y51244650D01*
X-74636493Y51372689D01*
X-74636502Y51372697D01*
X-74636526Y51372715D01*
X-74775112Y51473403D01*
X-74775445Y51473687D01*
X-74783013Y51479143D01*
X-74783428Y51479352D01*
X-74834699Y51505477D01*
X-74834700Y51505477D01*
X-74944361Y51561353D01*
X-74944364Y51561354D01*
X-74944367Y51561355D01*
X-74944369Y51561356D01*
X-74944388Y51561363D01*
X-75116588Y51617312D01*
X-75116587Y51617312D01*
X-75250735Y51638559D01*
X-75295449Y51645641D01*
X-75295450Y51645641D01*
X-75476550Y51645641D01*
X-75476551Y51645641D01*
X-75493983Y51642880D01*
X-75655415Y51617312D01*
X-75827614Y51561363D01*
X-75827637Y51561355D01*
X-75827641Y51561353D01*
X-75988995Y51479137D01*
X-75988998Y51479136D01*
X-75988998Y51479135D01*
X-75996889Y51473402D01*
X-76135501Y51372696D01*
X-76135509Y51372689D01*
X-76263548Y51244650D01*
X-76263555Y51244642D01*
X-76369996Y51098136D01*
X-76452212Y50936782D01*
X-76452214Y50936778D01*
X-76452222Y50936755D01*
X-76508171Y50764556D01*
X-76536500Y50585693D01*
X-76536500Y50404591D01*
X-76508171Y50225728D01*
X-76452222Y50053529D01*
X-76452214Y50053506D01*
X-76452212Y50053502D01*
X-76369994Y49892144D01*
X-76263559Y49745647D01*
X-76263555Y49745642D01*
X-76263548Y49745634D01*
X-76135509Y49617595D01*
X-76135500Y49617587D01*
X-76135476Y49617569D01*
X-76050243Y49555644D01*
X-76050241Y49555643D01*
X-76050238Y49555641D01*
X-75988994Y49511145D01*
X-75909471Y49470626D01*
X-75827640Y49428930D01*
X-75827637Y49428929D01*
X-75741524Y49400950D01*
X-75655409Y49372970D01*
X-75535962Y49354052D01*
X-75511327Y49350150D01*
X-75477612Y49339725D01*
X-75471328Y49336746D01*
X-75419186Y49290239D01*
X-75400464Y49222924D01*
X-75421107Y49156174D01*
X-75472933Y49111910D01*
X-75478321Y49109449D01*
X-75510441Y49099767D01*
X-75655296Y49076824D01*
X-75827443Y49020891D01*
X-75827458Y49020886D01*
X-75988733Y48938708D01*
X-76004535Y48927229D01*
X-75642150Y48564844D01*
X-75608665Y48503521D01*
X-75613649Y48433829D01*
X-75655521Y48377896D01*
X-75667829Y48369777D01*
X-75693004Y48355242D01*
X-75693010Y48355238D01*
X-75786097Y48262151D01*
X-75786101Y48262145D01*
X-75800636Y48236970D01*
X-75851204Y48188756D01*
X-75919811Y48175534D01*
X-75984675Y48201503D01*
X-75995703Y48211291D01*
X-76358088Y48573676D01*
X-76369567Y48557874D01*
X-76451745Y48396599D01*
X-76451750Y48396584D01*
X-76507683Y48224437D01*
X-76536000Y48045654D01*
X-76536000Y47864630D01*
X-76507683Y47685845D01*
X-76451758Y47513721D01*
X-76451751Y47513702D01*
X-76451749Y47513697D01*
X-76451748Y47513694D01*
X-76371602Y47356400D01*
X-76367818Y47340639D01*
X-76358088Y47336609D01*
X-76358088Y47336610D01*
X-76358087Y47336609D01*
X-76358087Y47336608D01*
X-75995701Y47698996D01*
X-75934382Y47732478D01*
X-75864690Y47727494D01*
X-75808756Y47685623D01*
X-75800637Y47673313D01*
X-75786104Y47648141D01*
X-75786101Y47648137D01*
X-75786099Y47648134D01*
X-75693007Y47555042D01*
X-75667831Y47540507D01*
X-75619616Y47489939D01*
X-75606394Y47421332D01*
X-75632362Y47356468D01*
X-75642151Y47345439D01*
X-76004534Y46983057D01*
X-76004534Y46983056D01*
X-76004534Y46983055D01*
X-75988733Y46971575D01*
X-75988725Y46971570D01*
X-75827448Y46889394D01*
X-75827445Y46889393D01*
X-75827443Y46889393D01*
X-75827442Y46889392D01*
X-75827422Y46889385D01*
X-75655297Y46833460D01*
X-75655294Y46833459D01*
X-75476506Y46805141D01*
X-75295495Y46805141D01*
X-75295494Y46805141D01*
X-75116707Y46833459D01*
X-74944556Y46889393D01*
X-74944548Y46889396D01*
X-74787260Y46969541D01*
X-74771499Y46973325D01*
X-74767467Y46983057D01*
X-75129850Y47345439D01*
X-75163335Y47406762D01*
X-75158351Y47476453D01*
X-75116480Y47532387D01*
X-75104178Y47540502D01*
X-75078993Y47555042D01*
X-74985901Y47648134D01*
X-74971366Y47673311D01*
X-74920800Y47721525D01*
X-74852193Y47734749D01*
X-74787328Y47708781D01*
X-74776298Y47698991D01*
X-74413916Y47336608D01*
X-74413916Y47336609D01*
X-74413915Y47336608D01*
X-74413915Y47336609D01*
X-74404184Y47340640D01*
X-74400400Y47356400D01*
X-74320346Y47513510D01*
X-74320257Y47513685D01*
X-74320257Y47513686D01*
X-74320255Y47513689D01*
X-74320252Y47513697D01*
X-74264317Y47685849D01*
X-74241515Y47829821D01*
X-74231094Y47863523D01*
X-74228113Y47869811D01*
X-74181611Y47921953D01*
X-74114298Y47940679D01*
X-74047546Y47920040D01*
X-74003275Y47868209D01*
X-74000815Y47862823D01*
X-73991134Y47830704D01*
X-73968172Y47685730D01*
X-73912223Y47513533D01*
X-73912215Y47513509D01*
X-73912214Y47513506D01*
X-73912213Y47513505D01*
X-73912212Y47513502D01*
X-73856336Y47403841D01*
X-73832199Y47356468D01*
X-73830131Y47352411D01*
X-73829994Y47352144D01*
X-73725448Y47208247D01*
X-73723555Y47205642D01*
X-73723548Y47205634D01*
X-73595507Y47077593D01*
X-73595504Y47077591D01*
X-73595500Y47077587D01*
X-73595495Y47077583D01*
X-73514267Y47018568D01*
X-73491652Y47002137D01*
X-73475268Y46990234D01*
X-73448994Y46971145D01*
X-73343516Y46917401D01*
X-73287640Y46888930D01*
X-73287637Y46888929D01*
X-73201524Y46860950D01*
X-73154841Y46845782D01*
X-73115416Y46832972D01*
X-73115415Y46832972D01*
X-73115409Y46832970D01*
X-73032571Y46819850D01*
X-72936551Y46804641D01*
X-72936546Y46804641D01*
X-72755452Y46804641D01*
X-72755449Y46804641D01*
X-72668741Y46818376D01*
X-72576591Y46832970D01*
X-72404361Y46888930D01*
X-72243006Y46971145D01*
X-72096499Y47077588D01*
X-71994480Y47179609D01*
X-71966230Y47200756D01*
X-71952510Y47208248D01*
X-71884253Y47223098D01*
X-71882443Y47222969D01*
X-71824243Y47203601D01*
X-71817730Y47199415D01*
X-71797090Y47182782D01*
X-71230181Y46615873D01*
X-71196696Y46554550D01*
X-71201680Y46484858D01*
X-71243552Y46428925D01*
X-71309016Y46404508D01*
X-71317935Y46404192D01*
X-72829250Y46405085D01*
X-72829263Y46405084D01*
X-72894200Y46398141D01*
X-72894203Y46398140D01*
X-72945719Y46386965D01*
X-72983928Y46376031D01*
X-72983929Y46376031D01*
X-73080874Y46319412D01*
X-73133705Y46273689D01*
X-73175907Y46228984D01*
X-73175909Y46228982D01*
X-73175910Y46228980D01*
X-73183649Y46213782D01*
X-73226857Y46128934D01*
X-73246583Y46061906D01*
X-73259009Y45975848D01*
X-73259009Y45975843D01*
X-73261305Y42148936D01*
X-73261305Y42148935D01*
X-73261542Y41754707D01*
X-73261964Y41051446D01*
X-73261964Y41051444D01*
X-73261969Y41043238D01*
X-73262549Y40077140D01*
X-73262549Y40077138D01*
X-73262554Y40068932D01*
X-73264346Y37083426D01*
X-73284071Y37016398D01*
X-73336902Y36970675D01*
X-73388346Y36959500D01*
X-83625073Y36959500D01*
X-83660009Y36964523D01*
X-83685251Y36971935D01*
X-83737996Y37003231D01*
X-87038574Y40303809D01*
X-87059726Y40332065D01*
X-87072333Y40355154D01*
X-87087500Y40414579D01*
X-87087500Y50527552D01*
X-84095500Y50527552D01*
X-84095500Y50346450D01*
X-84067171Y50167587D01*
X-84011222Y49995388D01*
X-84011214Y49995365D01*
X-84011212Y49995361D01*
X-83928994Y49834003D01*
X-83822559Y49687506D01*
X-83822555Y49687501D01*
X-83822548Y49687493D01*
X-83694509Y49559454D01*
X-83694500Y49559446D01*
X-83694476Y49559428D01*
X-83628028Y49511151D01*
X-83628026Y49511150D01*
X-83628023Y49511148D01*
X-83547994Y49453004D01*
X-83442516Y49399260D01*
X-83386640Y49370789D01*
X-83386637Y49370788D01*
X-83315313Y49347614D01*
X-83214409Y49314829D01*
X-83110284Y49298338D01*
X-83100346Y49296764D01*
X-83066627Y49286339D01*
X-83061106Y49283722D01*
X-83008959Y49237220D01*
X-82990231Y49169907D01*
X-83010868Y49103155D01*
X-83064152Y49058230D01*
X-83064549Y49058056D01*
X-83114610Y49047500D01*
X-83839857Y49047500D01*
X-83839873Y49047499D01*
X-83839887Y49047498D01*
X-83857745Y49045427D01*
X-83864988Y49044587D01*
X-83864989Y49044587D01*
X-83864995Y49044586D01*
X-83865441Y49044453D01*
X-83867697Y49043391D01*
X-83967764Y48999208D01*
X-84047207Y48919766D01*
X-84092586Y48816995D01*
X-84093156Y48814290D01*
X-84093411Y48809876D01*
X-84095498Y48791883D01*
X-84095500Y48791869D01*
X-84095500Y47002144D01*
X-84095499Y47002137D01*
X-84095498Y47002115D01*
X-84094015Y46989326D01*
X-84093288Y46983055D01*
X-84092586Y46977007D01*
X-84092454Y46976562D01*
X-84091391Y46974304D01*
X-84047942Y46875901D01*
X-84047207Y46874236D01*
X-84047206Y46874235D01*
X-83967765Y46794794D01*
X-83864991Y46749415D01*
X-83839865Y46746500D01*
X-82050136Y46746501D01*
X-82050121Y46746501D01*
X-82050022Y46746508D01*
X-82049267Y46746602D01*
X-82032107Y46748592D01*
X-82026389Y46748922D01*
X-82025775Y46749022D01*
X-82023137Y46750242D01*
X-81922235Y46794794D01*
X-81842794Y46874235D01*
X-81797415Y46977009D01*
X-81794500Y47002135D01*
X-81794501Y48791864D01*
X-81794503Y48791883D01*
X-81796591Y48809887D01*
X-81796922Y48815610D01*
X-81797045Y48816370D01*
X-81798594Y48819661D01*
X-81842794Y48919765D01*
X-81922235Y48999206D01*
X-81968294Y49019543D01*
X-81968296Y49019544D01*
X-81968298Y49019546D01*
X-82025006Y49044585D01*
X-82025009Y49044586D01*
X-82050131Y49047500D01*
X-82050132Y49047500D01*
X-82770042Y49047500D01*
X-82804972Y49052522D01*
X-82810834Y49054243D01*
X-82869614Y49092015D01*
X-82898641Y49155569D01*
X-82888700Y49224728D01*
X-82843017Y49277490D01*
X-82842652Y49277725D01*
X-82794950Y49295926D01*
X-82783986Y49297662D01*
X-82675591Y49314829D01*
X-82503361Y49370789D01*
X-82342006Y49453004D01*
X-82195499Y49559447D01*
X-82067447Y49687499D01*
X-81961004Y49834006D01*
X-81878789Y49995361D01*
X-81822829Y50167591D01*
X-81804902Y50280779D01*
X-81794500Y50346449D01*
X-81794500Y50527552D01*
X-81801407Y50571161D01*
X-81822829Y50706411D01*
X-81869699Y50850665D01*
X-81878787Y50878636D01*
X-81878789Y50878640D01*
X-81907260Y50934516D01*
X-81907261Y50934517D01*
X-81908415Y50936781D01*
X-81961004Y51039994D01*
X-81961005Y51039996D01*
X-81974603Y51058711D01*
X-81974605Y51058715D01*
X-82067430Y51186478D01*
X-82067442Y51186495D01*
X-82067446Y51186500D01*
X-82067449Y51186503D01*
X-82067452Y51186507D01*
X-82195493Y51314548D01*
X-82195502Y51314556D01*
X-82195526Y51314574D01*
X-82334112Y51415262D01*
X-82334445Y51415546D01*
X-82342003Y51420994D01*
X-82342004Y51420995D01*
X-82342006Y51420996D01*
X-82342017Y51421004D01*
X-82342376Y51421185D01*
X-82397135Y51449086D01*
X-82397135Y51449087D01*
X-82397137Y51449087D01*
X-82503361Y51503212D01*
X-82503365Y51503214D01*
X-82503388Y51503222D01*
X-82675588Y51559171D01*
X-82675587Y51559171D01*
X-82843792Y51585812D01*
X-82854449Y51587500D01*
X-82854450Y51587500D01*
X-83035550Y51587500D01*
X-83035551Y51587500D01*
X-83046208Y51585812D01*
X-83214415Y51559171D01*
X-83386614Y51503222D01*
X-83386637Y51503214D01*
X-83386641Y51503212D01*
X-83547995Y51420996D01*
X-83547998Y51420995D01*
X-83547998Y51420994D01*
X-83561785Y51410977D01*
X-83694501Y51314555D01*
X-83694509Y51314548D01*
X-83822548Y51186509D01*
X-83822555Y51186501D01*
X-83842227Y51159424D01*
X-83923458Y51047617D01*
X-83928996Y51039995D01*
X-84011212Y50878641D01*
X-84011214Y50878637D01*
X-84011222Y50878614D01*
X-84067171Y50706415D01*
X-84095500Y50527552D01*
X-87087500Y50527552D01*
X-87087500Y54455074D01*
X-87082478Y54490007D01*
X-87079577Y54499886D01*
X-87075066Y54515252D01*
X-87043772Y54567994D01*
X-85890786Y55720980D01*
X-85862536Y55742128D01*
X-85848812Y55749622D01*
X-85780554Y55764473D01*
X-85778744Y55764344D01*
X-85720547Y55744978D01*
X-85714029Y55740789D01*
X-85693394Y55724159D01*
X-84151056Y54181821D01*
X-84151035Y54181799D01*
X-84033805Y54064569D01*
X-84033286Y54064188D01*
X-84030648Y54062768D01*
X-83923714Y54001030D01*
X-83923712Y54001030D01*
X-83896925Y53985564D01*
X-83785122Y53955607D01*
X-83744199Y53944641D01*
X-83744198Y53944641D01*
X-79479599Y53944641D01*
X-79444664Y53939618D01*
X-79402846Y53927339D01*
X-79390343Y53922929D01*
X-79271920Y53873877D01*
X-79267505Y53871789D01*
X-79266775Y53871648D01*
X-79266121Y53871520D01*
X-79210528Y53860462D01*
X-79130998Y53844641D01*
X-78993005Y53844641D01*
X-78993004Y53844641D01*
X-78871799Y53868751D01*
X-78857672Y53871561D01*
X-78730189Y53924366D01*
X-78615458Y54001027D01*
X-78517886Y54098599D01*
X-78441225Y54213330D01*
X-78388420Y54340813D01*
X-78372028Y54423222D01*
X-78366676Y54450125D01*
X-78366676Y54450129D01*
X-78364164Y54462752D01*
X-78361500Y54476146D01*
X-78361500Y54614137D01*
X-78361500Y54614140D01*
X-78388659Y54750672D01*
X-78390745Y54755082D01*
X-78395919Y54767573D01*
X-78395919Y54767574D01*
X-78441217Y54876933D01*
X-78441222Y54876946D01*
X-78441229Y54876959D01*
X-78517886Y54991683D01*
X-78517889Y54991687D01*
X-78517894Y54991693D01*
X-78615450Y55089249D01*
X-78615456Y55089254D01*
X-78615457Y55089255D01*
X-78730177Y55165909D01*
X-78730178Y55165910D01*
X-78730183Y55165913D01*
X-78730196Y55165920D01*
X-78730203Y55165924D01*
X-78857646Y55218712D01*
X-78857660Y55218717D01*
X-78857668Y55218720D01*
X-78857678Y55218723D01*
X-78857681Y55218724D01*
X-78857685Y55218725D01*
X-78993002Y55245641D01*
X-78993005Y55245641D01*
X-78993007Y55245641D01*
X-79130993Y55245641D01*
X-79130995Y55245641D01*
X-79131000Y55245641D01*
X-79266317Y55218725D01*
X-79266323Y55218723D01*
X-79266333Y55218720D01*
X-79266338Y55218719D01*
X-79266356Y55218712D01*
X-79385444Y55169384D01*
X-79395846Y55165610D01*
X-79441532Y55151306D01*
X-79478582Y55145641D01*
X-83347214Y55145641D01*
X-83382150Y55150664D01*
X-83407392Y55158076D01*
X-83460137Y55189372D01*
X-84990574Y56719809D01*
X-85011726Y56748065D01*
X-85024333Y56771154D01*
X-85039500Y56830579D01*
X-85039500Y72250172D01*
X-85034477Y72285108D01*
X-85030073Y72300106D01*
X-84992328Y72358857D01*
X-84990959Y72360044D01*
X-84936080Y72387524D01*
X-84928521Y72389168D01*
X-84902168Y72392001D01*
X-84540000Y72392001D01*
X-84540000Y72929750D01*
X-84520315Y72996789D01*
X-84467511Y73042544D01*
X-84398353Y73052488D01*
X-84383907Y73049525D01*
X-84355826Y73042000D01*
X-84224175Y73042000D01*
X-84224174Y73042000D01*
X-84196095Y73049524D01*
X-84126245Y73047863D01*
X-84068382Y73008701D01*
X-84040877Y72944473D01*
X-84040000Y72929750D01*
X-84040000Y72392001D01*
X-83395214Y72392001D01*
X-83395209Y72392001D01*
X-83395209Y72392002D01*
X-83395192Y72392003D01*
X-83395192Y72392004D01*
X-83395176Y72392004D01*
X-83374078Y72394452D01*
X-83370131Y72394909D01*
X-83370127Y72394910D01*
X-83267526Y72440212D01*
X-83267521Y72440215D01*
X-83188215Y72519521D01*
X-83188212Y72519526D01*
X-83142911Y72622123D01*
X-83142911Y72622125D01*
X-83142340Y72624830D01*
X-83142085Y72629239D01*
X-83140541Y72642555D01*
X-83140326Y72644407D01*
X-83140000Y72646752D01*
X-83140000Y73292000D01*
X-83677750Y73292000D01*
X-83744789Y73311685D01*
X-83790544Y73364489D01*
X-83800488Y73433647D01*
X-83797524Y73448095D01*
X-83790000Y73476174D01*
X-83790000Y73607826D01*
X-83797524Y73635906D01*
X-83795863Y73705755D01*
X-83756701Y73763618D01*
X-83692473Y73791123D01*
X-83677750Y73792000D01*
X-83140001Y73792000D01*
X-83140001Y74436780D01*
X-83140002Y74436798D01*
X-83141864Y74452855D01*
X-83142909Y74461870D01*
X-83142910Y74461874D01*
X-83162810Y74506945D01*
X-83188212Y74564476D01*
X-83188217Y74564483D01*
X-83267519Y74643785D01*
X-83267525Y74643789D01*
X-83370124Y74689090D01*
X-83395205Y74692000D01*
X-83395206Y74692000D01*
X-84118196Y74692000D01*
X-84153126Y74697022D01*
X-84158988Y74698743D01*
X-84217768Y74736515D01*
X-84246795Y74800069D01*
X-84236854Y74869228D01*
X-84191101Y74922034D01*
X-84191102Y74922034D01*
X-84190735Y74922270D01*
X-84143101Y74940426D01*
X-84097269Y74947685D01*
X-84020591Y74959829D01*
X-83848361Y75015789D01*
X-83687006Y75098004D01*
X-83540499Y75204447D01*
X-83412447Y75332499D01*
X-83306004Y75479006D01*
X-83223789Y75640361D01*
X-83167829Y75812591D01*
X-83149722Y75926916D01*
X-83149721Y75926920D01*
X-83149721Y75926921D01*
X-83139500Y75991451D01*
X-83139500Y76172551D01*
X-83155981Y76276603D01*
X-83155981Y76276604D01*
X-83167829Y76351411D01*
X-83167831Y76351417D01*
X-83212359Y76488463D01*
X-83212360Y76488464D01*
X-83213381Y76491605D01*
X-83223788Y76523637D01*
X-83223789Y76523640D01*
X-83233651Y76542996D01*
X-83254289Y76583500D01*
X-83306005Y76684996D01*
X-83358277Y76756943D01*
X-83358280Y76756946D01*
X-83361238Y76761018D01*
X-83412442Y76831495D01*
X-83412446Y76831500D01*
X-83482045Y76901099D01*
X-83482051Y76901106D01*
X-83540493Y76959548D01*
X-83540502Y76959556D01*
X-83540526Y76959574D01*
X-83571213Y76981869D01*
X-81259500Y76981869D01*
X-81259500Y76979172D01*
X-81259500Y75192151D01*
X-81259498Y75192115D01*
X-81256586Y75167007D01*
X-81256454Y75166562D01*
X-81255391Y75164304D01*
X-81220138Y75084463D01*
X-81211207Y75064236D01*
X-81211206Y75064235D01*
X-81131765Y74984794D01*
X-81028991Y74939415D01*
X-81003865Y74936500D01*
X-80283956Y74936501D01*
X-80249028Y74931480D01*
X-80243169Y74929760D01*
X-80184389Y74891989D01*
X-80155360Y74828435D01*
X-80165300Y74759276D01*
X-80211052Y74706469D01*
X-80211189Y74706381D01*
X-80211551Y74706149D01*
X-80259060Y74688076D01*
X-80378415Y74669171D01*
X-80550614Y74613222D01*
X-80550637Y74613214D01*
X-80550641Y74613212D01*
X-80711995Y74530996D01*
X-80711998Y74530995D01*
X-80711998Y74530994D01*
X-80725850Y74520930D01*
X-80858501Y74424555D01*
X-80858509Y74424548D01*
X-80986548Y74296509D01*
X-80986555Y74296501D01*
X-81001383Y74276091D01*
X-81091921Y74151474D01*
X-81092996Y74149995D01*
X-81175212Y73988641D01*
X-81175214Y73988637D01*
X-81175222Y73988614D01*
X-81231171Y73816415D01*
X-81259500Y73637552D01*
X-81259500Y73456450D01*
X-81231171Y73277587D01*
X-81175222Y73105388D01*
X-81175214Y73105365D01*
X-81175212Y73105361D01*
X-81092994Y72944003D01*
X-81035506Y72864877D01*
X-80986555Y72797501D01*
X-80986548Y72797493D01*
X-80858509Y72669454D01*
X-80858500Y72669446D01*
X-80858476Y72669428D01*
X-80760953Y72598574D01*
X-80760951Y72598573D01*
X-80760948Y72598571D01*
X-80711994Y72563004D01*
X-80626664Y72519526D01*
X-80609715Y72510890D01*
X-80550641Y72480789D01*
X-80550637Y72480788D01*
X-80504035Y72465647D01*
X-80504034Y72465646D01*
X-80504033Y72465646D01*
X-80378416Y72424831D01*
X-80378415Y72424831D01*
X-80378409Y72424829D01*
X-80295571Y72411709D01*
X-80199551Y72396500D01*
X-80199546Y72396500D01*
X-80018452Y72396500D01*
X-80018449Y72396500D01*
X-79931741Y72410235D01*
X-79839591Y72424829D01*
X-79713961Y72465648D01*
X-79667364Y72480788D01*
X-79667361Y72480789D01*
X-79646542Y72491397D01*
X-79506006Y72563004D01*
X-79359499Y72669447D01*
X-79231447Y72797499D01*
X-79125004Y72944006D01*
X-79042789Y73105361D01*
X-78986829Y73277591D01*
X-78964590Y73418000D01*
X-78958500Y73456449D01*
X-78958500Y73637552D01*
X-78974981Y73741603D01*
X-78986829Y73816409D01*
X-79041282Y73984001D01*
X-79042344Y73987766D01*
X-79073480Y74048874D01*
X-79073480Y74048875D01*
X-79099242Y74099434D01*
X-79125004Y74149994D01*
X-79138604Y74168713D01*
X-79231442Y74296495D01*
X-79231446Y74296500D01*
X-79231449Y74296503D01*
X-79231452Y74296507D01*
X-79359493Y74424548D01*
X-79359502Y74424556D01*
X-79359526Y74424574D01*
X-79498112Y74525262D01*
X-79498445Y74525546D01*
X-79506013Y74531002D01*
X-79506377Y74531185D01*
X-79571712Y74564475D01*
X-79571712Y74564476D01*
X-79571714Y74564476D01*
X-79590188Y74573889D01*
X-79667361Y74613212D01*
X-79667364Y74613213D01*
X-79667367Y74613214D01*
X-79667437Y74613238D01*
X-79839588Y74669171D01*
X-79839585Y74669171D01*
X-79953662Y74687239D01*
X-79987391Y74697670D01*
X-79992910Y74700287D01*
X-80045051Y74746796D01*
X-80063769Y74814112D01*
X-80043123Y74880862D01*
X-79989666Y74925852D01*
X-79989106Y74926098D01*
X-79939389Y74936501D01*
X-79214120Y74936501D01*
X-79214022Y74936508D01*
X-79213267Y74936602D01*
X-79196107Y74938592D01*
X-79190389Y74938922D01*
X-79189775Y74939022D01*
X-79187137Y74940242D01*
X-79086235Y74984794D01*
X-79006794Y75064235D01*
X-78961415Y75167009D01*
X-78958500Y75192135D01*
X-78958501Y76761018D01*
X-76357500Y76761018D01*
X-76357500Y55285356D01*
X-76329797Y55181965D01*
X-76328507Y55177150D01*
X-76328504Y55177139D01*
X-76328503Y55177137D01*
X-76328502Y55177134D01*
X-76325800Y55172455D01*
X-76321120Y55164347D01*
X-76321118Y55164345D01*
X-76272488Y55080114D01*
X-76272486Y55080111D01*
X-76272485Y55080110D01*
X-75777740Y54585365D01*
X-75698518Y54506143D01*
X-75601492Y54450125D01*
X-75493273Y54421128D01*
X-73813556Y54421128D01*
X-73778624Y54416107D01*
X-73753380Y54408694D01*
X-73700634Y54377398D01*
X-73689292Y54366056D01*
X-73688776Y54365676D01*
X-73686153Y54364265D01*
X-73552419Y54287055D01*
X-73552412Y54287051D01*
X-73399685Y54246128D01*
X-73399683Y54246128D01*
X-73241573Y54246128D01*
X-73241571Y54246128D01*
X-73088844Y54287051D01*
X-72951912Y54366108D01*
X-72840108Y54477912D01*
X-72761051Y54614844D01*
X-72720128Y54767571D01*
X-72720128Y54925685D01*
X-72761051Y55078412D01*
X-72781018Y55112996D01*
X-72840104Y55215338D01*
X-72840110Y55215346D01*
X-72840115Y55215352D01*
X-72951906Y55327143D01*
X-72951908Y55327144D01*
X-72951911Y55327147D01*
X-72951919Y55327153D01*
X-73000299Y55355085D01*
X-73088821Y55406193D01*
X-73088845Y55406206D01*
X-73200649Y55436164D01*
X-73241571Y55447128D01*
X-73241572Y55447128D01*
X-73399685Y55447128D01*
X-73552410Y55406206D01*
X-73552417Y55406204D01*
X-73552418Y55406203D01*
X-73552428Y55406198D01*
X-73689330Y55327158D01*
X-73689334Y55327156D01*
X-73689338Y55327153D01*
X-73689346Y55327147D01*
X-73689354Y55327141D01*
X-73695446Y55321048D01*
X-73723693Y55299903D01*
X-73746778Y55287297D01*
X-73806207Y55272128D01*
X-74195533Y55272128D01*
X-74230472Y55277152D01*
X-74243790Y55281063D01*
X-74302567Y55318839D01*
X-74331589Y55382396D01*
X-74331591Y55382407D01*
X-74331822Y55384015D01*
X-74326261Y55442205D01*
X-74324276Y55447940D01*
X-74321657Y55454837D01*
X-74319138Y55460921D01*
X-74319134Y55460927D01*
X-74278211Y55613654D01*
X-74278211Y55771768D01*
X-74319134Y55924495D01*
X-74319138Y55924502D01*
X-74398187Y56061421D01*
X-74398193Y56061429D01*
X-74398195Y56061431D01*
X-74398203Y56061443D01*
X-74400840Y56064960D01*
X-74400359Y56065322D01*
X-74410713Y56080210D01*
X-74424334Y56105157D01*
X-74439500Y56164580D01*
X-74439500Y56596073D01*
X-74434478Y56631006D01*
X-74427066Y56656251D01*
X-74395771Y56708994D01*
X-74384480Y56720284D01*
X-74305423Y56857216D01*
X-74264500Y57009943D01*
X-74264500Y57168057D01*
X-74305423Y57320784D01*
X-74350672Y57399159D01*
X-74350672Y57399160D01*
X-74384473Y57457704D01*
X-74384476Y57457710D01*
X-74384482Y57457718D01*
X-74384483Y57457719D01*
X-74384487Y57457724D01*
X-74496278Y57569515D01*
X-74496280Y57569516D01*
X-74496283Y57569519D01*
X-74496291Y57569525D01*
X-74522853Y57584860D01*
X-74633193Y57648565D01*
X-74633217Y57648578D01*
X-74777244Y57687169D01*
X-74785943Y57689500D01*
X-74785944Y57689500D01*
X-74944057Y57689500D01*
X-75096782Y57648578D01*
X-75096789Y57648576D01*
X-75096790Y57648575D01*
X-75096800Y57648570D01*
X-75233702Y57569530D01*
X-75233718Y57569520D01*
X-75282216Y57521022D01*
X-75310468Y57499872D01*
X-75320392Y57494453D01*
X-75388665Y57479601D01*
X-75454130Y57504017D01*
X-75496001Y57559951D01*
X-75496003Y57559955D01*
X-75498687Y57567153D01*
X-75506500Y57610473D01*
X-75506500Y59247823D01*
X-75501479Y59282750D01*
X-75499714Y59288762D01*
X-75498293Y59293605D01*
X-75460523Y59352384D01*
X-75396969Y59381413D01*
X-75327814Y59371475D01*
X-75320828Y59368285D01*
X-75284658Y59343172D01*
X-74334306Y58392820D01*
X-74313156Y58364568D01*
X-74300548Y58341479D01*
X-74285379Y58282050D01*
X-74285379Y58266084D01*
X-74269218Y58205770D01*
X-74245009Y58115422D01*
X-74245007Y58115414D01*
X-74244460Y58113369D01*
X-74244454Y58113353D01*
X-74244451Y58113348D01*
X-74167250Y57979628D01*
X-74165867Y57977057D01*
X-74165481Y57976507D01*
X-74053543Y57864569D01*
X-74053027Y57864189D01*
X-74050404Y57862778D01*
X-73916670Y57785568D01*
X-73916663Y57785564D01*
X-73763936Y57744641D01*
X-73763934Y57744641D01*
X-73605824Y57744641D01*
X-73605822Y57744641D01*
X-73453095Y57785564D01*
X-73316163Y57864621D01*
X-73204359Y57976425D01*
X-73125302Y58113357D01*
X-73084379Y58266084D01*
X-73084379Y58424198D01*
X-73125302Y58576925D01*
X-73136282Y58595943D01*
X-73204355Y58713851D01*
X-73204361Y58713859D01*
X-73204365Y58713863D01*
X-73204366Y58713865D01*
X-73316157Y58825656D01*
X-73316159Y58825657D01*
X-73316162Y58825660D01*
X-73316170Y58825666D01*
X-73453089Y58904715D01*
X-73453093Y58904717D01*
X-73453095Y58904718D01*
X-73605822Y58945641D01*
X-73605823Y58945641D01*
X-73625963Y58945641D01*
X-73641031Y58949465D01*
X-73649375Y58950664D01*
X-73674617Y58958076D01*
X-73727362Y58989372D01*
X-75007574Y60269584D01*
X-75028726Y60297840D01*
X-75041333Y60320929D01*
X-75056500Y60380354D01*
X-75056500Y69170671D01*
X-75051477Y69205607D01*
X-75047073Y69220605D01*
X-75009328Y69279356D01*
X-75007959Y69280543D01*
X-74953080Y69308023D01*
X-74945521Y69309667D01*
X-74919168Y69312500D01*
X-74910945Y69312500D01*
X-74910943Y69312500D01*
X-74758216Y69353423D01*
X-74621284Y69432480D01*
X-74509480Y69544284D01*
X-74430423Y69681216D01*
X-74389500Y69833943D01*
X-74389500Y69992057D01*
X-74430423Y70144784D01*
X-74467790Y70209506D01*
X-74467791Y70209508D01*
X-74509475Y70281709D01*
X-74509480Y70281716D01*
X-74509487Y70281724D01*
X-74621278Y70393515D01*
X-74621280Y70393516D01*
X-74621283Y70393519D01*
X-74621291Y70393525D01*
X-74647853Y70408860D01*
X-74758193Y70472565D01*
X-74758217Y70472578D01*
X-74870021Y70502536D01*
X-74910943Y70513500D01*
X-74910944Y70513500D01*
X-75069057Y70513500D01*
X-75206017Y70476802D01*
X-75206018Y70476802D01*
X-75221785Y70472578D01*
X-75284307Y70436481D01*
X-75305061Y70424499D01*
X-75337834Y70411380D01*
X-75341498Y70410491D01*
X-75351323Y70408108D01*
X-75421113Y70411438D01*
X-75478019Y70451965D01*
X-75479024Y70453243D01*
X-75503311Y70506427D01*
X-75504259Y70511346D01*
X-75506500Y70534812D01*
X-75506500Y76441671D01*
X-75501477Y76476607D01*
X-75497995Y76488463D01*
X-75497073Y76491606D01*
X-75459328Y76550356D01*
X-75457959Y76551543D01*
X-75403080Y76579023D01*
X-75395521Y76580667D01*
X-75381962Y76582125D01*
X-75382003Y76582439D01*
X-75373952Y76583500D01*
X-75373945Y76583500D01*
X-75373943Y76583500D01*
X-75221216Y76624423D01*
X-75084284Y76703480D01*
X-74972480Y76815284D01*
X-74893423Y76952216D01*
X-74852500Y77104943D01*
X-74852500Y77263057D01*
X-74893423Y77415784D01*
X-74941946Y77499829D01*
X-74941947Y77499831D01*
X-74972472Y77552704D01*
X-74972480Y77552716D01*
X-74972487Y77552724D01*
X-75084278Y77664515D01*
X-75084280Y77664516D01*
X-75084283Y77664519D01*
X-75084291Y77664525D01*
X-75110853Y77679860D01*
X-75221193Y77743565D01*
X-75221217Y77743578D01*
X-75333021Y77773536D01*
X-75373943Y77784500D01*
X-75373944Y77784500D01*
X-75532057Y77784500D01*
X-75684782Y77743578D01*
X-75684789Y77743576D01*
X-75684790Y77743575D01*
X-75684800Y77743570D01*
X-75821702Y77664530D01*
X-75821706Y77664528D01*
X-75821710Y77664525D01*
X-75821718Y77664519D01*
X-75821722Y77664516D01*
X-75821724Y77664515D01*
X-75933515Y77552724D01*
X-75933516Y77552722D01*
X-75933519Y77552719D01*
X-75933519Y77552718D01*
X-75933525Y77552710D01*
X-75933528Y77552706D01*
X-75933530Y77552702D01*
X-76012570Y77415800D01*
X-76012575Y77415790D01*
X-76012576Y77415789D01*
X-76012578Y77415782D01*
X-76053500Y77263057D01*
X-76053500Y77254442D01*
X-76058524Y77219503D01*
X-76065936Y77194263D01*
X-76097231Y77141521D01*
X-76213761Y77024992D01*
X-76213834Y77024914D01*
X-76272488Y76966260D01*
X-76272987Y76965567D01*
X-76274347Y76963039D01*
X-76328501Y76869242D01*
X-76328502Y76869241D01*
X-76328506Y76869230D01*
X-76357500Y76761018D01*
X-78958501Y76761018D01*
X-78958501Y76981864D01*
X-78958503Y76981883D01*
X-78961331Y77006267D01*
X-78961339Y77006993D01*
X-78962594Y77009660D01*
X-79006794Y77109765D01*
X-79086235Y77189206D01*
X-79094692Y77192940D01*
X-79104283Y77197175D01*
X-79189007Y77234585D01*
X-79189006Y77234585D01*
X-79214132Y77237500D01*
X-79214135Y77237500D01*
X-81003857Y77237500D01*
X-81003873Y77237499D01*
X-81003887Y77237498D01*
X-81021745Y77235427D01*
X-81028988Y77234587D01*
X-81028989Y77234587D01*
X-81028995Y77234586D01*
X-81029441Y77234453D01*
X-81031697Y77233391D01*
X-81131764Y77189208D01*
X-81211207Y77109766D01*
X-81256586Y77006995D01*
X-81257156Y77004290D01*
X-81257257Y77002546D01*
X-81257219Y77001640D01*
X-81257311Y77000744D01*
X-81259500Y76981869D01*
X-83571213Y76981869D01*
X-83679112Y77060262D01*
X-83679445Y77060546D01*
X-83687013Y77066002D01*
X-83687377Y77066185D01*
X-83763447Y77104945D01*
X-83763447Y77104946D01*
X-83763449Y77104946D01*
X-83772909Y77109766D01*
X-83848361Y77148212D01*
X-83848364Y77148213D01*
X-83848363Y77148213D01*
X-83848437Y77148238D01*
X-84020588Y77204171D01*
X-84020587Y77204171D01*
X-84163069Y77226738D01*
X-84196793Y77237166D01*
X-84203073Y77240143D01*
X-84255215Y77286650D01*
X-84273937Y77353965D01*
X-84253294Y77420715D01*
X-84201451Y77464987D01*
X-84196063Y77467447D01*
X-84163968Y77477121D01*
X-84110575Y77485578D01*
X-84020591Y77499829D01*
X-83848361Y77555789D01*
X-83687006Y77638004D01*
X-83540499Y77744447D01*
X-83412447Y77872499D01*
X-83306004Y78019006D01*
X-83223789Y78180361D01*
X-83167829Y78352591D01*
X-83149721Y78466922D01*
X-83139500Y78531449D01*
X-83139500Y78712552D01*
X-83140151Y78716661D01*
X-72212556Y78716661D01*
X-72180377Y78554892D01*
X-72180376Y78554888D01*
X-72180375Y78554885D01*
X-72180372Y78554875D01*
X-72180369Y78554867D01*
X-72180364Y78554853D01*
X-72127576Y78427410D01*
X-72127571Y78427401D01*
X-72127561Y78427384D01*
X-72050907Y78312664D01*
X-72050906Y78312663D01*
X-72050901Y78312657D01*
X-71953345Y78215101D01*
X-71953339Y78215096D01*
X-71953335Y78215093D01*
X-71838608Y78138434D01*
X-71838607Y78138434D01*
X-71837585Y78137751D01*
X-71832987Y78136106D01*
X-71776475Y78112698D01*
X-71755048Y78101245D01*
X-71735117Y78087928D01*
X-71716332Y78072511D01*
X-68495427Y74851606D01*
X-68474277Y74823354D01*
X-68461669Y74800265D01*
X-68446500Y74740836D01*
X-68446500Y71275410D01*
X-68446501Y71275336D01*
X-68446501Y71150040D01*
X-68452400Y71129954D01*
X-68437918Y71075909D01*
X-68433521Y71059501D01*
X-68433339Y71058821D01*
X-68405577Y70955214D01*
X-68392501Y70932567D01*
X-68383369Y70909983D01*
X-68371741Y70896611D01*
X-68326521Y70818285D01*
X-68326519Y70818283D01*
X-68326515Y70818278D01*
X-68205244Y70697007D01*
X-68205206Y70696971D01*
X-65621664Y68113428D01*
X-65621145Y68113047D01*
X-65618507Y68111627D01*
X-65566256Y68081460D01*
X-65566255Y68081460D01*
X-65566252Y68081458D01*
X-65484784Y68034423D01*
X-65332057Y67993499D01*
X-65332055Y67993499D01*
X-65166346Y67993499D01*
X-65164442Y67993499D01*
X-65164379Y67993500D01*
X-61811376Y67993500D01*
X-61776444Y67988479D01*
X-61744630Y67979137D01*
X-61710682Y67963266D01*
X-61626818Y67907229D01*
X-61626805Y67907222D01*
X-61504928Y67856740D01*
X-61500506Y67854648D01*
X-61499775Y67854507D01*
X-61499121Y67854379D01*
X-61455043Y67845611D01*
X-61363998Y67827500D01*
X-61226005Y67827500D01*
X-61226004Y67827500D01*
X-61180482Y67836556D01*
X-61134959Y67845611D01*
X-61090672Y67854420D01*
X-60963189Y67907225D01*
X-60848458Y67983886D01*
X-60750886Y68081458D01*
X-60674225Y68196189D01*
X-60621420Y68323672D01*
X-60594500Y68459007D01*
X-60594500Y68596993D01*
X-60594500Y68596996D01*
X-60594500Y68596999D01*
X-60621659Y68733530D01*
X-60623744Y68737938D01*
X-60627604Y68747257D01*
X-60674222Y68859805D01*
X-60674229Y68859818D01*
X-60750886Y68974542D01*
X-60750889Y68974546D01*
X-60750894Y68974552D01*
X-60848450Y69072108D01*
X-60848456Y69072113D01*
X-60848457Y69072114D01*
X-60963177Y69148768D01*
X-60963178Y69148769D01*
X-60963183Y69148772D01*
X-60963196Y69148779D01*
X-60963203Y69148783D01*
X-61090646Y69201571D01*
X-61090660Y69201576D01*
X-61090668Y69201579D01*
X-61090678Y69201582D01*
X-61090681Y69201583D01*
X-61090685Y69201584D01*
X-61226002Y69228500D01*
X-61226005Y69228500D01*
X-61226007Y69228500D01*
X-61363993Y69228500D01*
X-61363995Y69228500D01*
X-61363998Y69228500D01*
X-61499322Y69201583D01*
X-61502130Y69200879D01*
X-61514059Y69198506D01*
X-61519083Y69197761D01*
X-61532010Y69195843D01*
X-61550206Y69194500D01*
X-64935072Y69194500D01*
X-64970008Y69199523D01*
X-64995250Y69206935D01*
X-65047995Y69238231D01*
X-66727286Y70917522D01*
X-48627500Y70917522D01*
X-48627500Y70622480D01*
X-48607763Y70472576D01*
X-48601100Y70421965D01*
X-48588993Y70330007D01*
X-48588992Y70330005D01*
X-48588991Y70330000D01*
X-48576052Y70281710D01*
X-48512641Y70045053D01*
X-48512633Y70045030D01*
X-48400028Y69773181D01*
X-48399768Y69772543D01*
X-48399744Y69772493D01*
X-48399742Y69772490D01*
X-48252239Y69517007D01*
X-48072648Y69282960D01*
X-48072642Y69282953D01*
X-47864048Y69074359D01*
X-47864041Y69074353D01*
X-47629994Y68894762D01*
X-47520094Y68831311D01*
X-47377957Y68749248D01*
X-47376216Y68748167D01*
X-47372737Y68746235D01*
X-47372151Y68745897D01*
X-47367012Y68744153D01*
X-47101952Y68634361D01*
X-46816993Y68558007D01*
X-46524506Y68519500D01*
X-46524499Y68519500D01*
X-46229501Y68519500D01*
X-46229494Y68519500D01*
X-45937007Y68558007D01*
X-45652048Y68634361D01*
X-45379493Y68747257D01*
X-45124006Y68894762D01*
X-44889958Y69074354D01*
X-44681354Y69282958D01*
X-44501762Y69517006D01*
X-44354257Y69772493D01*
X-44241361Y70045048D01*
X-44197291Y70209522D01*
X-14292500Y70209522D01*
X-14292500Y69914487D01*
X-14273806Y69772500D01*
X-14253993Y69622008D01*
X-14177641Y69337053D01*
X-14177633Y69337030D01*
X-14065028Y69065181D01*
X-14064768Y69064543D01*
X-14064744Y69064493D01*
X-14012813Y68974546D01*
X-13917239Y68809007D01*
X-13737648Y68574960D01*
X-13737642Y68574953D01*
X-13529048Y68366359D01*
X-13529041Y68366353D01*
X-13294994Y68186762D01*
X-13185094Y68123311D01*
X-13042957Y68041248D01*
X-13041216Y68040167D01*
X-13037737Y68038235D01*
X-13037151Y68037897D01*
X-13032012Y68036153D01*
X-12766952Y67926361D01*
X-12481993Y67850007D01*
X-12189506Y67811500D01*
X-12189499Y67811500D01*
X-11894501Y67811500D01*
X-11894494Y67811500D01*
X-11602007Y67850007D01*
X-11317048Y67926361D01*
X-11044493Y68039257D01*
X-10789006Y68186762D01*
X-10554958Y68366354D01*
X-10346354Y68574958D01*
X-10166762Y68809006D01*
X-10019257Y69064493D01*
X-9906361Y69337048D01*
X-9830007Y69622007D01*
X-9791500Y69914494D01*
X-9791500Y70209506D01*
X-9830007Y70501993D01*
X-9906361Y70786952D01*
X-9919340Y70818285D01*
X-9966677Y70932567D01*
X-10019257Y71059507D01*
X-10019259Y71059511D01*
X-10019261Y71059515D01*
X-10106142Y71209996D01*
X-10106143Y71209997D01*
X-10142894Y71273652D01*
X-10166762Y71314994D01*
X-10346353Y71549041D01*
X-10346359Y71549048D01*
X-10554953Y71757642D01*
X-10554960Y71757648D01*
X-10789007Y71937239D01*
X-10892885Y71997213D01*
X-11044493Y72084744D01*
X-11044543Y72084768D01*
X-11045181Y72085028D01*
X-11312997Y72195963D01*
X-11314818Y72196794D01*
X-11315295Y72196975D01*
X-11316806Y72197575D01*
X-11548182Y72259571D01*
X-11602007Y72273993D01*
X-11602013Y72273994D01*
X-11602014Y72273994D01*
X-11620242Y72276394D01*
X-11650887Y72280429D01*
X-11650888Y72280430D01*
X-11894480Y72312500D01*
X-11894487Y72312500D01*
X-11894494Y72312500D01*
X-12189506Y72312500D01*
X-12189514Y72312500D01*
X-12189522Y72312500D01*
X-12467915Y72275848D01*
X-12467915Y72275847D01*
X-12469553Y72275632D01*
X-12481993Y72273994D01*
X-12545256Y72257042D01*
X-12766949Y72197641D01*
X-12766972Y72197632D01*
X-13038821Y72085028D01*
X-13039451Y72084772D01*
X-13039509Y72084744D01*
X-13294995Y71937239D01*
X-13474586Y71799433D01*
X-13517086Y71766821D01*
X-13529042Y71757647D01*
X-13529049Y71757641D01*
X-13529057Y71757634D01*
X-13737634Y71549057D01*
X-13737641Y71549049D01*
X-13737642Y71549048D01*
X-13737648Y71549041D01*
X-13779137Y71494972D01*
X-13917239Y71314995D01*
X-14064744Y71059509D01*
X-14064772Y71059451D01*
X-14065028Y71058821D01*
X-14177632Y70786972D01*
X-14177640Y70786952D01*
X-14199201Y70706480D01*
X-14253992Y70501996D01*
X-14253992Y70501995D01*
X-14253994Y70501988D01*
X-14253997Y70501965D01*
X-14292500Y70209522D01*
X-44197291Y70209522D01*
X-44165007Y70330007D01*
X-44126500Y70622494D01*
X-44126500Y70917506D01*
X-44126501Y70917514D01*
X-44131465Y70955215D01*
X-44145196Y71059509D01*
X-44157114Y71150040D01*
X-44165007Y71209993D01*
X-44241361Y71494952D01*
X-44242450Y71497580D01*
X-44283067Y71595639D01*
X-44354257Y71767507D01*
X-44354259Y71767511D01*
X-44354261Y71767515D01*
X-44467125Y71963000D01*
X-44467126Y71963001D01*
X-44501761Y72022992D01*
X-44501762Y72022994D01*
X-44681353Y72257041D01*
X-44681359Y72257048D01*
X-44889953Y72465642D01*
X-44889960Y72465648D01*
X-45124007Y72645239D01*
X-45165935Y72669446D01*
X-45379493Y72792744D01*
X-45379543Y72792768D01*
X-45380181Y72793028D01*
X-45647997Y72903963D01*
X-45649818Y72904794D01*
X-45650295Y72904975D01*
X-45651806Y72905575D01*
X-45883182Y72967571D01*
X-45937007Y72981993D01*
X-45937013Y72981994D01*
X-45937014Y72981994D01*
X-45955242Y72984394D01*
X-45985887Y72988429D01*
X-45985888Y72988430D01*
X-46229480Y73020500D01*
X-46229487Y73020500D01*
X-46229494Y73020500D01*
X-46524506Y73020500D01*
X-46524514Y73020500D01*
X-46524522Y73020500D01*
X-46802915Y72983848D01*
X-46802915Y72983847D01*
X-46804553Y72983632D01*
X-46816993Y72981994D01*
X-47002768Y72932215D01*
X-47101949Y72905641D01*
X-47101972Y72905632D01*
X-47373821Y72793028D01*
X-47374451Y72792772D01*
X-47374509Y72792744D01*
X-47629995Y72645239D01*
X-47743118Y72558436D01*
X-47864041Y72465648D01*
X-47864043Y72465646D01*
X-47864057Y72465634D01*
X-48072634Y72257057D01*
X-48072641Y72257049D01*
X-48072647Y72257042D01*
X-48252239Y72022995D01*
X-48399744Y71767509D01*
X-48399772Y71767451D01*
X-48400028Y71766821D01*
X-48512632Y71494972D01*
X-48512641Y71494949D01*
X-48588993Y71209994D01*
X-48588997Y71209965D01*
X-48627500Y70917522D01*
X-66727286Y70917522D01*
X-67196574Y71386810D01*
X-67217726Y71415066D01*
X-67230333Y71438155D01*
X-67245500Y71497580D01*
X-67245500Y74451561D01*
X-67240479Y74486488D01*
X-67237293Y74497341D01*
X-67199523Y74556122D01*
X-67135969Y74585151D01*
X-67066814Y74575213D01*
X-67059828Y74572023D01*
X-67023658Y74546910D01*
X-65087927Y72611179D01*
X-65066777Y72582927D01*
X-65057642Y72566197D01*
X-65055900Y72563007D01*
X-65054169Y72559838D01*
X-65039000Y72500409D01*
X-65039000Y72484443D01*
X-64998967Y72335040D01*
X-64998968Y72335040D01*
X-64998966Y72335034D01*
X-64998083Y72331735D01*
X-64998078Y72331721D01*
X-64998077Y72331717D01*
X-64998076Y72331714D01*
X-64998075Y72331712D01*
X-64998072Y72331707D01*
X-64920871Y72197987D01*
X-64919488Y72195416D01*
X-64919102Y72194866D01*
X-64807164Y72082928D01*
X-64806648Y72082548D01*
X-64804025Y72081137D01*
X-64670291Y72003927D01*
X-64670284Y72003923D01*
X-64517557Y71963000D01*
X-64517555Y71963000D01*
X-64359445Y71963000D01*
X-64359443Y71963000D01*
X-64206716Y72003923D01*
X-64069784Y72082980D01*
X-63957980Y72194784D01*
X-63878923Y72331716D01*
X-63838000Y72484443D01*
X-63838000Y72642557D01*
X-63878923Y72795284D01*
X-63942148Y72904794D01*
X-63957976Y72932210D01*
X-63957979Y72932214D01*
X-63957980Y72932216D01*
X-64069784Y73044020D01*
X-64069866Y73044102D01*
X-64070416Y73044488D01*
X-64072987Y73045871D01*
X-64176037Y73105365D01*
X-64206710Y73123074D01*
X-64206714Y73123076D01*
X-64206716Y73123077D01*
X-64359443Y73164000D01*
X-64359444Y73164000D01*
X-64379584Y73164000D01*
X-64394652Y73167824D01*
X-64402996Y73169023D01*
X-64428238Y73176435D01*
X-64480983Y73207731D01*
X-67173002Y75899750D01*
X-67194154Y75928006D01*
X-67203171Y75944520D01*
X-67218303Y76006897D01*
X-67218055Y76017313D01*
X-67213864Y76046458D01*
X-67208446Y76066676D01*
X-67208446Y76224787D01*
X-67208446Y76224789D01*
X-67249369Y76377516D01*
X-67270012Y76413271D01*
X-67328422Y76514442D01*
X-67328428Y76514450D01*
X-67328433Y76514456D01*
X-67440224Y76626247D01*
X-67440226Y76626248D01*
X-67440229Y76626251D01*
X-67440237Y76626257D01*
X-67482789Y76650824D01*
X-67577139Y76705297D01*
X-67577163Y76705310D01*
X-67688967Y76735268D01*
X-67729889Y76746232D01*
X-67729890Y76746232D01*
X-67888003Y76746232D01*
X-68040728Y76705310D01*
X-68040735Y76705308D01*
X-68040736Y76705307D01*
X-68040746Y76705302D01*
X-68177648Y76626262D01*
X-68177666Y76626250D01*
X-68274344Y76529571D01*
X-68302603Y76508417D01*
X-68316325Y76500925D01*
X-68384582Y76486075D01*
X-68386388Y76486204D01*
X-68444589Y76505572D01*
X-68451104Y76509759D01*
X-68471740Y76526389D01*
X-70231090Y78285739D01*
X-56815500Y78285739D01*
X-56815500Y78285733D01*
X-56815500Y78102268D01*
X-56802312Y78019003D01*
X-56786802Y77921078D01*
X-56730111Y77746603D01*
X-56674779Y77638007D01*
X-56646825Y77583145D01*
X-56646820Y77583137D01*
X-56560979Y77464987D01*
X-56539000Y77434735D01*
X-56538996Y77434730D01*
X-56538991Y77434724D01*
X-56409278Y77305011D01*
X-56409274Y77305008D01*
X-56409271Y77305005D01*
X-56409266Y77305001D01*
X-56312346Y77234585D01*
X-56260855Y77197175D01*
X-56206683Y77169573D01*
X-56097402Y77113891D01*
X-56097400Y77113891D01*
X-56097397Y77113889D01*
X-55922922Y77057198D01*
X-55889569Y77051916D01*
X-55872811Y77049262D01*
X-55839100Y77038837D01*
X-55832816Y77035858D01*
X-55780674Y76989351D01*
X-55761952Y76922036D01*
X-55782595Y76855286D01*
X-55834438Y76811014D01*
X-55839826Y76808554D01*
X-55871927Y76798880D01*
X-55922918Y76790804D01*
X-56097403Y76734109D01*
X-56260863Y76650821D01*
X-56409249Y76543013D01*
X-56409278Y76542991D01*
X-56538991Y76413278D01*
X-56539013Y76413249D01*
X-56646821Y76264863D01*
X-56730109Y76101403D01*
X-56786804Y75926916D01*
X-56815500Y75745739D01*
X-56815500Y75745733D01*
X-56815500Y75562268D01*
X-56802312Y75479003D01*
X-56786802Y75381078D01*
X-56730111Y75206603D01*
X-56657571Y75064235D01*
X-56646823Y75043142D01*
X-56646820Y75043137D01*
X-56561786Y74926098D01*
X-56539000Y74894735D01*
X-56538996Y74894730D01*
X-56538991Y74894724D01*
X-56409280Y74765013D01*
X-56409271Y74765005D01*
X-56409247Y74764987D01*
X-56279820Y74670953D01*
X-56279817Y74670952D01*
X-56260855Y74657175D01*
X-56097397Y74573889D01*
X-55951359Y74526439D01*
X-55919690Y74510868D01*
X-55913953Y74506945D01*
X-55869726Y74452855D01*
X-55861763Y74383440D01*
X-55892592Y74320740D01*
X-55950706Y74285126D01*
X-55956415Y74283538D01*
X-55989653Y74279000D01*
X-56559798Y74279000D01*
X-56584874Y74276092D01*
X-56687474Y74230790D01*
X-56687476Y74230790D01*
X-56687483Y74230785D01*
X-56766784Y74151484D01*
X-56766786Y74151480D01*
X-56766789Y74151475D01*
X-56766789Y74151474D01*
X-56766792Y74151468D01*
X-56812091Y74048879D01*
X-56812661Y74046173D01*
X-56812916Y74041758D01*
X-56815000Y74023800D01*
X-56815000Y74023798D01*
X-56815000Y74023795D01*
X-56815000Y73364000D01*
X-56122603Y73364000D01*
X-56055564Y73344315D01*
X-56009809Y73291511D01*
X-55999865Y73222353D01*
X-56002825Y73207923D01*
X-56010000Y73181143D01*
X-56010000Y73046857D01*
X-56002829Y73020091D01*
X-56004491Y72950244D01*
X-56043653Y72892382D01*
X-56107881Y72864877D01*
X-56122603Y72864000D01*
X-56814999Y72864000D01*
X-56814999Y72204195D01*
X-56812092Y72179128D01*
X-56766790Y72076528D01*
X-56766790Y72076526D01*
X-56766785Y72076519D01*
X-56687483Y71997217D01*
X-56687480Y71997215D01*
X-56687475Y71997212D01*
X-56584877Y71951911D01*
X-56559794Y71949001D01*
X-55750001Y71949001D01*
X-55750000Y71949002D01*
X-55750000Y72491397D01*
X-55730315Y72558436D01*
X-55677511Y72604191D01*
X-55608353Y72614135D01*
X-55593923Y72611176D01*
X-55567143Y72604000D01*
X-55432860Y72604000D01*
X-55432857Y72604000D01*
X-55406091Y72611172D01*
X-55336244Y72609509D01*
X-55278382Y72570347D01*
X-55250877Y72506119D01*
X-55250000Y72491397D01*
X-55250000Y71949001D01*
X-54440214Y71949001D01*
X-54440209Y71949001D01*
X-54440209Y71949002D01*
X-54440192Y71949003D01*
X-54440192Y71949004D01*
X-54440176Y71949004D01*
X-54419078Y71951452D01*
X-54415131Y71951909D01*
X-54415127Y71951910D01*
X-54312526Y71997212D01*
X-54312521Y71997215D01*
X-54233215Y72076521D01*
X-54233212Y72076526D01*
X-54187911Y72179123D01*
X-54187911Y72179125D01*
X-54187340Y72181830D01*
X-54187085Y72186239D01*
X-54185327Y72201398D01*
X-54185000Y72203752D01*
X-54185000Y72864000D01*
X-54877397Y72864000D01*
X-54944436Y72883685D01*
X-54990191Y72936489D01*
X-55000135Y73005647D01*
X-54997176Y73020078D01*
X-54990000Y73046857D01*
X-54990000Y73181143D01*
X-54997172Y73207910D01*
X-54995509Y73277756D01*
X-54956347Y73335618D01*
X-54892119Y73363123D01*
X-54877397Y73364000D01*
X-54185001Y73364000D01*
X-54185001Y74023780D01*
X-54185002Y74023798D01*
X-54185003Y74023809D01*
X-54187909Y74048870D01*
X-54187910Y74048874D01*
X-54233212Y74151475D01*
X-54233212Y74151476D01*
X-54233217Y74151483D01*
X-54312519Y74230785D01*
X-54312525Y74230789D01*
X-54415124Y74276090D01*
X-54440205Y74279000D01*
X-54440206Y74279000D01*
X-55009444Y74279000D01*
X-55044392Y74284027D01*
X-55051061Y74285986D01*
X-55109835Y74323767D01*
X-55138853Y74387326D01*
X-55128902Y74456483D01*
X-55084641Y74508302D01*
X-55079700Y74511579D01*
X-55049500Y74526160D01*
X-54902603Y74573889D01*
X-54739145Y74657175D01*
X-54590728Y74765006D01*
X-54461006Y74894728D01*
X-54353175Y75043145D01*
X-54269889Y75206603D01*
X-54213198Y75381078D01*
X-54197688Y75479006D01*
X-54184500Y75562268D01*
X-54184500Y75745733D01*
X-54203632Y75866524D01*
X-54213198Y75926919D01*
X-54213198Y75926921D01*
X-54213198Y75926922D01*
X-54269889Y76101397D01*
X-54353175Y76264855D01*
X-54416061Y76351411D01*
X-54461001Y76413266D01*
X-54461005Y76413271D01*
X-54461008Y76413274D01*
X-54461011Y76413278D01*
X-54590724Y76542991D01*
X-54590729Y76542995D01*
X-54590730Y76542996D01*
X-54590735Y76543000D01*
X-54731247Y76645087D01*
X-54731588Y76645378D01*
X-54739152Y76650831D01*
X-54739516Y76651014D01*
X-54902599Y76734110D01*
X-55068247Y76787933D01*
X-55072769Y76789786D01*
X-55081959Y76791955D01*
X-55086723Y76792330D01*
X-55127182Y76798738D01*
X-55160906Y76809166D01*
X-55167186Y76812143D01*
X-55219328Y76858650D01*
X-55238050Y76925965D01*
X-55217407Y76992715D01*
X-55165581Y77036979D01*
X-55164709Y77037378D01*
X-55160191Y77039441D01*
X-55128083Y77049120D01*
X-55121549Y77050155D01*
X-55077078Y77057198D01*
X-54902603Y77113889D01*
X-54739145Y77197175D01*
X-54590728Y77305006D01*
X-54461006Y77434728D01*
X-54353175Y77583145D01*
X-54269889Y77746603D01*
X-54213198Y77921078D01*
X-54197688Y78019006D01*
X-54187846Y78081143D01*
X-54187846Y78081144D01*
X-54184500Y78102269D01*
X-54184500Y78285732D01*
X-54188765Y78312657D01*
X-54198192Y78372178D01*
X-54211671Y78457280D01*
X-54211672Y78457286D01*
X-54211672Y78457285D01*
X-54213198Y78466919D01*
X-54213198Y78466922D01*
X-54269889Y78641397D01*
X-54269891Y78641400D01*
X-54269891Y78641402D01*
X-54353176Y78804856D01*
X-54370136Y78828200D01*
X-54426636Y78905966D01*
X-54426637Y78905968D01*
X-54426638Y78905970D01*
X-54460987Y78953247D01*
X-54461005Y78953271D01*
X-54461013Y78953280D01*
X-54590724Y79082991D01*
X-54590729Y79082995D01*
X-54590730Y79082996D01*
X-54590735Y79083000D01*
X-54731247Y79185087D01*
X-54731588Y79185378D01*
X-54739152Y79190831D01*
X-54739516Y79191014D01*
X-54902599Y79274110D01*
X-55068247Y79327933D01*
X-55072769Y79329786D01*
X-55081959Y79331955D01*
X-55086723Y79332330D01*
X-55258263Y79359500D01*
X-55258268Y79359500D01*
X-55258273Y79359500D01*
X-55741727Y79359500D01*
X-55741732Y79359500D01*
X-55741737Y79359500D01*
X-55922916Y79330804D01*
X-56097403Y79274109D01*
X-56260863Y79190821D01*
X-56409249Y79083013D01*
X-56409278Y79082991D01*
X-56538991Y78953278D01*
X-56539013Y78953249D01*
X-56646821Y78804863D01*
X-56730109Y78641403D01*
X-56786804Y78466916D01*
X-56815500Y78285739D01*
X-70231090Y78285739D01*
X-70775219Y78829868D01*
X-70796369Y78858121D01*
X-70812256Y78887215D01*
X-70825041Y78922449D01*
X-70833213Y78963535D01*
X-70874677Y79063639D01*
X-70886015Y79091012D01*
X-70886022Y79091025D01*
X-70962679Y79205749D01*
X-70962682Y79205753D01*
X-70962687Y79205759D01*
X-71060246Y79303318D01*
X-71060249Y79303320D01*
X-71060250Y79303321D01*
X-71174970Y79379975D01*
X-71174971Y79379976D01*
X-71174976Y79379979D01*
X-71174989Y79379986D01*
X-71174996Y79379990D01*
X-71302439Y79432778D01*
X-71302453Y79432783D01*
X-71302461Y79432786D01*
X-71302471Y79432789D01*
X-71302474Y79432790D01*
X-71302478Y79432791D01*
X-71437795Y79459707D01*
X-71437798Y79459707D01*
X-71437800Y79459707D01*
X-71575786Y79459707D01*
X-71575788Y79459707D01*
X-71575793Y79459707D01*
X-71711110Y79432791D01*
X-71711116Y79432789D01*
X-71711126Y79432786D01*
X-71711131Y79432785D01*
X-71711149Y79432778D01*
X-71838592Y79379990D01*
X-71838601Y79379985D01*
X-71838618Y79379975D01*
X-71953338Y79303321D01*
X-71953341Y79303318D01*
X-72050901Y79205759D01*
X-72050906Y79205753D01*
X-72050907Y79205752D01*
X-72127561Y79091032D01*
X-72127571Y79091015D01*
X-72127576Y79091006D01*
X-72180364Y78963563D01*
X-72180377Y78963524D01*
X-72207293Y78828207D01*
X-72207293Y78734581D01*
X-72212556Y78716661D01*
X-83140151Y78716661D01*
X-83155710Y78814894D01*
X-83160079Y78842475D01*
X-83167829Y78891409D01*
X-83222287Y79059014D01*
X-83223345Y79062768D01*
X-83233661Y79083013D01*
X-83252260Y79119516D01*
X-83306004Y79224994D01*
X-83362910Y79303319D01*
X-83362912Y79303322D01*
X-83362912Y79303323D01*
X-83412428Y79371476D01*
X-83412446Y79371500D01*
X-83412454Y79371509D01*
X-83540493Y79499548D01*
X-83540502Y79499556D01*
X-83540526Y79499574D01*
X-83679112Y79600262D01*
X-83679445Y79600546D01*
X-83687013Y79606002D01*
X-83687428Y79606211D01*
X-83738699Y79632336D01*
X-83738700Y79632336D01*
X-83848361Y79688212D01*
X-83848364Y79688213D01*
X-83848367Y79688214D01*
X-83848369Y79688215D01*
X-83848388Y79688222D01*
X-84020588Y79744171D01*
X-84020587Y79744171D01*
X-84154735Y79765418D01*
X-84199449Y79772500D01*
X-84199450Y79772500D01*
X-84380550Y79772500D01*
X-84380551Y79772500D01*
X-84416323Y79766835D01*
X-84559415Y79744171D01*
X-84731614Y79688222D01*
X-84731637Y79688214D01*
X-84731641Y79688212D01*
X-84892995Y79605996D01*
X-84892998Y79605995D01*
X-84892998Y79605994D01*
X-84941831Y79570516D01*
X-85039501Y79499555D01*
X-85039509Y79499548D01*
X-85167548Y79371509D01*
X-85167555Y79371501D01*
X-85273996Y79224995D01*
X-85356212Y79063641D01*
X-85356215Y79063635D01*
X-85412171Y78891415D01*
X-85440500Y78712552D01*
X-85440500Y78531444D01*
X-85424363Y78429559D01*
X-85423859Y78394266D01*
X-85426714Y78372178D01*
X-85447337Y78318076D01*
X-85449855Y78314394D01*
X-85464528Y78296710D01*
X-86008714Y77752523D01*
X-86120519Y77640719D01*
X-86121024Y77640019D01*
X-86122380Y77637497D01*
X-86164555Y77564445D01*
X-86164556Y77564443D01*
X-86199577Y77503785D01*
X-86240501Y77351057D01*
X-86240501Y77351055D01*
X-86240501Y77180600D01*
X-86240500Y77180549D01*
X-86240500Y57138928D01*
X-86245524Y57103991D01*
X-86252936Y57078750D01*
X-86284231Y57026006D01*
X-88168517Y55141722D01*
X-88168519Y55141718D01*
X-88168538Y55141689D01*
X-88197100Y55092214D01*
X-88197101Y55092212D01*
X-88247577Y55004786D01*
X-88247578Y55004786D01*
X-88247577Y55004785D01*
X-88288501Y54852057D01*
X-88288501Y54852055D01*
X-88288501Y54681600D01*
X-88288500Y54681549D01*
X-88288500Y40192410D01*
X-88288501Y40192336D01*
X-88288501Y40067040D01*
X-88294400Y40046954D01*
X-93606237Y40046954D01*
X-93494940Y90041389D01*
X-93489840Y90076306D01*
X-93486286Y90088310D01*
X-93448382Y90147002D01*
X-93384761Y90175885D01*
X-93319137Y90167335D01*
X-93313952Y90165145D01*
X-93310049Y90163496D01*
X-93282822Y90147651D01*
X-93254878Y90126208D01*
X-93252990Y90124759D01*
X-93169073Y90076310D01*
X-93000956Y89979248D01*
X-92999202Y89978159D01*
X-92995747Y89976240D01*
X-92995154Y89975898D01*
X-92990012Y89974153D01*
X-92724952Y89864361D01*
X-92439993Y89788007D01*
X-92147506Y89749500D01*
X-92147499Y89749500D01*
X-91852501Y89749500D01*
X-91852494Y89749500D01*
X-91560007Y89788007D01*
X-91275048Y89864361D01*
X-91002493Y89977257D01*
X-90747006Y90124762D01*
X-90512958Y90304354D01*
X-90304354Y90512958D01*
X-90124762Y90747006D01*
X-89977257Y91002493D01*
X-89864361Y91275048D01*
X-89788007Y91560007D01*
X-89749500Y91852494D01*
X-89749500Y92147506D01*
X-89788007Y92439993D01*
X-89864361Y92724952D01*
X-89977257Y92997507D01*
X-90124762Y93252994D01*
X-90230727Y93391090D01*
X-90248007Y93421860D01*
X-90252492Y93433460D01*
X-90258306Y93503085D01*
X-90225554Y93564803D01*
X-90168080Y93598172D01*
X-90161921Y93599776D01*
X-90158434Y93600683D01*
X-90126928Y93604684D01*
X-5009734Y93422485D01*
G37*
%TD.AperFunction*%
%TD*%
%TA.AperFunction,Conductor*%
%TO.N,GNDA*%
G36*
X-50554042Y46086416D02*
G01*
X-50487017Y46066692D01*
X-50441293Y46013861D01*
X-50430118Y45962737D01*
X-50398321Y33677003D01*
X-50417832Y33609913D01*
X-50470518Y33564021D01*
X-50522002Y33552682D01*
X-72836607Y33495320D01*
X-72903697Y33514833D01*
X-72949588Y33567519D01*
X-72960926Y33619392D01*
X-72960214Y34804427D01*
X-72959655Y35734575D01*
X-72939930Y35801602D01*
X-72887099Y35847325D01*
X-72835655Y35858500D01*
X-72535202Y35858500D01*
X-72535200Y35858500D01*
X-72407906Y35892608D01*
X-72293778Y35958500D01*
X-71776929Y36475351D01*
X-71721344Y36507442D01*
X-71639308Y36529423D01*
X-71502376Y36608480D01*
X-71390572Y36720284D01*
X-71311515Y36857216D01*
X-71270592Y37009943D01*
X-71270592Y37168057D01*
X-71311515Y37320784D01*
X-71311519Y37320791D01*
X-71390568Y37457710D01*
X-71390574Y37457718D01*
X-71502375Y37569519D01*
X-71502383Y37569525D01*
X-71639302Y37648574D01*
X-71639306Y37648576D01*
X-71639308Y37648577D01*
X-71792035Y37689500D01*
X-71950149Y37689500D01*
X-72102876Y37648577D01*
X-72102883Y37648574D01*
X-72239802Y37569525D01*
X-72239810Y37569519D01*
X-72351611Y37457718D01*
X-72351617Y37457710D01*
X-72430666Y37320791D01*
X-72430670Y37320782D01*
X-72452652Y37238748D01*
X-72484745Y37183163D01*
X-72747210Y36920697D01*
X-72808533Y36887212D01*
X-72878224Y36892196D01*
X-72934158Y36934067D01*
X-72958575Y36999532D01*
X-72958891Y37008452D01*
X-72957054Y40068751D01*
X-71024592Y40068751D01*
X-71024592Y39936968D01*
X-70990484Y39809672D01*
X-70957538Y39752609D01*
X-70924592Y39695545D01*
X-70831406Y39602359D01*
X-70717278Y39536467D01*
X-70589984Y39502359D01*
X-70589982Y39502359D01*
X-70458202Y39502359D01*
X-70458200Y39502359D01*
X-70330906Y39536467D01*
X-70216778Y39602359D01*
X-70178097Y39641040D01*
X-70116774Y39674525D01*
X-70090416Y39677359D01*
X-63659768Y39677359D01*
X-63592729Y39657674D01*
X-63572087Y39641040D01*
X-63533406Y39602359D01*
X-63419278Y39536467D01*
X-63291984Y39502359D01*
X-63291982Y39502359D01*
X-63160202Y39502359D01*
X-63160200Y39502359D01*
X-63032906Y39536467D01*
X-62918778Y39602359D01*
X-62825592Y39695545D01*
X-62759700Y39809673D01*
X-62725592Y39936967D01*
X-62725592Y40068751D01*
X-62759700Y40196045D01*
X-62825592Y40310173D01*
X-62918778Y40403359D01*
X-62975842Y40436305D01*
X-63032905Y40469251D01*
X-63096553Y40486305D01*
X-63160200Y40503359D01*
X-63291984Y40503359D01*
X-63419280Y40469251D01*
X-63533406Y40403359D01*
X-63533409Y40403357D01*
X-63572087Y40364678D01*
X-63633410Y40331193D01*
X-63659768Y40328359D01*
X-70090416Y40328359D01*
X-70157455Y40348044D01*
X-70178097Y40364678D01*
X-70216776Y40403357D01*
X-70216778Y40403359D01*
X-70273842Y40436305D01*
X-70330905Y40469251D01*
X-70394553Y40486305D01*
X-70458200Y40503359D01*
X-70589984Y40503359D01*
X-70717280Y40469251D01*
X-70831406Y40403359D01*
X-70831409Y40403357D01*
X-70924590Y40310176D01*
X-70924592Y40310173D01*
X-70990484Y40196047D01*
X-71024592Y40068751D01*
X-72957054Y40068751D01*
X-72957049Y40076952D01*
X-72956469Y41043057D01*
X-58196592Y41043057D01*
X-58196592Y40884944D01*
X-58155669Y40732217D01*
X-58155666Y40732210D01*
X-58076617Y40595291D01*
X-58076613Y40595286D01*
X-58076612Y40595284D01*
X-57964808Y40483480D01*
X-57964806Y40483479D01*
X-57964802Y40483476D01*
X-57827883Y40404427D01*
X-57827876Y40404423D01*
X-57745842Y40382443D01*
X-57690255Y40350349D01*
X-57663934Y40324028D01*
X-57663932Y40324026D01*
X-57570746Y40230840D01*
X-57510479Y40196045D01*
X-57510478Y40196044D01*
X-57477517Y40177014D01*
X-57456618Y40164948D01*
X-57329325Y40130840D01*
X-57329324Y40130840D01*
X-56747108Y40130840D01*
X-56680069Y40111155D01*
X-56659427Y40094521D01*
X-54195564Y37630658D01*
X-54162079Y37569335D01*
X-54159245Y37542977D01*
X-54159245Y35731336D01*
X-54175857Y35669337D01*
X-54218322Y35595785D01*
X-54218322Y35595784D01*
X-54259245Y35443057D01*
X-54259245Y35284944D01*
X-54218322Y35132217D01*
X-54218319Y35132210D01*
X-54139270Y34995291D01*
X-54139266Y34995286D01*
X-54139265Y34995284D01*
X-54027461Y34883480D01*
X-54027459Y34883479D01*
X-54027455Y34883476D01*
X-53890536Y34804427D01*
X-53890529Y34804423D01*
X-53737802Y34763500D01*
X-53737800Y34763500D01*
X-53579690Y34763500D01*
X-53579688Y34763500D01*
X-53426961Y34804423D01*
X-53290029Y34883480D01*
X-53178225Y34995284D01*
X-53099168Y35132216D01*
X-53058245Y35284943D01*
X-53058245Y35443057D01*
X-53099168Y35595784D01*
X-53141633Y35669337D01*
X-53158245Y35731336D01*
X-53158245Y37867543D01*
X-53158245Y37867545D01*
X-53192353Y37994839D01*
X-53258245Y38108967D01*
X-53351431Y38202153D01*
X-56181118Y41031840D01*
X-56238182Y41064786D01*
X-56295245Y41097732D01*
X-56358893Y41114786D01*
X-56422540Y41131840D01*
X-56422541Y41131840D01*
X-56928006Y41131840D01*
X-56995045Y41151525D01*
X-57035394Y41193841D01*
X-57036515Y41195782D01*
X-57036515Y41195784D01*
X-57115572Y41332716D01*
X-57227376Y41444520D01*
X-57227378Y41444521D01*
X-57227383Y41444525D01*
X-57364302Y41523574D01*
X-57364306Y41523576D01*
X-57364308Y41523577D01*
X-57517035Y41564500D01*
X-57675149Y41564500D01*
X-57827876Y41523577D01*
X-57827883Y41523574D01*
X-57964802Y41444525D01*
X-57964810Y41444519D01*
X-58076611Y41332718D01*
X-58076617Y41332710D01*
X-58155666Y41195791D01*
X-58155669Y41195784D01*
X-58196592Y41043057D01*
X-72956469Y41043057D01*
X-72956464Y41051258D01*
X-72956042Y41754525D01*
X-72955805Y42148751D01*
X-71062592Y42148751D01*
X-71062592Y42016968D01*
X-71028484Y41889672D01*
X-70995538Y41832609D01*
X-70962592Y41775545D01*
X-70869406Y41682359D01*
X-70770571Y41625296D01*
X-70756576Y41617216D01*
X-70755278Y41616467D01*
X-70627984Y41582359D01*
X-70627982Y41582359D01*
X-70496202Y41582359D01*
X-70496200Y41582359D01*
X-70368906Y41616467D01*
X-70254778Y41682359D01*
X-70216097Y41721040D01*
X-70154774Y41754525D01*
X-70128416Y41757359D01*
X-70120848Y41757359D01*
X-70109430Y41758107D01*
X-69255836Y41758107D01*
X-69188797Y41738422D01*
X-69168155Y41721788D01*
X-69129474Y41683107D01*
X-69015346Y41617215D01*
X-68888052Y41583107D01*
X-68888050Y41583107D01*
X-68756270Y41583107D01*
X-68756268Y41583107D01*
X-68628974Y41617215D01*
X-68514846Y41683107D01*
X-68421660Y41776293D01*
X-68355768Y41890421D01*
X-68321660Y42017715D01*
X-68321660Y42149499D01*
X-68355768Y42276793D01*
X-68421660Y42390921D01*
X-68514846Y42484107D01*
X-68571910Y42517053D01*
X-68628973Y42549999D01*
X-68692621Y42567053D01*
X-68756268Y42584107D01*
X-68888052Y42584107D01*
X-69015348Y42549999D01*
X-69129474Y42484107D01*
X-69129477Y42484105D01*
X-69168155Y42445426D01*
X-69229478Y42411941D01*
X-69255836Y42409107D01*
X-70129164Y42409107D01*
X-70196203Y42428792D01*
X-70216845Y42445426D01*
X-70254776Y42483357D01*
X-70254778Y42483359D01*
X-70311842Y42516305D01*
X-70368905Y42549251D01*
X-70432553Y42566305D01*
X-70496200Y42583359D01*
X-70627984Y42583359D01*
X-70755280Y42549251D01*
X-70869406Y42483359D01*
X-70869409Y42483357D01*
X-70962590Y42390176D01*
X-70962592Y42390173D01*
X-71028484Y42276047D01*
X-71062592Y42148751D01*
X-72955805Y42148751D01*
X-72953509Y45975660D01*
X-72933784Y46042686D01*
X-72880953Y46088409D01*
X-72829438Y46099584D01*
X-50554042Y46086416D01*
G37*
%TD.AperFunction*%
%TD*%
M02*
