%TF.GenerationSoftware,KiCad,Pcbnew,10.0.5*%
%TF.CreationDate,2026-08-27T15:25:44+05:30*%
%TF.ProjectId,Oizom__OPC_v1,4f697a6f-6d5f-45f4-9f50-435f76312e6b,rev?*%
%TF.SameCoordinates,Original*%
%TF.FileFunction,Legend,Top*%
%TF.FilePolarity,Positive*%
%FSLAX46Y46*%
G04 Gerber Fmt 4.6, Leading zero omitted, Abs format (unit mm)*
G04 Created by KiCad (PCBNEW 10.0.5) date 2026-08-27 15:25:44*
%MOMM*%
%LPD*%
G01*
G04 APERTURE LIST*
G04 Aperture macros list*
%AMRoundRect*
0 Rectangle with rounded corners*
0 $1 Rounding radius*
0 $2 $3 $4 $5 $6 $7 $8 $9 X,Y pos of 4 corners*
0 Add a 4 corners polygon primitive as box body*
4,1,4,$2,$3,$4,$5,$6,$7,$8,$9,$2,$3,0*
0 Add four circle primitives for the rounded corners*
1,1,$1+$1,$2,$3*
1,1,$1+$1,$4,$5*
1,1,$1+$1,$6,$7*
1,1,$1+$1,$8,$9*
0 Add four rect primitives between the rounded corners*
20,1,$1+$1,$2,$3,$4,$5,0*
20,1,$1+$1,$4,$5,$6,$7,0*
20,1,$1+$1,$6,$7,$8,$9,0*
20,1,$1+$1,$8,$9,$2,$3,0*%
G04 Aperture macros list end*
%ADD10C,0.100000*%
%ADD11C,0.050000*%
%ADD12C,0.150000*%
%ADD13C,0.120000*%
%ADD14RoundRect,0.062500X-0.375000X-0.062500X0.375000X-0.062500X0.375000X0.062500X-0.375000X0.062500X0*%
%ADD15RoundRect,0.062500X-0.062500X-0.375000X0.062500X-0.375000X0.062500X0.375000X-0.062500X0.375000X0*%
%ADD16R,3.450000X3.450000*%
%ADD17RoundRect,0.200000X-0.200000X-0.275000X0.200000X-0.275000X0.200000X0.275000X-0.200000X0.275000X0*%
%ADD18RoundRect,0.237500X-0.250000X-0.237500X0.250000X-0.237500X0.250000X0.237500X-0.250000X0.237500X0*%
%ADD19RoundRect,0.200000X0.275000X-0.200000X0.275000X0.200000X-0.275000X0.200000X-0.275000X-0.200000X0*%
%ADD20RoundRect,0.200000X0.200000X0.275000X-0.200000X0.275000X-0.200000X-0.275000X0.200000X-0.275000X0*%
%ADD21C,4.000000*%
%ADD22R,0.900000X1.000000*%
%ADD23RoundRect,0.225000X-0.250000X0.225000X-0.250000X-0.225000X0.250000X-0.225000X0.250000X0.225000X0*%
%ADD24C,1.000000*%
%ADD25RoundRect,0.150000X0.512500X0.150000X-0.512500X0.150000X-0.512500X-0.150000X0.512500X-0.150000X0*%
%ADD26RoundRect,0.150000X-0.825000X-0.150000X0.825000X-0.150000X0.825000X0.150000X-0.825000X0.150000X0*%
%ADD27RoundRect,0.249200X0.600800X0.450800X-0.600800X0.450800X-0.600800X-0.450800X0.600800X-0.450800X0*%
%ADD28O,1.700000X1.400000*%
%ADD29RoundRect,0.225000X-0.225000X-0.250000X0.225000X-0.250000X0.225000X0.250000X-0.225000X0.250000X0*%
%ADD30R,1.700000X1.700000*%
%ADD31C,1.700000*%
%ADD32RoundRect,0.218750X-0.218750X-0.381250X0.218750X-0.381250X0.218750X0.381250X-0.218750X0.381250X0*%
%ADD33RoundRect,0.225000X0.250000X-0.225000X0.250000X0.225000X-0.250000X0.225000X-0.250000X-0.225000X0*%
%ADD34RoundRect,0.225000X0.225000X0.250000X-0.225000X0.250000X-0.225000X-0.250000X0.225000X-0.250000X0*%
%ADD35RoundRect,0.150000X0.587500X0.150000X-0.587500X0.150000X-0.587500X-0.150000X0.587500X-0.150000X0*%
%ADD36RoundRect,0.218750X0.381250X-0.218750X0.381250X0.218750X-0.381250X0.218750X-0.381250X-0.218750X0*%
%ADD37R,2.030000X1.730000*%
%ADD38O,2.030000X1.730000*%
%ADD39RoundRect,0.375000X-0.625000X-0.375000X0.625000X-0.375000X0.625000X0.375000X-0.625000X0.375000X0*%
%ADD40RoundRect,0.500000X-0.500000X-1.400000X0.500000X-1.400000X0.500000X1.400000X-0.500000X1.400000X0*%
%ADD41RoundRect,0.237500X0.250000X0.237500X-0.250000X0.237500X-0.250000X-0.237500X0.250000X-0.237500X0*%
%ADD42RoundRect,0.250000X0.600000X-0.600000X0.600000X0.600000X-0.600000X0.600000X-0.600000X-0.600000X0*%
%ADD43RoundRect,0.250000X-0.412500X-1.100000X0.412500X-1.100000X0.412500X1.100000X-0.412500X1.100000X0*%
G04 APERTURE END LIST*
D10*
X-59558610Y78362164D02*
X-59058610Y78362164D01*
X-59058610Y78362164D02*
X-59058610Y78171688D01*
X-59058610Y78171688D02*
X-59082420Y78124069D01*
X-59082420Y78124069D02*
X-59106229Y78100259D01*
X-59106229Y78100259D02*
X-59153848Y78076450D01*
X-59153848Y78076450D02*
X-59225277Y78076450D01*
X-59225277Y78076450D02*
X-59272896Y78100259D01*
X-59272896Y78100259D02*
X-59296705Y78124069D01*
X-59296705Y78124069D02*
X-59320515Y78171688D01*
X-59320515Y78171688D02*
X-59320515Y78362164D01*
X-59558610Y77862164D02*
X-59058610Y77862164D01*
X-59058610Y77862164D02*
X-59058610Y77743116D01*
X-59058610Y77743116D02*
X-59082420Y77671688D01*
X-59082420Y77671688D02*
X-59130039Y77624069D01*
X-59130039Y77624069D02*
X-59177658Y77600259D01*
X-59177658Y77600259D02*
X-59272896Y77576450D01*
X-59272896Y77576450D02*
X-59344324Y77576450D01*
X-59344324Y77576450D02*
X-59439562Y77600259D01*
X-59439562Y77600259D02*
X-59487181Y77624069D01*
X-59487181Y77624069D02*
X-59534800Y77671688D01*
X-59534800Y77671688D02*
X-59558610Y77743116D01*
X-59558610Y77743116D02*
X-59558610Y77862164D01*
X-59510991Y77076450D02*
X-59534800Y77100259D01*
X-59534800Y77100259D02*
X-59558610Y77171688D01*
X-59558610Y77171688D02*
X-59558610Y77219307D01*
X-59558610Y77219307D02*
X-59534800Y77290735D01*
X-59534800Y77290735D02*
X-59487181Y77338354D01*
X-59487181Y77338354D02*
X-59439562Y77362164D01*
X-59439562Y77362164D02*
X-59344324Y77385973D01*
X-59344324Y77385973D02*
X-59272896Y77385973D01*
X-59272896Y77385973D02*
X-59177658Y77362164D01*
X-59177658Y77362164D02*
X-59130039Y77338354D01*
X-59130039Y77338354D02*
X-59082420Y77290735D01*
X-59082420Y77290735D02*
X-59058610Y77219307D01*
X-59058610Y77219307D02*
X-59058610Y77171688D01*
X-59058610Y77171688D02*
X-59082420Y77100259D01*
X-59082420Y77100259D02*
X-59106229Y77076450D01*
X-59533991Y75989450D02*
X-59557800Y76013259D01*
X-59557800Y76013259D02*
X-59581610Y76084688D01*
X-59581610Y76084688D02*
X-59581610Y76132307D01*
X-59581610Y76132307D02*
X-59557800Y76203735D01*
X-59557800Y76203735D02*
X-59510181Y76251354D01*
X-59510181Y76251354D02*
X-59462562Y76275164D01*
X-59462562Y76275164D02*
X-59367324Y76298973D01*
X-59367324Y76298973D02*
X-59295896Y76298973D01*
X-59295896Y76298973D02*
X-59200658Y76275164D01*
X-59200658Y76275164D02*
X-59153039Y76251354D01*
X-59153039Y76251354D02*
X-59105420Y76203735D01*
X-59105420Y76203735D02*
X-59081610Y76132307D01*
X-59081610Y76132307D02*
X-59081610Y76084688D01*
X-59081610Y76084688D02*
X-59105420Y76013259D01*
X-59105420Y76013259D02*
X-59129229Y75989450D01*
X-59438753Y75798973D02*
X-59438753Y75560878D01*
X-59581610Y75846592D02*
X-59081610Y75679926D01*
X-59081610Y75679926D02*
X-59581610Y75513259D01*
X-59557800Y75370402D02*
X-59581610Y75298974D01*
X-59581610Y75298974D02*
X-59581610Y75179926D01*
X-59581610Y75179926D02*
X-59557800Y75132307D01*
X-59557800Y75132307D02*
X-59533991Y75108498D01*
X-59533991Y75108498D02*
X-59486372Y75084688D01*
X-59486372Y75084688D02*
X-59438753Y75084688D01*
X-59438753Y75084688D02*
X-59391134Y75108498D01*
X-59391134Y75108498D02*
X-59367324Y75132307D01*
X-59367324Y75132307D02*
X-59343515Y75179926D01*
X-59343515Y75179926D02*
X-59319705Y75275164D01*
X-59319705Y75275164D02*
X-59295896Y75322783D01*
X-59295896Y75322783D02*
X-59272086Y75346593D01*
X-59272086Y75346593D02*
X-59224467Y75370402D01*
X-59224467Y75370402D02*
X-59176848Y75370402D01*
X-59176848Y75370402D02*
X-59129229Y75346593D01*
X-59129229Y75346593D02*
X-59105420Y75322783D01*
X-59105420Y75322783D02*
X-59081610Y75275164D01*
X-59081610Y75275164D02*
X-59081610Y75156117D01*
X-59081610Y75156117D02*
X-59105420Y75084688D01*
X-59319705Y74870403D02*
X-59319705Y74703736D01*
X-59581610Y74632308D02*
X-59581610Y74870403D01*
X-59581610Y74870403D02*
X-59081610Y74870403D01*
X-59081610Y74870403D02*
X-59081610Y74632308D01*
X-59536610Y73456069D02*
X-59536610Y73694164D01*
X-59536610Y73694164D02*
X-59036610Y73694164D01*
X-59536610Y73289402D02*
X-59036610Y73289402D01*
X-59036610Y73289402D02*
X-59036610Y73170354D01*
X-59036610Y73170354D02*
X-59060420Y73098926D01*
X-59060420Y73098926D02*
X-59108039Y73051307D01*
X-59108039Y73051307D02*
X-59155658Y73027497D01*
X-59155658Y73027497D02*
X-59250896Y73003688D01*
X-59250896Y73003688D02*
X-59322324Y73003688D01*
X-59322324Y73003688D02*
X-59417562Y73027497D01*
X-59417562Y73027497D02*
X-59465181Y73051307D01*
X-59465181Y73051307D02*
X-59512800Y73098926D01*
X-59512800Y73098926D02*
X-59536610Y73170354D01*
X-59536610Y73170354D02*
X-59536610Y73289402D01*
X-59488991Y72503688D02*
X-59512800Y72527497D01*
X-59512800Y72527497D02*
X-59536610Y72598926D01*
X-59536610Y72598926D02*
X-59536610Y72646545D01*
X-59536610Y72646545D02*
X-59512800Y72717973D01*
X-59512800Y72717973D02*
X-59465181Y72765592D01*
X-59465181Y72765592D02*
X-59417562Y72789402D01*
X-59417562Y72789402D02*
X-59322324Y72813211D01*
X-59322324Y72813211D02*
X-59250896Y72813211D01*
X-59250896Y72813211D02*
X-59155658Y72789402D01*
X-59155658Y72789402D02*
X-59108039Y72765592D01*
X-59108039Y72765592D02*
X-59060420Y72717973D01*
X-59060420Y72717973D02*
X-59036610Y72646545D01*
X-59036610Y72646545D02*
X-59036610Y72598926D01*
X-59036610Y72598926D02*
X-59060420Y72527497D01*
X-59060420Y72527497D02*
X-59084229Y72503688D01*
X-86686000Y91870000D02*
X-51686000Y91870000D01*
X-51686000Y66870000D01*
X-86686000Y66870000D01*
X-86686000Y91870000D01*
D11*
X-85352000Y27745000D02*
X-49352000Y27745000D01*
X-85352000Y6745000D02*
X-85352000Y27745000D01*
X-55352000Y6745000D02*
X-85352000Y6745000D01*
X-55352000Y3745000D02*
X-55352000Y6745000D01*
X-49352000Y73745000D02*
X-8352000Y73745000D01*
X-49352000Y27745000D02*
X-49352000Y73745000D01*
X-8352000Y73745000D02*
X-8352000Y3745000D01*
X-8352000Y3745000D02*
X-55352000Y3745000D01*
D10*
X-86227134Y79560164D02*
X-86227134Y79179211D01*
X-86417610Y79369688D02*
X-86036658Y79369688D01*
X-85917610Y78988735D02*
X-85917610Y78679211D01*
X-85917610Y78679211D02*
X-86108086Y78845878D01*
X-86108086Y78845878D02*
X-86108086Y78774449D01*
X-86108086Y78774449D02*
X-86131896Y78726830D01*
X-86131896Y78726830D02*
X-86155705Y78703021D01*
X-86155705Y78703021D02*
X-86203324Y78679211D01*
X-86203324Y78679211D02*
X-86322372Y78679211D01*
X-86322372Y78679211D02*
X-86369991Y78703021D01*
X-86369991Y78703021D02*
X-86393800Y78726830D01*
X-86393800Y78726830D02*
X-86417610Y78774449D01*
X-86417610Y78774449D02*
X-86417610Y78917306D01*
X-86417610Y78917306D02*
X-86393800Y78964925D01*
X-86393800Y78964925D02*
X-86369991Y78988735D01*
X-86369991Y78464926D02*
X-86393800Y78441116D01*
X-86393800Y78441116D02*
X-86417610Y78464926D01*
X-86417610Y78464926D02*
X-86393800Y78488735D01*
X-86393800Y78488735D02*
X-86369991Y78464926D01*
X-86369991Y78464926D02*
X-86417610Y78464926D01*
X-85917610Y78274450D02*
X-85917610Y77964926D01*
X-85917610Y77964926D02*
X-86108086Y78131593D01*
X-86108086Y78131593D02*
X-86108086Y78060164D01*
X-86108086Y78060164D02*
X-86131896Y78012545D01*
X-86131896Y78012545D02*
X-86155705Y77988736D01*
X-86155705Y77988736D02*
X-86203324Y77964926D01*
X-86203324Y77964926D02*
X-86322372Y77964926D01*
X-86322372Y77964926D02*
X-86369991Y77988736D01*
X-86369991Y77988736D02*
X-86393800Y78012545D01*
X-86393800Y78012545D02*
X-86417610Y78060164D01*
X-86417610Y78060164D02*
X-86417610Y78203021D01*
X-86417610Y78203021D02*
X-86393800Y78250640D01*
X-86393800Y78250640D02*
X-86369991Y78274450D01*
X-85846420Y73771259D02*
X-85822610Y73818878D01*
X-85822610Y73818878D02*
X-85822610Y73890307D01*
X-85822610Y73890307D02*
X-85846420Y73961735D01*
X-85846420Y73961735D02*
X-85894039Y74009354D01*
X-85894039Y74009354D02*
X-85941658Y74033164D01*
X-85941658Y74033164D02*
X-86036896Y74056973D01*
X-86036896Y74056973D02*
X-86108324Y74056973D01*
X-86108324Y74056973D02*
X-86203562Y74033164D01*
X-86203562Y74033164D02*
X-86251181Y74009354D01*
X-86251181Y74009354D02*
X-86298800Y73961735D01*
X-86298800Y73961735D02*
X-86322610Y73890307D01*
X-86322610Y73890307D02*
X-86322610Y73842688D01*
X-86322610Y73842688D02*
X-86298800Y73771259D01*
X-86298800Y73771259D02*
X-86274991Y73747450D01*
X-86274991Y73747450D02*
X-86108324Y73747450D01*
X-86108324Y73747450D02*
X-86108324Y73842688D01*
X-86322610Y73533164D02*
X-85822610Y73533164D01*
X-85822610Y73533164D02*
X-86322610Y73247450D01*
X-86322610Y73247450D02*
X-85822610Y73247450D01*
X-86322610Y73009354D02*
X-85822610Y73009354D01*
X-85822610Y73009354D02*
X-85822610Y72890306D01*
X-85822610Y72890306D02*
X-85846420Y72818878D01*
X-85846420Y72818878D02*
X-85894039Y72771259D01*
X-85894039Y72771259D02*
X-85941658Y72747449D01*
X-85941658Y72747449D02*
X-86036896Y72723640D01*
X-86036896Y72723640D02*
X-86108324Y72723640D01*
X-86108324Y72723640D02*
X-86203562Y72747449D01*
X-86203562Y72747449D02*
X-86251181Y72771259D01*
X-86251181Y72771259D02*
X-86298800Y72818878D01*
X-86298800Y72818878D02*
X-86322610Y72890306D01*
X-86322610Y72890306D02*
X-86322610Y73009354D01*
X-86363973Y90790248D02*
X-85983021Y90790248D01*
X-86221116Y90123581D02*
X-86221116Y90980724D01*
X-86221116Y90980724D02*
X-86173497Y91075962D01*
X-86173497Y91075962D02*
X-86078259Y91123581D01*
X-86078259Y91123581D02*
X-85983021Y91123581D01*
X-85506830Y90123581D02*
X-85602068Y90171200D01*
X-85602068Y90171200D02*
X-85649687Y90218820D01*
X-85649687Y90218820D02*
X-85697306Y90314058D01*
X-85697306Y90314058D02*
X-85697306Y90599772D01*
X-85697306Y90599772D02*
X-85649687Y90695010D01*
X-85649687Y90695010D02*
X-85602068Y90742629D01*
X-85602068Y90742629D02*
X-85506830Y90790248D01*
X-85506830Y90790248D02*
X-85363973Y90790248D01*
X-85363973Y90790248D02*
X-85268735Y90742629D01*
X-85268735Y90742629D02*
X-85221116Y90695010D01*
X-85221116Y90695010D02*
X-85173497Y90599772D01*
X-85173497Y90599772D02*
X-85173497Y90314058D01*
X-85173497Y90314058D02*
X-85221116Y90218820D01*
X-85221116Y90218820D02*
X-85268735Y90171200D01*
X-85268735Y90171200D02*
X-85363973Y90123581D01*
X-85363973Y90123581D02*
X-85506830Y90123581D01*
X-84744925Y90123581D02*
X-84744925Y90790248D01*
X-84744925Y90599772D02*
X-84697306Y90695010D01*
X-84697306Y90695010D02*
X-84649687Y90742629D01*
X-84649687Y90742629D02*
X-84554449Y90790248D01*
X-84554449Y90790248D02*
X-84459211Y90790248D01*
X-82887782Y90123581D02*
X-83363972Y90123581D01*
X-83363972Y90123581D02*
X-83363972Y91123581D01*
X-82554448Y90123581D02*
X-82554448Y91123581D01*
X-82554448Y91123581D02*
X-82316353Y91123581D01*
X-82316353Y91123581D02*
X-82173496Y91075962D01*
X-82173496Y91075962D02*
X-82078258Y90980724D01*
X-82078258Y90980724D02*
X-82030639Y90885486D01*
X-82030639Y90885486D02*
X-81983020Y90695010D01*
X-81983020Y90695010D02*
X-81983020Y90552153D01*
X-81983020Y90552153D02*
X-82030639Y90361677D01*
X-82030639Y90361677D02*
X-82078258Y90266439D01*
X-82078258Y90266439D02*
X-82173496Y90171200D01*
X-82173496Y90171200D02*
X-82316353Y90123581D01*
X-82316353Y90123581D02*
X-82554448Y90123581D01*
D12*
X-86001667Y46261181D02*
X-86477857Y46261181D01*
X-86477857Y46261181D02*
X-86477857Y47261181D01*
X-85144524Y46261181D02*
X-85715952Y46261181D01*
X-85430238Y46261181D02*
X-85430238Y47261181D01*
X-85430238Y47261181D02*
X-85525476Y47118324D01*
X-85525476Y47118324D02*
X-85620714Y47023086D01*
X-85620714Y47023086D02*
X-85715952Y46975467D01*
X-85967667Y49221181D02*
X-86443857Y49221181D01*
X-86443857Y49221181D02*
X-86443857Y50221181D01*
X-85681952Y50125943D02*
X-85634333Y50173562D01*
X-85634333Y50173562D02*
X-85539095Y50221181D01*
X-85539095Y50221181D02*
X-85301000Y50221181D01*
X-85301000Y50221181D02*
X-85205762Y50173562D01*
X-85205762Y50173562D02*
X-85158143Y50125943D01*
X-85158143Y50125943D02*
X-85110524Y50030705D01*
X-85110524Y50030705D02*
X-85110524Y49935467D01*
X-85110524Y49935467D02*
X-85158143Y49792610D01*
X-85158143Y49792610D02*
X-85729571Y49221181D01*
X-85729571Y49221181D02*
X-85110524Y49221181D01*
X-71072687Y61849059D02*
X-71072687Y61039536D01*
X-71072687Y61039536D02*
X-71025068Y60944298D01*
X-71025068Y60944298D02*
X-70977449Y60896678D01*
X-70977449Y60896678D02*
X-70882211Y60849059D01*
X-70882211Y60849059D02*
X-70691735Y60849059D01*
X-70691735Y60849059D02*
X-70596497Y60896678D01*
X-70596497Y60896678D02*
X-70548878Y60944298D01*
X-70548878Y60944298D02*
X-70501259Y61039536D01*
X-70501259Y61039536D02*
X-70501259Y61849059D01*
X-69501259Y60849059D02*
X-70072687Y60849059D01*
X-69786973Y60849059D02*
X-69786973Y61849059D01*
X-69786973Y61849059D02*
X-69882211Y61706202D01*
X-69882211Y61706202D02*
X-69977449Y61610964D01*
X-69977449Y61610964D02*
X-70072687Y61563345D01*
X-67465858Y78379181D02*
X-67799191Y78855372D01*
X-68037286Y78379181D02*
X-68037286Y79379181D01*
X-68037286Y79379181D02*
X-67656334Y79379181D01*
X-67656334Y79379181D02*
X-67561096Y79331562D01*
X-67561096Y79331562D02*
X-67513477Y79283943D01*
X-67513477Y79283943D02*
X-67465858Y79188705D01*
X-67465858Y79188705D02*
X-67465858Y79045848D01*
X-67465858Y79045848D02*
X-67513477Y78950610D01*
X-67513477Y78950610D02*
X-67561096Y78902991D01*
X-67561096Y78902991D02*
X-67656334Y78855372D01*
X-67656334Y78855372D02*
X-68037286Y78855372D01*
X-66513477Y78379181D02*
X-67084905Y78379181D01*
X-66799191Y78379181D02*
X-66799191Y79379181D01*
X-66799191Y79379181D02*
X-66894429Y79236324D01*
X-66894429Y79236324D02*
X-66989667Y79141086D01*
X-66989667Y79141086D02*
X-67084905Y79093467D01*
X-66180143Y79379181D02*
X-65513477Y79379181D01*
X-65513477Y79379181D02*
X-65942048Y78379181D01*
X-59628950Y35017040D02*
X-59962283Y35493231D01*
X-60200378Y35017040D02*
X-60200378Y36017040D01*
X-60200378Y36017040D02*
X-59819426Y36017040D01*
X-59819426Y36017040D02*
X-59724188Y35969421D01*
X-59724188Y35969421D02*
X-59676569Y35921802D01*
X-59676569Y35921802D02*
X-59628950Y35826564D01*
X-59628950Y35826564D02*
X-59628950Y35683707D01*
X-59628950Y35683707D02*
X-59676569Y35588469D01*
X-59676569Y35588469D02*
X-59724188Y35540850D01*
X-59724188Y35540850D02*
X-59819426Y35493231D01*
X-59819426Y35493231D02*
X-60200378Y35493231D01*
X-58676569Y35017040D02*
X-59247997Y35017040D01*
X-58962283Y35017040D02*
X-58962283Y36017040D01*
X-58962283Y36017040D02*
X-59057521Y35874183D01*
X-59057521Y35874183D02*
X-59152759Y35778945D01*
X-59152759Y35778945D02*
X-59247997Y35731326D01*
X-57819426Y36017040D02*
X-58009902Y36017040D01*
X-58009902Y36017040D02*
X-58105140Y35969421D01*
X-58105140Y35969421D02*
X-58152759Y35921802D01*
X-58152759Y35921802D02*
X-58247997Y35778945D01*
X-58247997Y35778945D02*
X-58295616Y35588469D01*
X-58295616Y35588469D02*
X-58295616Y35207517D01*
X-58295616Y35207517D02*
X-58247997Y35112279D01*
X-58247997Y35112279D02*
X-58200378Y35064659D01*
X-58200378Y35064659D02*
X-58105140Y35017040D01*
X-58105140Y35017040D02*
X-57914664Y35017040D01*
X-57914664Y35017040D02*
X-57819426Y35064659D01*
X-57819426Y35064659D02*
X-57771807Y35112279D01*
X-57771807Y35112279D02*
X-57724188Y35207517D01*
X-57724188Y35207517D02*
X-57724188Y35445612D01*
X-57724188Y35445612D02*
X-57771807Y35540850D01*
X-57771807Y35540850D02*
X-57819426Y35588469D01*
X-57819426Y35588469D02*
X-57914664Y35636088D01*
X-57914664Y35636088D02*
X-58105140Y35636088D01*
X-58105140Y35636088D02*
X-58200378Y35588469D01*
X-58200378Y35588469D02*
X-58247997Y35540850D01*
X-58247997Y35540850D02*
X-58295616Y35445612D01*
X-70345759Y35139181D02*
X-70679092Y35615372D01*
X-70917187Y35139181D02*
X-70917187Y36139181D01*
X-70917187Y36139181D02*
X-70536235Y36139181D01*
X-70536235Y36139181D02*
X-70440997Y36091562D01*
X-70440997Y36091562D02*
X-70393378Y36043943D01*
X-70393378Y36043943D02*
X-70345759Y35948705D01*
X-70345759Y35948705D02*
X-70345759Y35805848D01*
X-70345759Y35805848D02*
X-70393378Y35710610D01*
X-70393378Y35710610D02*
X-70440997Y35662991D01*
X-70440997Y35662991D02*
X-70536235Y35615372D01*
X-70536235Y35615372D02*
X-70917187Y35615372D01*
X-69869568Y35139181D02*
X-69679092Y35139181D01*
X-69679092Y35139181D02*
X-69583854Y35186800D01*
X-69583854Y35186800D02*
X-69536235Y35234420D01*
X-69536235Y35234420D02*
X-69440997Y35377277D01*
X-69440997Y35377277D02*
X-69393378Y35567753D01*
X-69393378Y35567753D02*
X-69393378Y35948705D01*
X-69393378Y35948705D02*
X-69440997Y36043943D01*
X-69440997Y36043943D02*
X-69488616Y36091562D01*
X-69488616Y36091562D02*
X-69583854Y36139181D01*
X-69583854Y36139181D02*
X-69774330Y36139181D01*
X-69774330Y36139181D02*
X-69869568Y36091562D01*
X-69869568Y36091562D02*
X-69917187Y36043943D01*
X-69917187Y36043943D02*
X-69964806Y35948705D01*
X-69964806Y35948705D02*
X-69964806Y35710610D01*
X-69964806Y35710610D02*
X-69917187Y35615372D01*
X-69917187Y35615372D02*
X-69869568Y35567753D01*
X-69869568Y35567753D02*
X-69774330Y35520134D01*
X-69774330Y35520134D02*
X-69583854Y35520134D01*
X-69583854Y35520134D02*
X-69488616Y35567753D01*
X-69488616Y35567753D02*
X-69440997Y35615372D01*
X-69440997Y35615372D02*
X-69393378Y35710610D01*
X-66860759Y35148181D02*
X-67194092Y35624372D01*
X-67432187Y35148181D02*
X-67432187Y36148181D01*
X-67432187Y36148181D02*
X-67051235Y36148181D01*
X-67051235Y36148181D02*
X-66955997Y36100562D01*
X-66955997Y36100562D02*
X-66908378Y36052943D01*
X-66908378Y36052943D02*
X-66860759Y35957705D01*
X-66860759Y35957705D02*
X-66860759Y35814848D01*
X-66860759Y35814848D02*
X-66908378Y35719610D01*
X-66908378Y35719610D02*
X-66955997Y35671991D01*
X-66955997Y35671991D02*
X-67051235Y35624372D01*
X-67051235Y35624372D02*
X-67432187Y35624372D01*
X-66289330Y35719610D02*
X-66384568Y35767229D01*
X-66384568Y35767229D02*
X-66432187Y35814848D01*
X-66432187Y35814848D02*
X-66479806Y35910086D01*
X-66479806Y35910086D02*
X-66479806Y35957705D01*
X-66479806Y35957705D02*
X-66432187Y36052943D01*
X-66432187Y36052943D02*
X-66384568Y36100562D01*
X-66384568Y36100562D02*
X-66289330Y36148181D01*
X-66289330Y36148181D02*
X-66098854Y36148181D01*
X-66098854Y36148181D02*
X-66003616Y36100562D01*
X-66003616Y36100562D02*
X-65955997Y36052943D01*
X-65955997Y36052943D02*
X-65908378Y35957705D01*
X-65908378Y35957705D02*
X-65908378Y35910086D01*
X-65908378Y35910086D02*
X-65955997Y35814848D01*
X-65955997Y35814848D02*
X-66003616Y35767229D01*
X-66003616Y35767229D02*
X-66098854Y35719610D01*
X-66098854Y35719610D02*
X-66289330Y35719610D01*
X-66289330Y35719610D02*
X-66384568Y35671991D01*
X-66384568Y35671991D02*
X-66432187Y35624372D01*
X-66432187Y35624372D02*
X-66479806Y35529134D01*
X-66479806Y35529134D02*
X-66479806Y35338658D01*
X-66479806Y35338658D02*
X-66432187Y35243420D01*
X-66432187Y35243420D02*
X-66384568Y35195800D01*
X-66384568Y35195800D02*
X-66289330Y35148181D01*
X-66289330Y35148181D02*
X-66098854Y35148181D01*
X-66098854Y35148181D02*
X-66003616Y35195800D01*
X-66003616Y35195800D02*
X-65955997Y35243420D01*
X-65955997Y35243420D02*
X-65908378Y35338658D01*
X-65908378Y35338658D02*
X-65908378Y35529134D01*
X-65908378Y35529134D02*
X-65955997Y35624372D01*
X-65955997Y35624372D02*
X-66003616Y35671991D01*
X-66003616Y35671991D02*
X-66098854Y35719610D01*
X-25867181Y80917334D02*
X-26343372Y80584001D01*
X-25867181Y80345906D02*
X-26867181Y80345906D01*
X-26867181Y80345906D02*
X-26867181Y80726858D01*
X-26867181Y80726858D02*
X-26819562Y80822096D01*
X-26819562Y80822096D02*
X-26771943Y80869715D01*
X-26771943Y80869715D02*
X-26676705Y80917334D01*
X-26676705Y80917334D02*
X-26533848Y80917334D01*
X-26533848Y80917334D02*
X-26438610Y80869715D01*
X-26438610Y80869715D02*
X-26390991Y80822096D01*
X-26390991Y80822096D02*
X-26343372Y80726858D01*
X-26343372Y80726858D02*
X-26343372Y80345906D01*
X-26867181Y81250668D02*
X-26867181Y81917334D01*
X-26867181Y81917334D02*
X-25867181Y81488763D01*
X-59742667Y58149181D02*
X-60076000Y58625372D01*
X-60314095Y58149181D02*
X-60314095Y59149181D01*
X-60314095Y59149181D02*
X-59933143Y59149181D01*
X-59933143Y59149181D02*
X-59837905Y59101562D01*
X-59837905Y59101562D02*
X-59790286Y59053943D01*
X-59790286Y59053943D02*
X-59742667Y58958705D01*
X-59742667Y58958705D02*
X-59742667Y58815848D01*
X-59742667Y58815848D02*
X-59790286Y58720610D01*
X-59790286Y58720610D02*
X-59837905Y58672991D01*
X-59837905Y58672991D02*
X-59933143Y58625372D01*
X-59933143Y58625372D02*
X-60314095Y58625372D01*
X-58885524Y59149181D02*
X-59076000Y59149181D01*
X-59076000Y59149181D02*
X-59171238Y59101562D01*
X-59171238Y59101562D02*
X-59218857Y59053943D01*
X-59218857Y59053943D02*
X-59314095Y58911086D01*
X-59314095Y58911086D02*
X-59361714Y58720610D01*
X-59361714Y58720610D02*
X-59361714Y58339658D01*
X-59361714Y58339658D02*
X-59314095Y58244420D01*
X-59314095Y58244420D02*
X-59266476Y58196800D01*
X-59266476Y58196800D02*
X-59171238Y58149181D01*
X-59171238Y58149181D02*
X-58980762Y58149181D01*
X-58980762Y58149181D02*
X-58885524Y58196800D01*
X-58885524Y58196800D02*
X-58837905Y58244420D01*
X-58837905Y58244420D02*
X-58790286Y58339658D01*
X-58790286Y58339658D02*
X-58790286Y58577753D01*
X-58790286Y58577753D02*
X-58837905Y58672991D01*
X-58837905Y58672991D02*
X-58885524Y58720610D01*
X-58885524Y58720610D02*
X-58980762Y58768229D01*
X-58980762Y58768229D02*
X-59171238Y58768229D01*
X-59171238Y58768229D02*
X-59266476Y58720610D01*
X-59266476Y58720610D02*
X-59314095Y58672991D01*
X-59314095Y58672991D02*
X-59361714Y58577753D01*
X-59672667Y52840322D02*
X-60006000Y53316513D01*
X-60244095Y52840322D02*
X-60244095Y53840322D01*
X-60244095Y53840322D02*
X-59863143Y53840322D01*
X-59863143Y53840322D02*
X-59767905Y53792703D01*
X-59767905Y53792703D02*
X-59720286Y53745084D01*
X-59720286Y53745084D02*
X-59672667Y53649846D01*
X-59672667Y53649846D02*
X-59672667Y53506989D01*
X-59672667Y53506989D02*
X-59720286Y53411751D01*
X-59720286Y53411751D02*
X-59767905Y53364132D01*
X-59767905Y53364132D02*
X-59863143Y53316513D01*
X-59863143Y53316513D02*
X-60244095Y53316513D01*
X-58767905Y53840322D02*
X-59244095Y53840322D01*
X-59244095Y53840322D02*
X-59291714Y53364132D01*
X-59291714Y53364132D02*
X-59244095Y53411751D01*
X-59244095Y53411751D02*
X-59148857Y53459370D01*
X-59148857Y53459370D02*
X-58910762Y53459370D01*
X-58910762Y53459370D02*
X-58815524Y53411751D01*
X-58815524Y53411751D02*
X-58767905Y53364132D01*
X-58767905Y53364132D02*
X-58720286Y53268894D01*
X-58720286Y53268894D02*
X-58720286Y53030799D01*
X-58720286Y53030799D02*
X-58767905Y52935561D01*
X-58767905Y52935561D02*
X-58815524Y52887941D01*
X-58815524Y52887941D02*
X-58910762Y52840322D01*
X-58910762Y52840322D02*
X-59148857Y52840322D01*
X-59148857Y52840322D02*
X-59244095Y52887941D01*
X-59244095Y52887941D02*
X-59291714Y52935561D01*
X-64897667Y62090322D02*
X-65231000Y62566513D01*
X-65469095Y62090322D02*
X-65469095Y63090322D01*
X-65469095Y63090322D02*
X-65088143Y63090322D01*
X-65088143Y63090322D02*
X-64992905Y63042703D01*
X-64992905Y63042703D02*
X-64945286Y62995084D01*
X-64945286Y62995084D02*
X-64897667Y62899846D01*
X-64897667Y62899846D02*
X-64897667Y62756989D01*
X-64897667Y62756989D02*
X-64945286Y62661751D01*
X-64945286Y62661751D02*
X-64992905Y62614132D01*
X-64992905Y62614132D02*
X-65088143Y62566513D01*
X-65088143Y62566513D02*
X-65469095Y62566513D01*
X-64040524Y62756989D02*
X-64040524Y62090322D01*
X-64278619Y63137941D02*
X-64516714Y62423656D01*
X-64516714Y62423656D02*
X-63897667Y62423656D01*
X-61845667Y59747322D02*
X-62179000Y60223513D01*
X-62417095Y59747322D02*
X-62417095Y60747322D01*
X-62417095Y60747322D02*
X-62036143Y60747322D01*
X-62036143Y60747322D02*
X-61940905Y60699703D01*
X-61940905Y60699703D02*
X-61893286Y60652084D01*
X-61893286Y60652084D02*
X-61845667Y60556846D01*
X-61845667Y60556846D02*
X-61845667Y60413989D01*
X-61845667Y60413989D02*
X-61893286Y60318751D01*
X-61893286Y60318751D02*
X-61940905Y60271132D01*
X-61940905Y60271132D02*
X-62036143Y60223513D01*
X-62036143Y60223513D02*
X-62417095Y60223513D01*
X-61512333Y60747322D02*
X-60893286Y60747322D01*
X-60893286Y60747322D02*
X-61226619Y60366370D01*
X-61226619Y60366370D02*
X-61083762Y60366370D01*
X-61083762Y60366370D02*
X-60988524Y60318751D01*
X-60988524Y60318751D02*
X-60940905Y60271132D01*
X-60940905Y60271132D02*
X-60893286Y60175894D01*
X-60893286Y60175894D02*
X-60893286Y59937799D01*
X-60893286Y59937799D02*
X-60940905Y59842561D01*
X-60940905Y59842561D02*
X-60988524Y59794941D01*
X-60988524Y59794941D02*
X-61083762Y59747322D01*
X-61083762Y59747322D02*
X-61369476Y59747322D01*
X-61369476Y59747322D02*
X-61464714Y59794941D01*
X-61464714Y59794941D02*
X-61512333Y59842561D01*
X-68730667Y62552322D02*
X-69064000Y63028513D01*
X-69302095Y62552322D02*
X-69302095Y63552322D01*
X-69302095Y63552322D02*
X-68921143Y63552322D01*
X-68921143Y63552322D02*
X-68825905Y63504703D01*
X-68825905Y63504703D02*
X-68778286Y63457084D01*
X-68778286Y63457084D02*
X-68730667Y63361846D01*
X-68730667Y63361846D02*
X-68730667Y63218989D01*
X-68730667Y63218989D02*
X-68778286Y63123751D01*
X-68778286Y63123751D02*
X-68825905Y63076132D01*
X-68825905Y63076132D02*
X-68921143Y63028513D01*
X-68921143Y63028513D02*
X-69302095Y63028513D01*
X-68349714Y63457084D02*
X-68302095Y63504703D01*
X-68302095Y63504703D02*
X-68206857Y63552322D01*
X-68206857Y63552322D02*
X-67968762Y63552322D01*
X-67968762Y63552322D02*
X-67873524Y63504703D01*
X-67873524Y63504703D02*
X-67825905Y63457084D01*
X-67825905Y63457084D02*
X-67778286Y63361846D01*
X-67778286Y63361846D02*
X-67778286Y63266608D01*
X-67778286Y63266608D02*
X-67825905Y63123751D01*
X-67825905Y63123751D02*
X-68397333Y62552322D01*
X-68397333Y62552322D02*
X-67778286Y62552322D01*
X-77724181Y53379475D02*
X-78200372Y53046142D01*
X-77724181Y52808047D02*
X-78724181Y52808047D01*
X-78724181Y52808047D02*
X-78724181Y53188999D01*
X-78724181Y53188999D02*
X-78676562Y53284237D01*
X-78676562Y53284237D02*
X-78628943Y53331856D01*
X-78628943Y53331856D02*
X-78533705Y53379475D01*
X-78533705Y53379475D02*
X-78390848Y53379475D01*
X-78390848Y53379475D02*
X-78295610Y53331856D01*
X-78295610Y53331856D02*
X-78247991Y53284237D01*
X-78247991Y53284237D02*
X-78200372Y53188999D01*
X-78200372Y53188999D02*
X-78200372Y52808047D01*
X-77724181Y54331856D02*
X-77724181Y53760428D01*
X-77724181Y54046142D02*
X-78724181Y54046142D01*
X-78724181Y54046142D02*
X-78581324Y53950904D01*
X-78581324Y53950904D02*
X-78486086Y53855666D01*
X-78486086Y53855666D02*
X-78438467Y53760428D01*
X-87054333Y63213800D02*
X-86911476Y63166181D01*
X-86911476Y63166181D02*
X-86673381Y63166181D01*
X-86673381Y63166181D02*
X-86578143Y63213800D01*
X-86578143Y63213800D02*
X-86530524Y63261420D01*
X-86530524Y63261420D02*
X-86482905Y63356658D01*
X-86482905Y63356658D02*
X-86482905Y63451896D01*
X-86482905Y63451896D02*
X-86530524Y63547134D01*
X-86530524Y63547134D02*
X-86578143Y63594753D01*
X-86578143Y63594753D02*
X-86673381Y63642372D01*
X-86673381Y63642372D02*
X-86863857Y63689991D01*
X-86863857Y63689991D02*
X-86959095Y63737610D01*
X-86959095Y63737610D02*
X-87006714Y63785229D01*
X-87006714Y63785229D02*
X-87054333Y63880467D01*
X-87054333Y63880467D02*
X-87054333Y63975705D01*
X-87054333Y63975705D02*
X-87006714Y64070943D01*
X-87006714Y64070943D02*
X-86959095Y64118562D01*
X-86959095Y64118562D02*
X-86863857Y64166181D01*
X-86863857Y64166181D02*
X-86625762Y64166181D01*
X-86625762Y64166181D02*
X-86482905Y64118562D01*
X-86149571Y64166181D02*
X-85911476Y63166181D01*
X-85911476Y63166181D02*
X-85721000Y63880467D01*
X-85721000Y63880467D02*
X-85530524Y63166181D01*
X-85530524Y63166181D02*
X-85292428Y64166181D01*
X-84387667Y63166181D02*
X-84959095Y63166181D01*
X-84673381Y63166181D02*
X-84673381Y64166181D01*
X-84673381Y64166181D02*
X-84768619Y64023324D01*
X-84768619Y64023324D02*
X-84863857Y63928086D01*
X-84863857Y63928086D02*
X-84959095Y63880467D01*
X-63939420Y55796475D02*
X-63891800Y55748856D01*
X-63891800Y55748856D02*
X-63844181Y55605999D01*
X-63844181Y55605999D02*
X-63844181Y55510761D01*
X-63844181Y55510761D02*
X-63891800Y55367904D01*
X-63891800Y55367904D02*
X-63987039Y55272666D01*
X-63987039Y55272666D02*
X-64082277Y55225047D01*
X-64082277Y55225047D02*
X-64272753Y55177428D01*
X-64272753Y55177428D02*
X-64415610Y55177428D01*
X-64415610Y55177428D02*
X-64606086Y55225047D01*
X-64606086Y55225047D02*
X-64701324Y55272666D01*
X-64701324Y55272666D02*
X-64796562Y55367904D01*
X-64796562Y55367904D02*
X-64844181Y55510761D01*
X-64844181Y55510761D02*
X-64844181Y55605999D01*
X-64844181Y55605999D02*
X-64796562Y55748856D01*
X-64796562Y55748856D02*
X-64748943Y55796475D01*
X-64844181Y56129809D02*
X-64844181Y56748856D01*
X-64844181Y56748856D02*
X-64463229Y56415523D01*
X-64463229Y56415523D02*
X-64463229Y56558380D01*
X-64463229Y56558380D02*
X-64415610Y56653618D01*
X-64415610Y56653618D02*
X-64367991Y56701237D01*
X-64367991Y56701237D02*
X-64272753Y56748856D01*
X-64272753Y56748856D02*
X-64034658Y56748856D01*
X-64034658Y56748856D02*
X-63939420Y56701237D01*
X-63939420Y56701237D02*
X-63891800Y56653618D01*
X-63891800Y56653618D02*
X-63844181Y56558380D01*
X-63844181Y56558380D02*
X-63844181Y56272666D01*
X-63844181Y56272666D02*
X-63891800Y56177428D01*
X-63891800Y56177428D02*
X-63939420Y56129809D01*
X-59664858Y56222181D02*
X-59998191Y56698372D01*
X-60236286Y56222181D02*
X-60236286Y57222181D01*
X-60236286Y57222181D02*
X-59855334Y57222181D01*
X-59855334Y57222181D02*
X-59760096Y57174562D01*
X-59760096Y57174562D02*
X-59712477Y57126943D01*
X-59712477Y57126943D02*
X-59664858Y57031705D01*
X-59664858Y57031705D02*
X-59664858Y56888848D01*
X-59664858Y56888848D02*
X-59712477Y56793610D01*
X-59712477Y56793610D02*
X-59760096Y56745991D01*
X-59760096Y56745991D02*
X-59855334Y56698372D01*
X-59855334Y56698372D02*
X-60236286Y56698372D01*
X-58712477Y56222181D02*
X-59283905Y56222181D01*
X-58998191Y56222181D02*
X-58998191Y57222181D01*
X-58998191Y57222181D02*
X-59093429Y57079324D01*
X-59093429Y57079324D02*
X-59188667Y56984086D01*
X-59188667Y56984086D02*
X-59283905Y56936467D01*
X-57760096Y56222181D02*
X-58331524Y56222181D01*
X-58045810Y56222181D02*
X-58045810Y57222181D01*
X-58045810Y57222181D02*
X-58141048Y57079324D01*
X-58141048Y57079324D02*
X-58236286Y56984086D01*
X-58236286Y56984086D02*
X-58331524Y56936467D01*
X-20763905Y87145562D02*
X-20859143Y87193181D01*
X-20859143Y87193181D02*
X-21002000Y87193181D01*
X-21002000Y87193181D02*
X-21144857Y87145562D01*
X-21144857Y87145562D02*
X-21240095Y87050324D01*
X-21240095Y87050324D02*
X-21287714Y86955086D01*
X-21287714Y86955086D02*
X-21335333Y86764610D01*
X-21335333Y86764610D02*
X-21335333Y86621753D01*
X-21335333Y86621753D02*
X-21287714Y86431277D01*
X-21287714Y86431277D02*
X-21240095Y86336039D01*
X-21240095Y86336039D02*
X-21144857Y86240800D01*
X-21144857Y86240800D02*
X-21002000Y86193181D01*
X-21002000Y86193181D02*
X-20906762Y86193181D01*
X-20906762Y86193181D02*
X-20763905Y86240800D01*
X-20763905Y86240800D02*
X-20716286Y86288420D01*
X-20716286Y86288420D02*
X-20716286Y86621753D01*
X-20716286Y86621753D02*
X-20906762Y86621753D01*
X-20287714Y86193181D02*
X-20287714Y87193181D01*
X-20287714Y87193181D02*
X-19716286Y86193181D01*
X-19716286Y86193181D02*
X-19716286Y87193181D01*
X-19240095Y86193181D02*
X-19240095Y87193181D01*
X-19240095Y87193181D02*
X-19002000Y87193181D01*
X-19002000Y87193181D02*
X-18859143Y87145562D01*
X-18859143Y87145562D02*
X-18763905Y87050324D01*
X-18763905Y87050324D02*
X-18716286Y86955086D01*
X-18716286Y86955086D02*
X-18668667Y86764610D01*
X-18668667Y86764610D02*
X-18668667Y86621753D01*
X-18668667Y86621753D02*
X-18716286Y86431277D01*
X-18716286Y86431277D02*
X-18763905Y86336039D01*
X-18763905Y86336039D02*
X-18859143Y86240800D01*
X-18859143Y86240800D02*
X-19002000Y86193181D01*
X-19002000Y86193181D02*
X-19240095Y86193181D01*
X-31676405Y81893181D02*
X-31676405Y81083658D01*
X-31676405Y81083658D02*
X-31628786Y80988420D01*
X-31628786Y80988420D02*
X-31581167Y80940800D01*
X-31581167Y80940800D02*
X-31485929Y80893181D01*
X-31485929Y80893181D02*
X-31295453Y80893181D01*
X-31295453Y80893181D02*
X-31200215Y80940800D01*
X-31200215Y80940800D02*
X-31152596Y80988420D01*
X-31152596Y80988420D02*
X-31104977Y81083658D01*
X-31104977Y81083658D02*
X-31104977Y81893181D01*
X-30676405Y81797943D02*
X-30628786Y81845562D01*
X-30628786Y81845562D02*
X-30533548Y81893181D01*
X-30533548Y81893181D02*
X-30295453Y81893181D01*
X-30295453Y81893181D02*
X-30200215Y81845562D01*
X-30200215Y81845562D02*
X-30152596Y81797943D01*
X-30152596Y81797943D02*
X-30104977Y81702705D01*
X-30104977Y81702705D02*
X-30104977Y81607467D01*
X-30104977Y81607467D02*
X-30152596Y81464610D01*
X-30152596Y81464610D02*
X-30724024Y80893181D01*
X-30724024Y80893181D02*
X-30104977Y80893181D01*
X-81303620Y60190322D02*
X-81636953Y60666513D01*
X-81875048Y60190322D02*
X-81875048Y61190322D01*
X-81875048Y61190322D02*
X-81494096Y61190322D01*
X-81494096Y61190322D02*
X-81398858Y61142703D01*
X-81398858Y61142703D02*
X-81351239Y61095084D01*
X-81351239Y61095084D02*
X-81303620Y60999846D01*
X-81303620Y60999846D02*
X-81303620Y60856989D01*
X-81303620Y60856989D02*
X-81351239Y60761751D01*
X-81351239Y60761751D02*
X-81398858Y60714132D01*
X-81398858Y60714132D02*
X-81494096Y60666513D01*
X-81494096Y60666513D02*
X-81875048Y60666513D01*
X-80922667Y60237941D02*
X-80779810Y60190322D01*
X-80779810Y60190322D02*
X-80541715Y60190322D01*
X-80541715Y60190322D02*
X-80446477Y60237941D01*
X-80446477Y60237941D02*
X-80398858Y60285561D01*
X-80398858Y60285561D02*
X-80351239Y60380799D01*
X-80351239Y60380799D02*
X-80351239Y60476037D01*
X-80351239Y60476037D02*
X-80398858Y60571275D01*
X-80398858Y60571275D02*
X-80446477Y60618894D01*
X-80446477Y60618894D02*
X-80541715Y60666513D01*
X-80541715Y60666513D02*
X-80732191Y60714132D01*
X-80732191Y60714132D02*
X-80827429Y60761751D01*
X-80827429Y60761751D02*
X-80875048Y60809370D01*
X-80875048Y60809370D02*
X-80922667Y60904608D01*
X-80922667Y60904608D02*
X-80922667Y60999846D01*
X-80922667Y60999846D02*
X-80875048Y61095084D01*
X-80875048Y61095084D02*
X-80827429Y61142703D01*
X-80827429Y61142703D02*
X-80732191Y61190322D01*
X-80732191Y61190322D02*
X-80494096Y61190322D01*
X-80494096Y61190322D02*
X-80351239Y61142703D01*
X-80065524Y61190322D02*
X-79494096Y61190322D01*
X-79779810Y60190322D02*
X-79779810Y61190322D01*
X-63480905Y89924181D02*
X-63480905Y89114658D01*
X-63480905Y89114658D02*
X-63433286Y89019420D01*
X-63433286Y89019420D02*
X-63385667Y88971800D01*
X-63385667Y88971800D02*
X-63290429Y88924181D01*
X-63290429Y88924181D02*
X-63099953Y88924181D01*
X-63099953Y88924181D02*
X-63004715Y88971800D01*
X-63004715Y88971800D02*
X-62957096Y89019420D01*
X-62957096Y89019420D02*
X-62909477Y89114658D01*
X-62909477Y89114658D02*
X-62909477Y89924181D01*
X-61957096Y89924181D02*
X-62433286Y89924181D01*
X-62433286Y89924181D02*
X-62480905Y89447991D01*
X-62480905Y89447991D02*
X-62433286Y89495610D01*
X-62433286Y89495610D02*
X-62338048Y89543229D01*
X-62338048Y89543229D02*
X-62099953Y89543229D01*
X-62099953Y89543229D02*
X-62004715Y89495610D01*
X-62004715Y89495610D02*
X-61957096Y89447991D01*
X-61957096Y89447991D02*
X-61909477Y89352753D01*
X-61909477Y89352753D02*
X-61909477Y89114658D01*
X-61909477Y89114658D02*
X-61957096Y89019420D01*
X-61957096Y89019420D02*
X-62004715Y88971800D01*
X-62004715Y88971800D02*
X-62099953Y88924181D01*
X-62099953Y88924181D02*
X-62338048Y88924181D01*
X-62338048Y88924181D02*
X-62433286Y88971800D01*
X-62433286Y88971800D02*
X-62480905Y89019420D01*
X-68351095Y72770181D02*
X-67779667Y72770181D01*
X-68065381Y71770181D02*
X-68065381Y72770181D01*
X-67446333Y71770181D02*
X-67446333Y72770181D01*
X-67446333Y72770181D02*
X-67065381Y72770181D01*
X-67065381Y72770181D02*
X-66970143Y72722562D01*
X-66970143Y72722562D02*
X-66922524Y72674943D01*
X-66922524Y72674943D02*
X-66874905Y72579705D01*
X-66874905Y72579705D02*
X-66874905Y72436848D01*
X-66874905Y72436848D02*
X-66922524Y72341610D01*
X-66922524Y72341610D02*
X-66970143Y72293991D01*
X-66970143Y72293991D02*
X-67065381Y72246372D01*
X-67065381Y72246372D02*
X-67446333Y72246372D01*
X-65922524Y71770181D02*
X-66493952Y71770181D01*
X-66208238Y71770181D02*
X-66208238Y72770181D01*
X-66208238Y72770181D02*
X-66303476Y72627324D01*
X-66303476Y72627324D02*
X-66398714Y72532086D01*
X-66398714Y72532086D02*
X-66493952Y72484467D01*
X-65303476Y72770181D02*
X-65208238Y72770181D01*
X-65208238Y72770181D02*
X-65113000Y72722562D01*
X-65113000Y72722562D02*
X-65065381Y72674943D01*
X-65065381Y72674943D02*
X-65017762Y72579705D01*
X-65017762Y72579705D02*
X-64970143Y72389229D01*
X-64970143Y72389229D02*
X-64970143Y72151134D01*
X-64970143Y72151134D02*
X-65017762Y71960658D01*
X-65017762Y71960658D02*
X-65065381Y71865420D01*
X-65065381Y71865420D02*
X-65113000Y71817800D01*
X-65113000Y71817800D02*
X-65208238Y71770181D01*
X-65208238Y71770181D02*
X-65303476Y71770181D01*
X-65303476Y71770181D02*
X-65398714Y71817800D01*
X-65398714Y71817800D02*
X-65446333Y71865420D01*
X-65446333Y71865420D02*
X-65493952Y71960658D01*
X-65493952Y71960658D02*
X-65541571Y72151134D01*
X-65541571Y72151134D02*
X-65541571Y72389229D01*
X-65541571Y72389229D02*
X-65493952Y72579705D01*
X-65493952Y72579705D02*
X-65446333Y72674943D01*
X-65446333Y72674943D02*
X-65398714Y72722562D01*
X-65398714Y72722562D02*
X-65303476Y72770181D01*
X-70163334Y66086991D02*
X-70020477Y66039372D01*
X-70020477Y66039372D02*
X-69972858Y65991753D01*
X-69972858Y65991753D02*
X-69925239Y65896515D01*
X-69925239Y65896515D02*
X-69925239Y65753658D01*
X-69925239Y65753658D02*
X-69972858Y65658420D01*
X-69972858Y65658420D02*
X-70020477Y65610800D01*
X-70020477Y65610800D02*
X-70115715Y65563181D01*
X-70115715Y65563181D02*
X-70496667Y65563181D01*
X-70496667Y65563181D02*
X-70496667Y66563181D01*
X-70496667Y66563181D02*
X-70163334Y66563181D01*
X-70163334Y66563181D02*
X-70068096Y66515562D01*
X-70068096Y66515562D02*
X-70020477Y66467943D01*
X-70020477Y66467943D02*
X-69972858Y66372705D01*
X-69972858Y66372705D02*
X-69972858Y66277467D01*
X-69972858Y66277467D02*
X-70020477Y66182229D01*
X-70020477Y66182229D02*
X-70068096Y66134610D01*
X-70068096Y66134610D02*
X-70163334Y66086991D01*
X-70163334Y66086991D02*
X-70496667Y66086991D01*
X-69306191Y66563181D02*
X-69115715Y66563181D01*
X-69115715Y66563181D02*
X-69020477Y66515562D01*
X-69020477Y66515562D02*
X-68925239Y66420324D01*
X-68925239Y66420324D02*
X-68877620Y66229848D01*
X-68877620Y66229848D02*
X-68877620Y65896515D01*
X-68877620Y65896515D02*
X-68925239Y65706039D01*
X-68925239Y65706039D02*
X-69020477Y65610800D01*
X-69020477Y65610800D02*
X-69115715Y65563181D01*
X-69115715Y65563181D02*
X-69306191Y65563181D01*
X-69306191Y65563181D02*
X-69401429Y65610800D01*
X-69401429Y65610800D02*
X-69496667Y65706039D01*
X-69496667Y65706039D02*
X-69544286Y65896515D01*
X-69544286Y65896515D02*
X-69544286Y66229848D01*
X-69544286Y66229848D02*
X-69496667Y66420324D01*
X-69496667Y66420324D02*
X-69401429Y66515562D01*
X-69401429Y66515562D02*
X-69306191Y66563181D01*
X-68258572Y66563181D02*
X-68068096Y66563181D01*
X-68068096Y66563181D02*
X-67972858Y66515562D01*
X-67972858Y66515562D02*
X-67877620Y66420324D01*
X-67877620Y66420324D02*
X-67830001Y66229848D01*
X-67830001Y66229848D02*
X-67830001Y65896515D01*
X-67830001Y65896515D02*
X-67877620Y65706039D01*
X-67877620Y65706039D02*
X-67972858Y65610800D01*
X-67972858Y65610800D02*
X-68068096Y65563181D01*
X-68068096Y65563181D02*
X-68258572Y65563181D01*
X-68258572Y65563181D02*
X-68353810Y65610800D01*
X-68353810Y65610800D02*
X-68449048Y65706039D01*
X-68449048Y65706039D02*
X-68496667Y65896515D01*
X-68496667Y65896515D02*
X-68496667Y66229848D01*
X-68496667Y66229848D02*
X-68449048Y66420324D01*
X-68449048Y66420324D02*
X-68353810Y66515562D01*
X-68353810Y66515562D02*
X-68258572Y66563181D01*
X-67544286Y66563181D02*
X-66972858Y66563181D01*
X-67258572Y65563181D02*
X-67258572Y66563181D01*
X-66449048Y66563181D02*
X-66353810Y66563181D01*
X-66353810Y66563181D02*
X-66258572Y66515562D01*
X-66258572Y66515562D02*
X-66210953Y66467943D01*
X-66210953Y66467943D02*
X-66163334Y66372705D01*
X-66163334Y66372705D02*
X-66115715Y66182229D01*
X-66115715Y66182229D02*
X-66115715Y65944134D01*
X-66115715Y65944134D02*
X-66163334Y65753658D01*
X-66163334Y65753658D02*
X-66210953Y65658420D01*
X-66210953Y65658420D02*
X-66258572Y65610800D01*
X-66258572Y65610800D02*
X-66353810Y65563181D01*
X-66353810Y65563181D02*
X-66449048Y65563181D01*
X-66449048Y65563181D02*
X-66544286Y65610800D01*
X-66544286Y65610800D02*
X-66591905Y65658420D01*
X-66591905Y65658420D02*
X-66639524Y65753658D01*
X-66639524Y65753658D02*
X-66687143Y65944134D01*
X-66687143Y65944134D02*
X-66687143Y66182229D01*
X-66687143Y66182229D02*
X-66639524Y66372705D01*
X-66639524Y66372705D02*
X-66591905Y66467943D01*
X-66591905Y66467943D02*
X-66544286Y66515562D01*
X-66544286Y66515562D02*
X-66449048Y66563181D01*
X-36095095Y13145181D02*
X-36095095Y14145181D01*
X-36095095Y14145181D02*
X-35857000Y14145181D01*
X-35857000Y14145181D02*
X-35714143Y14097562D01*
X-35714143Y14097562D02*
X-35618905Y14002324D01*
X-35618905Y14002324D02*
X-35571286Y13907086D01*
X-35571286Y13907086D02*
X-35523667Y13716610D01*
X-35523667Y13716610D02*
X-35523667Y13573753D01*
X-35523667Y13573753D02*
X-35571286Y13383277D01*
X-35571286Y13383277D02*
X-35618905Y13288039D01*
X-35618905Y13288039D02*
X-35714143Y13192800D01*
X-35714143Y13192800D02*
X-35857000Y13145181D01*
X-35857000Y13145181D02*
X-36095095Y13145181D01*
X-34571286Y13145181D02*
X-35142714Y13145181D01*
X-34857000Y13145181D02*
X-34857000Y14145181D01*
X-34857000Y14145181D02*
X-34952238Y14002324D01*
X-34952238Y14002324D02*
X-35047476Y13907086D01*
X-35047476Y13907086D02*
X-35142714Y13859467D01*
X-54863950Y41134181D02*
X-55197283Y41610372D01*
X-55435378Y41134181D02*
X-55435378Y42134181D01*
X-55435378Y42134181D02*
X-55054426Y42134181D01*
X-55054426Y42134181D02*
X-54959188Y42086562D01*
X-54959188Y42086562D02*
X-54911569Y42038943D01*
X-54911569Y42038943D02*
X-54863950Y41943705D01*
X-54863950Y41943705D02*
X-54863950Y41800848D01*
X-54863950Y41800848D02*
X-54911569Y41705610D01*
X-54911569Y41705610D02*
X-54959188Y41657991D01*
X-54959188Y41657991D02*
X-55054426Y41610372D01*
X-55054426Y41610372D02*
X-55435378Y41610372D01*
X-53911569Y41134181D02*
X-54482997Y41134181D01*
X-54197283Y41134181D02*
X-54197283Y42134181D01*
X-54197283Y42134181D02*
X-54292521Y41991324D01*
X-54292521Y41991324D02*
X-54387759Y41896086D01*
X-54387759Y41896086D02*
X-54482997Y41848467D01*
X-53578235Y42134181D02*
X-52959188Y42134181D01*
X-52959188Y42134181D02*
X-53292521Y41753229D01*
X-53292521Y41753229D02*
X-53149664Y41753229D01*
X-53149664Y41753229D02*
X-53054426Y41705610D01*
X-53054426Y41705610D02*
X-53006807Y41657991D01*
X-53006807Y41657991D02*
X-52959188Y41562753D01*
X-52959188Y41562753D02*
X-52959188Y41324658D01*
X-52959188Y41324658D02*
X-53006807Y41229420D01*
X-53006807Y41229420D02*
X-53054426Y41181800D01*
X-53054426Y41181800D02*
X-53149664Y41134181D01*
X-53149664Y41134181D02*
X-53435378Y41134181D01*
X-53435378Y41134181D02*
X-53530616Y41181800D01*
X-53530616Y41181800D02*
X-53578235Y41229420D01*
X-54771950Y38329420D02*
X-54819569Y38281800D01*
X-54819569Y38281800D02*
X-54962426Y38234181D01*
X-54962426Y38234181D02*
X-55057664Y38234181D01*
X-55057664Y38234181D02*
X-55200521Y38281800D01*
X-55200521Y38281800D02*
X-55295759Y38377039D01*
X-55295759Y38377039D02*
X-55343378Y38472277D01*
X-55343378Y38472277D02*
X-55390997Y38662753D01*
X-55390997Y38662753D02*
X-55390997Y38805610D01*
X-55390997Y38805610D02*
X-55343378Y38996086D01*
X-55343378Y38996086D02*
X-55295759Y39091324D01*
X-55295759Y39091324D02*
X-55200521Y39186562D01*
X-55200521Y39186562D02*
X-55057664Y39234181D01*
X-55057664Y39234181D02*
X-54962426Y39234181D01*
X-54962426Y39234181D02*
X-54819569Y39186562D01*
X-54819569Y39186562D02*
X-54771950Y39138943D01*
X-53819569Y38234181D02*
X-54390997Y38234181D01*
X-54105283Y38234181D02*
X-54105283Y39234181D01*
X-54105283Y39234181D02*
X-54200521Y39091324D01*
X-54200521Y39091324D02*
X-54295759Y38996086D01*
X-54295759Y38996086D02*
X-54390997Y38948467D01*
X-53438616Y39138943D02*
X-53390997Y39186562D01*
X-53390997Y39186562D02*
X-53295759Y39234181D01*
X-53295759Y39234181D02*
X-53057664Y39234181D01*
X-53057664Y39234181D02*
X-52962426Y39186562D01*
X-52962426Y39186562D02*
X-52914807Y39138943D01*
X-52914807Y39138943D02*
X-52867188Y39043705D01*
X-52867188Y39043705D02*
X-52867188Y38948467D01*
X-52867188Y38948467D02*
X-52914807Y38805610D01*
X-52914807Y38805610D02*
X-53486235Y38234181D01*
X-53486235Y38234181D02*
X-52867188Y38234181D01*
X-77094858Y70952181D02*
X-77428191Y71428372D01*
X-77666286Y70952181D02*
X-77666286Y71952181D01*
X-77666286Y71952181D02*
X-77285334Y71952181D01*
X-77285334Y71952181D02*
X-77190096Y71904562D01*
X-77190096Y71904562D02*
X-77142477Y71856943D01*
X-77142477Y71856943D02*
X-77094858Y71761705D01*
X-77094858Y71761705D02*
X-77094858Y71618848D01*
X-77094858Y71618848D02*
X-77142477Y71523610D01*
X-77142477Y71523610D02*
X-77190096Y71475991D01*
X-77190096Y71475991D02*
X-77285334Y71428372D01*
X-77285334Y71428372D02*
X-77666286Y71428372D01*
X-76713905Y71856943D02*
X-76666286Y71904562D01*
X-76666286Y71904562D02*
X-76571048Y71952181D01*
X-76571048Y71952181D02*
X-76332953Y71952181D01*
X-76332953Y71952181D02*
X-76237715Y71904562D01*
X-76237715Y71904562D02*
X-76190096Y71856943D01*
X-76190096Y71856943D02*
X-76142477Y71761705D01*
X-76142477Y71761705D02*
X-76142477Y71666467D01*
X-76142477Y71666467D02*
X-76190096Y71523610D01*
X-76190096Y71523610D02*
X-76761524Y70952181D01*
X-76761524Y70952181D02*
X-76142477Y70952181D01*
X-75761524Y71856943D02*
X-75713905Y71904562D01*
X-75713905Y71904562D02*
X-75618667Y71952181D01*
X-75618667Y71952181D02*
X-75380572Y71952181D01*
X-75380572Y71952181D02*
X-75285334Y71904562D01*
X-75285334Y71904562D02*
X-75237715Y71856943D01*
X-75237715Y71856943D02*
X-75190096Y71761705D01*
X-75190096Y71761705D02*
X-75190096Y71666467D01*
X-75190096Y71666467D02*
X-75237715Y71523610D01*
X-75237715Y71523610D02*
X-75809143Y70952181D01*
X-75809143Y70952181D02*
X-75190096Y70952181D01*
X-83278334Y45942181D02*
X-83278334Y45227896D01*
X-83278334Y45227896D02*
X-83325953Y45085039D01*
X-83325953Y45085039D02*
X-83421191Y44989800D01*
X-83421191Y44989800D02*
X-83564048Y44942181D01*
X-83564048Y44942181D02*
X-83659286Y44942181D01*
X-82849762Y45846943D02*
X-82802143Y45894562D01*
X-82802143Y45894562D02*
X-82706905Y45942181D01*
X-82706905Y45942181D02*
X-82468810Y45942181D01*
X-82468810Y45942181D02*
X-82373572Y45894562D01*
X-82373572Y45894562D02*
X-82325953Y45846943D01*
X-82325953Y45846943D02*
X-82278334Y45751705D01*
X-82278334Y45751705D02*
X-82278334Y45656467D01*
X-82278334Y45656467D02*
X-82325953Y45513610D01*
X-82325953Y45513610D02*
X-82897381Y44942181D01*
X-82897381Y44942181D02*
X-82278334Y44942181D01*
X-39182859Y80770134D02*
X-38420954Y80770134D01*
X-38801907Y80389181D02*
X-38801907Y81151086D01*
X-38040002Y81389181D02*
X-37420955Y81389181D01*
X-37420955Y81389181D02*
X-37754288Y81008229D01*
X-37754288Y81008229D02*
X-37611431Y81008229D01*
X-37611431Y81008229D02*
X-37516193Y80960610D01*
X-37516193Y80960610D02*
X-37468574Y80912991D01*
X-37468574Y80912991D02*
X-37420955Y80817753D01*
X-37420955Y80817753D02*
X-37420955Y80579658D01*
X-37420955Y80579658D02*
X-37468574Y80484420D01*
X-37468574Y80484420D02*
X-37516193Y80436800D01*
X-37516193Y80436800D02*
X-37611431Y80389181D01*
X-37611431Y80389181D02*
X-37897145Y80389181D01*
X-37897145Y80389181D02*
X-37992383Y80436800D01*
X-37992383Y80436800D02*
X-38040002Y80484420D01*
X-36992383Y80484420D02*
X-36944764Y80436800D01*
X-36944764Y80436800D02*
X-36992383Y80389181D01*
X-36992383Y80389181D02*
X-37040002Y80436800D01*
X-37040002Y80436800D02*
X-36992383Y80484420D01*
X-36992383Y80484420D02*
X-36992383Y80389181D01*
X-36611431Y81389181D02*
X-35992384Y81389181D01*
X-35992384Y81389181D02*
X-36325717Y81008229D01*
X-36325717Y81008229D02*
X-36182860Y81008229D01*
X-36182860Y81008229D02*
X-36087622Y80960610D01*
X-36087622Y80960610D02*
X-36040003Y80912991D01*
X-36040003Y80912991D02*
X-35992384Y80817753D01*
X-35992384Y80817753D02*
X-35992384Y80579658D01*
X-35992384Y80579658D02*
X-36040003Y80484420D01*
X-36040003Y80484420D02*
X-36087622Y80436800D01*
X-36087622Y80436800D02*
X-36182860Y80389181D01*
X-36182860Y80389181D02*
X-36468574Y80389181D01*
X-36468574Y80389181D02*
X-36563812Y80436800D01*
X-36563812Y80436800D02*
X-36611431Y80484420D01*
X-35706669Y81389181D02*
X-35373336Y80389181D01*
X-35373336Y80389181D02*
X-35040003Y81389181D01*
X-72438950Y42309420D02*
X-72486569Y42261800D01*
X-72486569Y42261800D02*
X-72629426Y42214181D01*
X-72629426Y42214181D02*
X-72724664Y42214181D01*
X-72724664Y42214181D02*
X-72867521Y42261800D01*
X-72867521Y42261800D02*
X-72962759Y42357039D01*
X-72962759Y42357039D02*
X-73010378Y42452277D01*
X-73010378Y42452277D02*
X-73057997Y42642753D01*
X-73057997Y42642753D02*
X-73057997Y42785610D01*
X-73057997Y42785610D02*
X-73010378Y42976086D01*
X-73010378Y42976086D02*
X-72962759Y43071324D01*
X-72962759Y43071324D02*
X-72867521Y43166562D01*
X-72867521Y43166562D02*
X-72724664Y43214181D01*
X-72724664Y43214181D02*
X-72629426Y43214181D01*
X-72629426Y43214181D02*
X-72486569Y43166562D01*
X-72486569Y43166562D02*
X-72438950Y43118943D01*
X-71486569Y42214181D02*
X-72057997Y42214181D01*
X-71772283Y42214181D02*
X-71772283Y43214181D01*
X-71772283Y43214181D02*
X-71867521Y43071324D01*
X-71867521Y43071324D02*
X-71962759Y42976086D01*
X-71962759Y42976086D02*
X-72057997Y42928467D01*
X-70867521Y43214181D02*
X-70772283Y43214181D01*
X-70772283Y43214181D02*
X-70677045Y43166562D01*
X-70677045Y43166562D02*
X-70629426Y43118943D01*
X-70629426Y43118943D02*
X-70581807Y43023705D01*
X-70581807Y43023705D02*
X-70534188Y42833229D01*
X-70534188Y42833229D02*
X-70534188Y42595134D01*
X-70534188Y42595134D02*
X-70581807Y42404658D01*
X-70581807Y42404658D02*
X-70629426Y42309420D01*
X-70629426Y42309420D02*
X-70677045Y42261800D01*
X-70677045Y42261800D02*
X-70772283Y42214181D01*
X-70772283Y42214181D02*
X-70867521Y42214181D01*
X-70867521Y42214181D02*
X-70962759Y42261800D01*
X-70962759Y42261800D02*
X-71010378Y42309420D01*
X-71010378Y42309420D02*
X-71057997Y42404658D01*
X-71057997Y42404658D02*
X-71105616Y42595134D01*
X-71105616Y42595134D02*
X-71105616Y42833229D01*
X-71105616Y42833229D02*
X-71057997Y43023705D01*
X-71057997Y43023705D02*
X-71010378Y43118943D01*
X-71010378Y43118943D02*
X-70962759Y43166562D01*
X-70962759Y43166562D02*
X-70867521Y43214181D01*
X-21352000Y80874134D02*
X-20590095Y80874134D01*
X-20971048Y80493181D02*
X-20971048Y81255086D01*
X-19637715Y81493181D02*
X-20113905Y81493181D01*
X-20113905Y81493181D02*
X-20161524Y81016991D01*
X-20161524Y81016991D02*
X-20113905Y81064610D01*
X-20113905Y81064610D02*
X-20018667Y81112229D01*
X-20018667Y81112229D02*
X-19780572Y81112229D01*
X-19780572Y81112229D02*
X-19685334Y81064610D01*
X-19685334Y81064610D02*
X-19637715Y81016991D01*
X-19637715Y81016991D02*
X-19590096Y80921753D01*
X-19590096Y80921753D02*
X-19590096Y80683658D01*
X-19590096Y80683658D02*
X-19637715Y80588420D01*
X-19637715Y80588420D02*
X-19685334Y80540800D01*
X-19685334Y80540800D02*
X-19780572Y80493181D01*
X-19780572Y80493181D02*
X-20018667Y80493181D01*
X-20018667Y80493181D02*
X-20113905Y80540800D01*
X-20113905Y80540800D02*
X-20161524Y80588420D01*
X-19161524Y80588420D02*
X-19113905Y80540800D01*
X-19113905Y80540800D02*
X-19161524Y80493181D01*
X-19161524Y80493181D02*
X-19209143Y80540800D01*
X-19209143Y80540800D02*
X-19161524Y80588420D01*
X-19161524Y80588420D02*
X-19161524Y80493181D01*
X-18494858Y81493181D02*
X-18399620Y81493181D01*
X-18399620Y81493181D02*
X-18304382Y81445562D01*
X-18304382Y81445562D02*
X-18256763Y81397943D01*
X-18256763Y81397943D02*
X-18209144Y81302705D01*
X-18209144Y81302705D02*
X-18161525Y81112229D01*
X-18161525Y81112229D02*
X-18161525Y80874134D01*
X-18161525Y80874134D02*
X-18209144Y80683658D01*
X-18209144Y80683658D02*
X-18256763Y80588420D01*
X-18256763Y80588420D02*
X-18304382Y80540800D01*
X-18304382Y80540800D02*
X-18399620Y80493181D01*
X-18399620Y80493181D02*
X-18494858Y80493181D01*
X-18494858Y80493181D02*
X-18590096Y80540800D01*
X-18590096Y80540800D02*
X-18637715Y80588420D01*
X-18637715Y80588420D02*
X-18685334Y80683658D01*
X-18685334Y80683658D02*
X-18732953Y80874134D01*
X-18732953Y80874134D02*
X-18732953Y81112229D01*
X-18732953Y81112229D02*
X-18685334Y81302705D01*
X-18685334Y81302705D02*
X-18637715Y81397943D01*
X-18637715Y81397943D02*
X-18590096Y81445562D01*
X-18590096Y81445562D02*
X-18494858Y81493181D01*
X-17875810Y81493181D02*
X-17542477Y80493181D01*
X-17542477Y80493181D02*
X-17209144Y81493181D01*
X-72474950Y40706040D02*
X-72808283Y41182231D01*
X-73046378Y40706040D02*
X-73046378Y41706040D01*
X-73046378Y41706040D02*
X-72665426Y41706040D01*
X-72665426Y41706040D02*
X-72570188Y41658421D01*
X-72570188Y41658421D02*
X-72522569Y41610802D01*
X-72522569Y41610802D02*
X-72474950Y41515564D01*
X-72474950Y41515564D02*
X-72474950Y41372707D01*
X-72474950Y41372707D02*
X-72522569Y41277469D01*
X-72522569Y41277469D02*
X-72570188Y41229850D01*
X-72570188Y41229850D02*
X-72665426Y41182231D01*
X-72665426Y41182231D02*
X-73046378Y41182231D01*
X-71522569Y40706040D02*
X-72093997Y40706040D01*
X-71808283Y40706040D02*
X-71808283Y41706040D01*
X-71808283Y41706040D02*
X-71903521Y41563183D01*
X-71903521Y41563183D02*
X-71998759Y41467945D01*
X-71998759Y41467945D02*
X-72093997Y41420326D01*
X-70903521Y41706040D02*
X-70808283Y41706040D01*
X-70808283Y41706040D02*
X-70713045Y41658421D01*
X-70713045Y41658421D02*
X-70665426Y41610802D01*
X-70665426Y41610802D02*
X-70617807Y41515564D01*
X-70617807Y41515564D02*
X-70570188Y41325088D01*
X-70570188Y41325088D02*
X-70570188Y41086993D01*
X-70570188Y41086993D02*
X-70617807Y40896517D01*
X-70617807Y40896517D02*
X-70665426Y40801279D01*
X-70665426Y40801279D02*
X-70713045Y40753659D01*
X-70713045Y40753659D02*
X-70808283Y40706040D01*
X-70808283Y40706040D02*
X-70903521Y40706040D01*
X-70903521Y40706040D02*
X-70998759Y40753659D01*
X-70998759Y40753659D02*
X-71046378Y40801279D01*
X-71046378Y40801279D02*
X-71093997Y40896517D01*
X-71093997Y40896517D02*
X-71141616Y41086993D01*
X-71141616Y41086993D02*
X-71141616Y41325088D01*
X-71141616Y41325088D02*
X-71093997Y41515564D01*
X-71093997Y41515564D02*
X-71046378Y41610802D01*
X-71046378Y41610802D02*
X-70998759Y41658421D01*
X-70998759Y41658421D02*
X-70903521Y41706040D01*
X-56133950Y34970181D02*
X-56467283Y35446372D01*
X-56705378Y34970181D02*
X-56705378Y35970181D01*
X-56705378Y35970181D02*
X-56324426Y35970181D01*
X-56324426Y35970181D02*
X-56229188Y35922562D01*
X-56229188Y35922562D02*
X-56181569Y35874943D01*
X-56181569Y35874943D02*
X-56133950Y35779705D01*
X-56133950Y35779705D02*
X-56133950Y35636848D01*
X-56133950Y35636848D02*
X-56181569Y35541610D01*
X-56181569Y35541610D02*
X-56229188Y35493991D01*
X-56229188Y35493991D02*
X-56324426Y35446372D01*
X-56324426Y35446372D02*
X-56705378Y35446372D01*
X-55181569Y34970181D02*
X-55752997Y34970181D01*
X-55467283Y34970181D02*
X-55467283Y35970181D01*
X-55467283Y35970181D02*
X-55562521Y35827324D01*
X-55562521Y35827324D02*
X-55657759Y35732086D01*
X-55657759Y35732086D02*
X-55752997Y35684467D01*
X-54324426Y35636848D02*
X-54324426Y34970181D01*
X-54562521Y36017800D02*
X-54800616Y35303515D01*
X-54800616Y35303515D02*
X-54181569Y35303515D01*
X-59750858Y54527181D02*
X-60084191Y55003372D01*
X-60322286Y54527181D02*
X-60322286Y55527181D01*
X-60322286Y55527181D02*
X-59941334Y55527181D01*
X-59941334Y55527181D02*
X-59846096Y55479562D01*
X-59846096Y55479562D02*
X-59798477Y55431943D01*
X-59798477Y55431943D02*
X-59750858Y55336705D01*
X-59750858Y55336705D02*
X-59750858Y55193848D01*
X-59750858Y55193848D02*
X-59798477Y55098610D01*
X-59798477Y55098610D02*
X-59846096Y55050991D01*
X-59846096Y55050991D02*
X-59941334Y55003372D01*
X-59941334Y55003372D02*
X-60322286Y55003372D01*
X-58798477Y54527181D02*
X-59369905Y54527181D01*
X-59084191Y54527181D02*
X-59084191Y55527181D01*
X-59084191Y55527181D02*
X-59179429Y55384324D01*
X-59179429Y55384324D02*
X-59274667Y55289086D01*
X-59274667Y55289086D02*
X-59369905Y55241467D01*
X-58417524Y55431943D02*
X-58369905Y55479562D01*
X-58369905Y55479562D02*
X-58274667Y55527181D01*
X-58274667Y55527181D02*
X-58036572Y55527181D01*
X-58036572Y55527181D02*
X-57941334Y55479562D01*
X-57941334Y55479562D02*
X-57893715Y55431943D01*
X-57893715Y55431943D02*
X-57846096Y55336705D01*
X-57846096Y55336705D02*
X-57846096Y55241467D01*
X-57846096Y55241467D02*
X-57893715Y55098610D01*
X-57893715Y55098610D02*
X-58465143Y54527181D01*
X-58465143Y54527181D02*
X-57846096Y54527181D01*
X-63330950Y34993181D02*
X-63664283Y35469372D01*
X-63902378Y34993181D02*
X-63902378Y35993181D01*
X-63902378Y35993181D02*
X-63521426Y35993181D01*
X-63521426Y35993181D02*
X-63426188Y35945562D01*
X-63426188Y35945562D02*
X-63378569Y35897943D01*
X-63378569Y35897943D02*
X-63330950Y35802705D01*
X-63330950Y35802705D02*
X-63330950Y35659848D01*
X-63330950Y35659848D02*
X-63378569Y35564610D01*
X-63378569Y35564610D02*
X-63426188Y35516991D01*
X-63426188Y35516991D02*
X-63521426Y35469372D01*
X-63521426Y35469372D02*
X-63902378Y35469372D01*
X-62378569Y34993181D02*
X-62949997Y34993181D01*
X-62664283Y34993181D02*
X-62664283Y35993181D01*
X-62664283Y35993181D02*
X-62759521Y35850324D01*
X-62759521Y35850324D02*
X-62854759Y35755086D01*
X-62854759Y35755086D02*
X-62949997Y35707467D01*
X-61473807Y35993181D02*
X-61949997Y35993181D01*
X-61949997Y35993181D02*
X-61997616Y35516991D01*
X-61997616Y35516991D02*
X-61949997Y35564610D01*
X-61949997Y35564610D02*
X-61854759Y35612229D01*
X-61854759Y35612229D02*
X-61616664Y35612229D01*
X-61616664Y35612229D02*
X-61521426Y35564610D01*
X-61521426Y35564610D02*
X-61473807Y35516991D01*
X-61473807Y35516991D02*
X-61426188Y35421753D01*
X-61426188Y35421753D02*
X-61426188Y35183658D01*
X-61426188Y35183658D02*
X-61473807Y35088420D01*
X-61473807Y35088420D02*
X-61521426Y35040800D01*
X-61521426Y35040800D02*
X-61616664Y34993181D01*
X-61616664Y34993181D02*
X-61854759Y34993181D01*
X-61854759Y34993181D02*
X-61949997Y35040800D01*
X-61949997Y35040800D02*
X-61997616Y35088420D01*
X-73824926Y32483850D02*
X-74158259Y32483850D01*
X-74158259Y31960040D02*
X-74158259Y32960040D01*
X-74158259Y32960040D02*
X-73682069Y32960040D01*
X-72967783Y32483850D02*
X-72824926Y32436231D01*
X-72824926Y32436231D02*
X-72777307Y32388612D01*
X-72777307Y32388612D02*
X-72729688Y32293374D01*
X-72729688Y32293374D02*
X-72729688Y32150517D01*
X-72729688Y32150517D02*
X-72777307Y32055279D01*
X-72777307Y32055279D02*
X-72824926Y32007659D01*
X-72824926Y32007659D02*
X-72920164Y31960040D01*
X-72920164Y31960040D02*
X-73301116Y31960040D01*
X-73301116Y31960040D02*
X-73301116Y32960040D01*
X-73301116Y32960040D02*
X-72967783Y32960040D01*
X-72967783Y32960040D02*
X-72872545Y32912421D01*
X-72872545Y32912421D02*
X-72824926Y32864802D01*
X-72824926Y32864802D02*
X-72777307Y32769564D01*
X-72777307Y32769564D02*
X-72777307Y32674326D01*
X-72777307Y32674326D02*
X-72824926Y32579088D01*
X-72824926Y32579088D02*
X-72872545Y32531469D01*
X-72872545Y32531469D02*
X-72967783Y32483850D01*
X-72967783Y32483850D02*
X-73301116Y32483850D01*
X-72348735Y32864802D02*
X-72301116Y32912421D01*
X-72301116Y32912421D02*
X-72205878Y32960040D01*
X-72205878Y32960040D02*
X-71967783Y32960040D01*
X-71967783Y32960040D02*
X-71872545Y32912421D01*
X-71872545Y32912421D02*
X-71824926Y32864802D01*
X-71824926Y32864802D02*
X-71777307Y32769564D01*
X-71777307Y32769564D02*
X-71777307Y32674326D01*
X-71777307Y32674326D02*
X-71824926Y32531469D01*
X-71824926Y32531469D02*
X-72396354Y31960040D01*
X-72396354Y31960040D02*
X-71777307Y31960040D01*
X-71895759Y38734420D02*
X-71943378Y38686800D01*
X-71943378Y38686800D02*
X-72086235Y38639181D01*
X-72086235Y38639181D02*
X-72181473Y38639181D01*
X-72181473Y38639181D02*
X-72324330Y38686800D01*
X-72324330Y38686800D02*
X-72419568Y38782039D01*
X-72419568Y38782039D02*
X-72467187Y38877277D01*
X-72467187Y38877277D02*
X-72514806Y39067753D01*
X-72514806Y39067753D02*
X-72514806Y39210610D01*
X-72514806Y39210610D02*
X-72467187Y39401086D01*
X-72467187Y39401086D02*
X-72419568Y39496324D01*
X-72419568Y39496324D02*
X-72324330Y39591562D01*
X-72324330Y39591562D02*
X-72181473Y39639181D01*
X-72181473Y39639181D02*
X-72086235Y39639181D01*
X-72086235Y39639181D02*
X-71943378Y39591562D01*
X-71943378Y39591562D02*
X-71895759Y39543943D01*
X-71419568Y38639181D02*
X-71229092Y38639181D01*
X-71229092Y38639181D02*
X-71133854Y38686800D01*
X-71133854Y38686800D02*
X-71086235Y38734420D01*
X-71086235Y38734420D02*
X-70990997Y38877277D01*
X-70990997Y38877277D02*
X-70943378Y39067753D01*
X-70943378Y39067753D02*
X-70943378Y39448705D01*
X-70943378Y39448705D02*
X-70990997Y39543943D01*
X-70990997Y39543943D02*
X-71038616Y39591562D01*
X-71038616Y39591562D02*
X-71133854Y39639181D01*
X-71133854Y39639181D02*
X-71324330Y39639181D01*
X-71324330Y39639181D02*
X-71419568Y39591562D01*
X-71419568Y39591562D02*
X-71467187Y39543943D01*
X-71467187Y39543943D02*
X-71514806Y39448705D01*
X-71514806Y39448705D02*
X-71514806Y39210610D01*
X-71514806Y39210610D02*
X-71467187Y39115372D01*
X-71467187Y39115372D02*
X-71419568Y39067753D01*
X-71419568Y39067753D02*
X-71324330Y39020134D01*
X-71324330Y39020134D02*
X-71133854Y39020134D01*
X-71133854Y39020134D02*
X-71038616Y39067753D01*
X-71038616Y39067753D02*
X-70990997Y39115372D01*
X-70990997Y39115372D02*
X-70943378Y39210610D01*
X-22376420Y80932334D02*
X-22328800Y80884715D01*
X-22328800Y80884715D02*
X-22281181Y80741858D01*
X-22281181Y80741858D02*
X-22281181Y80646620D01*
X-22281181Y80646620D02*
X-22328800Y80503763D01*
X-22328800Y80503763D02*
X-22424039Y80408525D01*
X-22424039Y80408525D02*
X-22519277Y80360906D01*
X-22519277Y80360906D02*
X-22709753Y80313287D01*
X-22709753Y80313287D02*
X-22852610Y80313287D01*
X-22852610Y80313287D02*
X-23043086Y80360906D01*
X-23043086Y80360906D02*
X-23138324Y80408525D01*
X-23138324Y80408525D02*
X-23233562Y80503763D01*
X-23233562Y80503763D02*
X-23281181Y80646620D01*
X-23281181Y80646620D02*
X-23281181Y80741858D01*
X-23281181Y80741858D02*
X-23233562Y80884715D01*
X-23233562Y80884715D02*
X-23185943Y80932334D01*
X-23185943Y81313287D02*
X-23233562Y81360906D01*
X-23233562Y81360906D02*
X-23281181Y81456144D01*
X-23281181Y81456144D02*
X-23281181Y81694239D01*
X-23281181Y81694239D02*
X-23233562Y81789477D01*
X-23233562Y81789477D02*
X-23185943Y81837096D01*
X-23185943Y81837096D02*
X-23090705Y81884715D01*
X-23090705Y81884715D02*
X-22995467Y81884715D01*
X-22995467Y81884715D02*
X-22852610Y81837096D01*
X-22852610Y81837096D02*
X-22281181Y81265668D01*
X-22281181Y81265668D02*
X-22281181Y81884715D01*
X-80442334Y79012181D02*
X-80442334Y78297896D01*
X-80442334Y78297896D02*
X-80489953Y78155039D01*
X-80489953Y78155039D02*
X-80585191Y78059800D01*
X-80585191Y78059800D02*
X-80728048Y78012181D01*
X-80728048Y78012181D02*
X-80823286Y78012181D01*
X-79537572Y78678848D02*
X-79537572Y78012181D01*
X-79775667Y79059800D02*
X-80013762Y78345515D01*
X-80013762Y78345515D02*
X-79394715Y78345515D01*
X-61636858Y45505420D02*
X-61684477Y45457800D01*
X-61684477Y45457800D02*
X-61827334Y45410181D01*
X-61827334Y45410181D02*
X-61922572Y45410181D01*
X-61922572Y45410181D02*
X-62065429Y45457800D01*
X-62065429Y45457800D02*
X-62160667Y45553039D01*
X-62160667Y45553039D02*
X-62208286Y45648277D01*
X-62208286Y45648277D02*
X-62255905Y45838753D01*
X-62255905Y45838753D02*
X-62255905Y45981610D01*
X-62255905Y45981610D02*
X-62208286Y46172086D01*
X-62208286Y46172086D02*
X-62160667Y46267324D01*
X-62160667Y46267324D02*
X-62065429Y46362562D01*
X-62065429Y46362562D02*
X-61922572Y46410181D01*
X-61922572Y46410181D02*
X-61827334Y46410181D01*
X-61827334Y46410181D02*
X-61684477Y46362562D01*
X-61684477Y46362562D02*
X-61636858Y46314943D01*
X-60684477Y45410181D02*
X-61255905Y45410181D01*
X-60970191Y45410181D02*
X-60970191Y46410181D01*
X-60970191Y46410181D02*
X-61065429Y46267324D01*
X-61065429Y46267324D02*
X-61160667Y46172086D01*
X-61160667Y46172086D02*
X-61255905Y46124467D01*
X-59827334Y46076848D02*
X-59827334Y45410181D01*
X-60065429Y46457800D02*
X-60303524Y45743515D01*
X-60303524Y45743515D02*
X-59684477Y45743515D01*
X-80222667Y58135561D02*
X-80270286Y58087941D01*
X-80270286Y58087941D02*
X-80413143Y58040322D01*
X-80413143Y58040322D02*
X-80508381Y58040322D01*
X-80508381Y58040322D02*
X-80651238Y58087941D01*
X-80651238Y58087941D02*
X-80746476Y58183180D01*
X-80746476Y58183180D02*
X-80794095Y58278418D01*
X-80794095Y58278418D02*
X-80841714Y58468894D01*
X-80841714Y58468894D02*
X-80841714Y58611751D01*
X-80841714Y58611751D02*
X-80794095Y58802227D01*
X-80794095Y58802227D02*
X-80746476Y58897465D01*
X-80746476Y58897465D02*
X-80651238Y58992703D01*
X-80651238Y58992703D02*
X-80508381Y59040322D01*
X-80508381Y59040322D02*
X-80413143Y59040322D01*
X-80413143Y59040322D02*
X-80270286Y58992703D01*
X-80270286Y58992703D02*
X-80222667Y58945084D01*
X-79270286Y58040322D02*
X-79841714Y58040322D01*
X-79556000Y58040322D02*
X-79556000Y59040322D01*
X-79556000Y59040322D02*
X-79651238Y58897465D01*
X-79651238Y58897465D02*
X-79746476Y58802227D01*
X-79746476Y58802227D02*
X-79841714Y58754608D01*
X-27592420Y80881334D02*
X-27544800Y80833715D01*
X-27544800Y80833715D02*
X-27497181Y80690858D01*
X-27497181Y80690858D02*
X-27497181Y80595620D01*
X-27497181Y80595620D02*
X-27544800Y80452763D01*
X-27544800Y80452763D02*
X-27640039Y80357525D01*
X-27640039Y80357525D02*
X-27735277Y80309906D01*
X-27735277Y80309906D02*
X-27925753Y80262287D01*
X-27925753Y80262287D02*
X-28068610Y80262287D01*
X-28068610Y80262287D02*
X-28259086Y80309906D01*
X-28259086Y80309906D02*
X-28354324Y80357525D01*
X-28354324Y80357525D02*
X-28449562Y80452763D01*
X-28449562Y80452763D02*
X-28497181Y80595620D01*
X-28497181Y80595620D02*
X-28497181Y80690858D01*
X-28497181Y80690858D02*
X-28449562Y80833715D01*
X-28449562Y80833715D02*
X-28401943Y80881334D01*
X-28497181Y81738477D02*
X-28497181Y81548001D01*
X-28497181Y81548001D02*
X-28449562Y81452763D01*
X-28449562Y81452763D02*
X-28401943Y81405144D01*
X-28401943Y81405144D02*
X-28259086Y81309906D01*
X-28259086Y81309906D02*
X-28068610Y81262287D01*
X-28068610Y81262287D02*
X-27687658Y81262287D01*
X-27687658Y81262287D02*
X-27592420Y81309906D01*
X-27592420Y81309906D02*
X-27544800Y81357525D01*
X-27544800Y81357525D02*
X-27497181Y81452763D01*
X-27497181Y81452763D02*
X-27497181Y81643239D01*
X-27497181Y81643239D02*
X-27544800Y81738477D01*
X-27544800Y81738477D02*
X-27592420Y81786096D01*
X-27592420Y81786096D02*
X-27687658Y81833715D01*
X-27687658Y81833715D02*
X-27925753Y81833715D01*
X-27925753Y81833715D02*
X-28020991Y81786096D01*
X-28020991Y81786096D02*
X-28068610Y81738477D01*
X-28068610Y81738477D02*
X-28116229Y81643239D01*
X-28116229Y81643239D02*
X-28116229Y81452763D01*
X-28116229Y81452763D02*
X-28068610Y81357525D01*
X-28068610Y81357525D02*
X-28020991Y81309906D01*
X-28020991Y81309906D02*
X-27925753Y81262287D01*
X-37313905Y86995562D02*
X-37409143Y87043181D01*
X-37409143Y87043181D02*
X-37552000Y87043181D01*
X-37552000Y87043181D02*
X-37694857Y86995562D01*
X-37694857Y86995562D02*
X-37790095Y86900324D01*
X-37790095Y86900324D02*
X-37837714Y86805086D01*
X-37837714Y86805086D02*
X-37885333Y86614610D01*
X-37885333Y86614610D02*
X-37885333Y86471753D01*
X-37885333Y86471753D02*
X-37837714Y86281277D01*
X-37837714Y86281277D02*
X-37790095Y86186039D01*
X-37790095Y86186039D02*
X-37694857Y86090800D01*
X-37694857Y86090800D02*
X-37552000Y86043181D01*
X-37552000Y86043181D02*
X-37456762Y86043181D01*
X-37456762Y86043181D02*
X-37313905Y86090800D01*
X-37313905Y86090800D02*
X-37266286Y86138420D01*
X-37266286Y86138420D02*
X-37266286Y86471753D01*
X-37266286Y86471753D02*
X-37456762Y86471753D01*
X-36837714Y86043181D02*
X-36837714Y87043181D01*
X-36837714Y87043181D02*
X-36266286Y86043181D01*
X-36266286Y86043181D02*
X-36266286Y87043181D01*
X-35790095Y86043181D02*
X-35790095Y87043181D01*
X-35790095Y87043181D02*
X-35552000Y87043181D01*
X-35552000Y87043181D02*
X-35409143Y86995562D01*
X-35409143Y86995562D02*
X-35313905Y86900324D01*
X-35313905Y86900324D02*
X-35266286Y86805086D01*
X-35266286Y86805086D02*
X-35218667Y86614610D01*
X-35218667Y86614610D02*
X-35218667Y86471753D01*
X-35218667Y86471753D02*
X-35266286Y86281277D01*
X-35266286Y86281277D02*
X-35313905Y86186039D01*
X-35313905Y86186039D02*
X-35409143Y86090800D01*
X-35409143Y86090800D02*
X-35552000Y86043181D01*
X-35552000Y86043181D02*
X-35790095Y86043181D01*
X-77111858Y74503181D02*
X-77445191Y74979372D01*
X-77683286Y74503181D02*
X-77683286Y75503181D01*
X-77683286Y75503181D02*
X-77302334Y75503181D01*
X-77302334Y75503181D02*
X-77207096Y75455562D01*
X-77207096Y75455562D02*
X-77159477Y75407943D01*
X-77159477Y75407943D02*
X-77111858Y75312705D01*
X-77111858Y75312705D02*
X-77111858Y75169848D01*
X-77111858Y75169848D02*
X-77159477Y75074610D01*
X-77159477Y75074610D02*
X-77207096Y75026991D01*
X-77207096Y75026991D02*
X-77302334Y74979372D01*
X-77302334Y74979372D02*
X-77683286Y74979372D01*
X-76159477Y74503181D02*
X-76730905Y74503181D01*
X-76445191Y74503181D02*
X-76445191Y75503181D01*
X-76445191Y75503181D02*
X-76540429Y75360324D01*
X-76540429Y75360324D02*
X-76635667Y75265086D01*
X-76635667Y75265086D02*
X-76730905Y75217467D01*
X-75683286Y74503181D02*
X-75492810Y74503181D01*
X-75492810Y74503181D02*
X-75397572Y74550800D01*
X-75397572Y74550800D02*
X-75349953Y74598420D01*
X-75349953Y74598420D02*
X-75254715Y74741277D01*
X-75254715Y74741277D02*
X-75207096Y74931753D01*
X-75207096Y74931753D02*
X-75207096Y75312705D01*
X-75207096Y75312705D02*
X-75254715Y75407943D01*
X-75254715Y75407943D02*
X-75302334Y75455562D01*
X-75302334Y75455562D02*
X-75397572Y75503181D01*
X-75397572Y75503181D02*
X-75588048Y75503181D01*
X-75588048Y75503181D02*
X-75683286Y75455562D01*
X-75683286Y75455562D02*
X-75730905Y75407943D01*
X-75730905Y75407943D02*
X-75778524Y75312705D01*
X-75778524Y75312705D02*
X-75778524Y75074610D01*
X-75778524Y75074610D02*
X-75730905Y74979372D01*
X-75730905Y74979372D02*
X-75683286Y74931753D01*
X-75683286Y74931753D02*
X-75588048Y74884134D01*
X-75588048Y74884134D02*
X-75397572Y74884134D01*
X-75397572Y74884134D02*
X-75302334Y74931753D01*
X-75302334Y74931753D02*
X-75254715Y74979372D01*
X-75254715Y74979372D02*
X-75207096Y75074610D01*
X-65019905Y44846181D02*
X-65019905Y44036658D01*
X-65019905Y44036658D02*
X-64972286Y43941420D01*
X-64972286Y43941420D02*
X-64924667Y43893800D01*
X-64924667Y43893800D02*
X-64829429Y43846181D01*
X-64829429Y43846181D02*
X-64638953Y43846181D01*
X-64638953Y43846181D02*
X-64543715Y43893800D01*
X-64543715Y43893800D02*
X-64496096Y43941420D01*
X-64496096Y43941420D02*
X-64448477Y44036658D01*
X-64448477Y44036658D02*
X-64448477Y44846181D01*
X-64067524Y44846181D02*
X-63448477Y44846181D01*
X-63448477Y44846181D02*
X-63781810Y44465229D01*
X-63781810Y44465229D02*
X-63638953Y44465229D01*
X-63638953Y44465229D02*
X-63543715Y44417610D01*
X-63543715Y44417610D02*
X-63496096Y44369991D01*
X-63496096Y44369991D02*
X-63448477Y44274753D01*
X-63448477Y44274753D02*
X-63448477Y44036658D01*
X-63448477Y44036658D02*
X-63496096Y43941420D01*
X-63496096Y43941420D02*
X-63543715Y43893800D01*
X-63543715Y43893800D02*
X-63638953Y43846181D01*
X-63638953Y43846181D02*
X-63924667Y43846181D01*
X-63924667Y43846181D02*
X-64019905Y43893800D01*
X-64019905Y43893800D02*
X-64067524Y43941420D01*
X-69952905Y89168181D02*
X-69381477Y89168181D01*
X-69667191Y88168181D02*
X-69667191Y89168181D01*
X-69048143Y88168181D02*
X-69048143Y89168181D01*
X-69048143Y89168181D02*
X-68667191Y89168181D01*
X-68667191Y89168181D02*
X-68571953Y89120562D01*
X-68571953Y89120562D02*
X-68524334Y89072943D01*
X-68524334Y89072943D02*
X-68476715Y88977705D01*
X-68476715Y88977705D02*
X-68476715Y88834848D01*
X-68476715Y88834848D02*
X-68524334Y88739610D01*
X-68524334Y88739610D02*
X-68571953Y88691991D01*
X-68571953Y88691991D02*
X-68667191Y88644372D01*
X-68667191Y88644372D02*
X-69048143Y88644372D01*
X-68143381Y89168181D02*
X-67476715Y89168181D01*
X-67476715Y89168181D02*
X-67905286Y88168181D01*
X-76107420Y53398475D02*
X-76059800Y53350856D01*
X-76059800Y53350856D02*
X-76012181Y53207999D01*
X-76012181Y53207999D02*
X-76012181Y53112761D01*
X-76012181Y53112761D02*
X-76059800Y52969904D01*
X-76059800Y52969904D02*
X-76155039Y52874666D01*
X-76155039Y52874666D02*
X-76250277Y52827047D01*
X-76250277Y52827047D02*
X-76440753Y52779428D01*
X-76440753Y52779428D02*
X-76583610Y52779428D01*
X-76583610Y52779428D02*
X-76774086Y52827047D01*
X-76774086Y52827047D02*
X-76869324Y52874666D01*
X-76869324Y52874666D02*
X-76964562Y52969904D01*
X-76964562Y52969904D02*
X-77012181Y53112761D01*
X-77012181Y53112761D02*
X-77012181Y53207999D01*
X-77012181Y53207999D02*
X-76964562Y53350856D01*
X-76964562Y53350856D02*
X-76916943Y53398475D01*
X-77012181Y54303237D02*
X-77012181Y53827047D01*
X-77012181Y53827047D02*
X-76535991Y53779428D01*
X-76535991Y53779428D02*
X-76583610Y53827047D01*
X-76583610Y53827047D02*
X-76631229Y53922285D01*
X-76631229Y53922285D02*
X-76631229Y54160380D01*
X-76631229Y54160380D02*
X-76583610Y54255618D01*
X-76583610Y54255618D02*
X-76535991Y54303237D01*
X-76535991Y54303237D02*
X-76440753Y54350856D01*
X-76440753Y54350856D02*
X-76202658Y54350856D01*
X-76202658Y54350856D02*
X-76107420Y54303237D01*
X-76107420Y54303237D02*
X-76059800Y54255618D01*
X-76059800Y54255618D02*
X-76012181Y54160380D01*
X-76012181Y54160380D02*
X-76012181Y53922285D01*
X-76012181Y53922285D02*
X-76059800Y53827047D01*
X-76059800Y53827047D02*
X-76107420Y53779428D01*
X-68822667Y52985561D02*
X-68870286Y52937941D01*
X-68870286Y52937941D02*
X-69013143Y52890322D01*
X-69013143Y52890322D02*
X-69108381Y52890322D01*
X-69108381Y52890322D02*
X-69251238Y52937941D01*
X-69251238Y52937941D02*
X-69346476Y53033180D01*
X-69346476Y53033180D02*
X-69394095Y53128418D01*
X-69394095Y53128418D02*
X-69441714Y53318894D01*
X-69441714Y53318894D02*
X-69441714Y53461751D01*
X-69441714Y53461751D02*
X-69394095Y53652227D01*
X-69394095Y53652227D02*
X-69346476Y53747465D01*
X-69346476Y53747465D02*
X-69251238Y53842703D01*
X-69251238Y53842703D02*
X-69108381Y53890322D01*
X-69108381Y53890322D02*
X-69013143Y53890322D01*
X-69013143Y53890322D02*
X-68870286Y53842703D01*
X-68870286Y53842703D02*
X-68822667Y53795084D01*
X-67965524Y53556989D02*
X-67965524Y52890322D01*
X-68203619Y53937941D02*
X-68441714Y53223656D01*
X-68441714Y53223656D02*
X-67822667Y53223656D01*
X-80750905Y51329181D02*
X-80179477Y51329181D01*
X-80465191Y50329181D02*
X-80465191Y51329181D01*
X-79846143Y50329181D02*
X-79846143Y51329181D01*
X-79846143Y51329181D02*
X-79465191Y51329181D01*
X-79465191Y51329181D02*
X-79369953Y51281562D01*
X-79369953Y51281562D02*
X-79322334Y51233943D01*
X-79322334Y51233943D02*
X-79274715Y51138705D01*
X-79274715Y51138705D02*
X-79274715Y50995848D01*
X-79274715Y50995848D02*
X-79322334Y50900610D01*
X-79322334Y50900610D02*
X-79369953Y50852991D01*
X-79369953Y50852991D02*
X-79465191Y50805372D01*
X-79465191Y50805372D02*
X-79846143Y50805372D01*
X-78798524Y50329181D02*
X-78608048Y50329181D01*
X-78608048Y50329181D02*
X-78512810Y50376800D01*
X-78512810Y50376800D02*
X-78465191Y50424420D01*
X-78465191Y50424420D02*
X-78369953Y50567277D01*
X-78369953Y50567277D02*
X-78322334Y50757753D01*
X-78322334Y50757753D02*
X-78322334Y51138705D01*
X-78322334Y51138705D02*
X-78369953Y51233943D01*
X-78369953Y51233943D02*
X-78417572Y51281562D01*
X-78417572Y51281562D02*
X-78512810Y51329181D01*
X-78512810Y51329181D02*
X-78703286Y51329181D01*
X-78703286Y51329181D02*
X-78798524Y51281562D01*
X-78798524Y51281562D02*
X-78846143Y51233943D01*
X-78846143Y51233943D02*
X-78893762Y51138705D01*
X-78893762Y51138705D02*
X-78893762Y50900610D01*
X-78893762Y50900610D02*
X-78846143Y50805372D01*
X-78846143Y50805372D02*
X-78798524Y50757753D01*
X-78798524Y50757753D02*
X-78703286Y50710134D01*
X-78703286Y50710134D02*
X-78512810Y50710134D01*
X-78512810Y50710134D02*
X-78417572Y50757753D01*
X-78417572Y50757753D02*
X-78369953Y50805372D01*
X-78369953Y50805372D02*
X-78322334Y50900610D01*
X-77367858Y79071420D02*
X-77415477Y79023800D01*
X-77415477Y79023800D02*
X-77558334Y78976181D01*
X-77558334Y78976181D02*
X-77653572Y78976181D01*
X-77653572Y78976181D02*
X-77796429Y79023800D01*
X-77796429Y79023800D02*
X-77891667Y79119039D01*
X-77891667Y79119039D02*
X-77939286Y79214277D01*
X-77939286Y79214277D02*
X-77986905Y79404753D01*
X-77986905Y79404753D02*
X-77986905Y79547610D01*
X-77986905Y79547610D02*
X-77939286Y79738086D01*
X-77939286Y79738086D02*
X-77891667Y79833324D01*
X-77891667Y79833324D02*
X-77796429Y79928562D01*
X-77796429Y79928562D02*
X-77653572Y79976181D01*
X-77653572Y79976181D02*
X-77558334Y79976181D01*
X-77558334Y79976181D02*
X-77415477Y79928562D01*
X-77415477Y79928562D02*
X-77367858Y79880943D01*
X-76415477Y78976181D02*
X-76986905Y78976181D01*
X-76701191Y78976181D02*
X-76701191Y79976181D01*
X-76701191Y79976181D02*
X-76796429Y79833324D01*
X-76796429Y79833324D02*
X-76891667Y79738086D01*
X-76891667Y79738086D02*
X-76986905Y79690467D01*
X-76082143Y79976181D02*
X-75463096Y79976181D01*
X-75463096Y79976181D02*
X-75796429Y79595229D01*
X-75796429Y79595229D02*
X-75653572Y79595229D01*
X-75653572Y79595229D02*
X-75558334Y79547610D01*
X-75558334Y79547610D02*
X-75510715Y79499991D01*
X-75510715Y79499991D02*
X-75463096Y79404753D01*
X-75463096Y79404753D02*
X-75463096Y79166658D01*
X-75463096Y79166658D02*
X-75510715Y79071420D01*
X-75510715Y79071420D02*
X-75558334Y79023800D01*
X-75558334Y79023800D02*
X-75653572Y78976181D01*
X-75653572Y78976181D02*
X-75939286Y78976181D01*
X-75939286Y78976181D02*
X-76034524Y79023800D01*
X-76034524Y79023800D02*
X-76082143Y79071420D01*
X-67450858Y76755181D02*
X-67784191Y77231372D01*
X-68022286Y76755181D02*
X-68022286Y77755181D01*
X-68022286Y77755181D02*
X-67641334Y77755181D01*
X-67641334Y77755181D02*
X-67546096Y77707562D01*
X-67546096Y77707562D02*
X-67498477Y77659943D01*
X-67498477Y77659943D02*
X-67450858Y77564705D01*
X-67450858Y77564705D02*
X-67450858Y77421848D01*
X-67450858Y77421848D02*
X-67498477Y77326610D01*
X-67498477Y77326610D02*
X-67546096Y77278991D01*
X-67546096Y77278991D02*
X-67641334Y77231372D01*
X-67641334Y77231372D02*
X-68022286Y77231372D01*
X-67069905Y77659943D02*
X-67022286Y77707562D01*
X-67022286Y77707562D02*
X-66927048Y77755181D01*
X-66927048Y77755181D02*
X-66688953Y77755181D01*
X-66688953Y77755181D02*
X-66593715Y77707562D01*
X-66593715Y77707562D02*
X-66546096Y77659943D01*
X-66546096Y77659943D02*
X-66498477Y77564705D01*
X-66498477Y77564705D02*
X-66498477Y77469467D01*
X-66498477Y77469467D02*
X-66546096Y77326610D01*
X-66546096Y77326610D02*
X-67117524Y76755181D01*
X-67117524Y76755181D02*
X-66498477Y76755181D01*
X-65879429Y77755181D02*
X-65784191Y77755181D01*
X-65784191Y77755181D02*
X-65688953Y77707562D01*
X-65688953Y77707562D02*
X-65641334Y77659943D01*
X-65641334Y77659943D02*
X-65593715Y77564705D01*
X-65593715Y77564705D02*
X-65546096Y77374229D01*
X-65546096Y77374229D02*
X-65546096Y77136134D01*
X-65546096Y77136134D02*
X-65593715Y76945658D01*
X-65593715Y76945658D02*
X-65641334Y76850420D01*
X-65641334Y76850420D02*
X-65688953Y76802800D01*
X-65688953Y76802800D02*
X-65784191Y76755181D01*
X-65784191Y76755181D02*
X-65879429Y76755181D01*
X-65879429Y76755181D02*
X-65974667Y76802800D01*
X-65974667Y76802800D02*
X-66022286Y76850420D01*
X-66022286Y76850420D02*
X-66069905Y76945658D01*
X-66069905Y76945658D02*
X-66117524Y77136134D01*
X-66117524Y77136134D02*
X-66117524Y77374229D01*
X-66117524Y77374229D02*
X-66069905Y77564705D01*
X-66069905Y77564705D02*
X-66022286Y77659943D01*
X-66022286Y77659943D02*
X-65974667Y77707562D01*
X-65974667Y77707562D02*
X-65879429Y77755181D01*
X-63631239Y75169943D02*
X-63726477Y75217562D01*
X-63726477Y75217562D02*
X-63821715Y75312800D01*
X-63821715Y75312800D02*
X-63964572Y75455658D01*
X-63964572Y75455658D02*
X-64059810Y75503277D01*
X-64059810Y75503277D02*
X-64155048Y75503277D01*
X-64107429Y75265181D02*
X-64202667Y75312800D01*
X-64202667Y75312800D02*
X-64297905Y75408039D01*
X-64297905Y75408039D02*
X-64345524Y75598515D01*
X-64345524Y75598515D02*
X-64345524Y75931848D01*
X-64345524Y75931848D02*
X-64297905Y76122324D01*
X-64297905Y76122324D02*
X-64202667Y76217562D01*
X-64202667Y76217562D02*
X-64107429Y76265181D01*
X-64107429Y76265181D02*
X-63916953Y76265181D01*
X-63916953Y76265181D02*
X-63821715Y76217562D01*
X-63821715Y76217562D02*
X-63726477Y76122324D01*
X-63726477Y76122324D02*
X-63678858Y75931848D01*
X-63678858Y75931848D02*
X-63678858Y75598515D01*
X-63678858Y75598515D02*
X-63726477Y75408039D01*
X-63726477Y75408039D02*
X-63821715Y75312800D01*
X-63821715Y75312800D02*
X-63916953Y75265181D01*
X-63916953Y75265181D02*
X-64107429Y75265181D01*
X-62726477Y75265181D02*
X-63297905Y75265181D01*
X-63012191Y75265181D02*
X-63012191Y76265181D01*
X-63012191Y76265181D02*
X-63107429Y76122324D01*
X-63107429Y76122324D02*
X-63202667Y76027086D01*
X-63202667Y76027086D02*
X-63297905Y75979467D01*
X-33692420Y80856334D02*
X-33644800Y80808715D01*
X-33644800Y80808715D02*
X-33597181Y80665858D01*
X-33597181Y80665858D02*
X-33597181Y80570620D01*
X-33597181Y80570620D02*
X-33644800Y80427763D01*
X-33644800Y80427763D02*
X-33740039Y80332525D01*
X-33740039Y80332525D02*
X-33835277Y80284906D01*
X-33835277Y80284906D02*
X-34025753Y80237287D01*
X-34025753Y80237287D02*
X-34168610Y80237287D01*
X-34168610Y80237287D02*
X-34359086Y80284906D01*
X-34359086Y80284906D02*
X-34454324Y80332525D01*
X-34454324Y80332525D02*
X-34549562Y80427763D01*
X-34549562Y80427763D02*
X-34597181Y80570620D01*
X-34597181Y80570620D02*
X-34597181Y80665858D01*
X-34597181Y80665858D02*
X-34549562Y80808715D01*
X-34549562Y80808715D02*
X-34501943Y80856334D01*
X-34168610Y81427763D02*
X-34216229Y81332525D01*
X-34216229Y81332525D02*
X-34263848Y81284906D01*
X-34263848Y81284906D02*
X-34359086Y81237287D01*
X-34359086Y81237287D02*
X-34406705Y81237287D01*
X-34406705Y81237287D02*
X-34501943Y81284906D01*
X-34501943Y81284906D02*
X-34549562Y81332525D01*
X-34549562Y81332525D02*
X-34597181Y81427763D01*
X-34597181Y81427763D02*
X-34597181Y81618239D01*
X-34597181Y81618239D02*
X-34549562Y81713477D01*
X-34549562Y81713477D02*
X-34501943Y81761096D01*
X-34501943Y81761096D02*
X-34406705Y81808715D01*
X-34406705Y81808715D02*
X-34359086Y81808715D01*
X-34359086Y81808715D02*
X-34263848Y81761096D01*
X-34263848Y81761096D02*
X-34216229Y81713477D01*
X-34216229Y81713477D02*
X-34168610Y81618239D01*
X-34168610Y81618239D02*
X-34168610Y81427763D01*
X-34168610Y81427763D02*
X-34120991Y81332525D01*
X-34120991Y81332525D02*
X-34073372Y81284906D01*
X-34073372Y81284906D02*
X-33978134Y81237287D01*
X-33978134Y81237287D02*
X-33787658Y81237287D01*
X-33787658Y81237287D02*
X-33692420Y81284906D01*
X-33692420Y81284906D02*
X-33644800Y81332525D01*
X-33644800Y81332525D02*
X-33597181Y81427763D01*
X-33597181Y81427763D02*
X-33597181Y81618239D01*
X-33597181Y81618239D02*
X-33644800Y81713477D01*
X-33644800Y81713477D02*
X-33692420Y81761096D01*
X-33692420Y81761096D02*
X-33787658Y81808715D01*
X-33787658Y81808715D02*
X-33978134Y81808715D01*
X-33978134Y81808715D02*
X-34073372Y81761096D01*
X-34073372Y81761096D02*
X-34120991Y81713477D01*
X-34120991Y81713477D02*
X-34168610Y81618239D01*
X-24574991Y79736667D02*
X-24574991Y79403334D01*
X-24051181Y79403334D02*
X-25051181Y79403334D01*
X-25051181Y79403334D02*
X-25051181Y79879524D01*
X-24574991Y80593810D02*
X-24527372Y80736667D01*
X-24527372Y80736667D02*
X-24479753Y80784286D01*
X-24479753Y80784286D02*
X-24384515Y80831905D01*
X-24384515Y80831905D02*
X-24241658Y80831905D01*
X-24241658Y80831905D02*
X-24146420Y80784286D01*
X-24146420Y80784286D02*
X-24098800Y80736667D01*
X-24098800Y80736667D02*
X-24051181Y80641429D01*
X-24051181Y80641429D02*
X-24051181Y80260477D01*
X-24051181Y80260477D02*
X-25051181Y80260477D01*
X-25051181Y80260477D02*
X-25051181Y80593810D01*
X-25051181Y80593810D02*
X-25003562Y80689048D01*
X-25003562Y80689048D02*
X-24955943Y80736667D01*
X-24955943Y80736667D02*
X-24860705Y80784286D01*
X-24860705Y80784286D02*
X-24765467Y80784286D01*
X-24765467Y80784286D02*
X-24670229Y80736667D01*
X-24670229Y80736667D02*
X-24622610Y80689048D01*
X-24622610Y80689048D02*
X-24574991Y80593810D01*
X-24574991Y80593810D02*
X-24574991Y80260477D01*
X-24051181Y81784286D02*
X-24051181Y81212858D01*
X-24051181Y81498572D02*
X-25051181Y81498572D01*
X-25051181Y81498572D02*
X-24908324Y81403334D01*
X-24908324Y81403334D02*
X-24813086Y81308096D01*
X-24813086Y81308096D02*
X-24765467Y81212858D01*
X-64303095Y72647181D02*
X-63731667Y72647181D01*
X-64017381Y71647181D02*
X-64017381Y72647181D01*
X-63398333Y71647181D02*
X-63398333Y72647181D01*
X-63398333Y72647181D02*
X-63017381Y72647181D01*
X-63017381Y72647181D02*
X-62922143Y72599562D01*
X-62922143Y72599562D02*
X-62874524Y72551943D01*
X-62874524Y72551943D02*
X-62826905Y72456705D01*
X-62826905Y72456705D02*
X-62826905Y72313848D01*
X-62826905Y72313848D02*
X-62874524Y72218610D01*
X-62874524Y72218610D02*
X-62922143Y72170991D01*
X-62922143Y72170991D02*
X-63017381Y72123372D01*
X-63017381Y72123372D02*
X-63398333Y72123372D01*
X-61874524Y71647181D02*
X-62445952Y71647181D01*
X-62160238Y71647181D02*
X-62160238Y72647181D01*
X-62160238Y72647181D02*
X-62255476Y72504324D01*
X-62255476Y72504324D02*
X-62350714Y72409086D01*
X-62350714Y72409086D02*
X-62445952Y72361467D01*
X-60922143Y71647181D02*
X-61493571Y71647181D01*
X-61207857Y71647181D02*
X-61207857Y72647181D01*
X-61207857Y72647181D02*
X-61303095Y72504324D01*
X-61303095Y72504324D02*
X-61398333Y72409086D01*
X-61398333Y72409086D02*
X-61493571Y72361467D01*
X-75946420Y60278475D02*
X-75898800Y60230856D01*
X-75898800Y60230856D02*
X-75851181Y60087999D01*
X-75851181Y60087999D02*
X-75851181Y59992761D01*
X-75851181Y59992761D02*
X-75898800Y59849904D01*
X-75898800Y59849904D02*
X-75994039Y59754666D01*
X-75994039Y59754666D02*
X-76089277Y59707047D01*
X-76089277Y59707047D02*
X-76279753Y59659428D01*
X-76279753Y59659428D02*
X-76422610Y59659428D01*
X-76422610Y59659428D02*
X-76613086Y59707047D01*
X-76613086Y59707047D02*
X-76708324Y59754666D01*
X-76708324Y59754666D02*
X-76803562Y59849904D01*
X-76803562Y59849904D02*
X-76851181Y59992761D01*
X-76851181Y59992761D02*
X-76851181Y60087999D01*
X-76851181Y60087999D02*
X-76803562Y60230856D01*
X-76803562Y60230856D02*
X-76755943Y60278475D01*
X-76851181Y60611809D02*
X-76851181Y61278475D01*
X-76851181Y61278475D02*
X-75851181Y60849904D01*
X-83065905Y69977181D02*
X-82494477Y69977181D01*
X-82780191Y68977181D02*
X-82780191Y69977181D01*
X-82161143Y68977181D02*
X-82161143Y69977181D01*
X-82161143Y69977181D02*
X-81780191Y69977181D01*
X-81780191Y69977181D02*
X-81684953Y69929562D01*
X-81684953Y69929562D02*
X-81637334Y69881943D01*
X-81637334Y69881943D02*
X-81589715Y69786705D01*
X-81589715Y69786705D02*
X-81589715Y69643848D01*
X-81589715Y69643848D02*
X-81637334Y69548610D01*
X-81637334Y69548610D02*
X-81684953Y69500991D01*
X-81684953Y69500991D02*
X-81780191Y69453372D01*
X-81780191Y69453372D02*
X-82161143Y69453372D01*
X-81018286Y69548610D02*
X-81113524Y69596229D01*
X-81113524Y69596229D02*
X-81161143Y69643848D01*
X-81161143Y69643848D02*
X-81208762Y69739086D01*
X-81208762Y69739086D02*
X-81208762Y69786705D01*
X-81208762Y69786705D02*
X-81161143Y69881943D01*
X-81161143Y69881943D02*
X-81113524Y69929562D01*
X-81113524Y69929562D02*
X-81018286Y69977181D01*
X-81018286Y69977181D02*
X-80827810Y69977181D01*
X-80827810Y69977181D02*
X-80732572Y69929562D01*
X-80732572Y69929562D02*
X-80684953Y69881943D01*
X-80684953Y69881943D02*
X-80637334Y69786705D01*
X-80637334Y69786705D02*
X-80637334Y69739086D01*
X-80637334Y69739086D02*
X-80684953Y69643848D01*
X-80684953Y69643848D02*
X-80732572Y69596229D01*
X-80732572Y69596229D02*
X-80827810Y69548610D01*
X-80827810Y69548610D02*
X-81018286Y69548610D01*
X-81018286Y69548610D02*
X-81113524Y69500991D01*
X-81113524Y69500991D02*
X-81161143Y69453372D01*
X-81161143Y69453372D02*
X-81208762Y69358134D01*
X-81208762Y69358134D02*
X-81208762Y69167658D01*
X-81208762Y69167658D02*
X-81161143Y69072420D01*
X-81161143Y69072420D02*
X-81113524Y69024800D01*
X-81113524Y69024800D02*
X-81018286Y68977181D01*
X-81018286Y68977181D02*
X-80827810Y68977181D01*
X-80827810Y68977181D02*
X-80732572Y69024800D01*
X-80732572Y69024800D02*
X-80684953Y69072420D01*
X-80684953Y69072420D02*
X-80637334Y69167658D01*
X-80637334Y69167658D02*
X-80637334Y69358134D01*
X-80637334Y69358134D02*
X-80684953Y69453372D01*
X-80684953Y69453372D02*
X-80732572Y69500991D01*
X-80732572Y69500991D02*
X-80827810Y69548610D01*
X-54864181Y68914334D02*
X-54864181Y68438144D01*
X-54864181Y68438144D02*
X-55864181Y68438144D01*
X-54864181Y69247668D02*
X-55864181Y69247668D01*
X-55864181Y69247668D02*
X-55864181Y69485763D01*
X-55864181Y69485763D02*
X-55816562Y69628620D01*
X-55816562Y69628620D02*
X-55721324Y69723858D01*
X-55721324Y69723858D02*
X-55626086Y69771477D01*
X-55626086Y69771477D02*
X-55435610Y69819096D01*
X-55435610Y69819096D02*
X-55292753Y69819096D01*
X-55292753Y69819096D02*
X-55102277Y69771477D01*
X-55102277Y69771477D02*
X-55007039Y69723858D01*
X-55007039Y69723858D02*
X-54911800Y69628620D01*
X-54911800Y69628620D02*
X-54864181Y69485763D01*
X-54864181Y69485763D02*
X-54864181Y69247668D01*
X-54864181Y70771477D02*
X-54864181Y70200049D01*
X-54864181Y70485763D02*
X-55864181Y70485763D01*
X-55864181Y70485763D02*
X-55721324Y70390525D01*
X-55721324Y70390525D02*
X-55626086Y70295287D01*
X-55626086Y70295287D02*
X-55578467Y70200049D01*
X-77153858Y72835181D02*
X-77487191Y73311372D01*
X-77725286Y72835181D02*
X-77725286Y73835181D01*
X-77725286Y73835181D02*
X-77344334Y73835181D01*
X-77344334Y73835181D02*
X-77249096Y73787562D01*
X-77249096Y73787562D02*
X-77201477Y73739943D01*
X-77201477Y73739943D02*
X-77153858Y73644705D01*
X-77153858Y73644705D02*
X-77153858Y73501848D01*
X-77153858Y73501848D02*
X-77201477Y73406610D01*
X-77201477Y73406610D02*
X-77249096Y73358991D01*
X-77249096Y73358991D02*
X-77344334Y73311372D01*
X-77344334Y73311372D02*
X-77725286Y73311372D01*
X-76201477Y72835181D02*
X-76772905Y72835181D01*
X-76487191Y72835181D02*
X-76487191Y73835181D01*
X-76487191Y73835181D02*
X-76582429Y73692324D01*
X-76582429Y73692324D02*
X-76677667Y73597086D01*
X-76677667Y73597086D02*
X-76772905Y73549467D01*
X-75630048Y73406610D02*
X-75725286Y73454229D01*
X-75725286Y73454229D02*
X-75772905Y73501848D01*
X-75772905Y73501848D02*
X-75820524Y73597086D01*
X-75820524Y73597086D02*
X-75820524Y73644705D01*
X-75820524Y73644705D02*
X-75772905Y73739943D01*
X-75772905Y73739943D02*
X-75725286Y73787562D01*
X-75725286Y73787562D02*
X-75630048Y73835181D01*
X-75630048Y73835181D02*
X-75439572Y73835181D01*
X-75439572Y73835181D02*
X-75344334Y73787562D01*
X-75344334Y73787562D02*
X-75296715Y73739943D01*
X-75296715Y73739943D02*
X-75249096Y73644705D01*
X-75249096Y73644705D02*
X-75249096Y73597086D01*
X-75249096Y73597086D02*
X-75296715Y73501848D01*
X-75296715Y73501848D02*
X-75344334Y73454229D01*
X-75344334Y73454229D02*
X-75439572Y73406610D01*
X-75439572Y73406610D02*
X-75630048Y73406610D01*
X-75630048Y73406610D02*
X-75725286Y73358991D01*
X-75725286Y73358991D02*
X-75772905Y73311372D01*
X-75772905Y73311372D02*
X-75820524Y73216134D01*
X-75820524Y73216134D02*
X-75820524Y73025658D01*
X-75820524Y73025658D02*
X-75772905Y72930420D01*
X-75772905Y72930420D02*
X-75725286Y72882800D01*
X-75725286Y72882800D02*
X-75630048Y72835181D01*
X-75630048Y72835181D02*
X-75439572Y72835181D01*
X-75439572Y72835181D02*
X-75344334Y72882800D01*
X-75344334Y72882800D02*
X-75296715Y72930420D01*
X-75296715Y72930420D02*
X-75249096Y73025658D01*
X-75249096Y73025658D02*
X-75249096Y73216134D01*
X-75249096Y73216134D02*
X-75296715Y73311372D01*
X-75296715Y73311372D02*
X-75344334Y73358991D01*
X-75344334Y73358991D02*
X-75439572Y73406610D01*
X-84623334Y71707181D02*
X-84623334Y70992896D01*
X-84623334Y70992896D02*
X-84670953Y70850039D01*
X-84670953Y70850039D02*
X-84766191Y70754800D01*
X-84766191Y70754800D02*
X-84909048Y70707181D01*
X-84909048Y70707181D02*
X-85004286Y70707181D01*
X-84242381Y71707181D02*
X-83623334Y71707181D01*
X-83623334Y71707181D02*
X-83956667Y71326229D01*
X-83956667Y71326229D02*
X-83813810Y71326229D01*
X-83813810Y71326229D02*
X-83718572Y71278610D01*
X-83718572Y71278610D02*
X-83670953Y71230991D01*
X-83670953Y71230991D02*
X-83623334Y71135753D01*
X-83623334Y71135753D02*
X-83623334Y70897658D01*
X-83623334Y70897658D02*
X-83670953Y70802420D01*
X-83670953Y70802420D02*
X-83718572Y70754800D01*
X-83718572Y70754800D02*
X-83813810Y70707181D01*
X-83813810Y70707181D02*
X-84099524Y70707181D01*
X-84099524Y70707181D02*
X-84194762Y70754800D01*
X-84194762Y70754800D02*
X-84242381Y70802420D01*
X-63886858Y81003420D02*
X-63934477Y80955800D01*
X-63934477Y80955800D02*
X-64077334Y80908181D01*
X-64077334Y80908181D02*
X-64172572Y80908181D01*
X-64172572Y80908181D02*
X-64315429Y80955800D01*
X-64315429Y80955800D02*
X-64410667Y81051039D01*
X-64410667Y81051039D02*
X-64458286Y81146277D01*
X-64458286Y81146277D02*
X-64505905Y81336753D01*
X-64505905Y81336753D02*
X-64505905Y81479610D01*
X-64505905Y81479610D02*
X-64458286Y81670086D01*
X-64458286Y81670086D02*
X-64410667Y81765324D01*
X-64410667Y81765324D02*
X-64315429Y81860562D01*
X-64315429Y81860562D02*
X-64172572Y81908181D01*
X-64172572Y81908181D02*
X-64077334Y81908181D01*
X-64077334Y81908181D02*
X-63934477Y81860562D01*
X-63934477Y81860562D02*
X-63886858Y81812943D01*
X-62934477Y80908181D02*
X-63505905Y80908181D01*
X-63220191Y80908181D02*
X-63220191Y81908181D01*
X-63220191Y81908181D02*
X-63315429Y81765324D01*
X-63315429Y81765324D02*
X-63410667Y81670086D01*
X-63410667Y81670086D02*
X-63505905Y81622467D01*
X-62029715Y81908181D02*
X-62505905Y81908181D01*
X-62505905Y81908181D02*
X-62553524Y81431991D01*
X-62553524Y81431991D02*
X-62505905Y81479610D01*
X-62505905Y81479610D02*
X-62410667Y81527229D01*
X-62410667Y81527229D02*
X-62172572Y81527229D01*
X-62172572Y81527229D02*
X-62077334Y81479610D01*
X-62077334Y81479610D02*
X-62029715Y81431991D01*
X-62029715Y81431991D02*
X-61982096Y81336753D01*
X-61982096Y81336753D02*
X-61982096Y81098658D01*
X-61982096Y81098658D02*
X-62029715Y81003420D01*
X-62029715Y81003420D02*
X-62077334Y80955800D01*
X-62077334Y80955800D02*
X-62172572Y80908181D01*
X-62172572Y80908181D02*
X-62410667Y80908181D01*
X-62410667Y80908181D02*
X-62505905Y80955800D01*
X-62505905Y80955800D02*
X-62553524Y81003420D01*
X-76366905Y89743181D02*
X-76366905Y88933658D01*
X-76366905Y88933658D02*
X-76319286Y88838420D01*
X-76319286Y88838420D02*
X-76271667Y88790800D01*
X-76271667Y88790800D02*
X-76176429Y88743181D01*
X-76176429Y88743181D02*
X-75985953Y88743181D01*
X-75985953Y88743181D02*
X-75890715Y88790800D01*
X-75890715Y88790800D02*
X-75843096Y88838420D01*
X-75843096Y88838420D02*
X-75795477Y88933658D01*
X-75795477Y88933658D02*
X-75795477Y89743181D01*
X-74890715Y89409848D02*
X-74890715Y88743181D01*
X-75128810Y89790800D02*
X-75366905Y89076515D01*
X-75366905Y89076515D02*
X-74747858Y89076515D01*
X-68951858Y73387181D02*
X-69285191Y73863372D01*
X-69523286Y73387181D02*
X-69523286Y74387181D01*
X-69523286Y74387181D02*
X-69142334Y74387181D01*
X-69142334Y74387181D02*
X-69047096Y74339562D01*
X-69047096Y74339562D02*
X-68999477Y74291943D01*
X-68999477Y74291943D02*
X-68951858Y74196705D01*
X-68951858Y74196705D02*
X-68951858Y74053848D01*
X-68951858Y74053848D02*
X-68999477Y73958610D01*
X-68999477Y73958610D02*
X-69047096Y73910991D01*
X-69047096Y73910991D02*
X-69142334Y73863372D01*
X-69142334Y73863372D02*
X-69523286Y73863372D01*
X-68570905Y74291943D02*
X-68523286Y74339562D01*
X-68523286Y74339562D02*
X-68428048Y74387181D01*
X-68428048Y74387181D02*
X-68189953Y74387181D01*
X-68189953Y74387181D02*
X-68094715Y74339562D01*
X-68094715Y74339562D02*
X-68047096Y74291943D01*
X-68047096Y74291943D02*
X-67999477Y74196705D01*
X-67999477Y74196705D02*
X-67999477Y74101467D01*
X-67999477Y74101467D02*
X-68047096Y73958610D01*
X-68047096Y73958610D02*
X-68618524Y73387181D01*
X-68618524Y73387181D02*
X-67999477Y73387181D01*
X-67666143Y74387181D02*
X-67047096Y74387181D01*
X-67047096Y74387181D02*
X-67380429Y74006229D01*
X-67380429Y74006229D02*
X-67237572Y74006229D01*
X-67237572Y74006229D02*
X-67142334Y73958610D01*
X-67142334Y73958610D02*
X-67094715Y73910991D01*
X-67094715Y73910991D02*
X-67047096Y73815753D01*
X-67047096Y73815753D02*
X-67047096Y73577658D01*
X-67047096Y73577658D02*
X-67094715Y73482420D01*
X-67094715Y73482420D02*
X-67142334Y73434800D01*
X-67142334Y73434800D02*
X-67237572Y73387181D01*
X-67237572Y73387181D02*
X-67523286Y73387181D01*
X-67523286Y73387181D02*
X-67618524Y73434800D01*
X-67618524Y73434800D02*
X-67666143Y73482420D01*
X-74374858Y75996181D02*
X-74708191Y76472372D01*
X-74946286Y75996181D02*
X-74946286Y76996181D01*
X-74946286Y76996181D02*
X-74565334Y76996181D01*
X-74565334Y76996181D02*
X-74470096Y76948562D01*
X-74470096Y76948562D02*
X-74422477Y76900943D01*
X-74422477Y76900943D02*
X-74374858Y76805705D01*
X-74374858Y76805705D02*
X-74374858Y76662848D01*
X-74374858Y76662848D02*
X-74422477Y76567610D01*
X-74422477Y76567610D02*
X-74470096Y76519991D01*
X-74470096Y76519991D02*
X-74565334Y76472372D01*
X-74565334Y76472372D02*
X-74946286Y76472372D01*
X-73993905Y76900943D02*
X-73946286Y76948562D01*
X-73946286Y76948562D02*
X-73851048Y76996181D01*
X-73851048Y76996181D02*
X-73612953Y76996181D01*
X-73612953Y76996181D02*
X-73517715Y76948562D01*
X-73517715Y76948562D02*
X-73470096Y76900943D01*
X-73470096Y76900943D02*
X-73422477Y76805705D01*
X-73422477Y76805705D02*
X-73422477Y76710467D01*
X-73422477Y76710467D02*
X-73470096Y76567610D01*
X-73470096Y76567610D02*
X-74041524Y75996181D01*
X-74041524Y75996181D02*
X-73422477Y75996181D01*
X-72470096Y75996181D02*
X-73041524Y75996181D01*
X-72755810Y75996181D02*
X-72755810Y76996181D01*
X-72755810Y76996181D02*
X-72851048Y76853324D01*
X-72851048Y76853324D02*
X-72946286Y76758086D01*
X-72946286Y76758086D02*
X-73041524Y76710467D01*
X-55864858Y46492420D02*
X-55912477Y46444800D01*
X-55912477Y46444800D02*
X-56055334Y46397181D01*
X-56055334Y46397181D02*
X-56150572Y46397181D01*
X-56150572Y46397181D02*
X-56293429Y46444800D01*
X-56293429Y46444800D02*
X-56388667Y46540039D01*
X-56388667Y46540039D02*
X-56436286Y46635277D01*
X-56436286Y46635277D02*
X-56483905Y46825753D01*
X-56483905Y46825753D02*
X-56483905Y46968610D01*
X-56483905Y46968610D02*
X-56436286Y47159086D01*
X-56436286Y47159086D02*
X-56388667Y47254324D01*
X-56388667Y47254324D02*
X-56293429Y47349562D01*
X-56293429Y47349562D02*
X-56150572Y47397181D01*
X-56150572Y47397181D02*
X-56055334Y47397181D01*
X-56055334Y47397181D02*
X-55912477Y47349562D01*
X-55912477Y47349562D02*
X-55864858Y47301943D01*
X-54912477Y46397181D02*
X-55483905Y46397181D01*
X-55198191Y46397181D02*
X-55198191Y47397181D01*
X-55198191Y47397181D02*
X-55293429Y47254324D01*
X-55293429Y47254324D02*
X-55388667Y47159086D01*
X-55388667Y47159086D02*
X-55483905Y47111467D01*
X-53960096Y46397181D02*
X-54531524Y46397181D01*
X-54245810Y46397181D02*
X-54245810Y47397181D01*
X-54245810Y47397181D02*
X-54341048Y47254324D01*
X-54341048Y47254324D02*
X-54436286Y47159086D01*
X-54436286Y47159086D02*
X-54531524Y47111467D01*
%TO.C,U1*%
D13*
X-72920782Y60083878D02*
X-72445782Y60083878D01*
X-72920782Y59608878D02*
X-72920782Y60083878D01*
X-72920782Y54863878D02*
X-72920782Y55338878D01*
X-72445782Y54863878D02*
X-72920782Y54863878D01*
X-68175782Y60083878D02*
X-67700782Y60083878D01*
X-67700782Y60083878D02*
X-67700782Y59608878D01*
X-67700782Y55338878D02*
X-67700782Y54863878D01*
X-67700782Y54863878D02*
X-68175782Y54863878D01*
X-73450782Y59223878D02*
X-73780782Y58983878D01*
X-73780782Y59463878D01*
X-73450782Y59223878D01*
G36*
X-73450782Y59223878D02*
G01*
X-73780782Y58983878D01*
X-73780782Y59463878D01*
X-73450782Y59223878D01*
G37*
%TO.C,R17*%
X-70048258Y79444500D02*
X-69573742Y79444500D01*
X-70048258Y78399500D02*
X-69573742Y78399500D01*
%TO.C,R16*%
X-59327816Y37630500D02*
X-58818368Y37630500D01*
X-59327816Y36585500D02*
X-58818368Y36585500D01*
%TO.C,R9*%
X-70441350Y37616500D02*
X-69966834Y37616500D01*
X-70441350Y36571500D02*
X-69966834Y36571500D01*
%TO.C,R8*%
X-66956350Y37625500D02*
X-66481834Y37625500D01*
X-66956350Y36580500D02*
X-66481834Y36580500D01*
%TO.C,R7*%
X-26844500Y83521742D02*
X-26844500Y83996258D01*
X-25799500Y83521742D02*
X-25799500Y83996258D01*
%TO.C,R6*%
X-62388258Y59326500D02*
X-61913742Y59326500D01*
X-62388258Y58281500D02*
X-61913742Y58281500D01*
%TO.C,R5*%
X-62318258Y54017641D02*
X-61843742Y54017641D01*
X-62318258Y52972641D02*
X-61843742Y52972641D01*
%TO.C,R4*%
X-61868742Y62917641D02*
X-62343258Y62917641D01*
X-61868742Y61872641D02*
X-62343258Y61872641D01*
%TO.C,R3*%
X-64491258Y60924641D02*
X-64016742Y60924641D01*
X-64491258Y59879641D02*
X-64016742Y59879641D01*
%TO.C,R2*%
X-71426258Y63729641D02*
X-70951742Y63729641D01*
X-71426258Y62684641D02*
X-70951742Y62684641D01*
%TO.C,R1*%
X-78884500Y55832883D02*
X-78884500Y56307399D01*
X-77839500Y55832883D02*
X-77839500Y56307399D01*
%TO.C,SW1*%
X-78221000Y63830000D02*
X-78221000Y63730000D01*
X-78221000Y65330000D02*
X-82621000Y65330000D01*
X-82621000Y62230000D02*
X-78221000Y62230000D01*
X-82621000Y63830000D02*
X-82621000Y63730000D01*
%TO.C,C3*%
X-66398000Y56093721D02*
X-66398000Y55812561D01*
X-65378000Y56093721D02*
X-65378000Y55812561D01*
%TO.C,R11*%
X-62394258Y57367500D02*
X-61919742Y57367500D01*
X-62394258Y56322500D02*
X-61919742Y56322500D01*
%TO.C,TP4*%
X-19702000Y84748000D02*
G75*
G02*
X-21102000Y84748000I-700000J0D01*
G01*
X-21102000Y84748000D02*
G75*
G02*
X-19702000Y84748000I700000J0D01*
G01*
%TO.C,U2*%
X-31824500Y85308000D02*
X-30004500Y85308000D01*
X-31824500Y85258000D02*
X-31824500Y85308000D01*
X-31824500Y83358000D02*
X-31824500Y84138000D01*
X-31824500Y82188000D02*
X-31824500Y82238000D01*
X-30004500Y85308000D02*
X-30004500Y85258000D01*
X-30004500Y82238000D02*
X-30004500Y82188000D01*
X-30004500Y82188000D02*
X-31824500Y82188000D01*
X-29464500Y82238000D02*
X-29224500Y81908000D01*
X-29704500Y81908000D01*
X-29464500Y82238000D01*
G36*
X-29224500Y81908000D02*
G01*
X-29704500Y81908000D01*
X-29464500Y82238000D01*
X-29224500Y81908000D01*
G37*
%TO.C,TP1*%
X-77656000Y60495141D02*
G75*
G02*
X-79056000Y60495141I-700000J0D01*
G01*
X-79056000Y60495141D02*
G75*
G02*
X-77656000Y60495141I700000J0D01*
G01*
%TO.C,U5*%
X-64779000Y88539000D02*
X-60659000Y88539000D01*
X-64779000Y88444000D02*
X-64779000Y88539000D01*
X-64779000Y83419000D02*
X-64779000Y83514000D01*
X-60659000Y88539000D02*
X-60659000Y88444000D01*
X-60659000Y83514000D02*
X-60659000Y83419000D01*
X-60659000Y83419000D02*
X-64779000Y83419000D01*
X-65319000Y88449000D02*
X-65559000Y88779000D01*
X-65079000Y88779000D01*
X-65319000Y88449000D01*
G36*
X-65319000Y88449000D02*
G01*
X-65559000Y88779000D01*
X-65079000Y88779000D01*
X-65319000Y88449000D01*
G37*
%TO.C,TP10*%
X-65913000Y70777000D02*
G75*
G02*
X-67313000Y70777000I-700000J0D01*
G01*
X-67313000Y70777000D02*
G75*
G02*
X-65913000Y70777000I700000J0D01*
G01*
%TO.C,TP2*%
X-71280000Y65018000D02*
G75*
G02*
X-72680000Y65018000I-700000J0D01*
G01*
X-72680000Y65018000D02*
G75*
G02*
X-71280000Y65018000I700000J0D01*
G01*
%TO.C,D1*%
X-37767000Y19030000D02*
X-32897000Y19030000D01*
X-37767000Y17830000D02*
X-37767000Y19030000D01*
X-37767000Y14510000D02*
X-37767000Y15710000D01*
X-32897000Y17730000D02*
X-32897000Y19030000D01*
X-32897000Y17730000D02*
X-31977000Y17730000D01*
X-32897000Y15810000D02*
X-31977000Y15810000D01*
X-32897000Y14510000D02*
X-37767000Y14510000D01*
X-32897000Y14510000D02*
X-32897000Y15810000D01*
%TO.C,R13*%
X-57583350Y42311500D02*
X-57108834Y42311500D01*
X-57583350Y41266500D02*
X-57108834Y41266500D01*
%TO.C,C12*%
X-57444672Y39399000D02*
X-57163512Y39399000D01*
X-57444672Y38379000D02*
X-57163512Y38379000D01*
%TO.C,R22*%
X-73640258Y71919500D02*
X-73165742Y71919500D01*
X-73640258Y70874500D02*
X-73165742Y70874500D01*
%TO.C,J2*%
X-84325000Y49167000D02*
X-84325000Y51817000D01*
X-81565000Y51817000D02*
X-84325000Y51817000D01*
X-81565000Y49167000D02*
X-84325000Y49167000D01*
X-81565000Y49167000D02*
X-81565000Y51817000D01*
X-81565000Y47897000D02*
X-81565000Y46517000D01*
X-81565000Y46517000D02*
X-82945000Y46517000D01*
%TO.C,TP5*%
X-35352000Y82748000D02*
G75*
G02*
X-36752000Y82748000I-700000J0D01*
G01*
X-36752000Y82748000D02*
G75*
G02*
X-35352000Y82748000I700000J0D01*
G01*
%TO.C,C10*%
X-68811672Y43449000D02*
X-68530512Y43449000D01*
X-68811672Y42429000D02*
X-68530512Y42429000D01*
%TO.C,TP3*%
X-19752000Y82748000D02*
G75*
G02*
X-21152000Y82748000I-700000J0D01*
G01*
X-21152000Y82748000D02*
G75*
G02*
X-19752000Y82748000I700000J0D01*
G01*
%TO.C,R10*%
X-68900816Y41761500D02*
X-68391368Y41761500D01*
X-68900816Y40716500D02*
X-68391368Y40716500D01*
%TO.C,R14*%
X-55300834Y37630500D02*
X-55775350Y37630500D01*
X-55300834Y36585500D02*
X-55775350Y36585500D01*
%TO.C,R12*%
X-62383258Y55667641D02*
X-61908742Y55667641D01*
X-62383258Y54622641D02*
X-61908742Y54622641D01*
%TO.C,R15*%
X-62950350Y37620500D02*
X-62475834Y37620500D01*
X-62950350Y36575500D02*
X-62475834Y36575500D01*
%TO.C,FB2*%
X-73380714Y34627859D02*
X-72581470Y34627859D01*
X-73380714Y33507859D02*
X-72581470Y33507859D01*
%TO.C,C9*%
X-68844672Y39654000D02*
X-68563512Y39654000D01*
X-68844672Y38634000D02*
X-68563512Y38634000D01*
%TO.C,C2*%
X-23246000Y83658420D02*
X-23246000Y83939580D01*
X-22226000Y83658420D02*
X-22226000Y83939580D01*
%TO.C,J4*%
X-81489000Y77467000D02*
X-80109000Y77467000D01*
X-81489000Y76087000D02*
X-81489000Y77467000D01*
X-81489000Y74817000D02*
X-81489000Y72167000D01*
X-81489000Y74817000D02*
X-78729000Y74817000D01*
X-81489000Y72167000D02*
X-78729000Y72167000D01*
X-78729000Y74817000D02*
X-78729000Y72167000D01*
%TO.C,C14*%
X-60744420Y44959000D02*
X-61025580Y44959000D01*
X-60744420Y43939000D02*
X-61025580Y43939000D01*
%TO.C,C1*%
X-77721580Y59055141D02*
X-77440420Y59055141D01*
X-77721580Y58035141D02*
X-77440420Y58035141D01*
%TO.C,C6*%
X-28462000Y83582420D02*
X-28462000Y83863580D01*
X-27442000Y83582420D02*
X-27442000Y83863580D01*
%TO.C,TP6*%
X-35352000Y84748000D02*
G75*
G02*
X-36752000Y84748000I-700000J0D01*
G01*
X-36752000Y84748000D02*
G75*
G02*
X-35352000Y84748000I700000J0D01*
G01*
%TO.C,R19*%
X-73649258Y75520500D02*
X-73174742Y75520500D01*
X-73649258Y74475500D02*
X-73174742Y74475500D01*
%TO.C,U3*%
X-65114092Y43439000D02*
X-60994092Y43439000D01*
X-65114092Y43344000D02*
X-65114092Y43439000D01*
X-65114092Y38319000D02*
X-65114092Y38414000D01*
X-60994092Y43439000D02*
X-60994092Y43344000D01*
X-60994092Y38414000D02*
X-60994092Y38319000D01*
X-60994092Y38319000D02*
X-65114092Y38319000D01*
X-65654092Y43349000D02*
X-65894092Y43679000D01*
X-65414092Y43679000D01*
X-65654092Y43349000D01*
G36*
X-65654092Y43349000D02*
G01*
X-65894092Y43679000D01*
X-65414092Y43679000D01*
X-65654092Y43349000D01*
G37*
%TO.C,TP7*%
X-67991000Y87012000D02*
G75*
G02*
X-69391000Y87012000I-700000J0D01*
G01*
X-69391000Y87012000D02*
G75*
G02*
X-67991000Y87012000I700000J0D01*
G01*
%TO.C,C5*%
X-77179000Y55909561D02*
X-77179000Y56190721D01*
X-76159000Y55909561D02*
X-76159000Y56190721D01*
%TO.C,C4*%
X-66221580Y54005141D02*
X-65940420Y54005141D01*
X-66221580Y52985141D02*
X-65940420Y52985141D01*
%TO.C,TP9*%
X-77564000Y49079000D02*
G75*
G02*
X-78964000Y49079000I-700000J0D01*
G01*
X-78964000Y49079000D02*
G75*
G02*
X-77564000Y49079000I700000J0D01*
G01*
%TO.C,C13*%
X-73566420Y80019000D02*
X-73847580Y80019000D01*
X-73566420Y78999000D02*
X-73847580Y78999000D01*
%TO.C,R20*%
X-70061258Y77702500D02*
X-69586742Y77702500D01*
X-70061258Y76657500D02*
X-69586742Y76657500D01*
%TO.C,Q1*%
X-64296000Y79680000D02*
X-62776000Y79680000D01*
X-64296000Y78680000D02*
X-64296000Y79680000D01*
X-64296000Y76560000D02*
X-64296000Y77560000D01*
X-62776000Y79680000D02*
X-62776000Y79630000D01*
X-62776000Y78510000D02*
X-62776000Y77730000D01*
X-62776000Y76610000D02*
X-62776000Y76560000D01*
X-62776000Y76560000D02*
X-64296000Y76560000D01*
X-62236000Y77740000D02*
X-62476000Y78070000D01*
X-61996000Y78070000D01*
X-62236000Y77740000D01*
G36*
X-62236000Y77740000D02*
G01*
X-62476000Y78070000D01*
X-61996000Y78070000D01*
X-62236000Y77740000D01*
G37*
%TO.C,C8*%
X-34562000Y83607420D02*
X-34562000Y83888580D01*
X-33542000Y83607420D02*
X-33542000Y83888580D01*
%TO.C,FB1*%
X-25066000Y83370378D02*
X-25066000Y84169622D01*
X-23946000Y83370378D02*
X-23946000Y84169622D01*
%TO.C,TP11*%
X-61865000Y70654000D02*
G75*
G02*
X-63265000Y70654000I-700000J0D01*
G01*
X-63265000Y70654000D02*
G75*
G02*
X-61865000Y70654000I700000J0D01*
G01*
%TO.C,C7*%
X-75216000Y59129561D02*
X-75216000Y59410721D01*
X-74196000Y59129561D02*
X-74196000Y59410721D01*
%TO.C,TP8*%
X-78859000Y70557000D02*
G75*
G02*
X-80259000Y70557000I-700000J0D01*
G01*
X-80259000Y70557000D02*
G75*
G02*
X-78859000Y70557000I700000J0D01*
G01*
%TO.C,LD1*%
X-58150000Y79564000D02*
X-52100000Y79564000D01*
X-58150000Y71764000D02*
X-58150000Y79564000D01*
X-53210000Y78194000D02*
X-52200000Y78194000D01*
X-53210000Y73114000D02*
X-53210000Y78194000D01*
X-52200000Y73114000D02*
X-53210000Y73114000D01*
X-52100000Y79564000D02*
X-52100000Y71764000D01*
X-52100000Y71764000D02*
X-58150000Y71764000D01*
%TO.C,R18*%
X-73624258Y73710500D02*
X-73149742Y73710500D01*
X-73624258Y72665500D02*
X-73149742Y72665500D01*
%TO.C,J3*%
X-85670000Y74812000D02*
X-85670000Y80002000D01*
X-82910000Y80002000D02*
X-85670000Y80002000D01*
X-82910000Y74812000D02*
X-85670000Y74812000D01*
X-82910000Y74812000D02*
X-82910000Y80002000D01*
X-82910000Y73542000D02*
X-82910000Y72162000D01*
X-82910000Y72162000D02*
X-84290000Y72162000D01*
%TO.C,C15*%
X-60227580Y81946000D02*
X-59946420Y81946000D01*
X-60227580Y80926000D02*
X-59946420Y80926000D01*
%TO.C,U4*%
X-77455000Y88108000D02*
X-73695000Y88108000D01*
X-77455000Y81288000D02*
X-73695000Y81288000D01*
X-73695000Y88108000D02*
X-73695000Y86848000D01*
X-73695000Y81288000D02*
X-73695000Y82548000D01*
X-78735000Y88008000D02*
X-78975000Y88338000D01*
X-78495000Y88338000D01*
X-78735000Y88008000D01*
G36*
X-78735000Y88008000D02*
G01*
X-78975000Y88338000D01*
X-78495000Y88338000D01*
X-78735000Y88008000D01*
G37*
%TO.C,R23*%
X-64864742Y74364500D02*
X-65339258Y74364500D01*
X-64864742Y73319500D02*
X-65339258Y73319500D01*
%TO.C,R21*%
X-73477276Y78403500D02*
X-73986724Y78403500D01*
X-73477276Y77358500D02*
X-73986724Y77358500D01*
%TO.C,C11*%
X-55933252Y45912000D02*
X-54510748Y45912000D01*
X-55933252Y43192000D02*
X-54510748Y43192000D01*
%TD*%
%LPC*%
D14*
%TO.C,U1*%
X-72748282Y59223878D03*
X-72748282Y58723878D03*
X-72748282Y58223878D03*
X-72748282Y57723878D03*
X-72748282Y57223878D03*
X-72748282Y56723878D03*
X-72748282Y56223878D03*
X-72748282Y55723878D03*
D15*
X-72060782Y55036378D03*
X-71560782Y55036378D03*
X-71060782Y55036378D03*
X-70560782Y55036378D03*
X-70060782Y55036378D03*
X-69560782Y55036378D03*
X-69060782Y55036378D03*
X-68560782Y55036378D03*
D14*
X-67873282Y55723878D03*
X-67873282Y56223878D03*
X-67873282Y56723878D03*
X-67873282Y57223878D03*
X-67873282Y57723878D03*
X-67873282Y58223878D03*
X-67873282Y58723878D03*
X-67873282Y59223878D03*
D15*
X-68560782Y59911378D03*
X-69060782Y59911378D03*
X-69560782Y59911378D03*
X-70060782Y59911378D03*
X-70560782Y59911378D03*
X-71060782Y59911378D03*
X-71560782Y59911378D03*
X-72060782Y59911378D03*
D16*
X-70310782Y57473878D03*
%TD*%
D17*
%TO.C,R17*%
X-70636000Y78922000D03*
X-68986000Y78922000D03*
%TD*%
D18*
%TO.C,R16*%
X-59985592Y37108000D03*
X-58160592Y37108000D03*
%TD*%
D17*
%TO.C,R9*%
X-71029092Y37094000D03*
X-69379092Y37094000D03*
%TD*%
%TO.C,R8*%
X-67544092Y37103000D03*
X-65894092Y37103000D03*
%TD*%
D19*
%TO.C,R7*%
X-26322000Y82934000D03*
X-26322000Y84584000D03*
%TD*%
D17*
%TO.C,R6*%
X-62976000Y58804000D03*
X-61326000Y58804000D03*
%TD*%
%TO.C,R5*%
X-62906000Y53495141D03*
X-61256000Y53495141D03*
%TD*%
D20*
%TO.C,R4*%
X-61281000Y62395141D03*
X-62931000Y62395141D03*
%TD*%
D17*
%TO.C,R3*%
X-65079000Y60402141D03*
X-63429000Y60402141D03*
%TD*%
%TO.C,R2*%
X-72014000Y63207141D03*
X-70364000Y63207141D03*
%TD*%
D19*
%TO.C,R1*%
X-78362000Y55245141D03*
X-78362000Y56895141D03*
%TD*%
D21*
%TO.C,H10*%
X-92000000Y3000000D03*
%TD*%
%TO.C,H9*%
X-3000000Y3000000D03*
%TD*%
%TO.C,H8*%
X-3000000Y92000000D03*
%TD*%
%TO.C,H7*%
X-92000000Y92000000D03*
%TD*%
%TO.C,H6*%
X-12042000Y70062000D03*
%TD*%
%TO.C,H5*%
X-46377000Y70770000D03*
%TD*%
%TO.C,H4*%
X-46377000Y8770000D03*
%TD*%
%TO.C,H3*%
X-46377000Y25770000D03*
%TD*%
%TO.C,H2*%
X-11377000Y6770000D03*
%TD*%
%TO.C,H1*%
X-11377000Y28770000D03*
%TD*%
D22*
%TO.C,SW1*%
X-78371000Y62980000D03*
X-82471000Y62980000D03*
X-78371000Y64580000D03*
X-82471000Y64580000D03*
%TD*%
D23*
%TO.C,C3*%
X-65888000Y56728141D03*
X-65888000Y55178141D03*
%TD*%
D17*
%TO.C,R11*%
X-62982000Y56845000D03*
X-61332000Y56845000D03*
%TD*%
D24*
%TO.C,TP4*%
X-20402000Y84748000D03*
%TD*%
D25*
%TO.C,U2*%
X-29777000Y82798000D03*
X-29777000Y83748000D03*
X-29777000Y84698000D03*
X-32052000Y84698000D03*
X-32052000Y82798000D03*
%TD*%
D24*
%TO.C,TP1*%
X-78356000Y60495141D03*
%TD*%
D26*
%TO.C,U5*%
X-65194000Y87884000D03*
X-65194000Y86614000D03*
X-65194000Y85344000D03*
X-65194000Y84074000D03*
X-60244000Y84074000D03*
X-60244000Y85344000D03*
X-60244000Y86614000D03*
X-60244000Y87884000D03*
%TD*%
D24*
%TO.C,TP10*%
X-66613000Y70777000D03*
%TD*%
%TO.C,TP2*%
X-71980000Y65018000D03*
%TD*%
D27*
%TO.C,D1*%
X-32817000Y16770000D03*
D28*
X-37897000Y16770000D03*
%TD*%
D17*
%TO.C,R13*%
X-58171092Y41789000D03*
X-56521092Y41789000D03*
%TD*%
D29*
%TO.C,C12*%
X-58079092Y38889000D03*
X-56529092Y38889000D03*
%TD*%
D17*
%TO.C,R22*%
X-74228000Y71397000D03*
X-72578000Y71397000D03*
%TD*%
D30*
%TO.C,J2*%
X-82945000Y47897000D03*
D31*
X-82945000Y50437000D03*
%TD*%
D24*
%TO.C,TP5*%
X-36052000Y82748000D03*
%TD*%
D29*
%TO.C,C10*%
X-69446092Y42939000D03*
X-67896092Y42939000D03*
%TD*%
D24*
%TO.C,TP3*%
X-20452000Y82748000D03*
%TD*%
D18*
%TO.C,R10*%
X-69558592Y41239000D03*
X-67733592Y41239000D03*
%TD*%
D20*
%TO.C,R14*%
X-54713092Y37108000D03*
X-56363092Y37108000D03*
%TD*%
D17*
%TO.C,R12*%
X-62971000Y55145141D03*
X-61321000Y55145141D03*
%TD*%
%TO.C,R15*%
X-63538092Y37098000D03*
X-61888092Y37098000D03*
%TD*%
D32*
%TO.C,FB2*%
X-74043592Y34067859D03*
X-71918592Y34067859D03*
%TD*%
D29*
%TO.C,C9*%
X-69479092Y39144000D03*
X-67929092Y39144000D03*
%TD*%
D33*
%TO.C,C2*%
X-22736000Y83024000D03*
X-22736000Y84574000D03*
%TD*%
D30*
%TO.C,J4*%
X-80109000Y76087000D03*
D31*
X-80109000Y73547000D03*
%TD*%
D34*
%TO.C,C14*%
X-60110000Y44449000D03*
X-61660000Y44449000D03*
%TD*%
D29*
%TO.C,C1*%
X-78356000Y58545141D03*
X-76806000Y58545141D03*
%TD*%
D33*
%TO.C,C6*%
X-27952000Y82948000D03*
X-27952000Y84498000D03*
%TD*%
D24*
%TO.C,TP6*%
X-36052000Y84748000D03*
%TD*%
D17*
%TO.C,R19*%
X-74237000Y74998000D03*
X-72587000Y74998000D03*
%TD*%
D26*
%TO.C,U3*%
X-65529092Y42784000D03*
X-65529092Y41514000D03*
X-65529092Y40244000D03*
X-65529092Y38974000D03*
X-60579092Y38974000D03*
X-60579092Y40244000D03*
X-60579092Y41514000D03*
X-60579092Y42784000D03*
%TD*%
D24*
%TO.C,TP7*%
X-68691000Y87012000D03*
%TD*%
D33*
%TO.C,C5*%
X-76669000Y55275141D03*
X-76669000Y56825141D03*
%TD*%
D29*
%TO.C,C4*%
X-66856000Y53495141D03*
X-65306000Y53495141D03*
%TD*%
D24*
%TO.C,TP9*%
X-78264000Y49079000D03*
%TD*%
D34*
%TO.C,C13*%
X-72932000Y79509000D03*
X-74482000Y79509000D03*
%TD*%
D17*
%TO.C,R20*%
X-70649000Y77180000D03*
X-68999000Y77180000D03*
%TD*%
D35*
%TO.C,Q1*%
X-62598500Y77170000D03*
X-62598500Y79070000D03*
X-64473500Y78120000D03*
%TD*%
D33*
%TO.C,C8*%
X-34052000Y82973000D03*
X-34052000Y84523000D03*
%TD*%
D36*
%TO.C,FB1*%
X-24506000Y82707500D03*
X-24506000Y84832500D03*
%TD*%
D24*
%TO.C,TP11*%
X-62565000Y70654000D03*
%TD*%
D33*
%TO.C,C7*%
X-74706000Y58495141D03*
X-74706000Y60045141D03*
%TD*%
D24*
%TO.C,TP8*%
X-79559000Y70557000D03*
%TD*%
D37*
%TO.C,LD1*%
X-55500000Y73114000D03*
D38*
X-55500000Y75654000D03*
X-55500000Y78194000D03*
%TD*%
D17*
%TO.C,R18*%
X-74212000Y73188000D03*
X-72562000Y73188000D03*
%TD*%
D30*
%TO.C,J3*%
X-84290000Y73542000D03*
D31*
X-84290000Y76082000D03*
X-84290000Y78622000D03*
%TD*%
D29*
%TO.C,C15*%
X-60862000Y81436000D03*
X-59312000Y81436000D03*
%TD*%
D39*
%TO.C,U4*%
X-78755000Y86998000D03*
X-78755000Y84698000D03*
D40*
X-72455000Y84698000D03*
D39*
X-78755000Y82398000D03*
%TD*%
D20*
%TO.C,R23*%
X-64277000Y73842000D03*
X-65927000Y73842000D03*
%TD*%
D41*
%TO.C,R21*%
X-72819500Y77881000D03*
X-74644500Y77881000D03*
%TD*%
D42*
%TO.C,J1*%
X-65226000Y47955141D03*
D31*
X-65226000Y50495141D03*
X-67766000Y47955141D03*
X-67766000Y50495141D03*
X-70306000Y47955141D03*
X-70306000Y50495141D03*
X-72846000Y47955141D03*
X-72846000Y50495141D03*
X-75386000Y47955141D03*
X-75386000Y50495141D03*
%TD*%
D43*
%TO.C,C11*%
X-56784500Y44552000D03*
X-53659500Y44552000D03*
%TD*%
%LPD*%
M02*
