%TF.GenerationSoftware,KiCad,Pcbnew,10.0.5*%
%TF.CreationDate,2026-08-27T15:25:44+05:30*%
%TF.ProjectId,Oizom__OPC_v1,4f697a6f-6d5f-45f4-9f50-435f76312e6b,rev?*%
%TF.SameCoordinates,Original*%
%TF.FileFunction,Legend,Bot*%
%TF.FilePolarity,Positive*%
%FSLAX46Y46*%
G04 Gerber Fmt 4.6, Leading zero omitted, Abs format (unit mm)*
G04 Created by KiCad (PCBNEW 10.0.5) date 2026-08-27 15:25:44*
%MOMM*%
%LPD*%
G01*
G04 APERTURE LIST*
G04 Aperture macros list*
%AMRoundRect*
0 Rectangle with rounded corners*
0 $1 Rounding radius*
0 $2 $3 $4 $5 $6 $7 $8 $9 X,Y pos of 4 corners*
0 Add a 4 corners polygon primitive as box body*
4,1,4,$2,$3,$4,$5,$6,$7,$8,$9,$2,$3,0*
0 Add four circle primitives for the rounded corners*
1,1,$1+$1,$2,$3*
1,1,$1+$1,$4,$5*
1,1,$1+$1,$6,$7*
1,1,$1+$1,$8,$9*
0 Add four rect primitives between the rounded corners*
20,1,$1+$1,$2,$3,$4,$5,0*
20,1,$1+$1,$4,$5,$6,$7,0*
20,1,$1+$1,$6,$7,$8,$9,0*
20,1,$1+$1,$8,$9,$2,$3,0*%
G04 Aperture macros list end*
%ADD10C,0.200000*%
%ADD11C,0.300000*%
%ADD12C,0.150000*%
%ADD13C,0.120000*%
%ADD14C,4.000000*%
%ADD15RoundRect,0.249200X0.600800X0.450800X-0.600800X0.450800X-0.600800X-0.450800X0.600800X-0.450800X0*%
%ADD16O,1.700000X1.400000*%
%ADD17R,1.700000X1.700000*%
%ADD18C,1.700000*%
%ADD19R,2.030000X1.730000*%
%ADD20O,2.030000X1.730000*%
%ADD21RoundRect,0.250000X0.600000X-0.600000X0.600000X0.600000X-0.600000X0.600000X-0.600000X-0.600000X0*%
G04 APERTURE END LIST*
D10*
X-92340000Y13707000D02*
X-92300000Y13707000D01*
X-91500000Y13707000D02*
X-91460000Y13707000D01*
X-90660000Y13707000D02*
X-90620000Y13707000D01*
X-89820000Y13707000D02*
X-89780000Y13707000D01*
X-88980000Y13707000D02*
X-88940000Y13707000D01*
X-88140000Y13707000D02*
X-88100000Y13707000D01*
X-87300000Y13707000D02*
X-87260000Y13707000D01*
X-86460000Y13707000D02*
X-86420000Y13707000D01*
X-85620000Y13707000D02*
X-85580000Y13707000D01*
X-84780000Y13707000D02*
X-84740000Y13707000D01*
X-83940000Y13707000D02*
X-83900000Y13707000D01*
X-83100000Y13707000D02*
X-83060000Y13707000D01*
X-82260000Y13707000D02*
X-82220000Y13707000D01*
X-81420000Y13707000D02*
X-81380000Y13707000D01*
X-80580000Y13707000D02*
X-80540000Y13707000D01*
X-79740000Y13707000D02*
X-79700000Y13707000D01*
X-78900000Y13707000D02*
X-78860000Y13707000D01*
X-78060000Y13707000D02*
X-78020000Y13707000D01*
X-77220000Y13707000D02*
X-77180000Y13707000D01*
X-76380000Y13707000D02*
X-76340000Y13707000D01*
X-75540000Y13707000D02*
X-75500000Y13707000D01*
X-75229000Y13707000D02*
X-75229000Y13667000D01*
X-75229000Y12867000D02*
X-75229000Y12827000D01*
X-75229000Y12027000D02*
X-75229000Y11987000D01*
X-75229000Y11187000D02*
X-75229000Y11147000D01*
X-75229000Y10347000D02*
X-75229000Y10307000D01*
X-75229000Y9507000D02*
X-75229000Y9467000D01*
X-75229000Y8667000D02*
X-75229000Y8627000D01*
X-75229000Y8114000D02*
X-75269000Y8114000D01*
X-76069000Y8114000D02*
X-76109000Y8114000D01*
X-76909000Y8114000D02*
X-76949000Y8114000D01*
X-77749000Y8114000D02*
X-77789000Y8114000D01*
X-78589000Y8114000D02*
X-78629000Y8114000D01*
X-79429000Y8114000D02*
X-79469000Y8114000D01*
X-80269000Y8114000D02*
X-80309000Y8114000D01*
X-81109000Y8114000D02*
X-81149000Y8114000D01*
X-81949000Y8114000D02*
X-81989000Y8114000D01*
X-82789000Y8114000D02*
X-82829000Y8114000D01*
X-83629000Y8114000D02*
X-83669000Y8114000D01*
X-84469000Y8114000D02*
X-84509000Y8114000D01*
X-85309000Y8114000D02*
X-85349000Y8114000D01*
X-86149000Y8114000D02*
X-86189000Y8114000D01*
X-86989000Y8114000D02*
X-87029000Y8114000D01*
X-87829000Y8114000D02*
X-87869000Y8114000D01*
X-88669000Y8114000D02*
X-88709000Y8114000D01*
X-89509000Y8114000D02*
X-89549000Y8114000D01*
X-90349000Y8114000D02*
X-90389000Y8114000D01*
X-91189000Y8114000D02*
X-91229000Y8114000D01*
X-92029000Y8114000D02*
X-92069000Y8114000D01*
X-92340000Y8114000D02*
X-92340000Y8154000D01*
X-92340000Y8954000D02*
X-92340000Y8994000D01*
X-92340000Y9794000D02*
X-92340000Y9834000D01*
X-92340000Y10634000D02*
X-92340000Y10674000D01*
X-92340000Y11474000D02*
X-92340000Y11514000D01*
X-92340000Y12314000D02*
X-92340000Y12354000D01*
X-92340000Y13154000D02*
X-92340000Y13194000D01*
D11*
X-76483226Y12906088D02*
X-76768940Y12906088D01*
X-76768940Y12906088D02*
X-76911797Y12834659D01*
X-76911797Y12834659D02*
X-77054654Y12691802D01*
X-77054654Y12691802D02*
X-77126083Y12406088D01*
X-77126083Y12406088D02*
X-77126083Y11906088D01*
X-77126083Y11906088D02*
X-77054654Y11620374D01*
X-77054654Y11620374D02*
X-76911797Y11477516D01*
X-76911797Y11477516D02*
X-76768940Y11406088D01*
X-76768940Y11406088D02*
X-76483226Y11406088D01*
X-76483226Y11406088D02*
X-76340368Y11477516D01*
X-76340368Y11477516D02*
X-76197511Y11620374D01*
X-76197511Y11620374D02*
X-76126083Y11906088D01*
X-76126083Y11906088D02*
X-76126083Y12406088D01*
X-76126083Y12406088D02*
X-76197511Y12691802D01*
X-76197511Y12691802D02*
X-76340368Y12834659D01*
X-76340368Y12834659D02*
X-76483226Y12906088D01*
X-77768940Y11406088D02*
X-77768940Y12906088D01*
X-77768940Y12906088D02*
X-78340369Y12906088D01*
X-78340369Y12906088D02*
X-78483226Y12834659D01*
X-78483226Y12834659D02*
X-78554655Y12763231D01*
X-78554655Y12763231D02*
X-78626083Y12620374D01*
X-78626083Y12620374D02*
X-78626083Y12406088D01*
X-78626083Y12406088D02*
X-78554655Y12263231D01*
X-78554655Y12263231D02*
X-78483226Y12191802D01*
X-78483226Y12191802D02*
X-78340369Y12120374D01*
X-78340369Y12120374D02*
X-77768940Y12120374D01*
X-80126083Y11548945D02*
X-80054655Y11477516D01*
X-80054655Y11477516D02*
X-79840369Y11406088D01*
X-79840369Y11406088D02*
X-79697512Y11406088D01*
X-79697512Y11406088D02*
X-79483226Y11477516D01*
X-79483226Y11477516D02*
X-79340369Y11620374D01*
X-79340369Y11620374D02*
X-79268940Y11763231D01*
X-79268940Y11763231D02*
X-79197512Y12048945D01*
X-79197512Y12048945D02*
X-79197512Y12263231D01*
X-79197512Y12263231D02*
X-79268940Y12548945D01*
X-79268940Y12548945D02*
X-79340369Y12691802D01*
X-79340369Y12691802D02*
X-79483226Y12834659D01*
X-79483226Y12834659D02*
X-79697512Y12906088D01*
X-79697512Y12906088D02*
X-79840369Y12906088D01*
X-79840369Y12906088D02*
X-80054655Y12834659D01*
X-80054655Y12834659D02*
X-80126083Y12763231D01*
X-80411797Y11263231D02*
X-81554655Y11263231D01*
X-81697512Y12906088D02*
X-82197512Y11406088D01*
X-82197512Y11406088D02*
X-82697512Y12906088D01*
X-83983226Y11406088D02*
X-83126083Y11406088D01*
X-83554654Y11406088D02*
X-83554654Y12906088D01*
X-83554654Y12906088D02*
X-83411797Y12691802D01*
X-83411797Y12691802D02*
X-83268940Y12548945D01*
X-83268940Y12548945D02*
X-83126083Y12477516D01*
X-76126083Y10348315D02*
X-76197511Y10419743D01*
X-76197511Y10419743D02*
X-76340368Y10491172D01*
X-76340368Y10491172D02*
X-76697511Y10491172D01*
X-76697511Y10491172D02*
X-76840368Y10419743D01*
X-76840368Y10419743D02*
X-76911797Y10348315D01*
X-76911797Y10348315D02*
X-76983226Y10205458D01*
X-76983226Y10205458D02*
X-76983226Y10062600D01*
X-76983226Y10062600D02*
X-76911797Y9848315D01*
X-76911797Y9848315D02*
X-76054654Y8991172D01*
X-76054654Y8991172D02*
X-76983226Y8991172D01*
X-78340368Y10491172D02*
X-77626082Y10491172D01*
X-77626082Y10491172D02*
X-77554654Y9776886D01*
X-77554654Y9776886D02*
X-77626082Y9848315D01*
X-77626082Y9848315D02*
X-77768939Y9919743D01*
X-77768939Y9919743D02*
X-78126082Y9919743D01*
X-78126082Y9919743D02*
X-78268939Y9848315D01*
X-78268939Y9848315D02*
X-78340368Y9776886D01*
X-78340368Y9776886D02*
X-78411797Y9634029D01*
X-78411797Y9634029D02*
X-78411797Y9276886D01*
X-78411797Y9276886D02*
X-78340368Y9134029D01*
X-78340368Y9134029D02*
X-78268939Y9062600D01*
X-78268939Y9062600D02*
X-78126082Y8991172D01*
X-78126082Y8991172D02*
X-77768939Y8991172D01*
X-77768939Y8991172D02*
X-77626082Y9062600D01*
X-77626082Y9062600D02*
X-77554654Y9134029D01*
X-80126082Y10562600D02*
X-78840368Y8634029D01*
X-80840368Y9848315D02*
X-80697511Y9919743D01*
X-80697511Y9919743D02*
X-80626082Y9991172D01*
X-80626082Y9991172D02*
X-80554654Y10134029D01*
X-80554654Y10134029D02*
X-80554654Y10205458D01*
X-80554654Y10205458D02*
X-80626082Y10348315D01*
X-80626082Y10348315D02*
X-80697511Y10419743D01*
X-80697511Y10419743D02*
X-80840368Y10491172D01*
X-80840368Y10491172D02*
X-81126082Y10491172D01*
X-81126082Y10491172D02*
X-81268939Y10419743D01*
X-81268939Y10419743D02*
X-81340368Y10348315D01*
X-81340368Y10348315D02*
X-81411797Y10205458D01*
X-81411797Y10205458D02*
X-81411797Y10134029D01*
X-81411797Y10134029D02*
X-81340368Y9991172D01*
X-81340368Y9991172D02*
X-81268939Y9919743D01*
X-81268939Y9919743D02*
X-81126082Y9848315D01*
X-81126082Y9848315D02*
X-80840368Y9848315D01*
X-80840368Y9848315D02*
X-80697511Y9776886D01*
X-80697511Y9776886D02*
X-80626082Y9705458D01*
X-80626082Y9705458D02*
X-80554654Y9562600D01*
X-80554654Y9562600D02*
X-80554654Y9276886D01*
X-80554654Y9276886D02*
X-80626082Y9134029D01*
X-80626082Y9134029D02*
X-80697511Y9062600D01*
X-80697511Y9062600D02*
X-80840368Y8991172D01*
X-80840368Y8991172D02*
X-81126082Y8991172D01*
X-81126082Y8991172D02*
X-81268939Y9062600D01*
X-81268939Y9062600D02*
X-81340368Y9134029D01*
X-81340368Y9134029D02*
X-81411797Y9276886D01*
X-81411797Y9276886D02*
X-81411797Y9562600D01*
X-81411797Y9562600D02*
X-81340368Y9705458D01*
X-81340368Y9705458D02*
X-81268939Y9776886D01*
X-81268939Y9776886D02*
X-81126082Y9848315D01*
X-83126082Y10562600D02*
X-81840368Y8634029D01*
X-83554654Y10348315D02*
X-83626082Y10419743D01*
X-83626082Y10419743D02*
X-83768939Y10491172D01*
X-83768939Y10491172D02*
X-84126082Y10491172D01*
X-84126082Y10491172D02*
X-84268939Y10419743D01*
X-84268939Y10419743D02*
X-84340368Y10348315D01*
X-84340368Y10348315D02*
X-84411797Y10205458D01*
X-84411797Y10205458D02*
X-84411797Y10062600D01*
X-84411797Y10062600D02*
X-84340368Y9848315D01*
X-84340368Y9848315D02*
X-83483225Y8991172D01*
X-83483225Y8991172D02*
X-84411797Y8991172D01*
X-85697510Y10491172D02*
X-85411796Y10491172D01*
X-85411796Y10491172D02*
X-85268939Y10419743D01*
X-85268939Y10419743D02*
X-85197510Y10348315D01*
X-85197510Y10348315D02*
X-85054653Y10134029D01*
X-85054653Y10134029D02*
X-84983225Y9848315D01*
X-84983225Y9848315D02*
X-84983225Y9276886D01*
X-84983225Y9276886D02*
X-85054653Y9134029D01*
X-85054653Y9134029D02*
X-85126082Y9062600D01*
X-85126082Y9062600D02*
X-85268939Y8991172D01*
X-85268939Y8991172D02*
X-85554653Y8991172D01*
X-85554653Y8991172D02*
X-85697510Y9062600D01*
X-85697510Y9062600D02*
X-85768939Y9134029D01*
X-85768939Y9134029D02*
X-85840368Y9276886D01*
X-85840368Y9276886D02*
X-85840368Y9634029D01*
X-85840368Y9634029D02*
X-85768939Y9776886D01*
X-85768939Y9776886D02*
X-85697510Y9848315D01*
X-85697510Y9848315D02*
X-85554653Y9919743D01*
X-85554653Y9919743D02*
X-85268939Y9919743D01*
X-85268939Y9919743D02*
X-85126082Y9848315D01*
X-85126082Y9848315D02*
X-85054653Y9776886D01*
X-85054653Y9776886D02*
X-84983225Y9634029D01*
D12*
X-59671181Y49558475D02*
X-58956896Y49558475D01*
X-58956896Y49558475D02*
X-58814039Y49606094D01*
X-58814039Y49606094D02*
X-58718800Y49701332D01*
X-58718800Y49701332D02*
X-58671181Y49844189D01*
X-58671181Y49844189D02*
X-58671181Y49939427D01*
X-58671181Y48558475D02*
X-58671181Y49129903D01*
X-58671181Y48844189D02*
X-59671181Y48844189D01*
X-59671181Y48844189D02*
X-59528324Y48939427D01*
X-59528324Y48939427D02*
X-59433086Y49034665D01*
X-59433086Y49034665D02*
X-59385467Y49129903D01*
%TO.C,J1*%
D13*
X-80596000Y53785141D02*
X-80596000Y44665141D01*
X-80596000Y44665141D02*
X-60016000Y44665141D01*
X-79296000Y52475141D02*
X-79296000Y45975141D01*
X-79296000Y45975141D02*
X-72356000Y45975141D01*
X-72356000Y45975141D02*
X-72356000Y44665141D01*
X-68256000Y45975141D02*
X-61316000Y45975141D01*
X-68256000Y44665141D02*
X-68256000Y45975141D01*
X-65726000Y43275141D02*
X-65226000Y44275141D01*
X-65226000Y44275141D02*
X-64726000Y43275141D01*
X-64726000Y43275141D02*
X-65726000Y43275141D01*
X-61316000Y52475141D02*
X-79296000Y52475141D01*
X-61316000Y45975141D02*
X-61316000Y52475141D01*
X-60016000Y53785141D02*
X-80596000Y53785141D01*
X-60016000Y44665141D02*
X-60016000Y53785141D01*
%TD*%
%LPC*%
D14*
%TO.C,H10*%
X-92000000Y3000000D03*
%TD*%
%TO.C,H9*%
X-3000000Y3000000D03*
%TD*%
%TO.C,H8*%
X-3000000Y92000000D03*
%TD*%
%TO.C,H7*%
X-92000000Y92000000D03*
%TD*%
%TO.C,H6*%
X-12042000Y70062000D03*
%TD*%
%TO.C,H5*%
X-46377000Y70770000D03*
%TD*%
%TO.C,H4*%
X-46377000Y8770000D03*
%TD*%
%TO.C,H3*%
X-46377000Y25770000D03*
%TD*%
%TO.C,H2*%
X-11377000Y6770000D03*
%TD*%
%TO.C,H1*%
X-11377000Y28770000D03*
%TD*%
D15*
%TO.C,D1*%
X-32817000Y16770000D03*
D16*
X-37897000Y16770000D03*
%TD*%
D17*
%TO.C,J2*%
X-82945000Y47897000D03*
D18*
X-82945000Y50437000D03*
%TD*%
D17*
%TO.C,J4*%
X-80109000Y76087000D03*
D18*
X-80109000Y73547000D03*
%TD*%
D19*
%TO.C,LD1*%
X-55500000Y73114000D03*
D20*
X-55500000Y75654000D03*
X-55500000Y78194000D03*
%TD*%
D17*
%TO.C,J3*%
X-84290000Y73542000D03*
D18*
X-84290000Y76082000D03*
X-84290000Y78622000D03*
%TD*%
D21*
%TO.C,J1*%
X-65226000Y47955141D03*
D18*
X-65226000Y50495141D03*
X-67766000Y47955141D03*
X-67766000Y50495141D03*
X-70306000Y47955141D03*
X-70306000Y50495141D03*
X-72846000Y47955141D03*
X-72846000Y50495141D03*
X-75386000Y47955141D03*
X-75386000Y50495141D03*
%TD*%
%LPD*%
M02*
