M48
; DRILL file KiCad 10.0.5 date 2026-08-27T15:25:45
; FORMAT={-:-/ absolute / inch / decimal}
; #@! TF.CreationDate,2026-08-27T15:25:45+05:30
; #@! TF.GenerationSoftware,Kicad,Pcbnew,10.0.5
; #@! TF.FileFunction,Plated,1,2,PTH
FMAT,2
INCH
; #@! TA.AperFunction,Plated,PTH,ViaDrill
T1C0.0118
; #@! TA.AperFunction,Plated,PTH,ViaDrill
T2C0.0157
; #@! TA.AperFunction,Plated,PTH,ComponentDrill
T3C0.0276
; #@! TA.AperFunction,Plated,PTH,ComponentDrill
T4C0.0394
; #@! TA.AperFunction,Plated,PTH,ComponentDrill
T5C0.0402
%
G90
G05
T1
X-3.5657Y1.674
X-3.3989Y1.9253
X-3.3732Y2.1351
X-3.3209Y1.6716
X-3.297Y2.5103
X-3.2841Y2.248
X-3.2826Y3.2593
X-3.192Y2.8092
X-3.1893Y1.943
X-3.1881Y2.0817
X-3.1861Y2.2153
X-3.1823Y3.3722
X-3.1787Y1.7171
X-3.1593Y3.1538
X-3.0881Y2.0748
X-3.0735Y2.8732
X-3.0534Y1.7548
X-3.0231Y2.3589
X-2.9897Y3.3951
X-2.9865Y3.2613
X-2.9706Y3.0387
X-2.9669Y1.3591
X-2.9667Y1.4
X-2.9524Y2.7525
X-2.948Y2.1926
X-2.9474Y2.2476
X-2.941Y2.4146
X-2.9386Y1.556
X-2.9226Y2.08
X-2.901Y2.2971
X-2.8866Y2.1593
X-2.8711Y2.3907
X-2.8656Y2.0489
X-2.8354Y2.0786
X-2.8222Y1.6344
X-2.7964Y1.7484
X-2.7856Y2.1116
X-2.7839Y1.5079
X-2.778Y1.6568
X-2.7765Y1.5749
X-2.7681Y2.2628
X-2.7567Y3.272
X-2.7539Y2.0707
X-2.7504Y3.353
X-2.7428Y2.9304
X-2.7095Y1.6568
X-2.6889Y2.0703
X-2.6744Y2.3806
X-2.6709Y1.4996
X-2.6696Y2.9979
X-2.6681Y3.05
X-2.6442Y3.2069
X-2.6432Y2.3847
X-2.6422Y2.3532
X-2.6373Y1.6585
X-2.6329Y3.3196
X-2.622Y2.4093
X-2.6173Y1.7307
X-2.612Y3.107
X-2.5978Y2.3346
X-2.5658Y2.5136
X-2.5369Y2.8568
X-2.5307Y1.7717
X-2.5139Y1.5427
X-2.4993Y1.5208
X-2.4892Y1.5749
X-2.485Y1.6557
X-2.4506Y2.0287
X-2.444Y2.3784
X-2.4439Y2.31
X-2.4139Y2.3876
X-2.4019Y1.4221
X-2.3503Y3.5427
X-2.3435Y1.88
X-2.3422Y2.5194
X-2.3408Y2.0689
X-2.3259Y1.4974
X-2.3213Y1.6132
X-2.3189Y1.7176
X-2.297Y1.7769
X-2.2961Y2.3866
X-2.287Y3.2061
X-2.2659Y2.0525
X-2.2184Y1.4254
X-2.1859Y2.2596
X-2.1818Y1.5085
X-2.1626Y1.6867
X-2.1271Y2.7682
X-2.0438Y1.6843
X-2.0428Y1.5526
X-2.0299Y1.8578
X-1.9235Y2.3936
X-1.8542Y2.5264
X-1.8496Y1.9194
X-1.3411Y3.3808
X-1.2615Y3.3834
X-0.8955Y3.3833
X-0.7356Y3.3354
T2
X-3.1127Y2.1474
X-2.8296Y1.4602
X-2.8152Y3.1008
X-2.5484Y2.096
X-2.538Y2.1671
X-2.4132Y2.698
X-2.3122Y2.1711
X-2.2676Y1.6128
X-2.1125Y1.3923
T3
X-1.492Y0.6602
X-1.292Y0.6602
T4
X-3.3185Y3.0954
X-3.3185Y2.9954
X-3.3185Y2.8954
X-3.2656Y1.9857
X-3.2656Y1.8857
X-3.1539Y2.9956
X-3.1539Y2.8956
X-2.968Y1.988
X-2.968Y1.888
X-2.868Y1.988
X-2.868Y1.888
X-2.768Y1.988
X-2.768Y1.888
X-2.668Y1.988
X-2.668Y1.888
X-2.568Y1.988
X-2.568Y1.888
T5
X-2.185Y3.0785
X-2.185Y2.9785
X-2.185Y2.8785
M30
