ISO-10303-21;
HEADER;
/* Generated by software containing ST-Developer
 * from STEP Tools, Inc. (www.steptools.com) 
 */

FILE_DESCRIPTION(
/* description */ (''),
/* implementation_level */ '2;1');

FILE_NAME(
/* name */ 'AHT25 sensor v1.step',
/* time_stamp */ '2024-09-23T22:19:07+05:30',
/* author */ (''),
/* organization */ (''),
/* preprocessor_version */ 'ST-DEVELOPER v20',
/* originating_system */ 'Autodesk Translation Framework v13.20.0.188',

/* authorisation */ '');

FILE_SCHEMA (('AUTOMOTIVE_DESIGN { 1 0 10303 214 3 1 1 }'));
ENDSEC;

DATA;
#10=MECHANICAL_DESIGN_GEOMETRIC_PRESENTATION_REPRESENTATION('',(#13),#2421);
#11=SHAPE_REPRESENTATION_RELATIONSHIP('SRR','None',#2428,#12);
#12=ADVANCED_BREP_SHAPE_REPRESENTATION('',(#14),#2420);
#13=STYLED_ITEM('',(#2437),#14);
#14=MANIFOLD_SOLID_BREP('Body1',#1515);
#15=CIRCLE('',#1535,0.5);
#16=CIRCLE('',#1536,0.5);
#17=CIRCLE('',#1539,0.5);
#18=CIRCLE('',#1540,0.5);
#19=CIRCLE('',#1572,0.5);
#20=CIRCLE('',#1573,0.5);
#21=CIRCLE('',#1605,0.5);
#22=CIRCLE('',#1608,0.5);
#23=CYLINDRICAL_SURFACE('',#1534,0.5);
#24=CYLINDRICAL_SURFACE('',#1538,0.5);
#25=CYLINDRICAL_SURFACE('',#1604,0.5);
#26=CYLINDRICAL_SURFACE('',#1609,0.5);
#27=FACE_BOUND('',#118,.T.);
#28=FACE_BOUND('',#119,.T.);
#29=FACE_BOUND('',#120,.T.);
#30=FACE_BOUND('',#121,.T.);
#31=FACE_BOUND('',#151,.T.);
#32=FACE_BOUND('',#157,.T.);
#33=FACE_BOUND('',#158,.T.);
#34=FACE_OUTER_BOUND('',#113,.T.);
#35=FACE_OUTER_BOUND('',#114,.T.);
#36=FACE_OUTER_BOUND('',#115,.T.);
#37=FACE_OUTER_BOUND('',#116,.T.);
#38=FACE_OUTER_BOUND('',#117,.T.);
#39=FACE_OUTER_BOUND('',#122,.T.);
#40=FACE_OUTER_BOUND('',#123,.T.);
#41=FACE_OUTER_BOUND('',#124,.T.);
#42=FACE_OUTER_BOUND('',#125,.T.);
#43=FACE_OUTER_BOUND('',#126,.T.);
#44=FACE_OUTER_BOUND('',#127,.T.);
#45=FACE_OUTER_BOUND('',#128,.T.);
#46=FACE_OUTER_BOUND('',#129,.T.);
#47=FACE_OUTER_BOUND('',#130,.T.);
#48=FACE_OUTER_BOUND('',#131,.T.);
#49=FACE_OUTER_BOUND('',#132,.T.);
#50=FACE_OUTER_BOUND('',#133,.T.);
#51=FACE_OUTER_BOUND('',#134,.T.);
#52=FACE_OUTER_BOUND('',#135,.T.);
#53=FACE_OUTER_BOUND('',#136,.T.);
#54=FACE_OUTER_BOUND('',#137,.T.);
#55=FACE_OUTER_BOUND('',#138,.T.);
#56=FACE_OUTER_BOUND('',#139,.T.);
#57=FACE_OUTER_BOUND('',#140,.T.);
#58=FACE_OUTER_BOUND('',#141,.T.);
#59=FACE_OUTER_BOUND('',#142,.T.);
#60=FACE_OUTER_BOUND('',#143,.T.);
#61=FACE_OUTER_BOUND('',#144,.T.);
#62=FACE_OUTER_BOUND('',#145,.T.);
#63=FACE_OUTER_BOUND('',#146,.T.);
#64=FACE_OUTER_BOUND('',#147,.T.);
#65=FACE_OUTER_BOUND('',#148,.T.);
#66=FACE_OUTER_BOUND('',#149,.T.);
#67=FACE_OUTER_BOUND('',#150,.T.);
#68=FACE_OUTER_BOUND('',#152,.T.);
#69=FACE_OUTER_BOUND('',#153,.T.);
#70=FACE_OUTER_BOUND('',#154,.T.);
#71=FACE_OUTER_BOUND('',#155,.T.);
#72=FACE_OUTER_BOUND('',#156,.T.);
#73=FACE_OUTER_BOUND('',#159,.T.);
#74=FACE_OUTER_BOUND('',#160,.T.);
#75=FACE_OUTER_BOUND('',#161,.T.);
#76=FACE_OUTER_BOUND('',#162,.T.);
#77=FACE_OUTER_BOUND('',#163,.T.);
#78=FACE_OUTER_BOUND('',#164,.T.);
#79=FACE_OUTER_BOUND('',#165,.T.);
#80=FACE_OUTER_BOUND('',#166,.T.);
#81=FACE_OUTER_BOUND('',#167,.T.);
#82=FACE_OUTER_BOUND('',#168,.T.);
#83=FACE_OUTER_BOUND('',#169,.T.);
#84=FACE_OUTER_BOUND('',#170,.T.);
#85=FACE_OUTER_BOUND('',#171,.T.);
#86=FACE_OUTER_BOUND('',#172,.T.);
#87=FACE_OUTER_BOUND('',#173,.T.);
#88=FACE_OUTER_BOUND('',#174,.T.);
#89=FACE_OUTER_BOUND('',#175,.T.);
#90=FACE_OUTER_BOUND('',#176,.T.);
#91=FACE_OUTER_BOUND('',#177,.T.);
#92=FACE_OUTER_BOUND('',#178,.T.);
#93=FACE_OUTER_BOUND('',#179,.T.);
#94=FACE_OUTER_BOUND('',#180,.T.);
#95=FACE_OUTER_BOUND('',#181,.T.);
#96=FACE_OUTER_BOUND('',#182,.T.);
#97=FACE_OUTER_BOUND('',#183,.T.);
#98=FACE_OUTER_BOUND('',#184,.T.);
#99=FACE_OUTER_BOUND('',#185,.T.);
#100=FACE_OUTER_BOUND('',#186,.T.);
#101=FACE_OUTER_BOUND('',#187,.T.);
#102=FACE_OUTER_BOUND('',#188,.T.);
#103=FACE_OUTER_BOUND('',#189,.T.);
#104=FACE_OUTER_BOUND('',#190,.T.);
#105=FACE_OUTER_BOUND('',#191,.T.);
#106=FACE_OUTER_BOUND('',#192,.T.);
#107=FACE_OUTER_BOUND('',#193,.T.);
#108=FACE_OUTER_BOUND('',#194,.T.);
#109=FACE_OUTER_BOUND('',#195,.T.);
#110=FACE_OUTER_BOUND('',#196,.T.);
#111=FACE_OUTER_BOUND('',#197,.T.);
#112=FACE_OUTER_BOUND('',#198,.T.);
#113=EDGE_LOOP('',(#945,#946,#947,#948,#949));
#114=EDGE_LOOP('',(#950,#951,#952,#953,#954,#955,#956,#957));
#115=EDGE_LOOP('',(#958,#959,#960,#961,#962));
#116=EDGE_LOOP('',(#963,#964,#965,#966));
#117=EDGE_LOOP('',(#967,#968,#969,#970));
#118=EDGE_LOOP('',(#971,#972,#973,#974));
#119=EDGE_LOOP('',(#975,#976,#977,#978));
#120=EDGE_LOOP('',(#979,#980,#981,#982));
#121=EDGE_LOOP('',(#983,#984,#985,#986));
#122=EDGE_LOOP('',(#987,#988,#989,#990));
#123=EDGE_LOOP('',(#991,#992,#993,#994));
#124=EDGE_LOOP('',(#995,#996,#997,#998));
#125=EDGE_LOOP('',(#999,#1000,#1001,#1002));
#126=EDGE_LOOP('',(#1003,#1004,#1005,#1006));
#127=EDGE_LOOP('',(#1007,#1008,#1009,#1010));
#128=EDGE_LOOP('',(#1011,#1012,#1013,#1014));
#129=EDGE_LOOP('',(#1015,#1016,#1017,#1018));
#130=EDGE_LOOP('',(#1019,#1020,#1021,#1022));
#131=EDGE_LOOP('',(#1023,#1024,#1025,#1026));
#132=EDGE_LOOP('',(#1027,#1028,#1029,#1030,#1031,#1032,#1033,#1034));
#133=EDGE_LOOP('',(#1035,#1036,#1037,#1038,#1039,#1040,#1041,#1042));
#134=EDGE_LOOP('',(#1043,#1044,#1045,#1046));
#135=EDGE_LOOP('',(#1047,#1048,#1049,#1050));
#136=EDGE_LOOP('',(#1051,#1052,#1053,#1054));
#137=EDGE_LOOP('',(#1055,#1056,#1057,#1058));
#138=EDGE_LOOP('',(#1059,#1060,#1061,#1062));
#139=EDGE_LOOP('',(#1063,#1064,#1065,#1066));
#140=EDGE_LOOP('',(#1067,#1068,#1069,#1070));
#141=EDGE_LOOP('',(#1071,#1072,#1073,#1074));
#142=EDGE_LOOP('',(#1075,#1076,#1077,#1078));
#143=EDGE_LOOP('',(#1079,#1080,#1081,#1082));
#144=EDGE_LOOP('',(#1083,#1084,#1085,#1086));
#145=EDGE_LOOP('',(#1087,#1088,#1089,#1090));
#146=EDGE_LOOP('',(#1091,#1092,#1093,#1094));
#147=EDGE_LOOP('',(#1095,#1096,#1097,#1098));
#148=EDGE_LOOP('',(#1099,#1100,#1101,#1102));
#149=EDGE_LOOP('',(#1103,#1104,#1105,#1106));
#150=EDGE_LOOP('',(#1107,#1108,#1109,#1110,#1111,#1112,#1113,#1114,#1115,
#1116,#1117,#1118,#1119,#1120,#1121,#1122));
#151=EDGE_LOOP('',(#1123,#1124,#1125,#1126));
#152=EDGE_LOOP('',(#1127,#1128,#1129,#1130));
#153=EDGE_LOOP('',(#1131,#1132,#1133,#1134));
#154=EDGE_LOOP('',(#1135,#1136,#1137,#1138));
#155=EDGE_LOOP('',(#1139,#1140,#1141,#1142));
#156=EDGE_LOOP('',(#1143,#1144,#1145,#1146,#1147,#1148,#1149,#1150,#1151,
#1152,#1153,#1154,#1155,#1156,#1157,#1158,#1159,#1160,#1161,#1162,#1163,
#1164,#1165,#1166,#1167,#1168,#1169,#1170,#1171,#1172));
#157=EDGE_LOOP('',(#1173,#1174,#1175,#1176,#1177,#1178,#1179,#1180,#1181,
#1182,#1183,#1184));
#158=EDGE_LOOP('',(#1185,#1186,#1187,#1188));
#159=EDGE_LOOP('',(#1189,#1190,#1191,#1192));
#160=EDGE_LOOP('',(#1193,#1194,#1195,#1196));
#161=EDGE_LOOP('',(#1197,#1198,#1199,#1200));
#162=EDGE_LOOP('',(#1201,#1202,#1203,#1204));
#163=EDGE_LOOP('',(#1205,#1206,#1207,#1208));
#164=EDGE_LOOP('',(#1209,#1210,#1211,#1212));
#165=EDGE_LOOP('',(#1213,#1214,#1215,#1216));
#166=EDGE_LOOP('',(#1217,#1218,#1219,#1220));
#167=EDGE_LOOP('',(#1221,#1222,#1223,#1224));
#168=EDGE_LOOP('',(#1225,#1226,#1227,#1228));
#169=EDGE_LOOP('',(#1229,#1230,#1231,#1232));
#170=EDGE_LOOP('',(#1233,#1234,#1235,#1236));
#171=EDGE_LOOP('',(#1237,#1238,#1239,#1240));
#172=EDGE_LOOP('',(#1241,#1242,#1243,#1244));
#173=EDGE_LOOP('',(#1245,#1246,#1247,#1248));
#174=EDGE_LOOP('',(#1249,#1250,#1251,#1252));
#175=EDGE_LOOP('',(#1253,#1254,#1255,#1256));
#176=EDGE_LOOP('',(#1257,#1258,#1259,#1260));
#177=EDGE_LOOP('',(#1261,#1262,#1263,#1264));
#178=EDGE_LOOP('',(#1265,#1266,#1267,#1268));
#179=EDGE_LOOP('',(#1269,#1270,#1271,#1272));
#180=EDGE_LOOP('',(#1273,#1274,#1275,#1276));
#181=EDGE_LOOP('',(#1277,#1278,#1279,#1280));
#182=EDGE_LOOP('',(#1281,#1282,#1283,#1284));
#183=EDGE_LOOP('',(#1285,#1286,#1287,#1288));
#184=EDGE_LOOP('',(#1289,#1290,#1291,#1292));
#185=EDGE_LOOP('',(#1293,#1294,#1295,#1296));
#186=EDGE_LOOP('',(#1297,#1298,#1299,#1300));
#187=EDGE_LOOP('',(#1301,#1302,#1303,#1304));
#188=EDGE_LOOP('',(#1305,#1306,#1307,#1308));
#189=EDGE_LOOP('',(#1309,#1310,#1311,#1312));
#190=EDGE_LOOP('',(#1313,#1314,#1315,#1316));
#191=EDGE_LOOP('',(#1317,#1318,#1319,#1320,#1321,#1322,#1323,#1324,#1325,
#1326,#1327,#1328,#1329,#1330,#1331,#1332));
#192=EDGE_LOOP('',(#1333,#1334,#1335,#1336));
#193=EDGE_LOOP('',(#1337,#1338,#1339,#1340));
#194=EDGE_LOOP('',(#1341,#1342,#1343,#1344));
#195=EDGE_LOOP('',(#1345,#1346,#1347,#1348));
#196=EDGE_LOOP('',(#1349,#1350,#1351,#1352));
#197=EDGE_LOOP('',(#1353,#1354,#1355,#1356));
#198=EDGE_LOOP('',(#1357,#1358,#1359,#1360));
#199=LINE('',#1996,#399);
#200=LINE('',#1998,#400);
#201=LINE('',#2000,#401);
#202=LINE('',#2002,#402);
#203=LINE('',#2003,#403);
#204=LINE('',#2006,#404);
#205=LINE('',#2008,#405);
#206=LINE('',#2010,#406);
#207=LINE('',#2012,#407);
#208=LINE('',#2014,#408);
#209=LINE('',#2016,#409);
#210=LINE('',#2017,#410);
#211=LINE('',#2020,#411);
#212=LINE('',#2022,#412);
#213=LINE('',#2024,#413);
#214=LINE('',#2025,#414);
#215=LINE('',#2027,#415);
#216=LINE('',#2029,#416);
#217=LINE('',#2032,#417);
#218=LINE('',#2034,#418);
#219=LINE('',#2036,#419);
#220=LINE('',#2037,#420);
#221=LINE('',#2040,#421);
#222=LINE('',#2042,#422);
#223=LINE('',#2044,#423);
#224=LINE('',#2045,#424);
#225=LINE('',#2048,#425);
#226=LINE('',#2050,#426);
#227=LINE('',#2052,#427);
#228=LINE('',#2053,#428);
#229=LINE('',#2056,#429);
#230=LINE('',#2058,#430);
#231=LINE('',#2060,#431);
#232=LINE('',#2061,#432);
#233=LINE('',#2067,#433);
#234=LINE('',#2070,#434);
#235=LINE('',#2073,#435);
#236=LINE('',#2075,#436);
#237=LINE('',#2076,#437);
#238=LINE('',#2082,#438);
#239=LINE('',#2085,#439);
#240=LINE('',#2088,#440);
#241=LINE('',#2090,#441);
#242=LINE('',#2091,#442);
#243=LINE('',#2094,#443);
#244=LINE('',#2096,#444);
#245=LINE('',#2097,#445);
#246=LINE('',#2100,#446);
#247=LINE('',#2102,#447);
#248=LINE('',#2103,#448);
#249=LINE('',#2107,#449);
#250=LINE('',#2109,#450);
#251=LINE('',#2111,#451);
#252=LINE('',#2112,#452);
#253=LINE('',#2115,#453);
#254=LINE('',#2117,#454);
#255=LINE('',#2118,#455);
#256=LINE('',#2122,#456);
#257=LINE('',#2124,#457);
#258=LINE('',#2126,#458);
#259=LINE('',#2127,#459);
#260=LINE('',#2130,#460);
#261=LINE('',#2132,#461);
#262=LINE('',#2133,#462);
#263=LINE('',#2136,#463);
#264=LINE('',#2137,#464);
#265=LINE('',#2139,#465);
#266=LINE('',#2140,#466);
#267=LINE('',#2144,#467);
#268=LINE('',#2146,#468);
#269=LINE('',#2147,#469);
#270=LINE('',#2149,#470);
#271=LINE('',#2150,#471);
#272=LINE('',#2153,#472);
#273=LINE('',#2155,#473);
#274=LINE('',#2156,#474);
#275=LINE('',#2159,#475);
#276=LINE('',#2160,#476);
#277=LINE('',#2163,#477);
#278=LINE('',#2164,#478);
#279=LINE('',#2167,#479);
#280=LINE('',#2169,#480);
#281=LINE('',#2170,#481);
#282=LINE('',#2172,#482);
#283=LINE('',#2173,#483);
#284=LINE('',#2175,#484);
#285=LINE('',#2180,#485);
#286=LINE('',#2182,#486);
#287=LINE('',#2184,#487);
#288=LINE('',#2185,#488);
#289=LINE('',#2188,#489);
#290=LINE('',#2190,#490);
#291=LINE('',#2191,#491);
#292=LINE('',#2194,#492);
#293=LINE('',#2196,#493);
#294=LINE('',#2197,#494);
#295=LINE('',#2199,#495);
#296=LINE('',#2200,#496);
#297=LINE('',#2205,#497);
#298=LINE('',#2207,#498);
#299=LINE('',#2209,#499);
#300=LINE('',#2210,#500);
#301=LINE('',#2213,#501);
#302=LINE('',#2215,#502);
#303=LINE('',#2216,#503);
#304=LINE('',#2219,#504);
#305=LINE('',#2221,#505);
#306=LINE('',#2222,#506);
#307=LINE('',#2224,#507);
#308=LINE('',#2227,#508);
#309=LINE('',#2229,#509);
#310=LINE('',#2231,#510);
#311=LINE('',#2233,#511);
#312=LINE('',#2235,#512);
#313=LINE('',#2237,#513);
#314=LINE('',#2239,#514);
#315=LINE('',#2241,#515);
#316=LINE('',#2242,#516);
#317=LINE('',#2243,#517);
#318=LINE('',#2244,#518);
#319=LINE('',#2247,#519);
#320=LINE('',#2249,#520);
#321=LINE('',#2251,#521);
#322=LINE('',#2252,#522);
#323=LINE('',#2255,#523);
#324=LINE('',#2257,#524);
#325=LINE('',#2258,#525);
#326=LINE('',#2261,#526);
#327=LINE('',#2262,#527);
#328=LINE('',#2265,#528);
#329=LINE('',#2266,#529);
#330=LINE('',#2268,#530);
#331=LINE('',#2270,#531);
#332=LINE('',#2272,#532);
#333=LINE('',#2274,#533);
#334=LINE('',#2275,#534);
#335=LINE('',#2276,#535);
#336=LINE('',#2280,#536);
#337=LINE('',#2282,#537);
#338=LINE('',#2284,#538);
#339=LINE('',#2286,#539);
#340=LINE('',#2288,#540);
#341=LINE('',#2292,#541);
#342=LINE('',#2294,#542);
#343=LINE('',#2295,#543);
#344=LINE('',#2298,#544);
#345=LINE('',#2299,#545);
#346=LINE('',#2302,#546);
#347=LINE('',#2303,#547);
#348=LINE('',#2305,#548);
#349=LINE('',#2309,#549);
#350=LINE('',#2310,#550);
#351=LINE('',#2313,#551);
#352=LINE('',#2314,#552);
#353=LINE('',#2316,#553);
#354=LINE('',#2320,#554);
#355=LINE('',#2322,#555);
#356=LINE('',#2323,#556);
#357=LINE('',#2326,#557);
#358=LINE('',#2328,#558);
#359=LINE('',#2329,#559);
#360=LINE('',#2332,#560);
#361=LINE('',#2334,#561);
#362=LINE('',#2335,#562);
#363=LINE('',#2338,#563);
#364=LINE('',#2340,#564);
#365=LINE('',#2341,#565);
#366=LINE('',#2344,#566);
#367=LINE('',#2346,#567);
#368=LINE('',#2347,#568);
#369=LINE('',#2350,#569);
#370=LINE('',#2352,#570);
#371=LINE('',#2353,#571);
#372=LINE('',#2356,#572);
#373=LINE('',#2358,#573);
#374=LINE('',#2359,#574);
#375=LINE('',#2362,#575);
#376=LINE('',#2364,#576);
#377=LINE('',#2365,#577);
#378=LINE('',#2367,#578);
#379=LINE('',#2369,#579);
#380=LINE('',#2371,#580);
#381=LINE('',#2373,#581);
#382=LINE('',#2375,#582);
#383=LINE('',#2377,#583);
#384=LINE('',#2382,#584);
#385=LINE('',#2384,#585);
#386=LINE('',#2386,#586);
#387=LINE('',#2388,#587);
#388=LINE('',#2391,#588);
#389=LINE('',#2395,#589);
#390=LINE('',#2396,#590);
#391=LINE('',#2399,#591);
#392=LINE('',#2401,#592);
#393=LINE('',#2403,#593);
#394=LINE('',#2405,#594);
#395=LINE('',#2408,#595);
#396=LINE('',#2410,#596);
#397=LINE('',#2414,#597);
#398=LINE('',#2416,#598);
#399=VECTOR('',#1620,10.);
#400=VECTOR('',#1621,10.);
#401=VECTOR('',#1622,10.);
#402=VECTOR('',#1623,10.);
#403=VECTOR('',#1624,10.);
#404=VECTOR('',#1627,10.);
#405=VECTOR('',#1628,10.);
#406=VECTOR('',#1629,10.);
#407=VECTOR('',#1630,10.);
#408=VECTOR('',#1631,10.);
#409=VECTOR('',#1632,10.);
#410=VECTOR('',#1633,10.);
#411=VECTOR('',#1636,10.);
#412=VECTOR('',#1637,10.);
#413=VECTOR('',#1638,10.);
#414=VECTOR('',#1639,10.);
#415=VECTOR('',#1642,10.);
#416=VECTOR('',#1645,10.);
#417=VECTOR('',#1646,10.);
#418=VECTOR('',#1647,10.);
#419=VECTOR('',#1648,10.);
#420=VECTOR('',#1649,10.);
#421=VECTOR('',#1650,10.);
#422=VECTOR('',#1651,10.);
#423=VECTOR('',#1652,10.);
#424=VECTOR('',#1653,10.);
#425=VECTOR('',#1654,10.);
#426=VECTOR('',#1655,10.);
#427=VECTOR('',#1656,10.);
#428=VECTOR('',#1657,10.);
#429=VECTOR('',#1658,10.);
#430=VECTOR('',#1659,10.);
#431=VECTOR('',#1660,10.);
#432=VECTOR('',#1661,10.);
#433=VECTOR('',#1666,10.);
#434=VECTOR('',#1669,10.);
#435=VECTOR('',#1672,10.);
#436=VECTOR('',#1673,10.);
#437=VECTOR('',#1674,10.);
#438=VECTOR('',#1679,10.);
#439=VECTOR('',#1682,10.);
#440=VECTOR('',#1685,10.);
#441=VECTOR('',#1686,10.);
#442=VECTOR('',#1687,10.);
#443=VECTOR('',#1690,10.);
#444=VECTOR('',#1691,10.);
#445=VECTOR('',#1692,10.);
#446=VECTOR('',#1695,10.);
#447=VECTOR('',#1696,10.);
#448=VECTOR('',#1697,10.);
#449=VECTOR('',#1700,10.);
#450=VECTOR('',#1701,10.);
#451=VECTOR('',#1702,10.);
#452=VECTOR('',#1703,10.);
#453=VECTOR('',#1706,10.);
#454=VECTOR('',#1707,10.);
#455=VECTOR('',#1708,10.);
#456=VECTOR('',#1711,10.);
#457=VECTOR('',#1712,10.);
#458=VECTOR('',#1713,10.);
#459=VECTOR('',#1714,10.);
#460=VECTOR('',#1717,10.);
#461=VECTOR('',#1718,10.);
#462=VECTOR('',#1719,10.);
#463=VECTOR('',#1722,10.);
#464=VECTOR('',#1723,10.);
#465=VECTOR('',#1724,10.);
#466=VECTOR('',#1725,10.);
#467=VECTOR('',#1728,10.);
#468=VECTOR('',#1729,10.);
#469=VECTOR('',#1730,10.);
#470=VECTOR('',#1731,10.);
#471=VECTOR('',#1732,10.);
#472=VECTOR('',#1735,10.);
#473=VECTOR('',#1736,10.);
#474=VECTOR('',#1737,10.);
#475=VECTOR('',#1740,10.);
#476=VECTOR('',#1741,10.);
#477=VECTOR('',#1744,10.);
#478=VECTOR('',#1745,10.);
#479=VECTOR('',#1748,10.);
#480=VECTOR('',#1749,10.);
#481=VECTOR('',#1750,10.);
#482=VECTOR('',#1753,10.);
#483=VECTOR('',#1754,10.);
#484=VECTOR('',#1757,10.);
#485=VECTOR('',#1762,10.);
#486=VECTOR('',#1763,10.);
#487=VECTOR('',#1764,10.);
#488=VECTOR('',#1765,10.);
#489=VECTOR('',#1768,10.);
#490=VECTOR('',#1769,10.);
#491=VECTOR('',#1770,10.);
#492=VECTOR('',#1773,10.);
#493=VECTOR('',#1774,10.);
#494=VECTOR('',#1775,10.);
#495=VECTOR('',#1778,10.);
#496=VECTOR('',#1779,10.);
#497=VECTOR('',#1784,10.);
#498=VECTOR('',#1785,10.);
#499=VECTOR('',#1786,10.);
#500=VECTOR('',#1787,10.);
#501=VECTOR('',#1790,10.);
#502=VECTOR('',#1791,10.);
#503=VECTOR('',#1792,10.);
#504=VECTOR('',#1795,10.);
#505=VECTOR('',#1796,10.);
#506=VECTOR('',#1797,10.);
#507=VECTOR('',#1800,10.);
#508=VECTOR('',#1803,10.);
#509=VECTOR('',#1804,10.);
#510=VECTOR('',#1805,10.);
#511=VECTOR('',#1806,10.);
#512=VECTOR('',#1807,10.);
#513=VECTOR('',#1808,10.);
#514=VECTOR('',#1809,10.);
#515=VECTOR('',#1810,10.);
#516=VECTOR('',#1811,10.);
#517=VECTOR('',#1812,10.);
#518=VECTOR('',#1813,10.);
#519=VECTOR('',#1814,10.);
#520=VECTOR('',#1815,10.);
#521=VECTOR('',#1816,10.);
#522=VECTOR('',#1817,10.);
#523=VECTOR('',#1820,10.);
#524=VECTOR('',#1821,10.);
#525=VECTOR('',#1822,10.);
#526=VECTOR('',#1825,10.);
#527=VECTOR('',#1826,10.);
#528=VECTOR('',#1829,10.);
#529=VECTOR('',#1830,10.);
#530=VECTOR('',#1833,10.);
#531=VECTOR('',#1836,10.);
#532=VECTOR('',#1837,10.);
#533=VECTOR('',#1838,10.);
#534=VECTOR('',#1839,10.);
#535=VECTOR('',#1840,10.);
#536=VECTOR('',#1843,10.);
#537=VECTOR('',#1844,10.);
#538=VECTOR('',#1845,10.);
#539=VECTOR('',#1846,10.);
#540=VECTOR('',#1847,10.);
#541=VECTOR('',#1852,10.);
#542=VECTOR('',#1853,10.);
#543=VECTOR('',#1854,10.);
#544=VECTOR('',#1857,10.);
#545=VECTOR('',#1858,10.);
#546=VECTOR('',#1861,10.);
#547=VECTOR('',#1862,10.);
#548=VECTOR('',#1865,10.);
#549=VECTOR('',#1870,10.);
#550=VECTOR('',#1871,10.);
#551=VECTOR('',#1874,10.);
#552=VECTOR('',#1875,10.);
#553=VECTOR('',#1878,10.);
#554=VECTOR('',#1883,10.);
#555=VECTOR('',#1884,10.);
#556=VECTOR('',#1885,10.);
#557=VECTOR('',#1888,10.);
#558=VECTOR('',#1889,10.);
#559=VECTOR('',#1890,10.);
#560=VECTOR('',#1893,10.);
#561=VECTOR('',#1894,10.);
#562=VECTOR('',#1895,10.);
#563=VECTOR('',#1898,10.);
#564=VECTOR('',#1899,10.);
#565=VECTOR('',#1900,10.);
#566=VECTOR('',#1903,10.);
#567=VECTOR('',#1904,10.);
#568=VECTOR('',#1905,10.);
#569=VECTOR('',#1908,10.);
#570=VECTOR('',#1909,10.);
#571=VECTOR('',#1910,10.);
#572=VECTOR('',#1913,10.);
#573=VECTOR('',#1914,10.);
#574=VECTOR('',#1915,10.);
#575=VECTOR('',#1918,10.);
#576=VECTOR('',#1919,10.);
#577=VECTOR('',#1920,10.);
#578=VECTOR('',#1923,10.);
#579=VECTOR('',#1926,10.);
#580=VECTOR('',#1929,10.);
#581=VECTOR('',#1932,10.);
#582=VECTOR('',#1935,10.);
#583=VECTOR('',#1938,10.);
#584=VECTOR('',#1947,10.);
#585=VECTOR('',#1950,10.);
#586=VECTOR('',#1953,10.);
#587=VECTOR('',#1956,10.);
#588=VECTOR('',#1959,10.);
#589=VECTOR('',#1964,10.);
#590=VECTOR('',#1965,10.);
#591=VECTOR('',#1968,10.);
#592=VECTOR('',#1969,10.);
#593=VECTOR('',#1970,10.);
#594=VECTOR('',#1971,10.);
#595=VECTOR('',#1976,10.);
#596=VECTOR('',#1979,10.);
#597=VECTOR('',#1986,10.);
#598=VECTOR('',#1989,10.);
#599=VERTEX_POINT('',#1994);
#600=VERTEX_POINT('',#1995);
#601=VERTEX_POINT('',#1997);
#602=VERTEX_POINT('',#1999);
#603=VERTEX_POINT('',#2001);
#604=VERTEX_POINT('',#2005);
#605=VERTEX_POINT('',#2007);
#606=VERTEX_POINT('',#2009);
#607=VERTEX_POINT('',#2011);
#608=VERTEX_POINT('',#2013);
#609=VERTEX_POINT('',#2015);
#610=VERTEX_POINT('',#2019);
#611=VERTEX_POINT('',#2021);
#612=VERTEX_POINT('',#2023);
#613=VERTEX_POINT('',#2030);
#614=VERTEX_POINT('',#2031);
#615=VERTEX_POINT('',#2033);
#616=VERTEX_POINT('',#2035);
#617=VERTEX_POINT('',#2038);
#618=VERTEX_POINT('',#2039);
#619=VERTEX_POINT('',#2041);
#620=VERTEX_POINT('',#2043);
#621=VERTEX_POINT('',#2046);
#622=VERTEX_POINT('',#2047);
#623=VERTEX_POINT('',#2049);
#624=VERTEX_POINT('',#2051);
#625=VERTEX_POINT('',#2054);
#626=VERTEX_POINT('',#2055);
#627=VERTEX_POINT('',#2057);
#628=VERTEX_POINT('',#2059);
#629=VERTEX_POINT('',#2063);
#630=VERTEX_POINT('',#2064);
#631=VERTEX_POINT('',#2066);
#632=VERTEX_POINT('',#2068);
#633=VERTEX_POINT('',#2072);
#634=VERTEX_POINT('',#2074);
#635=VERTEX_POINT('',#2078);
#636=VERTEX_POINT('',#2079);
#637=VERTEX_POINT('',#2081);
#638=VERTEX_POINT('',#2083);
#639=VERTEX_POINT('',#2087);
#640=VERTEX_POINT('',#2089);
#641=VERTEX_POINT('',#2093);
#642=VERTEX_POINT('',#2095);
#643=VERTEX_POINT('',#2099);
#644=VERTEX_POINT('',#2101);
#645=VERTEX_POINT('',#2105);
#646=VERTEX_POINT('',#2106);
#647=VERTEX_POINT('',#2108);
#648=VERTEX_POINT('',#2110);
#649=VERTEX_POINT('',#2114);
#650=VERTEX_POINT('',#2116);
#651=VERTEX_POINT('',#2120);
#652=VERTEX_POINT('',#2121);
#653=VERTEX_POINT('',#2123);
#654=VERTEX_POINT('',#2125);
#655=VERTEX_POINT('',#2129);
#656=VERTEX_POINT('',#2131);
#657=VERTEX_POINT('',#2135);
#658=VERTEX_POINT('',#2138);
#659=VERTEX_POINT('',#2142);
#660=VERTEX_POINT('',#2143);
#661=VERTEX_POINT('',#2145);
#662=VERTEX_POINT('',#2148);
#663=VERTEX_POINT('',#2152);
#664=VERTEX_POINT('',#2154);
#665=VERTEX_POINT('',#2158);
#666=VERTEX_POINT('',#2162);
#667=VERTEX_POINT('',#2166);
#668=VERTEX_POINT('',#2168);
#669=VERTEX_POINT('',#2178);
#670=VERTEX_POINT('',#2179);
#671=VERTEX_POINT('',#2181);
#672=VERTEX_POINT('',#2183);
#673=VERTEX_POINT('',#2187);
#674=VERTEX_POINT('',#2189);
#675=VERTEX_POINT('',#2193);
#676=VERTEX_POINT('',#2195);
#677=VERTEX_POINT('',#2203);
#678=VERTEX_POINT('',#2204);
#679=VERTEX_POINT('',#2206);
#680=VERTEX_POINT('',#2208);
#681=VERTEX_POINT('',#2212);
#682=VERTEX_POINT('',#2214);
#683=VERTEX_POINT('',#2218);
#684=VERTEX_POINT('',#2220);
#685=VERTEX_POINT('',#2226);
#686=VERTEX_POINT('',#2228);
#687=VERTEX_POINT('',#2230);
#688=VERTEX_POINT('',#2232);
#689=VERTEX_POINT('',#2234);
#690=VERTEX_POINT('',#2236);
#691=VERTEX_POINT('',#2238);
#692=VERTEX_POINT('',#2240);
#693=VERTEX_POINT('',#2245);
#694=VERTEX_POINT('',#2246);
#695=VERTEX_POINT('',#2248);
#696=VERTEX_POINT('',#2250);
#697=VERTEX_POINT('',#2254);
#698=VERTEX_POINT('',#2256);
#699=VERTEX_POINT('',#2260);
#700=VERTEX_POINT('',#2264);
#701=VERTEX_POINT('',#2271);
#702=VERTEX_POINT('',#2273);
#703=VERTEX_POINT('',#2277);
#704=VERTEX_POINT('',#2279);
#705=VERTEX_POINT('',#2281);
#706=VERTEX_POINT('',#2283);
#707=VERTEX_POINT('',#2285);
#708=VERTEX_POINT('',#2287);
#709=VERTEX_POINT('',#2291);
#710=VERTEX_POINT('',#2293);
#711=VERTEX_POINT('',#2297);
#712=VERTEX_POINT('',#2301);
#713=VERTEX_POINT('',#2308);
#714=VERTEX_POINT('',#2312);
#715=VERTEX_POINT('',#2319);
#716=VERTEX_POINT('',#2321);
#717=VERTEX_POINT('',#2325);
#718=VERTEX_POINT('',#2327);
#719=VERTEX_POINT('',#2331);
#720=VERTEX_POINT('',#2333);
#721=VERTEX_POINT('',#2337);
#722=VERTEX_POINT('',#2339);
#723=VERTEX_POINT('',#2343);
#724=VERTEX_POINT('',#2345);
#725=VERTEX_POINT('',#2349);
#726=VERTEX_POINT('',#2351);
#727=VERTEX_POINT('',#2355);
#728=VERTEX_POINT('',#2357);
#729=VERTEX_POINT('',#2361);
#730=VERTEX_POINT('',#2363);
#731=VERTEX_POINT('',#2390);
#732=VERTEX_POINT('',#2394);
#733=VERTEX_POINT('',#2398);
#734=VERTEX_POINT('',#2400);
#735=VERTEX_POINT('',#2402);
#736=VERTEX_POINT('',#2404);
#737=EDGE_CURVE('',#599,#600,#199,.T.);
#738=EDGE_CURVE('',#600,#601,#200,.T.);
#739=EDGE_CURVE('',#601,#602,#201,.T.);
#740=EDGE_CURVE('',#602,#603,#202,.T.);
#741=EDGE_CURVE('',#599,#603,#203,.T.);
#742=EDGE_CURVE('',#604,#599,#204,.T.);
#743=EDGE_CURVE('',#603,#605,#205,.T.);
#744=EDGE_CURVE('',#606,#605,#206,.T.);
#745=EDGE_CURVE('',#607,#606,#207,.T.);
#746=EDGE_CURVE('',#608,#607,#208,.T.);
#747=EDGE_CURVE('',#608,#609,#209,.T.);
#748=EDGE_CURVE('',#609,#604,#210,.T.);
#749=EDGE_CURVE('',#610,#604,#211,.T.);
#750=EDGE_CURVE('',#609,#611,#212,.T.);
#751=EDGE_CURVE('',#611,#612,#213,.T.);
#752=EDGE_CURVE('',#612,#610,#214,.T.);
#753=EDGE_CURVE('',#600,#610,#215,.T.);
#754=EDGE_CURVE('',#612,#601,#216,.T.);
#755=EDGE_CURVE('',#613,#614,#217,.T.);
#756=EDGE_CURVE('',#614,#615,#218,.T.);
#757=EDGE_CURVE('',#616,#615,#219,.T.);
#758=EDGE_CURVE('',#616,#613,#220,.T.);
#759=EDGE_CURVE('',#617,#618,#221,.T.);
#760=EDGE_CURVE('',#617,#619,#222,.T.);
#761=EDGE_CURVE('',#619,#620,#223,.T.);
#762=EDGE_CURVE('',#620,#618,#224,.T.);
#763=EDGE_CURVE('',#621,#622,#225,.T.);
#764=EDGE_CURVE('',#623,#622,#226,.T.);
#765=EDGE_CURVE('',#623,#624,#227,.T.);
#766=EDGE_CURVE('',#624,#621,#228,.T.);
#767=EDGE_CURVE('',#625,#626,#229,.T.);
#768=EDGE_CURVE('',#627,#626,#230,.T.);
#769=EDGE_CURVE('',#627,#628,#231,.T.);
#770=EDGE_CURVE('',#628,#625,#232,.T.);
#771=EDGE_CURVE('',#629,#630,#15,.T.);
#772=EDGE_CURVE('',#630,#631,#233,.T.);
#773=EDGE_CURVE('',#631,#632,#16,.T.);
#774=EDGE_CURVE('',#632,#629,#234,.T.);
#775=EDGE_CURVE('',#630,#633,#235,.T.);
#776=EDGE_CURVE('',#633,#634,#236,.T.);
#777=EDGE_CURVE('',#634,#631,#237,.T.);
#778=EDGE_CURVE('',#635,#636,#17,.T.);
#779=EDGE_CURVE('',#636,#637,#238,.T.);
#780=EDGE_CURVE('',#637,#638,#18,.T.);
#781=EDGE_CURVE('',#638,#635,#239,.T.);
#782=EDGE_CURVE('',#636,#639,#240,.T.);
#783=EDGE_CURVE('',#639,#640,#241,.T.);
#784=EDGE_CURVE('',#640,#637,#242,.T.);
#785=EDGE_CURVE('',#641,#632,#243,.T.);
#786=EDGE_CURVE('',#642,#641,#244,.T.);
#787=EDGE_CURVE('',#642,#629,#245,.T.);
#788=EDGE_CURVE('',#638,#643,#246,.T.);
#789=EDGE_CURVE('',#644,#643,#247,.T.);
#790=EDGE_CURVE('',#635,#644,#248,.T.);
#791=EDGE_CURVE('',#645,#646,#249,.T.);
#792=EDGE_CURVE('',#647,#645,#250,.T.);
#793=EDGE_CURVE('',#648,#647,#251,.T.);
#794=EDGE_CURVE('',#646,#648,#252,.T.);
#795=EDGE_CURVE('',#645,#649,#253,.T.);
#796=EDGE_CURVE('',#649,#650,#254,.T.);
#797=EDGE_CURVE('',#647,#650,#255,.T.);
#798=EDGE_CURVE('',#651,#652,#256,.T.);
#799=EDGE_CURVE('',#652,#653,#257,.T.);
#800=EDGE_CURVE('',#653,#654,#258,.T.);
#801=EDGE_CURVE('',#654,#651,#259,.T.);
#802=EDGE_CURVE('',#648,#655,#260,.T.);
#803=EDGE_CURVE('',#655,#656,#261,.T.);
#804=EDGE_CURVE('',#646,#656,#262,.T.);
#805=EDGE_CURVE('',#657,#651,#263,.T.);
#806=EDGE_CURVE('',#657,#649,#264,.T.);
#807=EDGE_CURVE('',#656,#658,#265,.T.);
#808=EDGE_CURVE('',#652,#658,#266,.T.);
#809=EDGE_CURVE('',#659,#660,#267,.T.);
#810=EDGE_CURVE('',#661,#659,#268,.T.);
#811=EDGE_CURVE('',#661,#655,#269,.T.);
#812=EDGE_CURVE('',#650,#662,#270,.T.);
#813=EDGE_CURVE('',#660,#662,#271,.T.);
#814=EDGE_CURVE('',#663,#659,#272,.T.);
#815=EDGE_CURVE('',#664,#663,#273,.T.);
#816=EDGE_CURVE('',#661,#664,#274,.T.);
#817=EDGE_CURVE('',#665,#658,#275,.T.);
#818=EDGE_CURVE('',#665,#653,#276,.T.);
#819=EDGE_CURVE('',#666,#654,#277,.T.);
#820=EDGE_CURVE('',#657,#666,#278,.T.);
#821=EDGE_CURVE('',#667,#662,#279,.T.);
#822=EDGE_CURVE('',#667,#668,#280,.T.);
#823=EDGE_CURVE('',#660,#668,#281,.T.);
#824=EDGE_CURVE('',#664,#667,#282,.T.);
#825=EDGE_CURVE('',#668,#663,#283,.T.);
#826=EDGE_CURVE('',#666,#665,#284,.T.);
#827=EDGE_CURVE('',#669,#670,#285,.T.);
#828=EDGE_CURVE('',#669,#671,#286,.T.);
#829=EDGE_CURVE('',#672,#671,#287,.T.);
#830=EDGE_CURVE('',#670,#672,#288,.T.);
#831=EDGE_CURVE('',#670,#673,#289,.T.);
#832=EDGE_CURVE('',#674,#672,#290,.T.);
#833=EDGE_CURVE('',#673,#674,#291,.T.);
#834=EDGE_CURVE('',#673,#675,#292,.T.);
#835=EDGE_CURVE('',#676,#674,#293,.T.);
#836=EDGE_CURVE('',#675,#676,#294,.T.);
#837=EDGE_CURVE('',#675,#669,#295,.T.);
#838=EDGE_CURVE('',#671,#676,#296,.T.);
#839=EDGE_CURVE('',#677,#678,#297,.T.);
#840=EDGE_CURVE('',#679,#677,#298,.T.);
#841=EDGE_CURVE('',#680,#679,#299,.T.);
#842=EDGE_CURVE('',#678,#680,#300,.T.);
#843=EDGE_CURVE('',#678,#681,#301,.T.);
#844=EDGE_CURVE('',#682,#680,#302,.T.);
#845=EDGE_CURVE('',#681,#682,#303,.T.);
#846=EDGE_CURVE('',#681,#683,#304,.T.);
#847=EDGE_CURVE('',#684,#682,#305,.T.);
#848=EDGE_CURVE('',#683,#684,#306,.T.);
#849=EDGE_CURVE('',#684,#679,#307,.T.);
#850=EDGE_CURVE('',#683,#685,#308,.T.);
#851=EDGE_CURVE('',#685,#686,#309,.T.);
#852=EDGE_CURVE('',#686,#687,#310,.T.);
#853=EDGE_CURVE('',#687,#688,#311,.T.);
#854=EDGE_CURVE('',#688,#689,#312,.T.);
#855=EDGE_CURVE('',#689,#690,#313,.T.);
#856=EDGE_CURVE('',#690,#691,#314,.T.);
#857=EDGE_CURVE('',#691,#692,#315,.T.);
#858=EDGE_CURVE('',#692,#603,#316,.T.);
#859=EDGE_CURVE('',#602,#611,#317,.T.);
#860=EDGE_CURVE('',#609,#677,#318,.T.);
#861=EDGE_CURVE('',#693,#694,#319,.T.);
#862=EDGE_CURVE('',#694,#695,#320,.T.);
#863=EDGE_CURVE('',#695,#696,#321,.T.);
#864=EDGE_CURVE('',#696,#693,#322,.T.);
#865=EDGE_CURVE('',#690,#697,#323,.T.);
#866=EDGE_CURVE('',#698,#697,#324,.T.);
#867=EDGE_CURVE('',#691,#698,#325,.T.);
#868=EDGE_CURVE('',#699,#698,#326,.T.);
#869=EDGE_CURVE('',#692,#699,#327,.T.);
#870=EDGE_CURVE('',#700,#689,#328,.T.);
#871=EDGE_CURVE('',#697,#700,#329,.T.);
#872=EDGE_CURVE('',#699,#700,#330,.T.);
#873=EDGE_CURVE('',#605,#640,#331,.T.);
#874=EDGE_CURVE('',#688,#701,#332,.T.);
#875=EDGE_CURVE('',#701,#702,#333,.T.);
#876=EDGE_CURVE('',#702,#685,#334,.T.);
#877=EDGE_CURVE('',#633,#608,#335,.T.);
#878=EDGE_CURVE('',#703,#642,#19,.T.);
#879=EDGE_CURVE('',#704,#703,#336,.T.);
#880=EDGE_CURVE('',#705,#704,#337,.T.);
#881=EDGE_CURVE('',#706,#705,#338,.T.);
#882=EDGE_CURVE('',#707,#706,#339,.T.);
#883=EDGE_CURVE('',#708,#707,#340,.T.);
#884=EDGE_CURVE('',#643,#708,#20,.T.);
#885=EDGE_CURVE('',#693,#709,#341,.T.);
#886=EDGE_CURVE('',#710,#709,#342,.T.);
#887=EDGE_CURVE('',#694,#710,#343,.T.);
#888=EDGE_CURVE('',#711,#710,#344,.T.);
#889=EDGE_CURVE('',#695,#711,#345,.T.);
#890=EDGE_CURVE('',#712,#711,#346,.T.);
#891=EDGE_CURVE('',#696,#712,#347,.T.);
#892=EDGE_CURVE('',#709,#712,#348,.T.);
#893=EDGE_CURVE('',#713,#702,#349,.T.);
#894=EDGE_CURVE('',#686,#713,#350,.T.);
#895=EDGE_CURVE('',#714,#713,#351,.T.);
#896=EDGE_CURVE('',#687,#714,#352,.T.);
#897=EDGE_CURVE('',#701,#714,#353,.T.);
#898=EDGE_CURVE('',#715,#628,#354,.T.);
#899=EDGE_CURVE('',#716,#715,#355,.T.);
#900=EDGE_CURVE('',#625,#716,#356,.T.);
#901=EDGE_CURVE('',#617,#717,#357,.T.);
#902=EDGE_CURVE('',#718,#618,#358,.T.);
#903=EDGE_CURVE('',#717,#718,#359,.T.);
#904=EDGE_CURVE('',#719,#613,#360,.T.);
#905=EDGE_CURVE('',#720,#719,#361,.T.);
#906=EDGE_CURVE('',#614,#720,#362,.T.);
#907=EDGE_CURVE('',#721,#624,#363,.T.);
#908=EDGE_CURVE('',#722,#721,#364,.T.);
#909=EDGE_CURVE('',#621,#722,#365,.T.);
#910=EDGE_CURVE('',#627,#723,#366,.T.);
#911=EDGE_CURVE('',#724,#626,#367,.T.);
#912=EDGE_CURVE('',#723,#724,#368,.T.);
#913=EDGE_CURVE('',#725,#619,#369,.T.);
#914=EDGE_CURVE('',#726,#725,#370,.T.);
#915=EDGE_CURVE('',#620,#726,#371,.T.);
#916=EDGE_CURVE('',#616,#727,#372,.T.);
#917=EDGE_CURVE('',#728,#615,#373,.T.);
#918=EDGE_CURVE('',#727,#728,#374,.T.);
#919=EDGE_CURVE('',#623,#729,#375,.T.);
#920=EDGE_CURVE('',#730,#622,#376,.T.);
#921=EDGE_CURVE('',#729,#730,#377,.T.);
#922=EDGE_CURVE('',#721,#729,#378,.T.);
#923=EDGE_CURVE('',#715,#723,#379,.T.);
#924=EDGE_CURVE('',#719,#727,#380,.T.);
#925=EDGE_CURVE('',#730,#722,#381,.T.);
#926=EDGE_CURVE('',#724,#716,#382,.T.);
#927=EDGE_CURVE('',#728,#720,#383,.T.);
#928=EDGE_CURVE('',#718,#726,#384,.T.);
#929=EDGE_CURVE('',#725,#717,#385,.T.);
#930=EDGE_CURVE('',#607,#634,#386,.T.);
#931=EDGE_CURVE('',#639,#606,#387,.T.);
#932=EDGE_CURVE('',#708,#731,#388,.T.);
#933=EDGE_CURVE('',#731,#644,#21,.T.);
#934=EDGE_CURVE('',#732,#707,#389,.T.);
#935=EDGE_CURVE('',#731,#732,#390,.T.);
#936=EDGE_CURVE('',#732,#733,#391,.T.);
#937=EDGE_CURVE('',#734,#733,#392,.T.);
#938=EDGE_CURVE('',#734,#735,#393,.T.);
#939=EDGE_CURVE('',#735,#736,#394,.T.);
#940=EDGE_CURVE('',#641,#736,#22,.T.);
#941=EDGE_CURVE('',#736,#703,#395,.T.);
#942=EDGE_CURVE('',#704,#735,#396,.T.);
#943=EDGE_CURVE('',#733,#706,#397,.T.);
#944=EDGE_CURVE('',#705,#734,#398,.T.);
#945=ORIENTED_EDGE('',*,*,#737,.T.);
#946=ORIENTED_EDGE('',*,*,#738,.T.);
#947=ORIENTED_EDGE('',*,*,#739,.T.);
#948=ORIENTED_EDGE('',*,*,#740,.T.);
#949=ORIENTED_EDGE('',*,*,#741,.F.);
#950=ORIENTED_EDGE('',*,*,#742,.T.);
#951=ORIENTED_EDGE('',*,*,#741,.T.);
#952=ORIENTED_EDGE('',*,*,#743,.T.);
#953=ORIENTED_EDGE('',*,*,#744,.F.);
#954=ORIENTED_EDGE('',*,*,#745,.F.);
#955=ORIENTED_EDGE('',*,*,#746,.F.);
#956=ORIENTED_EDGE('',*,*,#747,.T.);
#957=ORIENTED_EDGE('',*,*,#748,.T.);
#958=ORIENTED_EDGE('',*,*,#749,.T.);
#959=ORIENTED_EDGE('',*,*,#748,.F.);
#960=ORIENTED_EDGE('',*,*,#750,.T.);
#961=ORIENTED_EDGE('',*,*,#751,.T.);
#962=ORIENTED_EDGE('',*,*,#752,.T.);
#963=ORIENTED_EDGE('',*,*,#753,.F.);
#964=ORIENTED_EDGE('',*,*,#737,.F.);
#965=ORIENTED_EDGE('',*,*,#742,.F.);
#966=ORIENTED_EDGE('',*,*,#749,.F.);
#967=ORIENTED_EDGE('',*,*,#753,.T.);
#968=ORIENTED_EDGE('',*,*,#752,.F.);
#969=ORIENTED_EDGE('',*,*,#754,.T.);
#970=ORIENTED_EDGE('',*,*,#738,.F.);
#971=ORIENTED_EDGE('',*,*,#755,.T.);
#972=ORIENTED_EDGE('',*,*,#756,.T.);
#973=ORIENTED_EDGE('',*,*,#757,.F.);
#974=ORIENTED_EDGE('',*,*,#758,.T.);
#975=ORIENTED_EDGE('',*,*,#759,.F.);
#976=ORIENTED_EDGE('',*,*,#760,.T.);
#977=ORIENTED_EDGE('',*,*,#761,.T.);
#978=ORIENTED_EDGE('',*,*,#762,.T.);
#979=ORIENTED_EDGE('',*,*,#763,.T.);
#980=ORIENTED_EDGE('',*,*,#764,.F.);
#981=ORIENTED_EDGE('',*,*,#765,.T.);
#982=ORIENTED_EDGE('',*,*,#766,.T.);
#983=ORIENTED_EDGE('',*,*,#767,.T.);
#984=ORIENTED_EDGE('',*,*,#768,.F.);
#985=ORIENTED_EDGE('',*,*,#769,.T.);
#986=ORIENTED_EDGE('',*,*,#770,.T.);
#987=ORIENTED_EDGE('',*,*,#771,.T.);
#988=ORIENTED_EDGE('',*,*,#772,.T.);
#989=ORIENTED_EDGE('',*,*,#773,.T.);
#990=ORIENTED_EDGE('',*,*,#774,.T.);
#991=ORIENTED_EDGE('',*,*,#772,.F.);
#992=ORIENTED_EDGE('',*,*,#775,.T.);
#993=ORIENTED_EDGE('',*,*,#776,.T.);
#994=ORIENTED_EDGE('',*,*,#777,.T.);
#995=ORIENTED_EDGE('',*,*,#778,.T.);
#996=ORIENTED_EDGE('',*,*,#779,.T.);
#997=ORIENTED_EDGE('',*,*,#780,.T.);
#998=ORIENTED_EDGE('',*,*,#781,.T.);
#999=ORIENTED_EDGE('',*,*,#779,.F.);
#1000=ORIENTED_EDGE('',*,*,#782,.T.);
#1001=ORIENTED_EDGE('',*,*,#783,.T.);
#1002=ORIENTED_EDGE('',*,*,#784,.T.);
#1003=ORIENTED_EDGE('',*,*,#774,.F.);
#1004=ORIENTED_EDGE('',*,*,#785,.F.);
#1005=ORIENTED_EDGE('',*,*,#786,.F.);
#1006=ORIENTED_EDGE('',*,*,#787,.T.);
#1007=ORIENTED_EDGE('',*,*,#781,.F.);
#1008=ORIENTED_EDGE('',*,*,#788,.T.);
#1009=ORIENTED_EDGE('',*,*,#789,.F.);
#1010=ORIENTED_EDGE('',*,*,#790,.F.);
#1011=ORIENTED_EDGE('',*,*,#791,.F.);
#1012=ORIENTED_EDGE('',*,*,#792,.F.);
#1013=ORIENTED_EDGE('',*,*,#793,.F.);
#1014=ORIENTED_EDGE('',*,*,#794,.F.);
#1015=ORIENTED_EDGE('',*,*,#792,.T.);
#1016=ORIENTED_EDGE('',*,*,#795,.T.);
#1017=ORIENTED_EDGE('',*,*,#796,.T.);
#1018=ORIENTED_EDGE('',*,*,#797,.F.);
#1019=ORIENTED_EDGE('',*,*,#798,.T.);
#1020=ORIENTED_EDGE('',*,*,#799,.T.);
#1021=ORIENTED_EDGE('',*,*,#800,.T.);
#1022=ORIENTED_EDGE('',*,*,#801,.T.);
#1023=ORIENTED_EDGE('',*,*,#794,.T.);
#1024=ORIENTED_EDGE('',*,*,#802,.T.);
#1025=ORIENTED_EDGE('',*,*,#803,.T.);
#1026=ORIENTED_EDGE('',*,*,#804,.F.);
#1027=ORIENTED_EDGE('',*,*,#798,.F.);
#1028=ORIENTED_EDGE('',*,*,#805,.F.);
#1029=ORIENTED_EDGE('',*,*,#806,.T.);
#1030=ORIENTED_EDGE('',*,*,#795,.F.);
#1031=ORIENTED_EDGE('',*,*,#791,.T.);
#1032=ORIENTED_EDGE('',*,*,#804,.T.);
#1033=ORIENTED_EDGE('',*,*,#807,.T.);
#1034=ORIENTED_EDGE('',*,*,#808,.F.);
#1035=ORIENTED_EDGE('',*,*,#809,.F.);
#1036=ORIENTED_EDGE('',*,*,#810,.F.);
#1037=ORIENTED_EDGE('',*,*,#811,.T.);
#1038=ORIENTED_EDGE('',*,*,#802,.F.);
#1039=ORIENTED_EDGE('',*,*,#793,.T.);
#1040=ORIENTED_EDGE('',*,*,#797,.T.);
#1041=ORIENTED_EDGE('',*,*,#812,.T.);
#1042=ORIENTED_EDGE('',*,*,#813,.F.);
#1043=ORIENTED_EDGE('',*,*,#810,.T.);
#1044=ORIENTED_EDGE('',*,*,#814,.F.);
#1045=ORIENTED_EDGE('',*,*,#815,.F.);
#1046=ORIENTED_EDGE('',*,*,#816,.F.);
#1047=ORIENTED_EDGE('',*,*,#808,.T.);
#1048=ORIENTED_EDGE('',*,*,#817,.F.);
#1049=ORIENTED_EDGE('',*,*,#818,.T.);
#1050=ORIENTED_EDGE('',*,*,#799,.F.);
#1051=ORIENTED_EDGE('',*,*,#805,.T.);
#1052=ORIENTED_EDGE('',*,*,#801,.F.);
#1053=ORIENTED_EDGE('',*,*,#819,.F.);
#1054=ORIENTED_EDGE('',*,*,#820,.F.);
#1055=ORIENTED_EDGE('',*,*,#813,.T.);
#1056=ORIENTED_EDGE('',*,*,#821,.F.);
#1057=ORIENTED_EDGE('',*,*,#822,.T.);
#1058=ORIENTED_EDGE('',*,*,#823,.F.);
#1059=ORIENTED_EDGE('',*,*,#824,.F.);
#1060=ORIENTED_EDGE('',*,*,#815,.T.);
#1061=ORIENTED_EDGE('',*,*,#825,.F.);
#1062=ORIENTED_EDGE('',*,*,#822,.F.);
#1063=ORIENTED_EDGE('',*,*,#826,.F.);
#1064=ORIENTED_EDGE('',*,*,#819,.T.);
#1065=ORIENTED_EDGE('',*,*,#800,.F.);
#1066=ORIENTED_EDGE('',*,*,#818,.F.);
#1067=ORIENTED_EDGE('',*,*,#809,.T.);
#1068=ORIENTED_EDGE('',*,*,#823,.T.);
#1069=ORIENTED_EDGE('',*,*,#825,.T.);
#1070=ORIENTED_EDGE('',*,*,#814,.T.);
#1071=ORIENTED_EDGE('',*,*,#827,.F.);
#1072=ORIENTED_EDGE('',*,*,#828,.T.);
#1073=ORIENTED_EDGE('',*,*,#829,.F.);
#1074=ORIENTED_EDGE('',*,*,#830,.F.);
#1075=ORIENTED_EDGE('',*,*,#831,.F.);
#1076=ORIENTED_EDGE('',*,*,#830,.T.);
#1077=ORIENTED_EDGE('',*,*,#832,.F.);
#1078=ORIENTED_EDGE('',*,*,#833,.F.);
#1079=ORIENTED_EDGE('',*,*,#834,.F.);
#1080=ORIENTED_EDGE('',*,*,#833,.T.);
#1081=ORIENTED_EDGE('',*,*,#835,.F.);
#1082=ORIENTED_EDGE('',*,*,#836,.F.);
#1083=ORIENTED_EDGE('',*,*,#837,.F.);
#1084=ORIENTED_EDGE('',*,*,#836,.T.);
#1085=ORIENTED_EDGE('',*,*,#838,.F.);
#1086=ORIENTED_EDGE('',*,*,#828,.F.);
#1087=ORIENTED_EDGE('',*,*,#838,.T.);
#1088=ORIENTED_EDGE('',*,*,#835,.T.);
#1089=ORIENTED_EDGE('',*,*,#832,.T.);
#1090=ORIENTED_EDGE('',*,*,#829,.T.);
#1091=ORIENTED_EDGE('',*,*,#839,.F.);
#1092=ORIENTED_EDGE('',*,*,#840,.F.);
#1093=ORIENTED_EDGE('',*,*,#841,.F.);
#1094=ORIENTED_EDGE('',*,*,#842,.F.);
#1095=ORIENTED_EDGE('',*,*,#843,.F.);
#1096=ORIENTED_EDGE('',*,*,#842,.T.);
#1097=ORIENTED_EDGE('',*,*,#844,.F.);
#1098=ORIENTED_EDGE('',*,*,#845,.F.);
#1099=ORIENTED_EDGE('',*,*,#846,.F.);
#1100=ORIENTED_EDGE('',*,*,#845,.T.);
#1101=ORIENTED_EDGE('',*,*,#847,.F.);
#1102=ORIENTED_EDGE('',*,*,#848,.F.);
#1103=ORIENTED_EDGE('',*,*,#849,.F.);
#1104=ORIENTED_EDGE('',*,*,#847,.T.);
#1105=ORIENTED_EDGE('',*,*,#844,.T.);
#1106=ORIENTED_EDGE('',*,*,#841,.T.);
#1107=ORIENTED_EDGE('',*,*,#839,.T.);
#1108=ORIENTED_EDGE('',*,*,#843,.T.);
#1109=ORIENTED_EDGE('',*,*,#846,.T.);
#1110=ORIENTED_EDGE('',*,*,#850,.T.);
#1111=ORIENTED_EDGE('',*,*,#851,.T.);
#1112=ORIENTED_EDGE('',*,*,#852,.T.);
#1113=ORIENTED_EDGE('',*,*,#853,.T.);
#1114=ORIENTED_EDGE('',*,*,#854,.T.);
#1115=ORIENTED_EDGE('',*,*,#855,.T.);
#1116=ORIENTED_EDGE('',*,*,#856,.T.);
#1117=ORIENTED_EDGE('',*,*,#857,.T.);
#1118=ORIENTED_EDGE('',*,*,#858,.T.);
#1119=ORIENTED_EDGE('',*,*,#740,.F.);
#1120=ORIENTED_EDGE('',*,*,#859,.T.);
#1121=ORIENTED_EDGE('',*,*,#750,.F.);
#1122=ORIENTED_EDGE('',*,*,#860,.T.);
#1123=ORIENTED_EDGE('',*,*,#861,.T.);
#1124=ORIENTED_EDGE('',*,*,#862,.T.);
#1125=ORIENTED_EDGE('',*,*,#863,.T.);
#1126=ORIENTED_EDGE('',*,*,#864,.T.);
#1127=ORIENTED_EDGE('',*,*,#856,.F.);
#1128=ORIENTED_EDGE('',*,*,#865,.T.);
#1129=ORIENTED_EDGE('',*,*,#866,.F.);
#1130=ORIENTED_EDGE('',*,*,#867,.F.);
#1131=ORIENTED_EDGE('',*,*,#857,.F.);
#1132=ORIENTED_EDGE('',*,*,#867,.T.);
#1133=ORIENTED_EDGE('',*,*,#868,.F.);
#1134=ORIENTED_EDGE('',*,*,#869,.F.);
#1135=ORIENTED_EDGE('',*,*,#855,.F.);
#1136=ORIENTED_EDGE('',*,*,#870,.F.);
#1137=ORIENTED_EDGE('',*,*,#871,.F.);
#1138=ORIENTED_EDGE('',*,*,#865,.F.);
#1139=ORIENTED_EDGE('',*,*,#871,.T.);
#1140=ORIENTED_EDGE('',*,*,#872,.F.);
#1141=ORIENTED_EDGE('',*,*,#868,.T.);
#1142=ORIENTED_EDGE('',*,*,#866,.T.);
#1143=ORIENTED_EDGE('',*,*,#873,.F.);
#1144=ORIENTED_EDGE('',*,*,#743,.F.);
#1145=ORIENTED_EDGE('',*,*,#858,.F.);
#1146=ORIENTED_EDGE('',*,*,#869,.T.);
#1147=ORIENTED_EDGE('',*,*,#872,.T.);
#1148=ORIENTED_EDGE('',*,*,#870,.T.);
#1149=ORIENTED_EDGE('',*,*,#854,.F.);
#1150=ORIENTED_EDGE('',*,*,#874,.T.);
#1151=ORIENTED_EDGE('',*,*,#875,.T.);
#1152=ORIENTED_EDGE('',*,*,#876,.T.);
#1153=ORIENTED_EDGE('',*,*,#850,.F.);
#1154=ORIENTED_EDGE('',*,*,#848,.T.);
#1155=ORIENTED_EDGE('',*,*,#849,.T.);
#1156=ORIENTED_EDGE('',*,*,#840,.T.);
#1157=ORIENTED_EDGE('',*,*,#860,.F.);
#1158=ORIENTED_EDGE('',*,*,#747,.F.);
#1159=ORIENTED_EDGE('',*,*,#877,.F.);
#1160=ORIENTED_EDGE('',*,*,#775,.F.);
#1161=ORIENTED_EDGE('',*,*,#771,.F.);
#1162=ORIENTED_EDGE('',*,*,#787,.F.);
#1163=ORIENTED_EDGE('',*,*,#878,.F.);
#1164=ORIENTED_EDGE('',*,*,#879,.F.);
#1165=ORIENTED_EDGE('',*,*,#880,.F.);
#1166=ORIENTED_EDGE('',*,*,#881,.F.);
#1167=ORIENTED_EDGE('',*,*,#882,.F.);
#1168=ORIENTED_EDGE('',*,*,#883,.F.);
#1169=ORIENTED_EDGE('',*,*,#884,.F.);
#1170=ORIENTED_EDGE('',*,*,#788,.F.);
#1171=ORIENTED_EDGE('',*,*,#780,.F.);
#1172=ORIENTED_EDGE('',*,*,#784,.F.);
#1173=ORIENTED_EDGE('',*,*,#817,.T.);
#1174=ORIENTED_EDGE('',*,*,#807,.F.);
#1175=ORIENTED_EDGE('',*,*,#803,.F.);
#1176=ORIENTED_EDGE('',*,*,#811,.F.);
#1177=ORIENTED_EDGE('',*,*,#816,.T.);
#1178=ORIENTED_EDGE('',*,*,#824,.T.);
#1179=ORIENTED_EDGE('',*,*,#821,.T.);
#1180=ORIENTED_EDGE('',*,*,#812,.F.);
#1181=ORIENTED_EDGE('',*,*,#796,.F.);
#1182=ORIENTED_EDGE('',*,*,#806,.F.);
#1183=ORIENTED_EDGE('',*,*,#820,.T.);
#1184=ORIENTED_EDGE('',*,*,#826,.T.);
#1185=ORIENTED_EDGE('',*,*,#827,.T.);
#1186=ORIENTED_EDGE('',*,*,#831,.T.);
#1187=ORIENTED_EDGE('',*,*,#834,.T.);
#1188=ORIENTED_EDGE('',*,*,#837,.T.);
#1189=ORIENTED_EDGE('',*,*,#861,.F.);
#1190=ORIENTED_EDGE('',*,*,#885,.T.);
#1191=ORIENTED_EDGE('',*,*,#886,.F.);
#1192=ORIENTED_EDGE('',*,*,#887,.F.);
#1193=ORIENTED_EDGE('',*,*,#862,.F.);
#1194=ORIENTED_EDGE('',*,*,#887,.T.);
#1195=ORIENTED_EDGE('',*,*,#888,.F.);
#1196=ORIENTED_EDGE('',*,*,#889,.F.);
#1197=ORIENTED_EDGE('',*,*,#863,.F.);
#1198=ORIENTED_EDGE('',*,*,#889,.T.);
#1199=ORIENTED_EDGE('',*,*,#890,.F.);
#1200=ORIENTED_EDGE('',*,*,#891,.F.);
#1201=ORIENTED_EDGE('',*,*,#864,.F.);
#1202=ORIENTED_EDGE('',*,*,#891,.T.);
#1203=ORIENTED_EDGE('',*,*,#892,.F.);
#1204=ORIENTED_EDGE('',*,*,#885,.F.);
#1205=ORIENTED_EDGE('',*,*,#892,.T.);
#1206=ORIENTED_EDGE('',*,*,#890,.T.);
#1207=ORIENTED_EDGE('',*,*,#888,.T.);
#1208=ORIENTED_EDGE('',*,*,#886,.T.);
#1209=ORIENTED_EDGE('',*,*,#851,.F.);
#1210=ORIENTED_EDGE('',*,*,#876,.F.);
#1211=ORIENTED_EDGE('',*,*,#893,.F.);
#1212=ORIENTED_EDGE('',*,*,#894,.F.);
#1213=ORIENTED_EDGE('',*,*,#852,.F.);
#1214=ORIENTED_EDGE('',*,*,#894,.T.);
#1215=ORIENTED_EDGE('',*,*,#895,.F.);
#1216=ORIENTED_EDGE('',*,*,#896,.F.);
#1217=ORIENTED_EDGE('',*,*,#853,.F.);
#1218=ORIENTED_EDGE('',*,*,#896,.T.);
#1219=ORIENTED_EDGE('',*,*,#897,.F.);
#1220=ORIENTED_EDGE('',*,*,#874,.F.);
#1221=ORIENTED_EDGE('',*,*,#875,.F.);
#1222=ORIENTED_EDGE('',*,*,#897,.T.);
#1223=ORIENTED_EDGE('',*,*,#895,.T.);
#1224=ORIENTED_EDGE('',*,*,#893,.T.);
#1225=ORIENTED_EDGE('',*,*,#898,.F.);
#1226=ORIENTED_EDGE('',*,*,#899,.F.);
#1227=ORIENTED_EDGE('',*,*,#900,.F.);
#1228=ORIENTED_EDGE('',*,*,#770,.F.);
#1229=ORIENTED_EDGE('',*,*,#901,.F.);
#1230=ORIENTED_EDGE('',*,*,#759,.T.);
#1231=ORIENTED_EDGE('',*,*,#902,.F.);
#1232=ORIENTED_EDGE('',*,*,#903,.F.);
#1233=ORIENTED_EDGE('',*,*,#904,.F.);
#1234=ORIENTED_EDGE('',*,*,#905,.F.);
#1235=ORIENTED_EDGE('',*,*,#906,.F.);
#1236=ORIENTED_EDGE('',*,*,#755,.F.);
#1237=ORIENTED_EDGE('',*,*,#907,.F.);
#1238=ORIENTED_EDGE('',*,*,#908,.F.);
#1239=ORIENTED_EDGE('',*,*,#909,.F.);
#1240=ORIENTED_EDGE('',*,*,#766,.F.);
#1241=ORIENTED_EDGE('',*,*,#910,.F.);
#1242=ORIENTED_EDGE('',*,*,#768,.T.);
#1243=ORIENTED_EDGE('',*,*,#911,.F.);
#1244=ORIENTED_EDGE('',*,*,#912,.F.);
#1245=ORIENTED_EDGE('',*,*,#913,.F.);
#1246=ORIENTED_EDGE('',*,*,#914,.F.);
#1247=ORIENTED_EDGE('',*,*,#915,.F.);
#1248=ORIENTED_EDGE('',*,*,#761,.F.);
#1249=ORIENTED_EDGE('',*,*,#916,.F.);
#1250=ORIENTED_EDGE('',*,*,#757,.T.);
#1251=ORIENTED_EDGE('',*,*,#917,.F.);
#1252=ORIENTED_EDGE('',*,*,#918,.F.);
#1253=ORIENTED_EDGE('',*,*,#919,.F.);
#1254=ORIENTED_EDGE('',*,*,#764,.T.);
#1255=ORIENTED_EDGE('',*,*,#920,.F.);
#1256=ORIENTED_EDGE('',*,*,#921,.F.);
#1257=ORIENTED_EDGE('',*,*,#907,.T.);
#1258=ORIENTED_EDGE('',*,*,#765,.F.);
#1259=ORIENTED_EDGE('',*,*,#919,.T.);
#1260=ORIENTED_EDGE('',*,*,#922,.F.);
#1261=ORIENTED_EDGE('',*,*,#898,.T.);
#1262=ORIENTED_EDGE('',*,*,#769,.F.);
#1263=ORIENTED_EDGE('',*,*,#910,.T.);
#1264=ORIENTED_EDGE('',*,*,#923,.F.);
#1265=ORIENTED_EDGE('',*,*,#904,.T.);
#1266=ORIENTED_EDGE('',*,*,#758,.F.);
#1267=ORIENTED_EDGE('',*,*,#916,.T.);
#1268=ORIENTED_EDGE('',*,*,#924,.F.);
#1269=ORIENTED_EDGE('',*,*,#908,.T.);
#1270=ORIENTED_EDGE('',*,*,#922,.T.);
#1271=ORIENTED_EDGE('',*,*,#921,.T.);
#1272=ORIENTED_EDGE('',*,*,#925,.T.);
#1273=ORIENTED_EDGE('',*,*,#899,.T.);
#1274=ORIENTED_EDGE('',*,*,#923,.T.);
#1275=ORIENTED_EDGE('',*,*,#912,.T.);
#1276=ORIENTED_EDGE('',*,*,#926,.T.);
#1277=ORIENTED_EDGE('',*,*,#905,.T.);
#1278=ORIENTED_EDGE('',*,*,#924,.T.);
#1279=ORIENTED_EDGE('',*,*,#918,.T.);
#1280=ORIENTED_EDGE('',*,*,#927,.T.);
#1281=ORIENTED_EDGE('',*,*,#909,.T.);
#1282=ORIENTED_EDGE('',*,*,#925,.F.);
#1283=ORIENTED_EDGE('',*,*,#920,.T.);
#1284=ORIENTED_EDGE('',*,*,#763,.F.);
#1285=ORIENTED_EDGE('',*,*,#900,.T.);
#1286=ORIENTED_EDGE('',*,*,#926,.F.);
#1287=ORIENTED_EDGE('',*,*,#911,.T.);
#1288=ORIENTED_EDGE('',*,*,#767,.F.);
#1289=ORIENTED_EDGE('',*,*,#906,.T.);
#1290=ORIENTED_EDGE('',*,*,#927,.F.);
#1291=ORIENTED_EDGE('',*,*,#917,.T.);
#1292=ORIENTED_EDGE('',*,*,#756,.F.);
#1293=ORIENTED_EDGE('',*,*,#902,.T.);
#1294=ORIENTED_EDGE('',*,*,#762,.F.);
#1295=ORIENTED_EDGE('',*,*,#915,.T.);
#1296=ORIENTED_EDGE('',*,*,#928,.F.);
#1297=ORIENTED_EDGE('',*,*,#903,.T.);
#1298=ORIENTED_EDGE('',*,*,#928,.T.);
#1299=ORIENTED_EDGE('',*,*,#914,.T.);
#1300=ORIENTED_EDGE('',*,*,#929,.T.);
#1301=ORIENTED_EDGE('',*,*,#877,.T.);
#1302=ORIENTED_EDGE('',*,*,#746,.T.);
#1303=ORIENTED_EDGE('',*,*,#930,.T.);
#1304=ORIENTED_EDGE('',*,*,#776,.F.);
#1305=ORIENTED_EDGE('',*,*,#873,.T.);
#1306=ORIENTED_EDGE('',*,*,#783,.F.);
#1307=ORIENTED_EDGE('',*,*,#931,.T.);
#1308=ORIENTED_EDGE('',*,*,#744,.T.);
#1309=ORIENTED_EDGE('',*,*,#884,.T.);
#1310=ORIENTED_EDGE('',*,*,#932,.T.);
#1311=ORIENTED_EDGE('',*,*,#933,.T.);
#1312=ORIENTED_EDGE('',*,*,#789,.T.);
#1313=ORIENTED_EDGE('',*,*,#883,.T.);
#1314=ORIENTED_EDGE('',*,*,#934,.F.);
#1315=ORIENTED_EDGE('',*,*,#935,.F.);
#1316=ORIENTED_EDGE('',*,*,#932,.F.);
#1317=ORIENTED_EDGE('',*,*,#745,.T.);
#1318=ORIENTED_EDGE('',*,*,#931,.F.);
#1319=ORIENTED_EDGE('',*,*,#782,.F.);
#1320=ORIENTED_EDGE('',*,*,#778,.F.);
#1321=ORIENTED_EDGE('',*,*,#790,.T.);
#1322=ORIENTED_EDGE('',*,*,#933,.F.);
#1323=ORIENTED_EDGE('',*,*,#935,.T.);
#1324=ORIENTED_EDGE('',*,*,#936,.T.);
#1325=ORIENTED_EDGE('',*,*,#937,.F.);
#1326=ORIENTED_EDGE('',*,*,#938,.T.);
#1327=ORIENTED_EDGE('',*,*,#939,.T.);
#1328=ORIENTED_EDGE('',*,*,#940,.F.);
#1329=ORIENTED_EDGE('',*,*,#785,.T.);
#1330=ORIENTED_EDGE('',*,*,#773,.F.);
#1331=ORIENTED_EDGE('',*,*,#777,.F.);
#1332=ORIENTED_EDGE('',*,*,#930,.F.);
#1333=ORIENTED_EDGE('',*,*,#878,.T.);
#1334=ORIENTED_EDGE('',*,*,#786,.T.);
#1335=ORIENTED_EDGE('',*,*,#940,.T.);
#1336=ORIENTED_EDGE('',*,*,#941,.T.);
#1337=ORIENTED_EDGE('',*,*,#879,.T.);
#1338=ORIENTED_EDGE('',*,*,#941,.F.);
#1339=ORIENTED_EDGE('',*,*,#939,.F.);
#1340=ORIENTED_EDGE('',*,*,#942,.F.);
#1341=ORIENTED_EDGE('',*,*,#754,.F.);
#1342=ORIENTED_EDGE('',*,*,#751,.F.);
#1343=ORIENTED_EDGE('',*,*,#859,.F.);
#1344=ORIENTED_EDGE('',*,*,#739,.F.);
#1345=ORIENTED_EDGE('',*,*,#901,.T.);
#1346=ORIENTED_EDGE('',*,*,#929,.F.);
#1347=ORIENTED_EDGE('',*,*,#913,.T.);
#1348=ORIENTED_EDGE('',*,*,#760,.F.);
#1349=ORIENTED_EDGE('',*,*,#882,.T.);
#1350=ORIENTED_EDGE('',*,*,#943,.F.);
#1351=ORIENTED_EDGE('',*,*,#936,.F.);
#1352=ORIENTED_EDGE('',*,*,#934,.T.);
#1353=ORIENTED_EDGE('',*,*,#880,.T.);
#1354=ORIENTED_EDGE('',*,*,#942,.T.);
#1355=ORIENTED_EDGE('',*,*,#938,.F.);
#1356=ORIENTED_EDGE('',*,*,#944,.F.);
#1357=ORIENTED_EDGE('',*,*,#881,.T.);
#1358=ORIENTED_EDGE('',*,*,#944,.T.);
#1359=ORIENTED_EDGE('',*,*,#937,.T.);
#1360=ORIENTED_EDGE('',*,*,#943,.T.);
#1361=PLANE('',#1529);
#1362=PLANE('',#1530);
#1363=PLANE('',#1531);
#1364=PLANE('',#1532);
#1365=PLANE('',#1533);
#1366=PLANE('',#1537);
#1367=PLANE('',#1541);
#1368=PLANE('',#1542);
#1369=PLANE('',#1543);
#1370=PLANE('',#1544);
#1371=PLANE('',#1545);
#1372=PLANE('',#1546);
#1373=PLANE('',#1547);
#1374=PLANE('',#1548);
#1375=PLANE('',#1549);
#1376=PLANE('',#1550);
#1377=PLANE('',#1551);
#1378=PLANE('',#1552);
#1379=PLANE('',#1553);
#1380=PLANE('',#1554);
#1381=PLANE('',#1555);
#1382=PLANE('',#1556);
#1383=PLANE('',#1557);
#1384=PLANE('',#1558);
#1385=PLANE('',#1559);
#1386=PLANE('',#1560);
#1387=PLANE('',#1561);
#1388=PLANE('',#1562);
#1389=PLANE('',#1563);
#1390=PLANE('',#1564);
#1391=PLANE('',#1565);
#1392=PLANE('',#1566);
#1393=PLANE('',#1567);
#1394=PLANE('',#1568);
#1395=PLANE('',#1569);
#1396=PLANE('',#1570);
#1397=PLANE('',#1571);
#1398=PLANE('',#1574);
#1399=PLANE('',#1575);
#1400=PLANE('',#1576);
#1401=PLANE('',#1577);
#1402=PLANE('',#1578);
#1403=PLANE('',#1579);
#1404=PLANE('',#1580);
#1405=PLANE('',#1581);
#1406=PLANE('',#1582);
#1407=PLANE('',#1583);
#1408=PLANE('',#1584);
#1409=PLANE('',#1585);
#1410=PLANE('',#1586);
#1411=PLANE('',#1587);
#1412=PLANE('',#1588);
#1413=PLANE('',#1589);
#1414=PLANE('',#1590);
#1415=PLANE('',#1591);
#1416=PLANE('',#1592);
#1417=PLANE('',#1593);
#1418=PLANE('',#1594);
#1419=PLANE('',#1595);
#1420=PLANE('',#1596);
#1421=PLANE('',#1597);
#1422=PLANE('',#1598);
#1423=PLANE('',#1599);
#1424=PLANE('',#1600);
#1425=PLANE('',#1601);
#1426=PLANE('',#1602);
#1427=PLANE('',#1603);
#1428=PLANE('',#1606);
#1429=PLANE('',#1607);
#1430=PLANE('',#1610);
#1431=PLANE('',#1611);
#1432=PLANE('',#1612);
#1433=PLANE('',#1613);
#1434=PLANE('',#1614);
#1435=PLANE('',#1615);
#1436=ADVANCED_FACE('',(#34),#1361,.T.);
#1437=ADVANCED_FACE('',(#35),#1362,.F.);
#1438=ADVANCED_FACE('',(#36),#1363,.T.);
#1439=ADVANCED_FACE('',(#37),#1364,.F.);
#1440=ADVANCED_FACE('',(#38,#27,#28,#29,#30),#1365,.F.);
#1441=ADVANCED_FACE('',(#39),#23,.F.);
#1442=ADVANCED_FACE('',(#40),#1366,.T.);
#1443=ADVANCED_FACE('',(#41),#24,.F.);
#1444=ADVANCED_FACE('',(#42),#1367,.T.);
#1445=ADVANCED_FACE('',(#43),#1368,.F.);
#1446=ADVANCED_FACE('',(#44),#1369,.F.);
#1447=ADVANCED_FACE('',(#45),#1370,.F.);
#1448=ADVANCED_FACE('',(#46),#1371,.F.);
#1449=ADVANCED_FACE('',(#47),#1372,.T.);
#1450=ADVANCED_FACE('',(#48),#1373,.F.);
#1451=ADVANCED_FACE('',(#49),#1374,.F.);
#1452=ADVANCED_FACE('',(#50),#1375,.F.);
#1453=ADVANCED_FACE('',(#51),#1376,.T.);
#1454=ADVANCED_FACE('',(#52),#1377,.T.);
#1455=ADVANCED_FACE('',(#53),#1378,.T.);
#1456=ADVANCED_FACE('',(#54),#1379,.T.);
#1457=ADVANCED_FACE('',(#55),#1380,.T.);
#1458=ADVANCED_FACE('',(#56),#1381,.T.);
#1459=ADVANCED_FACE('',(#57),#1382,.T.);
#1460=ADVANCED_FACE('',(#58),#1383,.T.);
#1461=ADVANCED_FACE('',(#59),#1384,.T.);
#1462=ADVANCED_FACE('',(#60),#1385,.T.);
#1463=ADVANCED_FACE('',(#61),#1386,.T.);
#1464=ADVANCED_FACE('',(#62),#1387,.T.);
#1465=ADVANCED_FACE('',(#63),#1388,.T.);
#1466=ADVANCED_FACE('',(#64),#1389,.T.);
#1467=ADVANCED_FACE('',(#65),#1390,.T.);
#1468=ADVANCED_FACE('',(#66),#1391,.T.);
#1469=ADVANCED_FACE('',(#67,#31),#1392,.F.);
#1470=ADVANCED_FACE('',(#68),#1393,.T.);
#1471=ADVANCED_FACE('',(#69),#1394,.T.);
#1472=ADVANCED_FACE('',(#70),#1395,.T.);
#1473=ADVANCED_FACE('',(#71),#1396,.T.);
#1474=ADVANCED_FACE('',(#72,#32,#33),#1397,.T.);
#1475=ADVANCED_FACE('',(#73),#1398,.T.);
#1476=ADVANCED_FACE('',(#74),#1399,.T.);
#1477=ADVANCED_FACE('',(#75),#1400,.T.);
#1478=ADVANCED_FACE('',(#76),#1401,.T.);
#1479=ADVANCED_FACE('',(#77),#1402,.T.);
#1480=ADVANCED_FACE('',(#78),#1403,.T.);
#1481=ADVANCED_FACE('',(#79),#1404,.T.);
#1482=ADVANCED_FACE('',(#80),#1405,.T.);
#1483=ADVANCED_FACE('',(#81),#1406,.T.);
#1484=ADVANCED_FACE('',(#82),#1407,.F.);
#1485=ADVANCED_FACE('',(#83),#1408,.F.);
#1486=ADVANCED_FACE('',(#84),#1409,.F.);
#1487=ADVANCED_FACE('',(#85),#1410,.F.);
#1488=ADVANCED_FACE('',(#86),#1411,.F.);
#1489=ADVANCED_FACE('',(#87),#1412,.F.);
#1490=ADVANCED_FACE('',(#88),#1413,.F.);
#1491=ADVANCED_FACE('',(#89),#1414,.F.);
#1492=ADVANCED_FACE('',(#90),#1415,.F.);
#1493=ADVANCED_FACE('',(#91),#1416,.F.);
#1494=ADVANCED_FACE('',(#92),#1417,.F.);
#1495=ADVANCED_FACE('',(#93),#1418,.T.);
#1496=ADVANCED_FACE('',(#94),#1419,.T.);
#1497=ADVANCED_FACE('',(#95),#1420,.T.);
#1498=ADVANCED_FACE('',(#96),#1421,.F.);
#1499=ADVANCED_FACE('',(#97),#1422,.F.);
#1500=ADVANCED_FACE('',(#98),#1423,.F.);
#1501=ADVANCED_FACE('',(#99),#1424,.F.);
#1502=ADVANCED_FACE('',(#100),#1425,.T.);
#1503=ADVANCED_FACE('',(#101),#1426,.T.);
#1504=ADVANCED_FACE('',(#102),#1427,.T.);
#1505=ADVANCED_FACE('',(#103),#25,.F.);
#1506=ADVANCED_FACE('',(#104),#1428,.F.);
#1507=ADVANCED_FACE('',(#105),#1429,.F.);
#1508=ADVANCED_FACE('',(#106),#26,.F.);
#1509=ADVANCED_FACE('',(#107),#1430,.F.);
#1510=ADVANCED_FACE('',(#108),#1431,.F.);
#1511=ADVANCED_FACE('',(#109),#1432,.F.);
#1512=ADVANCED_FACE('',(#110),#1433,.F.);
#1513=ADVANCED_FACE('',(#111),#1434,.F.);
#1514=ADVANCED_FACE('',(#112),#1435,.T.);
#1515=CLOSED_SHELL('',(#1436,#1437,#1438,#1439,#1440,#1441,#1442,#1443,
#1444,#1445,#1446,#1447,#1448,#1449,#1450,#1451,#1452,#1453,#1454,#1455,
#1456,#1457,#1458,#1459,#1460,#1461,#1462,#1463,#1464,#1465,#1466,#1467,
#1468,#1469,#1470,#1471,#1472,#1473,#1474,#1475,#1476,#1477,#1478,#1479,
#1480,#1481,#1482,#1483,#1484,#1485,#1486,#1487,#1488,#1489,#1490,#1491,
#1492,#1493,#1494,#1495,#1496,#1497,#1498,#1499,#1500,#1501,#1502,#1503,
#1504,#1505,#1506,#1507,#1508,#1509,#1510,#1511,#1512,#1513,#1514));
#1516=DERIVED_UNIT_ELEMENT(#1518,1.);
#1517=DERIVED_UNIT_ELEMENT(#2423,-3.);
#1518=(
MASS_UNIT()
NAMED_UNIT(*)
SI_UNIT(.KILO.,.GRAM.)
);
#1519=DERIVED_UNIT((#1516,#1517));
#1520=MEASURE_REPRESENTATION_ITEM('density measure',
POSITIVE_RATIO_MEASURE(7850.),#1519);
#1521=PROPERTY_DEFINITION_REPRESENTATION(#1526,#1523);
#1522=PROPERTY_DEFINITION_REPRESENTATION(#1527,#1524);
#1523=REPRESENTATION('material name',(#1525),#2420);
#1524=REPRESENTATION('density',(#1520),#2420);
#1525=DESCRIPTIVE_REPRESENTATION_ITEM('Steel','Steel');
#1526=PROPERTY_DEFINITION('material property','material name',#2430);
#1527=PROPERTY_DEFINITION('material property','density of part',#2430);
#1528=AXIS2_PLACEMENT_3D('',#1992,#1616,#1617);
#1529=AXIS2_PLACEMENT_3D('',#1993,#1618,#1619);
#1530=AXIS2_PLACEMENT_3D('',#2004,#1625,#1626);
#1531=AXIS2_PLACEMENT_3D('',#2018,#1634,#1635);
#1532=AXIS2_PLACEMENT_3D('',#2026,#1640,#1641);
#1533=AXIS2_PLACEMENT_3D('',#2028,#1643,#1644);
#1534=AXIS2_PLACEMENT_3D('',#2062,#1662,#1663);
#1535=AXIS2_PLACEMENT_3D('',#2065,#1664,#1665);
#1536=AXIS2_PLACEMENT_3D('',#2069,#1667,#1668);
#1537=AXIS2_PLACEMENT_3D('',#2071,#1670,#1671);
#1538=AXIS2_PLACEMENT_3D('',#2077,#1675,#1676);
#1539=AXIS2_PLACEMENT_3D('',#2080,#1677,#1678);
#1540=AXIS2_PLACEMENT_3D('',#2084,#1680,#1681);
#1541=AXIS2_PLACEMENT_3D('',#2086,#1683,#1684);
#1542=AXIS2_PLACEMENT_3D('',#2092,#1688,#1689);
#1543=AXIS2_PLACEMENT_3D('',#2098,#1693,#1694);
#1544=AXIS2_PLACEMENT_3D('',#2104,#1698,#1699);
#1545=AXIS2_PLACEMENT_3D('',#2113,#1704,#1705);
#1546=AXIS2_PLACEMENT_3D('',#2119,#1709,#1710);
#1547=AXIS2_PLACEMENT_3D('',#2128,#1715,#1716);
#1548=AXIS2_PLACEMENT_3D('',#2134,#1720,#1721);
#1549=AXIS2_PLACEMENT_3D('',#2141,#1726,#1727);
#1550=AXIS2_PLACEMENT_3D('',#2151,#1733,#1734);
#1551=AXIS2_PLACEMENT_3D('',#2157,#1738,#1739);
#1552=AXIS2_PLACEMENT_3D('',#2161,#1742,#1743);
#1553=AXIS2_PLACEMENT_3D('',#2165,#1746,#1747);
#1554=AXIS2_PLACEMENT_3D('',#2171,#1751,#1752);
#1555=AXIS2_PLACEMENT_3D('',#2174,#1755,#1756);
#1556=AXIS2_PLACEMENT_3D('',#2176,#1758,#1759);
#1557=AXIS2_PLACEMENT_3D('',#2177,#1760,#1761);
#1558=AXIS2_PLACEMENT_3D('',#2186,#1766,#1767);
#1559=AXIS2_PLACEMENT_3D('',#2192,#1771,#1772);
#1560=AXIS2_PLACEMENT_3D('',#2198,#1776,#1777);
#1561=AXIS2_PLACEMENT_3D('',#2201,#1780,#1781);
#1562=AXIS2_PLACEMENT_3D('',#2202,#1782,#1783);
#1563=AXIS2_PLACEMENT_3D('',#2211,#1788,#1789);
#1564=AXIS2_PLACEMENT_3D('',#2217,#1793,#1794);
#1565=AXIS2_PLACEMENT_3D('',#2223,#1798,#1799);
#1566=AXIS2_PLACEMENT_3D('',#2225,#1801,#1802);
#1567=AXIS2_PLACEMENT_3D('',#2253,#1818,#1819);
#1568=AXIS2_PLACEMENT_3D('',#2259,#1823,#1824);
#1569=AXIS2_PLACEMENT_3D('',#2263,#1827,#1828);
#1570=AXIS2_PLACEMENT_3D('',#2267,#1831,#1832);
#1571=AXIS2_PLACEMENT_3D('',#2269,#1834,#1835);
#1572=AXIS2_PLACEMENT_3D('',#2278,#1841,#1842);
#1573=AXIS2_PLACEMENT_3D('',#2289,#1848,#1849);
#1574=AXIS2_PLACEMENT_3D('',#2290,#1850,#1851);
#1575=AXIS2_PLACEMENT_3D('',#2296,#1855,#1856);
#1576=AXIS2_PLACEMENT_3D('',#2300,#1859,#1860);
#1577=AXIS2_PLACEMENT_3D('',#2304,#1863,#1864);
#1578=AXIS2_PLACEMENT_3D('',#2306,#1866,#1867);
#1579=AXIS2_PLACEMENT_3D('',#2307,#1868,#1869);
#1580=AXIS2_PLACEMENT_3D('',#2311,#1872,#1873);
#1581=AXIS2_PLACEMENT_3D('',#2315,#1876,#1877);
#1582=AXIS2_PLACEMENT_3D('',#2317,#1879,#1880);
#1583=AXIS2_PLACEMENT_3D('',#2318,#1881,#1882);
#1584=AXIS2_PLACEMENT_3D('',#2324,#1886,#1887);
#1585=AXIS2_PLACEMENT_3D('',#2330,#1891,#1892);
#1586=AXIS2_PLACEMENT_3D('',#2336,#1896,#1897);
#1587=AXIS2_PLACEMENT_3D('',#2342,#1901,#1902);
#1588=AXIS2_PLACEMENT_3D('',#2348,#1906,#1907);
#1589=AXIS2_PLACEMENT_3D('',#2354,#1911,#1912);
#1590=AXIS2_PLACEMENT_3D('',#2360,#1916,#1917);
#1591=AXIS2_PLACEMENT_3D('',#2366,#1921,#1922);
#1592=AXIS2_PLACEMENT_3D('',#2368,#1924,#1925);
#1593=AXIS2_PLACEMENT_3D('',#2370,#1927,#1928);
#1594=AXIS2_PLACEMENT_3D('',#2372,#1930,#1931);
#1595=AXIS2_PLACEMENT_3D('',#2374,#1933,#1934);
#1596=AXIS2_PLACEMENT_3D('',#2376,#1936,#1937);
#1597=AXIS2_PLACEMENT_3D('',#2378,#1939,#1940);
#1598=AXIS2_PLACEMENT_3D('',#2379,#1941,#1942);
#1599=AXIS2_PLACEMENT_3D('',#2380,#1943,#1944);
#1600=AXIS2_PLACEMENT_3D('',#2381,#1945,#1946);
#1601=AXIS2_PLACEMENT_3D('',#2383,#1948,#1949);
#1602=AXIS2_PLACEMENT_3D('',#2385,#1951,#1952);
#1603=AXIS2_PLACEMENT_3D('',#2387,#1954,#1955);
#1604=AXIS2_PLACEMENT_3D('',#2389,#1957,#1958);
#1605=AXIS2_PLACEMENT_3D('',#2392,#1960,#1961);
#1606=AXIS2_PLACEMENT_3D('',#2393,#1962,#1963);
#1607=AXIS2_PLACEMENT_3D('',#2397,#1966,#1967);
#1608=AXIS2_PLACEMENT_3D('',#2406,#1972,#1973);
#1609=AXIS2_PLACEMENT_3D('',#2407,#1974,#1975);
#1610=AXIS2_PLACEMENT_3D('',#2409,#1977,#1978);
#1611=AXIS2_PLACEMENT_3D('',#2411,#1980,#1981);
#1612=AXIS2_PLACEMENT_3D('',#2412,#1982,#1983);
#1613=AXIS2_PLACEMENT_3D('',#2413,#1984,#1985);
#1614=AXIS2_PLACEMENT_3D('',#2415,#1987,#1988);
#1615=AXIS2_PLACEMENT_3D('',#2417,#1990,#1991);
#1616=DIRECTION('axis',(0.,0.,1.));
#1617=DIRECTION('refdir',(1.,0.,0.));
#1618=DIRECTION('center_axis',(0.,0.,1.));
#1619=DIRECTION('ref_axis',(1.,0.,0.));
#1620=DIRECTION('',(0.,-1.,0.));
#1621=DIRECTION('',(1.,0.,0.));
#1622=DIRECTION('',(0.,1.,0.));
#1623=DIRECTION('',(-1.,0.,0.));
#1624=DIRECTION('',(1.,0.,0.));
#1625=DIRECTION('center_axis',(0.,1.,0.));
#1626=DIRECTION('ref_axis',(0.,0.,-1.));
#1627=DIRECTION('',(0.,0.,1.));
#1628=DIRECTION('',(0.,0.,1.));
#1629=DIRECTION('',(1.,0.,0.));
#1630=DIRECTION('',(0.,0.,1.));
#1631=DIRECTION('',(-1.,0.,0.));
#1632=DIRECTION('',(0.,0.,1.));
#1633=DIRECTION('',(-1.,0.,0.));
#1634=DIRECTION('center_axis',(0.,0.,-1.));
#1635=DIRECTION('ref_axis',(-1.,0.,0.));
#1636=DIRECTION('',(0.,1.,0.));
#1637=DIRECTION('',(1.,0.,0.));
#1638=DIRECTION('',(0.,-1.,0.));
#1639=DIRECTION('',(-1.,0.,0.));
#1640=DIRECTION('center_axis',(1.,0.,0.));
#1641=DIRECTION('ref_axis',(0.,0.,-1.));
#1642=DIRECTION('',(0.,0.,-1.));
#1643=DIRECTION('center_axis',(0.,1.,0.));
#1644=DIRECTION('ref_axis',(0.,0.,-1.));
#1645=DIRECTION('',(0.,0.,1.));
#1646=DIRECTION('',(-1.,0.,0.));
#1647=DIRECTION('',(0.,0.,1.));
#1648=DIRECTION('',(-1.,0.,0.));
#1649=DIRECTION('',(0.,0.,-1.));
#1650=DIRECTION('',(-1.,0.,0.));
#1651=DIRECTION('',(0.,0.,-1.));
#1652=DIRECTION('',(-1.,0.,0.));
#1653=DIRECTION('',(0.,0.,1.));
#1654=DIRECTION('',(0.,0.,1.));
#1655=DIRECTION('',(-1.,0.,0.));
#1656=DIRECTION('',(0.,0.,-1.));
#1657=DIRECTION('',(-1.,0.,0.));
#1658=DIRECTION('',(0.,0.,1.));
#1659=DIRECTION('',(-1.,0.,0.));
#1660=DIRECTION('',(0.,0.,-1.));
#1661=DIRECTION('',(-1.,0.,0.));
#1662=DIRECTION('center_axis',(-1.,0.,0.));
#1663=DIRECTION('ref_axis',(0.,-0.707106781186548,0.707106781186547));
#1664=DIRECTION('center_axis',(1.,0.,0.));
#1665=DIRECTION('ref_axis',(0.,-0.707106781186548,0.707106781186547));
#1666=DIRECTION('',(-1.,0.,0.));
#1667=DIRECTION('center_axis',(-1.,0.,0.));
#1668=DIRECTION('ref_axis',(0.,-0.707106781186548,0.707106781186547));
#1669=DIRECTION('',(1.,0.,0.));
#1670=DIRECTION('center_axis',(0.,1.,0.));
#1671=DIRECTION('ref_axis',(0.,0.,1.));
#1672=DIRECTION('',(0.,0.,-1.));
#1673=DIRECTION('',(-1.,0.,0.));
#1674=DIRECTION('',(0.,0.,1.));
#1675=DIRECTION('center_axis',(1.,0.,0.));
#1676=DIRECTION('ref_axis',(0.,-0.707106781186548,-0.707106781186547));
#1677=DIRECTION('center_axis',(-1.,0.,0.));
#1678=DIRECTION('ref_axis',(0.,-0.707106781186548,-0.707106781186547));
#1679=DIRECTION('',(1.,0.,0.));
#1680=DIRECTION('center_axis',(1.,0.,0.));
#1681=DIRECTION('ref_axis',(0.,-0.707106781186548,-0.707106781186547));
#1682=DIRECTION('',(-1.,0.,0.));
#1683=DIRECTION('center_axis',(0.,1.,0.));
#1684=DIRECTION('ref_axis',(0.,0.,1.));
#1685=DIRECTION('',(0.,0.,1.));
#1686=DIRECTION('',(1.,0.,0.));
#1687=DIRECTION('',(0.,0.,-1.));
#1688=DIRECTION('center_axis',(0.,0.,1.));
#1689=DIRECTION('ref_axis',(0.,1.,0.));
#1690=DIRECTION('',(0.,-1.,0.));
#1691=DIRECTION('',(-1.,0.,0.));
#1692=DIRECTION('',(0.,-1.,0.));
#1693=DIRECTION('center_axis',(0.,0.,-1.));
#1694=DIRECTION('ref_axis',(0.,-1.,0.));
#1695=DIRECTION('',(0.,1.,0.));
#1696=DIRECTION('',(1.,0.,0.));
#1697=DIRECTION('',(0.,1.,0.));
#1698=DIRECTION('center_axis',(-1.,0.,0.));
#1699=DIRECTION('ref_axis',(0.,0.,1.));
#1700=DIRECTION('',(0.,-1.,0.));
#1701=DIRECTION('',(0.,0.,-1.));
#1702=DIRECTION('',(0.,1.,0.));
#1703=DIRECTION('',(0.,0.,1.));
#1704=DIRECTION('center_axis',(0.,-1.,0.));
#1705=DIRECTION('ref_axis',(0.,0.,1.));
#1706=DIRECTION('',(-1.,0.,0.));
#1707=DIRECTION('',(0.,0.,1.));
#1708=DIRECTION('',(-1.,0.,0.));
#1709=DIRECTION('center_axis',(1.,0.,0.));
#1710=DIRECTION('ref_axis',(0.,0.,-1.));
#1711=DIRECTION('',(0.,-1.,0.));
#1712=DIRECTION('',(0.,0.,-1.));
#1713=DIRECTION('',(0.,1.,0.));
#1714=DIRECTION('',(0.,0.,1.));
#1715=DIRECTION('center_axis',(0.,1.,0.));
#1716=DIRECTION('ref_axis',(0.,0.,-1.));
#1717=DIRECTION('',(-1.,0.,0.));
#1718=DIRECTION('',(0.,0.,-1.));
#1719=DIRECTION('',(-1.,0.,0.));
#1720=DIRECTION('center_axis',(0.,0.,-1.));
#1721=DIRECTION('ref_axis',(0.,-1.,0.));
#1722=DIRECTION('',(1.,0.,0.));
#1723=DIRECTION('',(0.,-1.,0.));
#1724=DIRECTION('',(0.,-1.,0.));
#1725=DIRECTION('',(-1.,0.,0.));
#1726=DIRECTION('center_axis',(0.,0.,1.));
#1727=DIRECTION('ref_axis',(0.,1.,0.));
#1728=DIRECTION('',(0.,1.,0.));
#1729=DIRECTION('',(1.,0.,0.));
#1730=DIRECTION('',(0.,1.,0.));
#1731=DIRECTION('',(0.,1.,0.));
#1732=DIRECTION('',(-1.,0.,0.));
#1733=DIRECTION('center_axis',(0.,-1.,0.));
#1734=DIRECTION('ref_axis',(0.,0.,-1.));
#1735=DIRECTION('',(0.,0.,-1.));
#1736=DIRECTION('',(1.,0.,0.));
#1737=DIRECTION('',(0.,0.,1.));
#1738=DIRECTION('center_axis',(0.,-1.,0.));
#1739=DIRECTION('ref_axis',(0.,0.,-1.));
#1740=DIRECTION('',(0.,0.,1.));
#1741=DIRECTION('',(1.,0.,0.));
#1742=DIRECTION('center_axis',(0.,1.,0.));
#1743=DIRECTION('ref_axis',(0.,0.,1.));
#1744=DIRECTION('',(1.,0.,0.));
#1745=DIRECTION('',(0.,0.,-1.));
#1746=DIRECTION('center_axis',(0.,1.,0.));
#1747=DIRECTION('ref_axis',(0.,0.,1.));
#1748=DIRECTION('',(0.,0.,-1.));
#1749=DIRECTION('',(1.,0.,0.));
#1750=DIRECTION('',(0.,0.,1.));
#1751=DIRECTION('center_axis',(0.,0.,1.));
#1752=DIRECTION('ref_axis',(0.,-1.,0.));
#1753=DIRECTION('',(0.,1.,0.));
#1754=DIRECTION('',(0.,-1.,0.));
#1755=DIRECTION('center_axis',(0.,0.,-1.));
#1756=DIRECTION('ref_axis',(0.,1.,0.));
#1757=DIRECTION('',(0.,-1.,0.));
#1758=DIRECTION('center_axis',(1.,0.,0.));
#1759=DIRECTION('ref_axis',(0.,0.,-1.));
#1760=DIRECTION('center_axis',(0.,0.,-1.));
#1761=DIRECTION('ref_axis',(0.,1.,0.));
#1762=DIRECTION('',(0.,-1.,0.));
#1763=DIRECTION('',(1.,0.,0.));
#1764=DIRECTION('',(0.,1.,0.));
#1765=DIRECTION('',(1.,0.,0.));
#1766=DIRECTION('center_axis',(0.,-1.,0.));
#1767=DIRECTION('ref_axis',(0.,0.,-1.));
#1768=DIRECTION('',(0.,0.,1.));
#1769=DIRECTION('',(0.,0.,-1.));
#1770=DIRECTION('',(1.,0.,0.));
#1771=DIRECTION('center_axis',(0.,0.,1.));
#1772=DIRECTION('ref_axis',(0.,-1.,0.));
#1773=DIRECTION('',(0.,1.,0.));
#1774=DIRECTION('',(0.,-1.,0.));
#1775=DIRECTION('',(1.,0.,0.));
#1776=DIRECTION('center_axis',(0.,1.,0.));
#1777=DIRECTION('ref_axis',(0.,0.,1.));
#1778=DIRECTION('',(0.,0.,-1.));
#1779=DIRECTION('',(0.,0.,1.));
#1780=DIRECTION('center_axis',(1.,0.,0.));
#1781=DIRECTION('ref_axis',(0.,0.,-1.));
#1782=DIRECTION('center_axis',(0.,0.,-1.));
#1783=DIRECTION('ref_axis',(-1.,0.,0.));
#1784=DIRECTION('',(1.,0.,0.));
#1785=DIRECTION('',(0.,-1.,0.));
#1786=DIRECTION('',(-1.,0.,0.));
#1787=DIRECTION('',(0.,1.,0.));
#1788=DIRECTION('center_axis',(1.,0.,0.));
#1789=DIRECTION('ref_axis',(0.,0.,-1.));
#1790=DIRECTION('',(0.,0.,1.));
#1791=DIRECTION('',(0.,0.,-1.));
#1792=DIRECTION('',(0.,1.,0.));
#1793=DIRECTION('center_axis',(0.,0.,1.));
#1794=DIRECTION('ref_axis',(1.,0.,0.));
#1795=DIRECTION('',(-1.,0.,0.));
#1796=DIRECTION('',(1.,0.,0.));
#1797=DIRECTION('',(0.,1.,0.));
#1798=DIRECTION('center_axis',(0.,1.,0.));
#1799=DIRECTION('ref_axis',(0.,0.,1.));
#1800=DIRECTION('',(0.,0.,-1.));
#1801=DIRECTION('center_axis',(0.,-1.,0.));
#1802=DIRECTION('ref_axis',(0.,0.,1.));
#1803=DIRECTION('',(0.,0.,1.));
#1804=DIRECTION('',(1.,0.,0.));
#1805=DIRECTION('',(0.,0.,1.));
#1806=DIRECTION('',(-1.,0.,0.));
#1807=DIRECTION('',(0.,0.,1.));
#1808=DIRECTION('',(1.,0.,0.));
#1809=DIRECTION('',(0.,0.,1.));
#1810=DIRECTION('',(-1.,0.,0.));
#1811=DIRECTION('',(0.,0.,1.));
#1812=DIRECTION('',(0.,0.,-1.));
#1813=DIRECTION('',(0.,0.,1.));
#1814=DIRECTION('',(0.,0.,1.));
#1815=DIRECTION('',(-1.,0.,0.));
#1816=DIRECTION('',(0.,0.,-1.));
#1817=DIRECTION('',(1.,0.,0.));
#1818=DIRECTION('center_axis',(1.,0.,0.));
#1819=DIRECTION('ref_axis',(0.,0.,-1.));
#1820=DIRECTION('',(0.,1.,0.));
#1821=DIRECTION('',(0.,0.,-1.));
#1822=DIRECTION('',(0.,1.,0.));
#1823=DIRECTION('center_axis',(0.,0.,1.));
#1824=DIRECTION('ref_axis',(1.,0.,0.));
#1825=DIRECTION('',(1.,0.,0.));
#1826=DIRECTION('',(0.,1.,0.));
#1827=DIRECTION('center_axis',(0.,0.,-1.));
#1828=DIRECTION('ref_axis',(-1.,0.,0.));
#1829=DIRECTION('',(0.,-1.,0.));
#1830=DIRECTION('',(-1.,0.,0.));
#1831=DIRECTION('center_axis',(0.,1.,0.));
#1832=DIRECTION('ref_axis',(0.,0.,1.));
#1833=DIRECTION('',(0.,0.,-1.));
#1834=DIRECTION('center_axis',(1.,0.,0.));
#1835=DIRECTION('ref_axis',(0.,0.,-1.));
#1836=DIRECTION('',(0.,1.,0.));
#1837=DIRECTION('',(0.,1.,0.));
#1838=DIRECTION('',(0.,0.,-1.));
#1839=DIRECTION('',(0.,-1.,0.));
#1840=DIRECTION('',(0.,-1.,0.));
#1841=DIRECTION('center_axis',(1.,0.,0.));
#1842=DIRECTION('ref_axis',(0.,0.707106781186547,0.707106781186548));
#1843=DIRECTION('',(0.,0.,1.));
#1844=DIRECTION('',(0.,-1.,0.));
#1845=DIRECTION('',(0.,0.,-1.));
#1846=DIRECTION('',(0.,1.,0.));
#1847=DIRECTION('',(0.,0.,1.));
#1848=DIRECTION('center_axis',(1.,0.,0.));
#1849=DIRECTION('ref_axis',(0.,0.707106781186547,-0.707106781186548));
#1850=DIRECTION('center_axis',(1.,0.,0.));
#1851=DIRECTION('ref_axis',(0.,0.,-1.));
#1852=DIRECTION('',(0.,1.,0.));
#1853=DIRECTION('',(0.,0.,-1.));
#1854=DIRECTION('',(0.,1.,0.));
#1855=DIRECTION('center_axis',(0.,0.,1.));
#1856=DIRECTION('ref_axis',(1.,0.,0.));
#1857=DIRECTION('',(1.,0.,0.));
#1858=DIRECTION('',(0.,1.,0.));
#1859=DIRECTION('center_axis',(-1.,0.,0.));
#1860=DIRECTION('ref_axis',(0.,0.,1.));
#1861=DIRECTION('',(0.,0.,1.));
#1862=DIRECTION('',(0.,1.,0.));
#1863=DIRECTION('center_axis',(0.,0.,-1.));
#1864=DIRECTION('ref_axis',(-1.,0.,0.));
#1865=DIRECTION('',(-1.,0.,0.));
#1866=DIRECTION('center_axis',(0.,1.,0.));
#1867=DIRECTION('ref_axis',(0.,0.,1.));
#1868=DIRECTION('center_axis',(0.,0.,-1.));
#1869=DIRECTION('ref_axis',(-1.,0.,0.));
#1870=DIRECTION('',(-1.,0.,0.));
#1871=DIRECTION('',(0.,1.,0.));
#1872=DIRECTION('center_axis',(1.,0.,0.));
#1873=DIRECTION('ref_axis',(0.,0.,-1.));
#1874=DIRECTION('',(0.,0.,-1.));
#1875=DIRECTION('',(0.,1.,0.));
#1876=DIRECTION('center_axis',(0.,0.,1.));
#1877=DIRECTION('ref_axis',(1.,0.,0.));
#1878=DIRECTION('',(1.,0.,0.));
#1879=DIRECTION('center_axis',(0.,1.,0.));
#1880=DIRECTION('ref_axis',(0.,0.,1.));
#1881=DIRECTION('center_axis',(0.,0.,1.));
#1882=DIRECTION('ref_axis',(0.,1.,0.));
#1883=DIRECTION('',(0.,1.,0.));
#1884=DIRECTION('',(1.,0.,0.));
#1885=DIRECTION('',(0.,-1.,0.));
#1886=DIRECTION('center_axis',(0.,0.,-1.));
#1887=DIRECTION('ref_axis',(0.,-1.,0.));
#1888=DIRECTION('',(0.,-1.,0.));
#1889=DIRECTION('',(0.,1.,0.));
#1890=DIRECTION('',(-1.,0.,0.));
#1891=DIRECTION('center_axis',(0.,0.,1.));
#1892=DIRECTION('ref_axis',(0.,1.,0.));
#1893=DIRECTION('',(0.,1.,0.));
#1894=DIRECTION('',(1.,0.,0.));
#1895=DIRECTION('',(0.,-1.,0.));
#1896=DIRECTION('center_axis',(0.,0.,1.));
#1897=DIRECTION('ref_axis',(0.,1.,0.));
#1898=DIRECTION('',(0.,1.,0.));
#1899=DIRECTION('',(1.,0.,0.));
#1900=DIRECTION('',(0.,-1.,0.));
#1901=DIRECTION('center_axis',(0.,0.,-1.));
#1902=DIRECTION('ref_axis',(0.,-1.,0.));
#1903=DIRECTION('',(0.,-1.,0.));
#1904=DIRECTION('',(0.,1.,0.));
#1905=DIRECTION('',(-1.,0.,0.));
#1906=DIRECTION('center_axis',(0.,0.,1.));
#1907=DIRECTION('ref_axis',(0.,1.,0.));
#1908=DIRECTION('',(0.,1.,0.));
#1909=DIRECTION('',(1.,0.,0.));
#1910=DIRECTION('',(0.,-1.,0.));
#1911=DIRECTION('center_axis',(0.,0.,-1.));
#1912=DIRECTION('ref_axis',(0.,-1.,0.));
#1913=DIRECTION('',(0.,-1.,0.));
#1914=DIRECTION('',(0.,1.,0.));
#1915=DIRECTION('',(-1.,0.,0.));
#1916=DIRECTION('center_axis',(0.,0.,-1.));
#1917=DIRECTION('ref_axis',(0.,-1.,0.));
#1918=DIRECTION('',(0.,-1.,0.));
#1919=DIRECTION('',(0.,1.,0.));
#1920=DIRECTION('',(-1.,0.,0.));
#1921=DIRECTION('center_axis',(-1.,0.,0.));
#1922=DIRECTION('ref_axis',(0.,0.,1.));
#1923=DIRECTION('',(0.,0.,1.));
#1924=DIRECTION('center_axis',(-1.,0.,0.));
#1925=DIRECTION('ref_axis',(0.,0.,1.));
#1926=DIRECTION('',(0.,0.,1.));
#1927=DIRECTION('center_axis',(-1.,0.,0.));
#1928=DIRECTION('ref_axis',(0.,0.,1.));
#1929=DIRECTION('',(0.,0.,1.));
#1930=DIRECTION('center_axis',(0.,-1.,0.));
#1931=DIRECTION('ref_axis',(0.,0.,-1.));
#1932=DIRECTION('',(0.,0.,-1.));
#1933=DIRECTION('center_axis',(0.,-1.,0.));
#1934=DIRECTION('ref_axis',(0.,0.,-1.));
#1935=DIRECTION('',(0.,0.,-1.));
#1936=DIRECTION('center_axis',(0.,-1.,0.));
#1937=DIRECTION('ref_axis',(0.,0.,-1.));
#1938=DIRECTION('',(0.,0.,-1.));
#1939=DIRECTION('center_axis',(1.,0.,0.));
#1940=DIRECTION('ref_axis',(0.,0.,-1.));
#1941=DIRECTION('center_axis',(1.,0.,0.));
#1942=DIRECTION('ref_axis',(0.,0.,-1.));
#1943=DIRECTION('center_axis',(1.,0.,0.));
#1944=DIRECTION('ref_axis',(0.,0.,-1.));
#1945=DIRECTION('center_axis',(1.,0.,0.));
#1946=DIRECTION('ref_axis',(0.,0.,-1.));
#1947=DIRECTION('',(0.,0.,-1.));
#1948=DIRECTION('center_axis',(0.,-1.,0.));
#1949=DIRECTION('ref_axis',(0.,0.,-1.));
#1950=DIRECTION('',(0.,0.,1.));
#1951=DIRECTION('center_axis',(0.,0.,-1.));
#1952=DIRECTION('ref_axis',(0.,1.,0.));
#1953=DIRECTION('',(0.,1.,0.));
#1954=DIRECTION('center_axis',(0.,0.,1.));
#1955=DIRECTION('ref_axis',(0.,-1.,0.));
#1956=DIRECTION('',(0.,-1.,0.));
#1957=DIRECTION('center_axis',(-1.,0.,0.));
#1958=DIRECTION('ref_axis',(0.,0.707106781186547,-0.707106781186548));
#1959=DIRECTION('',(-1.,0.,0.));
#1960=DIRECTION('center_axis',(-1.,0.,0.));
#1961=DIRECTION('ref_axis',(0.,0.707106781186547,-0.707106781186548));
#1962=DIRECTION('center_axis',(0.,1.,0.));
#1963=DIRECTION('ref_axis',(0.,0.,-1.));
#1964=DIRECTION('',(1.,0.,0.));
#1965=DIRECTION('',(0.,0.,1.));
#1966=DIRECTION('center_axis',(1.,0.,0.));
#1967=DIRECTION('ref_axis',(0.,1.,0.));
#1968=DIRECTION('',(0.,1.,0.));
#1969=DIRECTION('',(0.,0.,1.));
#1970=DIRECTION('',(0.,-1.,0.));
#1971=DIRECTION('',(0.,0.,1.));
#1972=DIRECTION('center_axis',(-1.,0.,0.));
#1973=DIRECTION('ref_axis',(0.,0.707106781186547,0.707106781186548));
#1974=DIRECTION('center_axis',(-1.,0.,0.));
#1975=DIRECTION('ref_axis',(0.,0.707106781186547,0.707106781186548));
#1976=DIRECTION('',(1.,0.,0.));
#1977=DIRECTION('center_axis',(0.,1.,0.));
#1978=DIRECTION('ref_axis',(0.,0.,-1.));
#1979=DIRECTION('',(-1.,0.,0.));
#1980=DIRECTION('center_axis',(-1.,0.,0.));
#1981=DIRECTION('ref_axis',(0.,0.,1.));
#1982=DIRECTION('center_axis',(-1.,0.,0.));
#1983=DIRECTION('ref_axis',(0.,0.,1.));
#1984=DIRECTION('center_axis',(0.,0.,-1.));
#1985=DIRECTION('ref_axis',(1.,0.,0.));
#1986=DIRECTION('',(1.,0.,0.));
#1987=DIRECTION('center_axis',(0.,0.,1.));
#1988=DIRECTION('ref_axis',(-1.,0.,0.));
#1989=DIRECTION('',(-1.,0.,0.));
#1990=DIRECTION('center_axis',(0.,1.,0.));
#1991=DIRECTION('ref_axis',(0.,0.,1.));
#1992=CARTESIAN_POINT('',(0.,0.,0.));
#1993=CARTESIAN_POINT('Origin',(1.4,-4.85,2.6999999627471));
#1994=CARTESIAN_POINT('',(0.1,-4.85,2.6999999627471));
#1995=CARTESIAN_POINT('',(0.1,-5.85,2.6999999627471));
#1996=CARTESIAN_POINT('',(0.1,-5.1,2.7));
#1997=CARTESIAN_POINT('',(1.4,-5.85,2.7));
#1998=CARTESIAN_POINT('',(0.95,-5.85,2.7));
#1999=CARTESIAN_POINT('',(1.4,-4.85,2.7));
#2000=CARTESIAN_POINT('',(1.4,-5.1,2.7));
#2001=CARTESIAN_POINT('',(0.6,-4.85,2.7));
#2002=CARTESIAN_POINT('',(1.4,-4.85,2.7));
#2003=CARTESIAN_POINT('',(1.6,-4.85,2.6999999627471));
#2004=CARTESIAN_POINT('Origin',(1.8,-4.85,3.));
#2005=CARTESIAN_POINT('',(0.1,-4.85,-2.7000000372529));
#2006=CARTESIAN_POINT('',(0.1,-4.85,2.75));
#2007=CARTESIAN_POINT('',(0.6,-4.85,3.));
#2008=CARTESIAN_POINT('',(0.6,-4.85,1.5));
#2009=CARTESIAN_POINT('',(0.,-4.85,3.));
#2010=CARTESIAN_POINT('',(0.9,-4.85,3.));
#2011=CARTESIAN_POINT('',(0.,-4.85,-3.00000004122913));
#2012=CARTESIAN_POINT('',(0.,-4.85,-1.25000001862645));
#2013=CARTESIAN_POINT('',(0.6,-4.85,-3.00000004122913));
#2014=CARTESIAN_POINT('',(0.9,-4.85,-3.));
#2015=CARTESIAN_POINT('',(0.6,-4.85,-2.7000000372529));
#2016=CARTESIAN_POINT('',(0.6,-4.85,1.5));
#2017=CARTESIAN_POINT('',(1.6,-4.85,-2.7000000372529));
#2018=CARTESIAN_POINT('Origin',(1.4,-8.85,-2.7000000372529));
#2019=CARTESIAN_POINT('',(0.1,-5.85,-2.7000000372529));
#2020=CARTESIAN_POINT('',(0.1,-7.1,-2.7000000372529));
#2021=CARTESIAN_POINT('',(1.4,-4.85,-2.7000000372529));
#2022=CARTESIAN_POINT('',(1.4,-4.85,-2.7000000372529));
#2023=CARTESIAN_POINT('',(1.4,-5.85,-2.7000000372529));
#2024=CARTESIAN_POINT('',(1.4,-7.1,-2.7000000372529));
#2025=CARTESIAN_POINT('',(1.6,-5.85,-2.7000000372529));
#2026=CARTESIAN_POINT('Origin',(0.1,-5.35,-3.72529029846191E-8));
#2027=CARTESIAN_POINT('',(0.1,-5.85,-2.5000000372529));
#2028=CARTESIAN_POINT('Origin',(1.8,-5.85,3.));
#2029=CARTESIAN_POINT('',(1.4,-5.85,1.49999998969272));
#2030=CARTESIAN_POINT('',(1.1,-5.85,-2.12600001862645));
#2031=CARTESIAN_POINT('',(0.6,-5.85,-2.12600001862645));
#2032=CARTESIAN_POINT('',(1.1,-5.85,-2.12600001862645));
#2033=CARTESIAN_POINT('',(0.6,-5.85,-1.62600001862645));
#2034=CARTESIAN_POINT('',(0.6,-5.85,-1.2500000372529));
#2035=CARTESIAN_POINT('',(1.1,-5.85,-1.62600001862645));
#2036=CARTESIAN_POINT('',(1.1,-5.85,-1.62600001862645));
#2037=CARTESIAN_POINT('',(1.1,-5.85,3.));
#2038=CARTESIAN_POINT('',(1.1,-5.85,-0.375333351959785));
#2039=CARTESIAN_POINT('',(0.6,-5.85,-0.375333351959785));
#2040=CARTESIAN_POINT('',(1.1,-5.85,-0.375333351959785));
#2041=CARTESIAN_POINT('',(1.1,-5.85,-0.875333351959784));
#2042=CARTESIAN_POINT('',(1.1,-5.85,3.));
#2043=CARTESIAN_POINT('',(0.6,-5.85,-0.875333351959784));
#2044=CARTESIAN_POINT('',(1.1,-5.85,-0.875333351959784));
#2045=CARTESIAN_POINT('',(0.6,-5.85,-1.2500000372529));
#2046=CARTESIAN_POINT('',(0.6,-5.85,1.62599998137355));
#2047=CARTESIAN_POINT('',(0.6,-5.85,2.12599998137355));
#2048=CARTESIAN_POINT('',(0.6,-5.85,-1.2500000372529));
#2049=CARTESIAN_POINT('',(1.1,-5.85,2.12599998137355));
#2050=CARTESIAN_POINT('',(1.1,-5.85,2.12599998137355));
#2051=CARTESIAN_POINT('',(1.1,-5.85,1.62599998137355));
#2052=CARTESIAN_POINT('',(1.1,-5.85,3.));
#2053=CARTESIAN_POINT('',(1.1,-5.85,1.62599998137355));
#2054=CARTESIAN_POINT('',(0.6,-5.85,0.375333314706882));
#2055=CARTESIAN_POINT('',(0.6,-5.85,0.875333314706882));
#2056=CARTESIAN_POINT('',(0.6,-5.85,-1.2500000372529));
#2057=CARTESIAN_POINT('',(1.1,-5.85,0.875333314706882));
#2058=CARTESIAN_POINT('',(1.1,-5.85,0.875333314706882));
#2059=CARTESIAN_POINT('',(1.1,-5.85,0.375333314706882));
#2060=CARTESIAN_POINT('',(1.1,-5.85,3.));
#2061=CARTESIAN_POINT('',(1.1,-5.85,0.375333314706882));
#2062=CARTESIAN_POINT('Origin',(1.8,0.249999999999999,-2.00000002235174));
#2063=CARTESIAN_POINT('',(0.6,0.249999999999999,-1.50000002235174));
#2064=CARTESIAN_POINT('',(0.6,-0.250000000000001,-2.00000002235174));
#2065=CARTESIAN_POINT('Origin',(0.6,0.249999999999999,-2.00000002235174));
#2066=CARTESIAN_POINT('',(0.,-0.250000000000001,-2.00000002235174));
#2067=CARTESIAN_POINT('',(1.8,-0.250000000000001,-2.00000002235174));
#2068=CARTESIAN_POINT('',(0.,0.249999999999999,-1.50000002235174));
#2069=CARTESIAN_POINT('Origin',(0.,0.249999999999999,-2.00000002235174));
#2070=CARTESIAN_POINT('',(1.8,0.249999999999999,-1.50000002235174));
#2071=CARTESIAN_POINT('Origin',(1.8,-0.250000000000001,-3.));
#2072=CARTESIAN_POINT('',(0.6,-0.250000000000001,-3.));
#2073=CARTESIAN_POINT('',(0.6,-0.250000000000001,-1.5));
#2074=CARTESIAN_POINT('',(0.,-0.250000000000001,-3.));
#2075=CARTESIAN_POINT('',(0.9,-0.250000000000002,-3.));
#2076=CARTESIAN_POINT('',(0.,-0.250000000000001,-1.5));
#2077=CARTESIAN_POINT('Origin',(1.8,0.249999999999999,2.00000002235174));
#2078=CARTESIAN_POINT('',(0.,0.249999999999999,1.50000002235174));
#2079=CARTESIAN_POINT('',(0.,-0.250000000000001,2.00000002235174));
#2080=CARTESIAN_POINT('Origin',(0.,0.249999999999999,2.00000002235174));
#2081=CARTESIAN_POINT('',(0.6,-0.250000000000001,2.00000002235174));
#2082=CARTESIAN_POINT('',(1.8,-0.250000000000001,2.00000002235174));
#2083=CARTESIAN_POINT('',(0.6,0.249999999999999,1.50000002235174));
#2084=CARTESIAN_POINT('Origin',(0.6,0.249999999999999,2.00000002235174));
#2085=CARTESIAN_POINT('',(1.8,0.249999999999999,1.50000002235174));
#2086=CARTESIAN_POINT('Origin',(1.8,-0.250000000000001,1.50000002235174));
#2087=CARTESIAN_POINT('',(0.,-0.250000000000001,3.));
#2088=CARTESIAN_POINT('',(0.,-0.250000000000001,0.750000011175871));
#2089=CARTESIAN_POINT('',(0.6,-0.250000000000001,3.));
#2090=CARTESIAN_POINT('',(0.9,-0.250000000000002,3.));
#2091=CARTESIAN_POINT('',(0.6,-0.250000000000001,0.750000011175871));
#2092=CARTESIAN_POINT('Origin',(1.8,-0.650000000000001,-1.50000002235174));
#2093=CARTESIAN_POINT('',(0.,2.35,-1.50000002235174));
#2094=CARTESIAN_POINT('',(0.,-0.325000000000001,-1.50000002235174));
#2095=CARTESIAN_POINT('',(0.6,2.35,-1.50000002235174));
#2096=CARTESIAN_POINT('',(1.8,2.35,-1.50000002235174));
#2097=CARTESIAN_POINT('',(0.6,-0.325000000000001,-1.50000002235174));
#2098=CARTESIAN_POINT('Origin',(1.8,2.85,1.50000002235174));
#2099=CARTESIAN_POINT('',(0.6,2.35,1.50000002235174));
#2100=CARTESIAN_POINT('',(0.6,1.425,1.50000002235174));
#2101=CARTESIAN_POINT('',(0.,2.35,1.50000002235174));
#2102=CARTESIAN_POINT('',(1.8,2.35,1.50000002235174));
#2103=CARTESIAN_POINT('',(0.,1.425,1.50000002235174));
#2104=CARTESIAN_POINT('Origin',(1.7,4.00000005960464,0.));
#2105=CARTESIAN_POINT('',(1.7,4.40000005960465,-0.899999979883432));
#2106=CARTESIAN_POINT('',(1.7,3.60000005960464,-0.899999979883432));
#2107=CARTESIAN_POINT('',(1.7,4.40000005960465,-0.899999979883432));
#2108=CARTESIAN_POINT('',(1.7,4.40000005960465,0.899999979883432));
#2109=CARTESIAN_POINT('',(1.7,4.40000005960465,-0.449999989941716));
#2110=CARTESIAN_POINT('',(1.7,3.60000005960464,0.899999979883432));
#2111=CARTESIAN_POINT('',(1.7,3.60000005960464,0.899999979883432));
#2112=CARTESIAN_POINT('',(1.7,3.60000005960464,0.449999989941716));
#2113=CARTESIAN_POINT('Origin',(1.8,4.40000005960465,-0.899999979883432));
#2114=CARTESIAN_POINT('',(0.6,4.40000005960465,-0.899999979883432));
#2115=CARTESIAN_POINT('',(1.8,4.40000005960465,-0.899999979883432));
#2116=CARTESIAN_POINT('',(0.6,4.40000005960465,0.899999979883432));
#2117=CARTESIAN_POINT('',(0.6,4.40000005960465,0.899999979883432));
#2118=CARTESIAN_POINT('',(1.8,4.40000005960465,0.899999979883432));
#2119=CARTESIAN_POINT('Origin',(1.8,4.00000005960464,0.));
#2120=CARTESIAN_POINT('',(1.8,4.50000019744039,-0.9));
#2121=CARTESIAN_POINT('',(1.8,3.4999999217689,-0.9));
#2122=CARTESIAN_POINT('',(1.8,4.20000005960464,-0.899999979883432));
#2123=CARTESIAN_POINT('',(1.8,3.50000005960464,-1.27492557035453));
#2124=CARTESIAN_POINT('',(1.8,3.50000005960464,-1.27492557035453));
#2125=CARTESIAN_POINT('',(1.8,4.50000005960464,-1.27492557035453));
#2126=CARTESIAN_POINT('',(1.8,4.50000005960464,-1.27492557035453));
#2127=CARTESIAN_POINT('',(1.8,4.50000005960464,1.27492557035453));
#2128=CARTESIAN_POINT('Origin',(1.8,3.60000005960464,0.899999979883432));
#2129=CARTESIAN_POINT('',(0.6,3.60000005960464,0.899999979883432));
#2130=CARTESIAN_POINT('',(1.8,3.60000005960464,0.899999979883432));
#2131=CARTESIAN_POINT('',(0.6,3.60000005960464,-0.899999979883432));
#2132=CARTESIAN_POINT('',(0.6,3.60000005960464,-0.899999979883432));
#2133=CARTESIAN_POINT('',(1.8,3.60000005960464,-0.899999979883432));
#2134=CARTESIAN_POINT('Origin',(1.8,4.50000019744039,-0.9));
#2135=CARTESIAN_POINT('',(0.6,4.50000019744039,-0.9));
#2136=CARTESIAN_POINT('',(1.2,4.50000005960464,-0.9));
#2137=CARTESIAN_POINT('',(0.6,4.50000019744039,-0.9));
#2138=CARTESIAN_POINT('',(0.6,3.4999999217689,-0.9));
#2139=CARTESIAN_POINT('',(0.6,4.50000019744039,-0.9));
#2140=CARTESIAN_POINT('',(1.2,3.50000005960464,-0.9));
#2141=CARTESIAN_POINT('Origin',(1.8,4.40000005960465,0.9));
#2142=CARTESIAN_POINT('',(1.8,3.4999999217689,0.9));
#2143=CARTESIAN_POINT('',(1.8,4.50000019744039,0.9));
#2144=CARTESIAN_POINT('',(1.8,3.80000005960464,0.899999979883432));
#2145=CARTESIAN_POINT('',(0.6,3.4999999217689,0.9));
#2146=CARTESIAN_POINT('',(1.2,3.50000005960464,0.9));
#2147=CARTESIAN_POINT('',(0.6,3.4999999217689,0.9));
#2148=CARTESIAN_POINT('',(0.6,4.50000019744039,0.9));
#2149=CARTESIAN_POINT('',(0.6,3.4999999217689,0.9));
#2150=CARTESIAN_POINT('',(1.2,4.50000005960464,0.9));
#2151=CARTESIAN_POINT('Origin',(0.6,3.50000005960464,1.27492557035453));
#2152=CARTESIAN_POINT('',(1.8,3.50000005960464,1.27492557035453));
#2153=CARTESIAN_POINT('',(1.8,3.50000005960464,-1.27492557035453));
#2154=CARTESIAN_POINT('',(0.6,3.50000005960464,1.27492557035453));
#2155=CARTESIAN_POINT('',(0.6,3.50000005960464,1.27492557035453));
#2156=CARTESIAN_POINT('',(0.6,3.50000005960464,0.637462785177263));
#2157=CARTESIAN_POINT('Origin',(0.6,3.50000005960464,1.27492557035453));
#2158=CARTESIAN_POINT('',(0.6,3.50000005960464,-1.27492557035453));
#2159=CARTESIAN_POINT('',(0.6,3.50000005960464,0.637462785177263));
#2160=CARTESIAN_POINT('',(0.6,3.50000005960464,-1.27492557035453));
#2161=CARTESIAN_POINT('Origin',(0.6,4.50000005960464,-1.27492557035453));
#2162=CARTESIAN_POINT('',(0.6,4.50000005960464,-1.27492557035453));
#2163=CARTESIAN_POINT('',(0.6,4.50000005960464,-1.27492557035453));
#2164=CARTESIAN_POINT('',(0.6,4.50000005960464,-0.637462785177263));
#2165=CARTESIAN_POINT('Origin',(0.6,4.50000005960464,-1.27492557035453));
#2166=CARTESIAN_POINT('',(0.6,4.50000005960464,1.27492557035453));
#2167=CARTESIAN_POINT('',(0.6,4.50000005960464,-0.637462785177263));
#2168=CARTESIAN_POINT('',(1.8,4.50000005960464,1.27492557035453));
#2169=CARTESIAN_POINT('',(0.6,4.50000005960464,1.27492557035453));
#2170=CARTESIAN_POINT('',(1.8,4.50000005960464,1.27492557035453));
#2171=CARTESIAN_POINT('Origin',(0.6,4.50000005960464,1.27492557035453));
#2172=CARTESIAN_POINT('',(0.6,2.25000002980232,1.27492557035453));
#2173=CARTESIAN_POINT('',(1.8,3.50000005960464,1.27492557035453));
#2174=CARTESIAN_POINT('Origin',(0.6,3.50000005960464,-1.27492557035453));
#2175=CARTESIAN_POINT('',(0.6,1.75000002980232,-1.27492557035453));
#2176=CARTESIAN_POINT('Origin',(1.8,4.00000005960464,0.));
#2177=CARTESIAN_POINT('Origin',(0.6,5.00000009685755,-1.5));
#2178=CARTESIAN_POINT('',(0.6,8.00000009685755,-1.5));
#2179=CARTESIAN_POINT('',(0.6,5.00000009685755,-1.5));
#2180=CARTESIAN_POINT('',(0.6,2.50000004842877,-1.5));
#2181=CARTESIAN_POINT('',(1.8,8.00000009685755,-1.5));
#2182=CARTESIAN_POINT('',(0.6,8.00000009685755,-1.5));
#2183=CARTESIAN_POINT('',(1.8,5.00000009685755,-1.5));
#2184=CARTESIAN_POINT('',(1.8,5.00000009685755,-1.5));
#2185=CARTESIAN_POINT('',(0.6,5.00000009685755,-1.5));
#2186=CARTESIAN_POINT('Origin',(0.6,5.00000009685755,1.5));
#2187=CARTESIAN_POINT('',(0.6,5.00000009685755,1.5));
#2188=CARTESIAN_POINT('',(0.6,5.00000009685755,0.75));
#2189=CARTESIAN_POINT('',(1.8,5.00000009685755,1.5));
#2190=CARTESIAN_POINT('',(1.8,5.00000009685755,1.5));
#2191=CARTESIAN_POINT('',(0.6,5.00000009685755,1.5));
#2192=CARTESIAN_POINT('Origin',(0.6,8.00000009685755,1.5));
#2193=CARTESIAN_POINT('',(0.6,8.00000009685755,1.5));
#2194=CARTESIAN_POINT('',(0.6,4.00000004842877,1.5));
#2195=CARTESIAN_POINT('',(1.8,8.00000009685755,1.5));
#2196=CARTESIAN_POINT('',(1.8,8.00000009685755,1.5));
#2197=CARTESIAN_POINT('',(0.6,8.00000009685755,1.5));
#2198=CARTESIAN_POINT('Origin',(0.6,8.00000009685755,-1.5));
#2199=CARTESIAN_POINT('',(0.6,8.00000009685755,-0.75));
#2200=CARTESIAN_POINT('',(1.8,8.00000009685755,-1.5));
#2201=CARTESIAN_POINT('Origin',(1.8,6.50000009685755,0.));
#2202=CARTESIAN_POINT('Origin',(1.09997564912472,-4.85,-2.12606913838036));
#2203=CARTESIAN_POINT('',(0.6,-4.85,-2.12606913838036));
#2204=CARTESIAN_POINT('',(1.09997564912472,-4.85,-2.12606913838036));
#2205=CARTESIAN_POINT('',(1.44998782456236,-4.85,-2.12606913838036));
#2206=CARTESIAN_POINT('',(0.6,-1.85,-2.12606913838036));
#2207=CARTESIAN_POINT('',(0.6,-2.425,-2.12606913838036));
#2208=CARTESIAN_POINT('',(1.09997564912472,-1.85,-2.12606913838036));
#2209=CARTESIAN_POINT('',(0.599975649124716,-1.85,-2.12606913838036));
#2210=CARTESIAN_POINT('',(1.09997564912472,-4.85,-2.12606913838036));
#2211=CARTESIAN_POINT('Origin',(1.09997564912472,-4.85,-1.62606913838036));
#2212=CARTESIAN_POINT('',(1.09997564912472,-4.85,-1.62606913838036));
#2213=CARTESIAN_POINT('',(1.09997564912472,-4.85,-2.31303458980475));
#2214=CARTESIAN_POINT('',(1.09997564912472,-1.85,-1.62606913838036));
#2215=CARTESIAN_POINT('',(1.09997564912472,-1.85,-2.12606913838036));
#2216=CARTESIAN_POINT('',(1.09997564912472,-4.85,-1.62606913838036));
#2217=CARTESIAN_POINT('Origin',(0.6,-4.85,-1.62606913838036));
#2218=CARTESIAN_POINT('',(0.6,-4.85,-1.62606913838036));
#2219=CARTESIAN_POINT('',(1.2,-4.85,-1.62606913838036));
#2220=CARTESIAN_POINT('',(0.6,-1.85,-1.62606913838036));
#2221=CARTESIAN_POINT('',(1.09997564912472,-1.85,-1.62606913838036));
#2222=CARTESIAN_POINT('',(0.6,-2.425,-1.62606913838036));
#2223=CARTESIAN_POINT('Origin',(0.849987824562358,-1.85,-1.87606913838036));
#2224=CARTESIAN_POINT('',(0.6,-1.85,-0.938034569190182));
#2225=CARTESIAN_POINT('Origin',(1.8,-4.85,-3.00000004122913));
#2226=CARTESIAN_POINT('',(0.6,-4.85,0.37578016643671));
#2227=CARTESIAN_POINT('',(0.6,-4.85,1.5));
#2228=CARTESIAN_POINT('',(1.099502452518,-4.85,0.37578016643671));
#2229=CARTESIAN_POINT('',(1.449751226259,-4.85,0.37578016643671));
#2230=CARTESIAN_POINT('',(1.099502452518,-4.85,0.87578016643671));
#2231=CARTESIAN_POINT('',(1.099502452518,-4.85,-1.06210993739621));
#2232=CARTESIAN_POINT('',(0.6,-4.85,0.87578016643671));
#2233=CARTESIAN_POINT('',(1.2,-4.85,0.87578016643671));
#2234=CARTESIAN_POINT('',(0.6,-4.85,1.62618693916923));
#2235=CARTESIAN_POINT('',(0.6,-4.85,1.5));
#2236=CARTESIAN_POINT('',(1.099502452518,-4.85,1.62618693916923));
#2237=CARTESIAN_POINT('',(1.449751226259,-4.85,1.62618693916923));
#2238=CARTESIAN_POINT('',(1.099502452518,-4.85,2.12643555910917));
#2239=CARTESIAN_POINT('',(1.099502452518,-4.85,-0.436782241059983));
#2240=CARTESIAN_POINT('',(0.6,-4.85,2.12643555910917));
#2241=CARTESIAN_POINT('',(1.2,-4.85,2.12643555910917));
#2242=CARTESIAN_POINT('',(0.6,-4.85,1.5));
#2243=CARTESIAN_POINT('',(1.4,-4.85,-2.5000000372529));
#2244=CARTESIAN_POINT('',(0.6,-4.85,1.5));
#2245=CARTESIAN_POINT('',(1.10010891418677,-4.85,-0.875433616895866));
#2246=CARTESIAN_POINT('',(1.10010891418677,-4.85,-0.375433616895866));
#2247=CARTESIAN_POINT('',(1.10010891418677,-4.85,-1.6877168290625));
#2248=CARTESIAN_POINT('',(0.600108914186769,-4.85,-0.375433616895866));
#2249=CARTESIAN_POINT('',(1.20005445709338,-4.85,-0.375433616895866));
#2250=CARTESIAN_POINT('',(0.600108914186769,-4.85,-0.875433616895866));
#2251=CARTESIAN_POINT('',(0.600108914186769,-4.85,-1.9377168290625));
#2252=CARTESIAN_POINT('',(1.45005445709338,-4.85,-0.875433616895866));
#2253=CARTESIAN_POINT('Origin',(1.099502452518,-4.85,2.12643555910917));
#2254=CARTESIAN_POINT('',(1.099502452518,-1.85,1.62618693916923));
#2255=CARTESIAN_POINT('',(1.099502452518,-4.85,1.62618693916923));
#2256=CARTESIAN_POINT('',(1.099502452518,-1.85,2.12643555910917));
#2257=CARTESIAN_POINT('',(1.099502452518,-1.85,1.62618693916923));
#2258=CARTESIAN_POINT('',(1.099502452518,-4.85,2.12643555910917));
#2259=CARTESIAN_POINT('Origin',(0.6,-4.85,2.12643555910917));
#2260=CARTESIAN_POINT('',(0.6,-1.85,2.12643555910917));
#2261=CARTESIAN_POINT('',(1.099502452518,-1.85,2.12643555910917));
#2262=CARTESIAN_POINT('',(0.6,-2.425,2.12643555910917));
#2263=CARTESIAN_POINT('Origin',(1.099502452518,-4.85,1.62618693916923));
#2264=CARTESIAN_POINT('',(0.6,-1.85,1.62618693916923));
#2265=CARTESIAN_POINT('',(0.6,-2.425,1.62618693916923));
#2266=CARTESIAN_POINT('',(0.6,-1.85,1.62618693916923));
#2267=CARTESIAN_POINT('Origin',(0.849751226258998,-1.85,1.8763112491392));
#2268=CARTESIAN_POINT('',(0.6,-1.85,0.9381556245696));
#2269=CARTESIAN_POINT('Origin',(0.6,0.,0.));
#2270=CARTESIAN_POINT('',(0.6,-0.650000000000001,3.));
#2271=CARTESIAN_POINT('',(0.6,-1.85,0.87578016643671));
#2272=CARTESIAN_POINT('',(0.6,-2.425,0.87578016643671));
#2273=CARTESIAN_POINT('',(0.6,-1.85,0.37578016643671));
#2274=CARTESIAN_POINT('',(0.6,-1.85,0.312890083218355));
#2275=CARTESIAN_POINT('',(0.6,-2.425,0.37578016643671));
#2276=CARTESIAN_POINT('',(0.6,-4.425,-3.));
#2277=CARTESIAN_POINT('',(0.6,2.85,-2.00000002235174));
#2278=CARTESIAN_POINT('Origin',(0.6,2.35,-2.00000002235174));
#2279=CARTESIAN_POINT('',(0.599999959766865,2.85,-2.49999994412065));
#2280=CARTESIAN_POINT('',(0.6,2.85,-0.750000011175871));
#2281=CARTESIAN_POINT('',(0.599999959766865,8.85,-2.49999994412065));
#2282=CARTESIAN_POINT('',(0.6,4.425,-2.49999994412065));
#2283=CARTESIAN_POINT('',(0.599999959766865,8.85,2.49999994412065));
#2284=CARTESIAN_POINT('',(0.6,8.85,-1.5));
#2285=CARTESIAN_POINT('',(0.599999959766865,2.85,2.49999994412065));
#2286=CARTESIAN_POINT('',(0.6,4.425,2.49999994412065));
#2287=CARTESIAN_POINT('',(0.6,2.85,2.00000002235174));
#2288=CARTESIAN_POINT('',(0.6,2.85,1.5));
#2289=CARTESIAN_POINT('Origin',(0.6,2.35,2.00000002235174));
#2290=CARTESIAN_POINT('Origin',(1.10010891418677,-4.85,-0.375433616895866));
#2291=CARTESIAN_POINT('',(1.10010891418677,-1.85,-0.875433616895866));
#2292=CARTESIAN_POINT('',(1.10010891418677,-4.85,-0.875433616895866));
#2293=CARTESIAN_POINT('',(1.10010891418677,-1.85,-0.375433616895866));
#2294=CARTESIAN_POINT('',(1.10010891418677,-1.85,-0.875433616895866));
#2295=CARTESIAN_POINT('',(1.10010891418677,-4.85,-0.375433616895866));
#2296=CARTESIAN_POINT('Origin',(0.600108914186769,-4.85,-0.375433616895866));
#2297=CARTESIAN_POINT('',(0.600108914186769,-1.85,-0.375433616895866));
#2298=CARTESIAN_POINT('',(1.10010891418677,-1.85,-0.375433616895866));
#2299=CARTESIAN_POINT('',(0.600108914186769,-4.85,-0.375433616895866));
#2300=CARTESIAN_POINT('Origin',(0.600108914186769,-4.85,-0.875433616895866));
#2301=CARTESIAN_POINT('',(0.600108914186769,-1.85,-0.875433616895866));
#2302=CARTESIAN_POINT('',(0.600108914186769,-1.85,-0.375433616895866));
#2303=CARTESIAN_POINT('',(0.600108914186769,-4.85,-0.875433616895866));
#2304=CARTESIAN_POINT('Origin',(1.10010891418677,-4.85,-0.875433616895866));
#2305=CARTESIAN_POINT('',(0.600108914186769,-1.85,-0.875433616895866));
#2306=CARTESIAN_POINT('Origin',(0.850108914186768,-1.85,-0.625433616895866));
#2307=CARTESIAN_POINT('Origin',(1.099502452518,-4.85,0.37578016643671));
#2308=CARTESIAN_POINT('',(1.099502452518,-1.85,0.37578016643671));
#2309=CARTESIAN_POINT('',(0.599502452517997,-1.85,0.37578016643671));
#2310=CARTESIAN_POINT('',(1.099502452518,-4.85,0.37578016643671));
#2311=CARTESIAN_POINT('Origin',(1.099502452518,-4.85,0.87578016643671));
#2312=CARTESIAN_POINT('',(1.099502452518,-1.85,0.87578016643671));
#2313=CARTESIAN_POINT('',(1.099502452518,-1.85,0.37578016643671));
#2314=CARTESIAN_POINT('',(1.099502452518,-4.85,0.87578016643671));
#2315=CARTESIAN_POINT('Origin',(0.6,-4.85,0.87578016643671));
#2316=CARTESIAN_POINT('',(1.099502452518,-1.85,0.87578016643671));
#2317=CARTESIAN_POINT('Origin',(0.849751226258998,-1.85,0.62578016643671));
#2318=CARTESIAN_POINT('Origin',(1.1,-8.85,0.375333314706882));
#2319=CARTESIAN_POINT('',(1.1,-8.85,0.375333314706882));
#2320=CARTESIAN_POINT('',(1.1,-8.1,0.375333314706882));
#2321=CARTESIAN_POINT('',(0.6,-8.85,0.375333314706882));
#2322=CARTESIAN_POINT('',(0.55,-8.85,0.375333314706882));
#2323=CARTESIAN_POINT('',(0.6,-8.1,0.375333314706882));
#2324=CARTESIAN_POINT('Origin',(1.1,-5.85,-0.375333351959785));
#2325=CARTESIAN_POINT('',(1.1,-8.85,-0.375333351959785));
#2326=CARTESIAN_POINT('',(1.1,-6.6,-0.375333351959785));
#2327=CARTESIAN_POINT('',(0.6,-8.85,-0.375333351959785));
#2328=CARTESIAN_POINT('',(0.6,-6.6,-0.375333351959785));
#2329=CARTESIAN_POINT('',(0.55,-8.85,-0.375333351959785));
#2330=CARTESIAN_POINT('Origin',(1.1,-8.85,-2.12600001862645));
#2331=CARTESIAN_POINT('',(1.1,-8.85,-2.12600001862645));
#2332=CARTESIAN_POINT('',(1.1,-8.1,-2.12600001862645));
#2333=CARTESIAN_POINT('',(0.6,-8.85,-2.12600001862645));
#2334=CARTESIAN_POINT('',(0.55,-8.85,-2.12600001862645));
#2335=CARTESIAN_POINT('',(0.6,-8.1,-2.12600001862645));
#2336=CARTESIAN_POINT('Origin',(1.1,-8.85,1.62599998137355));
#2337=CARTESIAN_POINT('',(1.1,-8.85,1.62599998137355));
#2338=CARTESIAN_POINT('',(1.1,-8.1,1.62599998137355));
#2339=CARTESIAN_POINT('',(0.6,-8.85,1.62599998137355));
#2340=CARTESIAN_POINT('',(0.55,-8.85,1.62599998137355));
#2341=CARTESIAN_POINT('',(0.6,-8.1,1.62599998137355));
#2342=CARTESIAN_POINT('Origin',(1.1,-5.85,0.875333314706882));
#2343=CARTESIAN_POINT('',(1.1,-8.85,0.875333314706882));
#2344=CARTESIAN_POINT('',(1.1,-6.6,0.875333314706882));
#2345=CARTESIAN_POINT('',(0.6,-8.85,0.875333314706882));
#2346=CARTESIAN_POINT('',(0.6,-6.6,0.875333314706882));
#2347=CARTESIAN_POINT('',(0.55,-8.85,0.875333314706882));
#2348=CARTESIAN_POINT('Origin',(1.1,-8.85,-0.875333351959784));
#2349=CARTESIAN_POINT('',(1.1,-8.85,-0.875333351959784));
#2350=CARTESIAN_POINT('',(1.1,-8.1,-0.875333351959784));
#2351=CARTESIAN_POINT('',(0.6,-8.85,-0.875333351959784));
#2352=CARTESIAN_POINT('',(0.55,-8.85,-0.875333351959784));
#2353=CARTESIAN_POINT('',(0.6,-8.1,-0.875333351959784));
#2354=CARTESIAN_POINT('Origin',(1.1,-5.85,-1.62600001862645));
#2355=CARTESIAN_POINT('',(1.1,-8.85,-1.62600001862645));
#2356=CARTESIAN_POINT('',(1.1,-6.6,-1.62600001862645));
#2357=CARTESIAN_POINT('',(0.6,-8.85,-1.62600001862645));
#2358=CARTESIAN_POINT('',(0.6,-6.6,-1.62600001862645));
#2359=CARTESIAN_POINT('',(0.55,-8.85,-1.62600001862645));
#2360=CARTESIAN_POINT('Origin',(1.1,-5.85,2.12599998137355));
#2361=CARTESIAN_POINT('',(1.1,-8.85,2.12599998137355));
#2362=CARTESIAN_POINT('',(1.1,-6.6,2.12599998137355));
#2363=CARTESIAN_POINT('',(0.6,-8.85,2.12599998137355));
#2364=CARTESIAN_POINT('',(0.6,-6.6,2.12599998137355));
#2365=CARTESIAN_POINT('',(0.55,-8.85,2.12599998137355));
#2366=CARTESIAN_POINT('Origin',(1.1,-7.35,-2.23517415687269E-8));
#2367=CARTESIAN_POINT('',(1.1,-8.85,1.49999998882413));
#2368=CARTESIAN_POINT('Origin',(1.1,-7.35,-2.23517415687269E-8));
#2369=CARTESIAN_POINT('',(1.1,-8.85,1.49999998882413));
#2370=CARTESIAN_POINT('Origin',(1.1,-7.35,-2.23517415687269E-8));
#2371=CARTESIAN_POINT('',(1.1,-8.85,1.49999998882413));
#2372=CARTESIAN_POINT('Origin',(0.,-8.85,3.));
#2373=CARTESIAN_POINT('',(0.6,-8.85,1.49999998137355));
#2374=CARTESIAN_POINT('Origin',(0.,-8.85,3.));
#2375=CARTESIAN_POINT('',(0.6,-8.85,1.49999998137355));
#2376=CARTESIAN_POINT('Origin',(0.,-8.85,3.));
#2377=CARTESIAN_POINT('',(0.6,-8.85,1.49999998137355));
#2378=CARTESIAN_POINT('Origin',(0.6,-7.35,-3.72529029846191E-8));
#2379=CARTESIAN_POINT('Origin',(0.6,-7.35,-3.72529029846191E-8));
#2380=CARTESIAN_POINT('Origin',(0.6,-7.35,-3.72529029846191E-8));
#2381=CARTESIAN_POINT('Origin',(0.6,-7.35,-3.72529029846191E-8));
#2382=CARTESIAN_POINT('',(0.6,-8.85,1.49999998137355));
#2383=CARTESIAN_POINT('Origin',(0.,-8.85,3.));
#2384=CARTESIAN_POINT('',(1.1,-8.85,1.49999998882413));
#2385=CARTESIAN_POINT('Origin',(0.,-8.85,-3.));
#2386=CARTESIAN_POINT('',(0.,-0.650000000000001,-3.));
#2387=CARTESIAN_POINT('Origin',(0.,8.85,3.));
#2388=CARTESIAN_POINT('',(0.,8.85,3.));
#2389=CARTESIAN_POINT('Origin',(1.8,2.35,2.00000002235174));
#2390=CARTESIAN_POINT('',(0.,2.85,2.00000002235174));
#2391=CARTESIAN_POINT('',(1.8,2.85,2.00000002235174));
#2392=CARTESIAN_POINT('Origin',(0.,2.35,2.00000002235174));
#2393=CARTESIAN_POINT('Origin',(1.8,2.85,3.));
#2394=CARTESIAN_POINT('',(0.,2.85,2.49999994412065));
#2395=CARTESIAN_POINT('',(1.79999995976686,2.85,2.49999994412065));
#2396=CARTESIAN_POINT('',(0.,2.85,1.5));
#2397=CARTESIAN_POINT('Origin',(0.,0.,0.));
#2398=CARTESIAN_POINT('',(0.,8.85,2.49999994412065));
#2399=CARTESIAN_POINT('',(0.,4.425,2.49999994412065));
#2400=CARTESIAN_POINT('',(0.,8.85,-2.49999994412065));
#2401=CARTESIAN_POINT('',(0.,8.85,-3.));
#2402=CARTESIAN_POINT('',(0.,2.85,-2.49999994412065));
#2403=CARTESIAN_POINT('',(0.,4.425,-2.49999994412065));
#2404=CARTESIAN_POINT('',(0.,2.85,-2.00000002235174));
#2405=CARTESIAN_POINT('',(0.,2.85,-0.750000011175871));
#2406=CARTESIAN_POINT('Origin',(0.,2.35,-2.00000002235174));
#2407=CARTESIAN_POINT('Origin',(1.8,2.35,-2.00000002235174));
#2408=CARTESIAN_POINT('',(1.8,2.85,-2.00000002235174));
#2409=CARTESIAN_POINT('Origin',(1.8,2.85,-1.50000002235174));
#2410=CARTESIAN_POINT('',(0.,2.85,-2.49999994412065));
#2411=CARTESIAN_POINT('Origin',(1.4,-5.35,-2.06145656100887E-8));
#2412=CARTESIAN_POINT('Origin',(1.1,-7.35,-2.23517415687269E-8));
#2413=CARTESIAN_POINT('Origin',(0.,8.85,2.49999994412065));
#2414=CARTESIAN_POINT('',(0.,8.85,2.49999994412065));
#2415=CARTESIAN_POINT('Origin',(1.79999995976686,8.85,-2.49999994412065));
#2416=CARTESIAN_POINT('',(0.899999979883432,8.85,-2.49999994412065));
#2417=CARTESIAN_POINT('Origin',(0.,8.85,-3.));
#2418=UNCERTAINTY_MEASURE_WITH_UNIT(LENGTH_MEASURE(0.01),#2422,
'DISTANCE_ACCURACY_VALUE',
'Maximum model space distance between geometric entities at asserted c
onnectivities');
#2419=UNCERTAINTY_MEASURE_WITH_UNIT(LENGTH_MEASURE(0.01),#2422,
'DISTANCE_ACCURACY_VALUE',
'Maximum model space distance between geometric entities at asserted c
onnectivities');
#2420=(
GEOMETRIC_REPRESENTATION_CONTEXT(3)
GLOBAL_UNCERTAINTY_ASSIGNED_CONTEXT((#2418))
GLOBAL_UNIT_ASSIGNED_CONTEXT((#2422,#2424,#2425))
REPRESENTATION_CONTEXT('','3D')
);
#2421=(
GEOMETRIC_REPRESENTATION_CONTEXT(3)
GLOBAL_UNCERTAINTY_ASSIGNED_CONTEXT((#2419))
GLOBAL_UNIT_ASSIGNED_CONTEXT((#2422,#2424,#2425))
REPRESENTATION_CONTEXT('','3D')
);
#2422=(
LENGTH_UNIT()
NAMED_UNIT(*)
SI_UNIT(.MILLI.,.METRE.)
);
#2423=(
LENGTH_UNIT()
NAMED_UNIT(*)
SI_UNIT($,.METRE.)
);
#2424=(
NAMED_UNIT(*)
PLANE_ANGLE_UNIT()
SI_UNIT($,.RADIAN.)
);
#2425=(
NAMED_UNIT(*)
SI_UNIT($,.STERADIAN.)
SOLID_ANGLE_UNIT()
);
#2426=SHAPE_DEFINITION_REPRESENTATION(#2427,#2428);
#2427=PRODUCT_DEFINITION_SHAPE('',$,#2430);
#2428=SHAPE_REPRESENTATION('',(#1528),#2420);
#2429=PRODUCT_DEFINITION_CONTEXT('part definition',#2434,'design');
#2430=PRODUCT_DEFINITION('AHT25 sensor','AHT25 sensor v1',#2431,#2429);
#2431=PRODUCT_DEFINITION_FORMATION('',$,#2436);
#2432=PRODUCT_RELATED_PRODUCT_CATEGORY('AHT25 sensor v1',
'AHT25 sensor v1',(#2436));
#2433=APPLICATION_PROTOCOL_DEFINITION('international standard',
'automotive_design',2009,#2434);
#2434=APPLICATION_CONTEXT(
'Core Data for Automotive Mechanical Design Process');
#2435=PRODUCT_CONTEXT('part definition',#2434,'mechanical');
#2436=PRODUCT('AHT25 sensor','AHT25 sensor v1',$,(#2435));
#2437=PRESENTATION_STYLE_ASSIGNMENT((#2438));
#2438=SURFACE_STYLE_USAGE(.BOTH.,#2439);
#2439=SURFACE_SIDE_STYLE('',(#2440));
#2440=SURFACE_STYLE_FILL_AREA(#2441);
#2441=FILL_AREA_STYLE('Steel - Satin',(#2442));
#2442=FILL_AREA_STYLE_COLOUR('Steel - Satin',#2443);
#2443=COLOUR_RGB('Steel - Satin',0.627450980392157,0.627450980392157,0.627450980392157);
ENDSEC;
END-ISO-10303-21;
